<svg version="1.2" baseProfile="tiny" id="Layer_1" xmlns="http://www.w3.org/2000/svg" xmlns:xlink="http://www.w3.org/1999/xlink"      x="0px" y="0px" viewBox="0 0 828 315" xml:space="preserve"><path d="M160.827,125.891h-29.28v-39.75h-66.25v64.287h64.615V180.2H65.296v63.796H91.96v29.117H6.081v-29.117h26.663V86.141H6.081 V57.024h154.746V125.891z"/><path d="M345.633,273.113h-59.38v-14.886c-8.506,7.197-16.931,12.325-25.273,15.376c-8.343,3.052-18.239,4.581-29.69,4.581 c-22.794,0-42.285-8.262-58.48-24.783s-24.292-36.34-24.292-59.461c0-23.883,8.45-44.601,25.355-62.161 c16.903-17.557,37.023-26.336,60.361-26.336c10.359,0,19.901,1.856,28.626,5.562c7.852,3.382,15.705,8.562,23.556,15.54v-17.503 h59.217v29.118h-26.664v105.837h26.664V273.113z M288.216,193.286c0-15.049-4.963-28.08-14.886-39.096 c-10.252-11.34-22.683-17.012-37.296-17.012c-15.16,0-28.327,5.316-39.504,15.949c-11.18,10.633-16.767,23.474-16.767,38.523 c0,15.814,5.452,29.39,16.358,40.731c10.903,11.344,24.154,17.013,39.75,17.013c14.939,0,27.4-5.534,37.378-16.603 C283.226,221.723,288.216,208.555,288.216,193.286z"/> <path d="M431.151,273.113h-59.216V138.16h-26.5v-29.118h26.5V57.024h32.552v52.018h26.663v29.118h-26.663v105.837h26.663V273.113z" /> <path d="M625.878,273.113h-59.38v-14.886c-8.506,7.197-16.931,12.325-25.273,15.376c-8.343,3.052-18.239,4.581-29.69,4.581 c-22.794,0-42.285-8.262-58.48-24.783s-24.292-36.34-24.292-59.461c0-23.883,8.45-44.601,25.355-62.161 c16.903-17.557,37.023-26.336,60.361-26.336c10.359,0,19.901,1.856,28.626,5.562c7.852,3.382,15.704,8.562,23.556,15.54v-17.503 h59.217v29.118h-26.664v105.837h26.664V273.113z M568.461,193.286c0-15.049-4.963-28.08-14.886-39.096 c-10.252-11.34-22.683-17.012-37.296-17.012c-15.16,0-28.327,5.316-39.504,15.949c-11.18,10.633-16.767,23.474-16.767,38.523 c0,15.814,5.452,29.39,16.358,40.731c10.903,11.344,24.154,17.013,39.75,17.013c14.939,0,27.4-5.534,37.378-16.603 C563.471,221.723,568.461,208.555,568.461,193.286z"/> <path d="M822.404,273.113h-85.88v-29.117h26.664v-64.778c0-15.377-3.6-26.827-10.797-34.352 c-6.653-6.978-16.031-10.469-28.136-10.469c-11.888,0-21.484,3.762-28.79,11.287c-7.744,8.071-11.614,19.359-11.614,33.861v64.451 h26.663v29.117h-85.88v-29.117h26.664V86.141h-26.664V57.024h59.217v62.979c6.651-5.889,12.976-10.086,18.975-12.596 c6.651-2.835,14.339-4.253,23.066-4.253c20.501,0,37.133,6.49,49.892,19.466c13.304,13.524,19.957,31.845,19.957,54.963v66.414 h26.663V273.113z"/> <rect class="fatah-line-gray" x="6.081" y="38.394" width="677.609" height="19.01" fill="#dcdcdc"/> <rect class="fatah-line" x="6.081" y="38.394" width="677.609" height="19.01"/> </svg>