<svg xmlns="http://www.w3.org/2000/svg" width="709" height="1063" viewBox="0 0 709 1063">
  <defs>
    <style>
      .cls-1 {
        fill: #fede2d;
        fill-rule: evenodd;
      }
    </style>
  </defs>
  <path id="Shape" class="cls-1" d="M-111.994,1095.88c88.174-.32,176.353-0.19,264.531-0.06C171.346,991.9,97.915,858.24,76.523,768.447c-44.22-185.612,8.223-385.6,138.827-524.189,87.83-93.2,201.233-162.364,321.524-205.043C652.838-1.93,779.123-11.113,899.566,14.866c-0.149-116.687-.274-233.383.3-350.064-37.6,1.315-75.363.628-112.928,0.881-47.287.32-94.572,0.685-141.859,0.759q-108.352.171-216.7,0.314c12.738,41.259,6.162,87.6-7.813,127.872C359.657-29.841,196.405,94.082,74.832,226.441,6.041,301.336-61.311,383.676-115.557,472.657q0.159,126.792.286,253.585,0.147,172.287.293,344.578,0.01,12.525.021,25.07C-113.969,1095.89-112.982,1095.88-111.994,1095.88Z"/>
</svg>
