<?xml version="1.0" encoding="utf-8"?>
<!-- Generator: Adobe Illustrator 24.2.0, SVG Export Plug-In . SVG Version: 6.00 Build 0)  -->
<svg version="1.1" xmlns="http://www.w3.org/2000/svg" xmlns:xlink="http://www.w3.org/1999/xlink" x="0px" y="0px"
	 viewBox="0 0 1383.1 683.1" style="enable-background:new 0 0 1383.1 683.1;" xml:space="preserve">
<style type="text/css">
	.st0{fill:#F2F2F2;}
	.st1{fill:#2F2E41;}
	.st2{opacity:0.1;enable-background:new    ;}
	.st3{fill:#FFC1C7;}
	.st4{fill:#6C63FF;}
	.st5{fill:none;stroke:#3F3D56;stroke-width:0.5;stroke-miterlimit:10;}
	.st6{fill:none;stroke:#3F3D56;stroke-miterlimit:10;}
	.st7{fill:#F1F1F1;}
	.st8{fill:#9F616A;}
	.st9{fill:#A0616A;}
	.st10{fill:none;stroke:#3F3D56;stroke-width:2;stroke-miterlimit:10;}
	.st11{fill:#3F3D56;}
	.st12{fill:#FF6584;}
	.st13{opacity:0.3;fill:#6C63FF;enable-background:new    ;}
	.st14{fill:none;stroke:#231F20;stroke-width:0.5;stroke-miterlimit:10;}
	.st15{display:none;}
	.st16{display:inline;}
	.st17{opacity:0.1;fill:#6C63FF;enable-background:new    ;}
	.st18{opacity:0.2;fill:#6C63FF;enable-background:new    ;}
	.st19{opacity:0.7;fill:#6C63FF;enable-background:new    ;}
	.st20{opacity:0.4;fill:#6C63FF;enable-background:new    ;}
	.st21{fill:#767D9F;}
	.st22{fill:#AE6E79;}
	.st23{fill:#4C4981;}
	.st24{fill:#504F60;}
	.st25{fill:#9C9CA1;}
	.st26{opacity:5.000000e-02;enable-background:new    ;}
	.st27{fill:#FFFFFF;}
	.st28{opacity:0.1;stroke:#4C4981;stroke-miterlimit:10;enable-background:new    ;}
	.st29{fill:#444053;}
	.st30{opacity:0.5;}
	.st31{fill:none;stroke:#535461;stroke-width:2;stroke-miterlimit:10;}
	.st32{opacity:0.2;fill:#F5F5F5;enable-background:new    ;}
	.st33{fill:url(#SVGID_1_);}
	.st34{fill:#535461;}
	.st35{fill:#F1F1F4;}
	.st36{fill:#E6E8EC;}
	.st37{fill:url(#SVGID_2_);}
	.st38{fill:url(#SVGID_3_);}
	.st39{fill:url(#SVGID_4_);}
	.st40{fill:#F7C4A7;}
	.st41{fill:#575988;}
	.st42{fill:#F3B5B7;}
	.st43{fill:url(#SVGID_5_);}
	.st44{fill:#DDDBE2;}
	.st45{fill:#B96B6B;}
	.st46{fill:url(#SVGID_6_);}
	.st47{fill:#4F4D59;}
	.st48{fill:#787C9C;}
	.st49{opacity:0.1;}
	.st50{fill:#714B4F;}
	.st51{fill:#E6E6F0;}
	.st52{fill:#67647E;}
	.st53{fill:#BA7855;}
	.st54{fill:url(#SVGID_7_);}
	.st55{fill:#503F43;}
	.st56{fill:url(#SVGID_8_);}
	.st57{fill:#FDC2CC;}
	.st58{fill:#47465A;}
	.st59{opacity:0.3;fill:#FFFFFF;enable-background:new    ;}
	.st60{fill:#565171;}
	.st61{fill:#F68080;}
	.st62{fill:url(#SVGID_9_);}
	.st63{opacity:5.000000e-02;}
</style>
<g id="Layer_3">
	<path class="st0" d="M782.7,376.7c-6-2.3-12.7,0.4-15.4,6.2c-0.1,0.3-0.2,0.5-0.4,0.8c-0.2,0.6-0.4,1.2-0.5,1.8
		c0.1-6.7,5.7-12.1,12.4-12c1.4,0,2.8,0.3,4.1,0.8c1,0.4,1.9,0.9,2.7,1.5c-4.8-4.7-12.5-4.6-17.2,0.2c-2.3,2.4-3.5,5.5-3.4,8.8
		c-7.3-5.2-17.3-4-23.2,2.6c-4.8,3.2-7.4,8.8-6.8,14.5c-4.2,2.7-9.6,8.4-9.6,8.4s-19.8,16-29.3,26.1c-9.4,10.1,0,13.1,0,13.1
		s9.5,0.9,17.3,0.8c-0.7,2.6-0.5,5.8,1.2,9.4c0,0-1.2,11.3-4.8,12.5c-1.3,0.4-0.3,0.7,1.5,0.9l-0.6,1.2c-0.7-0.1-1.5-0.1-2.2-0.1
		c0,0-3.7,4.1-7.9,8.9c-2.7-0.4-4.8-0.6-4.8-0.1c0.1,0.7,1.7,1.3,3.3,1.7c-5.2,5.9-10.8,12.2-11.5,13.2c-1.4,2-34.3,32.9-43.6,47.3
		c-9.3,14.5-11.4,16.8-11.4,16.8s1.8,1.8,4.6,4.4c-3,8-10.2,26.2-16.3,33.9c0.2-0.7-3.1-0.4-6.6,3.2c0,0-0.3,0.2-0.9,0.5
		c-3.1,1.6-13.3,6.6-18.1,5.3c-5.6-1.5-8.5,5.8-5.8,7.1c2.9,1.4,7.3,5.3,14.6,5.6c3.1,0,6.2-0.3,9.3-1.1c4-0.9,7.5-1.9,9-1.3
		c2.7,1,13.6,0.2,11.7-3c-1.9-3.2,0.4-9.2,0.4-9.2s-0.8,0.1-1.9,0.1c2.7-7.3,13.4-20.6,19.5-27.8c1.6,1.3,3.1,2.6,4.6,3.8
		c10.5,8.4,15.9,10.4,15.9,10.4s-0.2-7.5,8.5-17.3c2.7-3,6.7-8.2,10.9-14c2.8,14.5,7.2,33.6,10.7,35.4c1.2,0.5,2.4,0.8,3.7,0.8
		c2.3,5.7,5.9,15.3,8.6,23.8h15c-3.3-8.5-6.4-18.3-6.6-25.6c2.9-0.6,4.9-1,4.9-1c3.9-10.3-3-40.9-6-50.8c-3.1-9.9,1.8-16.1,1.8-16.1
		c7.5-14.2,7.1-21.6,6.1-25c0.6-1.6,1.2-3.3,1.7-5c0.5-1.9,1-3.5,1.5-5c10.3,0.2,20.8,0.2,22.2-0.2c1-0.3,1.9-1.3,2.8-2.6
		c1.8-2.7,2.8-5.8,2.9-9c0.3-6.6,0.6-20.8-0.6-32.5c3.5-9.1,5.4-19.8,0-26.1c0,0-0.7-0.4-1.8-1c-0.1-2.3,0-4.7,0.3-7
		c1.3-0.3,2.5-0.8,3.6-1.3c0.2-0.1,0.5-0.3,0.7-0.4c0.5-0.3,1-0.6,1.4-0.9c2.8-2,5-4.8,6.3-8c0.1-0.3,0.2-0.6,0.3-0.9
		c0-0.1,0.1-0.2,0.1-0.3c0.1-0.2,0.1-0.4,0.2-0.6c0-0.1,0.1-0.2,0.1-0.4c0-0.2,0.1-0.4,0.1-0.5c0-0.1,0-0.2,0.1-0.4
		c0-0.2,0.1-0.3,0.1-0.5c0-0.1,0-0.3,0.1-0.4c0-0.2,0-0.3,0.1-0.5c0-0.1,0-0.3,0-0.4c0-0.2,0-0.3,0-0.5c0-0.1,0-0.3,0-0.4
		c0-0.2,0-0.3,0-0.5c0-0.1,0-0.3,0-0.4v0c0.1,0,0.1,0.1,0.2,0.1c1.1,3.9,4.1,6.9,8,8.2c-3-1.5-5.3-4.2-6.2-7.4
		c0.8,0.3,1.6,0.5,2.5,0.6c2.9,3.5,7.5,5.1,11.9,4.2c-3.7,0.2-7.3-1.3-9.8-4.1c0.8,0,1.5-0.1,2.3-0.3c0.8-0.2,1.5-0.4,2.2-0.7
		c1.4-0.6,2.7-1.6,3.8-2.7c0.6-0.6,1.1-1.2,1.5-1.9c0.4-0.7,0.8-1.4,1.1-2.2c0.1-0.3,0.2-0.6,0.3-0.8
		C791.9,385.5,788.7,379,782.7,376.7L782.7,376.7z M620.3,600.9c0.1-0.1,0.2-0.2,0.3-0.3C620.5,600.7,620.4,600.8,620.3,600.9
		L620.3,600.9z M736.4,430.9c-7.7,2.2-21.7,6-26.6,7c4-8.6,18.6-20.8,18.6-20.8s5.9-3.1,9.3-7.8c1.2,1.8,2.9,3.3,4.7,4.5
		c0,1.8,0,3.7-0.1,5.4c-0.8-0.1-1.2-0.1-1.2,0.3c0.1,1.3,0.6,8.3-2.4,9.6C737.9,429.6,737.1,430.2,736.4,430.9L736.4,430.9z
		 M741.9,482.6c-0.8,0-1.8,0.1-3.1,0.1c2-2.9,5.4-7.8,8.3-11.5c0.3,4.8,0.4,7.9,0.4,7.9S748.1,482.5,741.9,482.6L741.9,482.6z"/>
	<circle class="st1" cx="649.8" cy="360.3" r="17.4"/>
	<path class="st2" d="M661.5,347.4c6.5,7.1,6,18.1-1.2,24.6c-6.6,6-16.8,6-23.4,0c6.5,7.1,17.5,7.6,24.6,1.2s7.6-17.5,1.2-24.6
		C662.3,348.1,661.9,347.8,661.5,347.4z"/>
	<circle class="st1" cx="667.8" cy="341.7" r="12.2"/>
	<path class="st2" d="M667.8,352.1c-6.4,0-11.7-4.9-12.2-11.3c0,0.3,0,0.6,0,0.9c0,6.7,5.5,12.2,12.2,12.2c6.7,0,12.2-5.5,12.2-12.2
		c0-0.3,0-0.6,0-0.9C679.5,347.2,674.2,352.1,667.8,352.1z"/>
	<path class="st1" d="M655,339.4c0-6.7,5.4-12.2,12.1-12.2c1.1,0,2.1,0.1,3.1,0.4c-6.2-2.7-13.4,0.2-16,6.4s0.2,13.4,6.4,16
		c0.6,0.2,1.2,0.4,1.8,0.6C658,348.7,655,344.2,655,339.4z"/>
	<path class="st1" d="M666.1,350.1c-2.1-6.4,1.5-13.2,7.8-15.3c1-0.3,2.1-0.5,3.1-0.6c-6.7-0.6-12.7,4.3-13.3,11s4.3,12.7,11,13.3
		c0.6,0.1,1.2,0.1,1.9,0C671.6,358.1,667.5,354.7,666.1,350.1z"/>
	<path class="st1" d="M670,351c-4.9-4.5-5.3-12.2-0.7-17.2c0.7-0.8,1.5-1.5,2.4-2c-6.1,2.7-8.9,9.9-6.2,16.1
		c2.7,6.1,9.9,8.9,16.1,6.2c0.6-0.3,1.1-0.5,1.6-0.9C678.8,355.2,673.6,354.4,670,351z"/>
	<path class="st3" d="M664,385c0,0-18.6,12.8-17.4,7c0.7-3.3-1.8-10.2-4.1-15.6c-1.8-4.2-3.4-7.6-3.4-7.6l20.3-5.2
		c-0.4,3.1-0.4,6.2,0.1,9.3C660.1,377.1,661.6,381.3,664,385z"/>
	<polygon class="st3" points="636.2,439.5 635,449.4 651.3,447.7 654.2,437.2 	"/>
	<path class="st3" d="M616.4,424.4l-3.5,4.1c0,0-9.9,0.6-4.6-12.2c5.2-12.8,18-34.8,18-34.8s8.1-19.7,11-12.2s-5.8,17.4-5.8,17.4
		s-11,19.7-9.9,28.5L616.4,424.4z"/>
	<path class="st2" d="M616.4,424.4l-3.5,4.1c0,0-9.9,0.6-4.6-12.2c5.2-12.8,18-34.8,18-34.8s8.1-19.7,11-12.2s-5.8,17.4-5.8,17.4
		s-11,19.7-9.9,28.5L616.4,424.4z"/>
	<path class="st3" d="M672.2,560.3c0,0,26.1,27.9,29,36c2.9,8.1-4.6,20.9-7.5,21.5s-3.5,4.1,0,4.6c3.5,0.6,15.1-4.6,18.6-10.5
		c3.5-5.8,5.8-9.9,7.5-11c1.7-1.2,2.9-6.4,0-9.3c-2.9-2.9-26.7-25-29.6-38.3L672.2,560.3z"/>
	<path class="st1" d="M716.3,589.4c0,0-1.2,11.6-11.6,6.4c0,0-4.6-5.2-4.6,1.2c0,6.4-2.3,17.4-9.9,21.5c-7.5,4.1,5.2,5.8,7,5.2
		c1.7-0.6,13.4-4.6,15.1-8.1c1.7-3.5,8.1-11.6,10.5-14.5C725,598.1,722.1,588.2,716.3,589.4z"/>
	<path class="st1" d="M668.1,465.7c0,0,8.1,3.5,5.2,27.3c0,0-2.3,7.5,4.1,15.7c6.4,8.1,18,34.3,18,45.3c0,0-16.8,11.6-23.2,11
		c-6.4-0.6-25.6-43.6-25.6-43.6L668.1,465.7z"/>
	<path class="st2" d="M668.1,465.7c0,0,8.1,3.5,5.2,27.3c0,0-2.3,7.5,4.1,15.7c6.4,8.1,23.8,34.3,23.8,45.3c0,0-16.8,11.6-23.2,11
		c-6.4-0.6-31.4-43.6-31.4-43.6L668.1,465.7z"/>
	<path class="st3" d="M599.6,554.5c0,0,1.2,41.8-5.8,46.5c0,0-9.3,13.4-15.1,13.4c-5.8,0-5.2,4.6-2.3,5.2c2.9,0.6,3.5,2.3,15.1-2.3
		c11.6-4.6,17.4-5.8,19.2-5.8c1.7,0,3.5-2.3,0-9.3c-3.5-7,9.9-42.4,9.9-42.4L599.6,554.5z"/>
	<path class="st1" d="M611.8,598.1c0,0-5.8,2.9-9.9,3.5c-4.1,0.6-6.4-3.5-5.5-5c0.9-1.4-2.6-0.3-5,5c0,0-9.9,11.6-15.7,12.2
		c-5.8,0.6-5.9,8.4-2.9,8.7c3.2,0.3,8.7,2.3,15.7,0s13.4-8.7,16.3-8.7s12.8-4.6,9.9-7S611.8,598.1,611.8,598.1z"/>
	<path class="st3" d="M648.4,393.4c0,0-24.4,18.2-27.9,20c-3.5,1.7-7.5,15.1-7.5,15.1s20.9-5.8,24.4-9.9S648.4,393.4,648.4,393.4z"
		/>
	<path class="st2" d="M648.4,393.4c0,0-24.4,18.2-27.9,20c-3.5,1.7-7.5,15.1-7.5,15.1s20.9-5.8,24.4-9.9S648.4,393.4,648.4,393.4z"
		/>
	<circle class="st3" cx="646.3" cy="363.2" r="15.7"/>
	<path class="st1" d="M633.3,447.1c0,0-10.5,27.3-11,29.6s-20.3,43-23.8,59.8c-3.5,16.8-4.6,19.7-4.6,19.7s17.4,7.5,30.2,11.6
		c12.8,4.1,18.6,4.1,18.6,4.1s-2.9-7,1.7-19.2s13.9-51.1,13.9-51.1s7.4-22.9,5.8-39.5c-0.5-4.3-0.5-8.6-0.1-12.8
		c0.3-2.8-1.6-5.3-4.4-5.6c-0.3,0-0.6,0-0.9,0C650,444.3,636,445.5,633.3,447.1z"/>
	<path class="st4" d="M664,381.5c0,0-7.5-1.2-11,0.6c-3.5,1.7-9.3,1.2-8.7,2.3s3.5,7.5,1.2,9.9s-4.6,12.8-9.3,15.7
		c-4.6,2.9-11.6,12.8-2.3,21.5c0,0,2.9,11,0,13.4c-2.9,2.3,9.3-2.3,9.3-2.3c2.7,0.6,5.2,1.5,7.5,2.9c4.1,2.3,13.4,1.7,13.4,1.7
		s4.1-18,6.4-22.1C672.8,421,678,389,664,381.5z"/>
	<path class="st3" d="M660,390.8c0,0-13.4,2.3-4.6,15.7c8.7,13.4,16.3,31.4,16.3,31.4s1.7,2.9-4.1,5.2c-5.8,2.3-28.5,13.4-28.5,13.4
		s-15.1,2.3-14.5,3.5c0.6,1.2,6.4,0,6.4,0s1.7,11,8.7,11s10.5-7,10.5-7s31.9-13.4,34.3-15.1c0.8-0.6,1.3-1.9,1.7-3.4
		c0.7-3.1,0.5-6.4-0.5-9.5C681.6,424.4,668.7,388.8,660,390.8z"/>
	<path class="st1" d="M658,352.1c-2.9-6.4-10.5-9.3-16.9-6.4c-6.4,2.9-9.3,10.5-6.4,16.9c1.3,2.8,3.6,5.1,6.4,6.4
		c2.9,6.4,10.5,9.3,16.9,6.4c6.4-2.9,9.3-10.5,6.4-16.9C663.1,355.7,660.8,353.4,658,352.1L658,352.1z"/>
	<ellipse class="st3" cx="642" cy="368.7" rx="1.5" ry="3.8"/>
	<circle class="st4" cx="577.5" cy="264.2" r="12.8"/>
	<rect x="406.2" y="412.8" class="st4" width="18.6" height="18.6"/>
	<path class="st0" d="M485.2,324.6H599c5.1,0,9.3,4.2,9.3,9.3v58.6c0,5.1-4.2,9.3-9.3,9.3H485.2c-5.1,0-9.3-4.2-9.3-9.3v-58.6
		C475.9,328.7,480.1,324.6,485.2,324.6z"/>
	<path class="st5" d="M469.1,311.5h115.3c4.7,0,8.5,3.8,8.5,8.5v60.2c0,4.7-3.8,8.5-8.5,8.5H469.1c-4.7,0-8.5-3.8-8.5-8.5V320
		C460.6,315.3,464.4,311.5,469.1,311.5z"/>
	<circle class="st6" cx="582.7" cy="258.9" r="12.8"/>
	<rect x="409.1" y="409.3" class="st6" width="18.6" height="18.6"/>
	<rect x="384" y="305.8" class="st4" width="18.6" height="18.6"/>
	<rect x="386.9" y="302.3" class="st6" width="18.6" height="18.6"/>
	<line class="st6" x1="539.5" y1="623.3" x2="779.3" y2="623.3"/>
</g>
<g id="effd0595-b14c-4c7e-b56f-e463e9379f7d">
	<ellipse class="st0" cx="148.3" cy="449.4" rx="93.9" ry="23.3"/>
	<circle class="st7" cx="392" cy="72.4" r="5.6"/>
	<circle class="st7" cx="343.7" cy="277" r="5.6"/>
	<circle class="st7" cx="219" cy="126.5" r="5.6"/>
	<path class="st4" d="M189.3,337.7l22.8-7.1c-1.3-9.5-4.1-18.7-8.5-27.2l-22.8,7.1C186.2,318.6,189.1,328,189.3,337.7z"/>
	<circle class="st1" cx="134.5" cy="145.3" r="21.3"/>
	<polygon class="st8" points="111.5,412.1 107.5,429.4 117.3,429.4 121.4,409.8 	"/>
	<polygon class="st8" points="159,412.1 159,428.3 168.8,429.4 168.8,412.1 	"/>
	<path class="st8" d="M108.7,228.1c0,0,1.2,24.9,2.3,26.6c1.2,1.7,11.6,26.6,11.6,26.6l5.2-16.2c0,0-8.1-13.3-6.9-20.8
		c1.2-7.5,0.4-16.8,0.4-16.8L108.7,228.1z"/>
	<circle class="st8" cx="141.6" cy="151.8" r="16.2"/>
	<path class="st8" d="M128.3,153.5c0,0,0.6,23.1-3.5,26.6c-4,3.5,23.1,0.6,23.1,0.6s-5.8-16.2-1.2-19.7
		C151.5,157.5,128.3,153.5,128.3,153.5z"/>
	<path class="st1" d="M149.7,179.5c0,0-3.5-6.4-8.1-5.8s-19.7,1.7-20.2,2.9c-0.6,1.2-2.3,5.2-3.5,6.4c-1.2,1.2-9.8,2.9-10.4,9.8
		c-0.6,6.9,20.8,49.2,20.8,49.2s-2.9,9.8-2.3,12.1s-2.9,9.3-2.3,12.1c0.6,2.9-8.7,20.2-4,42.8v36.4c0,0-15.6,63.1-11,67.7
		c4.6,4.6,20.2,1.7,23.1,0s15-89.1,15-89.1l5.8-29.5l0.6,64.8c0,0-1.2,54.4,2.9,56.1c4,1.7,19.7,2.3,20.8-1.2
		c0.9-2.7,5.3-74.7,7.2-106.3c0.7-10.9-0.2-21.8-2.5-32.5c-2.4-10.9-5.9-23.8-9.9-29c-7.5-9.8-12.1-41.1-12.1-41.1l9.8-17.9
		c0,0-5.8-5.8-9.3-5.8S149.7,179.5,149.7,179.5z"/>
	<path class="st1" d="M111,188.8l-3.1,2.1c0,0-2.2,37.3-0.4,39.6c1.7,2.3,13.8,1.2,14.7-0.9S111,188.8,111,188.8z"/>
	<path class="st8" d="M158.4,223.5c0,0,0.6,24.3,4,31.2c3.5,6.9,16.2,35.9,16.2,35.9s-0.7,31.8,5.7,24c6.4-7.8,2.4-26.3,2.4-26.3
		l-11-42.8c0,0-5.8-19.1-5.2-24.9C171.1,214.8,158.4,223.5,158.4,223.5z"/>
	<path class="st1" d="M168.8,418.9c0,0,0.6-0.5,2.3,1.3c1.7,1.7,6.4,4,5.8,10.4c-0.6,6.4-4,7.5-4,7.5v-1.7h-1.7v2.9
		c0,0-2.9,9.3-16.2,3.5c0,0-0.6-4.6,0-7.5c0.6-2.9,0.6-16.8,2.3-16.2c1.7,0.6,6.4,1.2,7.5,3.5C165.9,424.8,169.4,424,168.8,418.9z"
		/>
	<path class="st1" d="M109.2,419.5c0,0-0.6-0.5-2.3,1.3s-6.4,4-5.8,10.4c0.6,6.4,4,7.5,4,7.5V437h1.7v2.9c0,0,2.9,9.3,16.2,3.5
		c0,0,0.6-4.6,0-7.5c-0.6-2.9-0.6-16.8-2.3-16.2s-6.4,1.2-7.5,3.5C112.1,425.4,108.7,424.6,109.2,419.5z"/>
	<path class="st1" d="M161.3,185.9l8.1,1.7c0,0,0,12.7,2.3,17.9c2.3,5.2,6.4,17.4,4.6,17.9s-17.9,8.7-19.1,4
		S153.2,185.9,161.3,185.9z"/>
	<circle class="st1" cx="111.5" cy="117.3" r="21.3"/>
	<path class="st1" d="M93.1,134.9c9.5,6.9,22.8,4.7,29.7-4.8c1.4-1.9,2.5-4.1,3.1-6.4c-1.5,11.7-12.1,19.9-23.8,18.5
		c-11.7-1.5-19.9-12.1-18.5-23.8c0.1-1.2,0.4-2.3,0.7-3.4C83.5,122.7,86.8,130.4,93.1,134.9z"/>
	<circle class="st1" cx="128.8" cy="148.9" r="15.6"/>
	<ellipse class="st1" cx="142" cy="143" rx="13.8" ry="10.8"/>
	<ellipse class="st9" cx="145.7" cy="154.1" rx="2.6" ry="4.6"/>
	
		<rect x="253.9" y="67.6" transform="matrix(0.2876 -0.9578 0.9578 0.2876 76.8659 442.1069)" class="st7" width="163.5" height="203.5"/>
	<line class="st10" x1="339.8" y1="107.6" x2="386" y2="126.3"/>
	<polygon class="st11" points="341,111.5 341.6,111.1 340.1,107.7 343.6,106.4 343.3,105.7 339,107.3 	"/>
	<polygon class="st11" points="382.4,128.2 382.2,127.5 385.7,126.2 384.1,122.8 384.8,122.5 386.7,126.6 	"/>
	<circle class="st11" cx="362.9" cy="117" r="4.2"/>
	<line class="st10" x1="336.3" y1="237" x2="378.8" y2="211.1"/>
	<polygon class="st11" points="340,238.4 340.2,237.6 336.5,236.9 337.5,233.3 336.8,233.1 335.6,237.5 	"/>
	<polygon class="st11" points="378.3,215.1 377.5,214.9 378.6,211.3 374.9,210.5 375,209.8 379.5,210.7 	"/>
	<circle class="st11" cx="357.5" cy="224.1" r="4.2"/>
	<line class="st10" x1="282.8" y1="155" x2="282.8" y2="204.8"/>
	<polygon class="st11" points="279.7,157.5 280.3,158 282.8,155.3 285.4,158 285.9,157.5 282.8,154.1 	"/>
	<polygon class="st11" points="279.7,202.2 280.3,201.7 282.8,204.5 285.4,201.7 285.9,202.2 282.8,205.6 	"/>
	<circle class="st11" cx="282.8" cy="179.9" r="4.2"/>
	<rect x="247.5" y="53.5" class="st11" width="69.4" height="86.1"/>
	<path class="st12" d="M277.8,85.6h-15.7c-1.1-6.2-1.1-12.6,0-18.8h15.7C276.1,73,276.1,79.5,277.8,85.6z"/>
	<path class="st4" d="M286.5,95.1h15.7c1.1-6.2,1.1-12.6,0-18.8h-15.7C288.3,82.5,288.3,89,286.5,95.1z"/>
	<path class="st4" d="M271.6,126.4h15.7c1.1-6.2,1.1-12.6,0-18.8h-15.7C273.4,113.8,273.4,120.3,271.6,126.4z"/>
	<rect x="391.9" y="135.5" class="st11" width="69.4" height="86.1"/>
	<rect x="401.9" y="153.8" class="st4" width="49.6" height="2.3"/>
	<rect x="401.9" y="161.8" class="st4" width="49.6" height="2.3"/>
	<rect x="401.9" y="169.8" class="st4" width="49.6" height="2.3"/>
	<rect x="401.9" y="177.8" class="st4" width="49.6" height="2.3"/>
	<rect x="401.9" y="185.8" class="st4" width="49.6" height="2.3"/>
	<rect x="413.7" y="194.2" class="st4" width="25.9" height="9.1"/>
	<rect x="253.6" y="223.9" class="st11" width="69.4" height="86.1"/>
	<rect x="263.6" y="271.9" class="st4" width="49.6" height="2.3"/>
	<rect x="263.6" y="279.9" class="st4" width="49.6" height="2.3"/>
	<rect x="263.6" y="287.9" class="st4" width="49.6" height="2.3"/>
	<rect x="263.6" y="295.9" class="st4" width="49.6" height="2.3"/>
	<path class="st13" d="M278.8,254.6H263c-1.1-6.2-1.1-12.6,0-18.8h15.7C277,242,277,248.5,278.8,254.6z"/>
	<rect x="285.3" y="237.6" class="st13" width="29" height="1.9"/>
	<rect x="285.3" y="244.4" class="st13" width="29" height="1.9"/>
	<rect x="285.3" y="251.3" class="st13" width="29" height="1.9"/>
	<rect x="285.3" y="258.2" class="st13" width="29" height="1.9"/>
	<ellipse class="st14" cx="136.2" cy="432.3" rx="93.9" ry="23.3"/>
</g>
<g id="Layer_2" class="st15">
	<g class="st16">
		<path class="st17" d="M1543.7,400.2c0,9.3-1.3,18.6-3.8,27.6c-2.4,8.6-6,16.9-10.7,24.6c0,27.8-18.8,51.9-46.1,63.3
			c-11.4,4.7-23.6,7.2-36,7.1h-418.4c-22.4,0-43.1-6-60.1-16.3c-4.9-2.9-9.5-6.3-13.8-9.9c-18.9-16.2-30.6-38.7-30.6-63.5
			c-10.6-16.3-16.2-35.4-16.2-54.9c0-40.8,24.1-75.8,58.6-91.3c4.6-2.1,9.3-3.7,14.2-5.1c1.7-0.5,3.4-0.9,5.2-1.3
			c4.7-1,9.4-1.6,14.2-1.9c1.7-0.1,3.5-0.2,5.2-0.2h1c1.9,0,3.8,0.1,5.7,0.2l0.6-1.1c0.8-1.3,1.5-2.5,2.3-3.8c1.4-2.3,3-4.5,4.5-6.7
			c1.7-2.3,3.4-4.6,5.2-6.9l0.5-0.6c1-1.3,2.1-2.5,3.1-3.8c3.3-3.9,6.9-7.7,10.6-11.3c40.1-39.3,102.8-64.6,173.4-64.6
			c54.9,0,105.1,15.3,143.5,40.6c14.6-8.2,31-12.6,47.8-12.6c54.3,0,98.3,44.7,98.3,99.7c0,3.5-0.2,7-0.6,10.4
			C1528.1,337,1543.8,367.6,1543.7,400.2z"/>
		<path class="st18" d="M1039,244.5v11.3h-10.6C1031.8,252,1035.3,248.2,1039,244.5z"/>
		<rect x="1044.2" y="241.7" class="st18" width="14.2" height="14.2"/>
		<rect x="1063.6" y="241.7" class="st18" width="14.2" height="14.2"/>
		<rect x="1083" y="241.7" class="st18" width="14.2" height="14.2"/>
		<rect x="1102.3" y="241.7" class="st18" width="14.2" height="14.2"/>
		<rect x="1121.7" y="241.7" class="st18" width="14.2" height="14.2"/>
		<rect x="1141.1" y="241.7" class="st4" width="14.2" height="14.2"/>
		<rect x="1160.5" y="241.7" class="st18" width="14.2" height="14.2"/>
		<rect x="1179.8" y="241.7" class="st18" width="14.2" height="14.2"/>
		<rect x="1199.2" y="241.7" class="st18" width="14.2" height="14.2"/>
		<rect x="1218.6" y="241.7" class="st4" width="14.2" height="14.2"/>
		<rect x="1238" y="241.7" class="st18" width="14.2" height="14.2"/>
		<rect x="1257.3" y="241.7" class="st18" width="14.2" height="14.2"/>
		<rect x="1276.7" y="241.7" class="st18" width="14.2" height="14.2"/>
		<rect x="1296.1" y="241.7" class="st18" width="14.2" height="14.2"/>
		<rect x="1315.5" y="241.7" class="st18" width="14.2" height="14.2"/>
		<rect x="1334.8" y="241.7" class="st18" width="14.2" height="14.2"/>
		<rect x="1354.2" y="241.7" class="st4" width="14.2" height="14.2"/>
		<rect x="1373.6" y="241.7" class="st4" width="14.2" height="14.2"/>
		<rect x="1392.9" y="241.7" class="st18" width="14.2" height="14.2"/>
		<rect x="1412.3" y="241.7" class="st18" width="14.2" height="14.2"/>
		<rect x="1431.7" y="241.7" class="st4" width="14.2" height="14.2"/>
		<rect x="1451.1" y="241.7" class="st4" width="14.2" height="14.2"/>
		<path class="st4" d="M1019.7,267.1v6.7h-4.5C1016.6,271.5,1018.1,269.3,1019.7,267.1z"/>
		<rect x="1024.9" y="259.6" class="st18" width="14.2" height="14.2"/>
		<rect x="1044.2" y="259.6" class="st4" width="14.2" height="14.2"/>
		<rect x="1063.6" y="259.6" class="st18" width="14.2" height="14.2"/>
		<rect x="1083" y="259.6" class="st19" width="14.2" height="14.2"/>
		<rect x="1102.3" y="259.6" class="st18" width="14.2" height="14.2"/>
		<rect x="1121.7" y="259.6" class="st20" width="14.2" height="14.2"/>
		<rect x="1141.1" y="259.6" class="st4" width="14.2" height="14.2"/>
		<rect x="1160.5" y="259.6" class="st20" width="14.2" height="14.2"/>
		<rect x="1179.8" y="259.6" class="st18" width="14.2" height="14.2"/>
		<rect x="1199.2" y="259.6" class="st20" width="14.2" height="14.2"/>
		<rect x="1218.6" y="259.6" class="st4" width="14.2" height="14.2"/>
		<rect x="1238" y="259.6" class="st20" width="14.2" height="14.2"/>
		<rect x="1257.3" y="259.6" class="st20" width="14.2" height="14.2"/>
		<rect x="1276.7" y="259.6" class="st18" width="14.2" height="14.2"/>
		<rect x="1296.1" y="259.6" class="st20" width="14.2" height="14.2"/>
		<rect x="1315.5" y="259.6" class="st20" width="14.2" height="14.2"/>
		<rect x="1334.8" y="259.6" class="st18" width="14.2" height="14.2"/>
		<rect x="1354.2" y="259.6" class="st18" width="14.2" height="14.2"/>
		<rect x="1373.6" y="259.6" class="st20" width="14.2" height="14.2"/>
		<rect x="1392.9" y="259.6" class="st18" width="14.2" height="14.2"/>
		<rect x="1412.3" y="259.6" class="st4" width="14.2" height="14.2"/>
		<rect x="1431.7" y="259.6" class="st4" width="14.2" height="14.2"/>
		<rect x="1451.1" y="259.6" class="st4" width="14.2" height="14.2"/>
		<path class="st18" d="M980.9,281.9v9.9h-14.2v-4.8C971.3,284.9,976.1,283.2,980.9,281.9z"/>
		<polygon class="st18" points="1000.3,278.7 1000.3,291.8 986.1,291.8 986.1,280.6 		"/>
		<rect x="1005.5" y="277.6" class="st4" width="14.2" height="14.2"/>
		<rect x="1024.9" y="277.6" class="st19" width="14.2" height="14.2"/>
		<rect x="1044.2" y="277.6" class="st4" width="14.2" height="14.2"/>
		<rect x="1063.6" y="277.6" class="st19" width="14.2" height="14.2"/>
		<rect x="1083" y="277.6" class="st19" width="14.2" height="14.2"/>
		<rect x="1102.3" y="277.6" class="st18" width="14.2" height="14.2"/>
		<rect x="1121.7" y="277.6" class="st20" width="14.2" height="14.2"/>
		<rect x="1141.1" y="277.6" class="st20" width="14.2" height="14.2"/>
		<rect x="1160.5" y="277.6" class="st4" width="14.2" height="14.2"/>
		<rect x="1179.8" y="277.6" class="st18" width="14.2" height="14.2"/>
		<rect x="1199.2" y="277.6" class="st20" width="14.2" height="14.2"/>
		<rect x="1218.6" y="277.6" class="st4" width="14.2" height="14.2"/>
		<rect x="1238" y="277.6" class="st18" width="14.2" height="14.2"/>
		<rect x="1257.3" y="277.6" class="st20" width="14.2" height="14.2"/>
		<rect x="1276.7" y="277.6" class="st18" width="14.2" height="14.2"/>
		<rect x="1296.1" y="277.6" class="st4" width="14.2" height="14.2"/>
		<rect x="1315.5" y="277.6" class="st18" width="14.2" height="14.2"/>
		<rect x="1334.8" y="277.6" class="st19" width="14.2" height="14.2"/>
		<rect x="1354.2" y="277.6" class="st19" width="14.2" height="14.2"/>
		<rect x="1373.6" y="277.6" class="st20" width="14.2" height="14.2"/>
		<rect x="1392.9" y="277.6" class="st18" width="14.2" height="14.2"/>
		<rect x="1412.3" y="277.6" class="st4" width="14.2" height="14.2"/>
		<rect x="1431.7" y="277.6" class="st4" width="14.2" height="14.2"/>
		<rect x="1451.1" y="277.6" class="st4" width="14.2" height="14.2"/>
		<rect x="966.7" y="295.5" class="st18" width="14.2" height="14.2"/>
		<rect x="986.1" y="295.5" class="st18" width="14.2" height="14.2"/>
		<rect x="1005.5" y="295.5" class="st18" width="14.2" height="14.2"/>
		<rect x="1024.9" y="295.5" class="st18" width="14.2" height="14.2"/>
		<rect x="1044.2" y="295.5" class="st4" width="14.2" height="14.2"/>
		<rect x="1063.6" y="295.5" class="st19" width="14.2" height="14.2"/>
		<rect x="1083" y="295.5" class="st19" width="14.2" height="14.2"/>
		<rect x="1102.3" y="295.5" class="st18" width="14.2" height="14.2"/>
		<rect x="1121.7" y="295.5" class="st18" width="14.2" height="14.2"/>
		<rect x="1141.1" y="295.5" class="st20" width="14.2" height="14.2"/>
		<rect x="1160.5" y="295.5" class="st20" width="14.2" height="14.2"/>
		<rect x="1179.8" y="295.5" class="st4" width="14.2" height="14.2"/>
		<rect x="1199.2" y="295.5" class="st18" width="14.2" height="14.2"/>
		<rect x="1218.6" y="295.5" class="st20" width="14.2" height="14.2"/>
		<rect x="1238" y="295.5" class="st20" width="14.2" height="14.2"/>
		<rect x="1257.3" y="295.5" class="st20" width="14.2" height="14.2"/>
		<rect x="1276.7" y="295.5" class="st20" width="14.2" height="14.2"/>
		<rect x="1296.1" y="295.5" class="st18" width="14.2" height="14.2"/>
		<rect x="1315.5" y="295.5" class="st18" width="14.2" height="14.2"/>
		<rect x="1334.8" y="295.5" class="st18" width="14.2" height="14.2"/>
		<rect x="1354.2" y="295.5" class="st18" width="14.2" height="14.2"/>
		<rect x="1373.6" y="295.5" class="st19" width="14.2" height="14.2"/>
		<rect x="1392.9" y="295.5" class="st19" width="14.2" height="14.2"/>
		<rect x="1412.3" y="295.5" class="st20" width="14.2" height="14.2"/>
		<rect x="1431.7" y="295.5" class="st18" width="14.2" height="14.2"/>
		<rect x="1451.1" y="295.5" class="st4" width="14.2" height="14.2"/>
		<rect x="966.7" y="313.5" class="st18" width="14.2" height="14.2"/>
		<rect x="986.1" y="313.5" class="st18" width="14.2" height="14.2"/>
		<rect x="1005.5" y="313.5" class="st20" width="14.2" height="14.2"/>
		<rect x="1024.9" y="313.5" class="st18" width="14.2" height="14.2"/>
		<rect x="1044.2" y="313.5" class="st18" width="14.2" height="14.2"/>
		<rect x="1063.6" y="313.5" class="st19" width="14.2" height="14.2"/>
		<rect x="1083" y="313.5" class="st19" width="14.2" height="14.2"/>
		<rect x="1102.3" y="313.5" class="st18" width="14.2" height="14.2"/>
		<rect x="1121.7" y="313.5" class="st18" width="14.2" height="14.2"/>
		<rect x="1141.1" y="313.5" class="st20" width="14.2" height="14.2"/>
		<rect x="1160.5" y="313.5" class="st4" width="14.2" height="14.2"/>
		<rect x="1179.8" y="313.5" class="st18" width="14.2" height="14.2"/>
		<rect x="1199.2" y="313.5" class="st4" width="14.2" height="14.2"/>
		<rect x="1218.6" y="313.5" class="st4" width="14.2" height="14.2"/>
		<rect x="1238" y="313.5" class="st4" width="14.2" height="14.2"/>
		<rect x="1257.3" y="313.5" class="st18" width="14.2" height="14.2"/>
		<rect x="1276.7" y="313.5" class="st4" width="14.2" height="14.2"/>
		<rect x="1296.1" y="313.5" class="st18" width="14.2" height="14.2"/>
		<rect x="1315.5" y="313.5" class="st18" width="14.2" height="14.2"/>
		<rect x="1334.8" y="313.5" class="st18" width="14.2" height="14.2"/>
		<rect x="1354.2" y="313.5" class="st18" width="14.2" height="14.2"/>
		<rect x="1373.6" y="313.5" class="st18" width="14.2" height="14.2"/>
		<rect x="1392.9" y="313.5" class="st19" width="14.2" height="14.2"/>
		<rect x="1412.3" y="313.5" class="st18" width="14.2" height="14.2"/>
		<rect x="1431.7" y="313.5" class="st18" width="14.2" height="14.2"/>
		<rect x="1451.1" y="313.5" class="st4" width="14.2" height="14.2"/>
		<rect x="966.7" y="331.5" class="st18" width="14.2" height="14.2"/>
		<rect x="986.1" y="331.5" class="st18" width="14.2" height="14.2"/>
		<rect x="1005.5" y="331.5" class="st18" width="14.2" height="14.2"/>
		<rect x="1024.9" y="331.5" class="st20" width="14.2" height="14.2"/>
		<rect x="1044.2" y="331.5" class="st18" width="14.2" height="14.2"/>
		<rect x="1063.6" y="331.5" class="st18" width="14.2" height="14.2"/>
		<rect x="1083" y="331.5" class="st19" width="14.2" height="14.2"/>
		<rect x="1102.3" y="331.5" class="st18" width="14.2" height="14.2"/>
		<rect x="1121.7" y="331.5" class="st18" width="14.2" height="14.2"/>
		<rect x="1141.1" y="331.5" class="st18" width="14.2" height="14.2"/>
		<rect x="1160.5" y="331.5" class="st4" width="14.2" height="14.2"/>
		<rect x="1179.8" y="331.5" class="st18" width="14.2" height="14.2"/>
		<rect x="1199.2" y="331.5" class="st4" width="14.2" height="14.2"/>
		<rect x="1218.6" y="331.5" class="st4" width="14.2" height="14.2"/>
		<rect x="1238" y="331.5" class="st18" width="14.2" height="14.2"/>
		<rect x="1257.3" y="331.5" class="st18" width="14.2" height="14.2"/>
		<rect x="1276.7" y="331.5" class="st18" width="14.2" height="14.2"/>
		<rect x="1296.1" y="331.5" class="st18" width="14.2" height="14.2"/>
		<rect x="1315.5" y="331.5" class="st18" width="14.2" height="14.2"/>
		<rect x="1334.8" y="331.5" class="st18" width="14.2" height="14.2"/>
		<rect x="1354.2" y="331.5" class="st18" width="14.2" height="14.2"/>
		<rect x="1373.6" y="331.5" class="st18" width="14.2" height="14.2"/>
		<rect x="1392.9" y="331.5" class="st18" width="14.2" height="14.2"/>
		<rect x="1412.3" y="331.5" class="st18" width="14.2" height="14.2"/>
		<rect x="1431.7" y="331.5" class="st20" width="14.2" height="14.2"/>
		<rect x="1451.1" y="331.5" class="st4" width="14.2" height="14.2"/>
		<rect x="966.7" y="349.4" class="st19" width="14.2" height="14.2"/>
		<rect x="986.1" y="349.4" class="st19" width="14.2" height="14.2"/>
		<rect x="1005.5" y="349.4" class="st19" width="14.2" height="14.2"/>
		<rect x="1024.9" y="349.4" class="st19" width="14.2" height="14.2"/>
		<rect x="1044.2" y="349.4" class="st19" width="14.2" height="14.2"/>
		<rect x="1063.6" y="349.4" class="st18" width="14.2" height="14.2"/>
		<rect x="1083" y="349.4" class="st18" width="14.2" height="14.2"/>
		<rect x="1102.3" y="349.4" class="st18" width="14.2" height="14.2"/>
		<rect x="1121.7" y="349.4" class="st18" width="14.2" height="14.2"/>
		<rect x="1141.1" y="349.4" class="st18" width="14.2" height="14.2"/>
		<rect x="1160.5" y="349.4" class="st18" width="14.2" height="14.2"/>
		<rect x="1179.8" y="349.4" class="st4" width="14.2" height="14.2"/>
		<rect x="1199.2" y="349.4" class="st18" width="14.2" height="14.2"/>
		<rect x="1218.6" y="349.4" class="st18" width="14.2" height="14.2"/>
		<rect x="1238" y="349.4" class="st18" width="14.2" height="14.2"/>
		<rect x="1257.3" y="349.4" class="st4" width="14.2" height="14.2"/>
		<rect x="1276.7" y="349.4" class="st18" width="14.2" height="14.2"/>
		<rect x="1296.1" y="349.4" class="st18" width="14.2" height="14.2"/>
		<rect x="1315.5" y="349.4" class="st18" width="14.2" height="14.2"/>
		<rect x="1334.8" y="349.4" class="st18" width="14.2" height="14.2"/>
		<rect x="1354.2" y="349.4" class="st18" width="14.2" height="14.2"/>
		<rect x="1373.6" y="349.4" class="st18" width="14.2" height="14.2"/>
		<rect x="1392.9" y="349.4" class="st18" width="14.2" height="14.2"/>
		<rect x="1412.3" y="349.4" class="st18" width="14.2" height="14.2"/>
		<rect x="1431.7" y="349.4" class="st18" width="14.2" height="14.2"/>
		<rect x="1451.1" y="349.4" class="st4" width="14.2" height="14.2"/>
		<circle class="st21" cx="1316.2" cy="382.2" r="19.4"/>
		<path class="st22" d="M1315.2,357.5c1.9,8.4,3.6,16.9,4.9,25.5c0.4,2.5,0.8,5.2-0.2,7.6c-0.8,2-2.3,3.6-3.6,5.3s-2.2,4-1.4,6
			s2.9,3.1,5,3.7c6,1.6,12.4,0.4,18.3-1.3c2.7-0.7,5.3-1.8,7.7-3.2c2.5-1.6,4.6-3.8,6.5-6.1c8.7-10.5,14.4-23.1,19.7-35.7
			c-7,0.6-13.8-2.1-18.4-7.4c-2.2-2.6-3.8-6.2-2.6-9.3c-3.6,2-7.9,2.1-11.8,3.5c-2.4,0.9-4.7,2.1-6.9,3.4c-2.7,1.5-5.3,3.1-7.9,4.7
			C1321.5,356.1,1318.7,357.7,1315.2,357.5z"/>
		<path class="st21" d="M1355.7,372.1c-3.4,6.6-7.8,13-14.1,16.9c-6.3,3.9-14.8,5-21.1,1.1c-3.1-1.9-5.5-4.8-8.2-7.2
			s-6.1-4.5-9.8-4.2c-4,0.4-7.2,3.5-9.9,6.5c-4.1,4.6-8,9.3-10.9,14.7c-5.6,10.4-6.9,22.5-6.6,34.3s2,23.5,2,35.3
			c0.1,14.5-2.4,28.9-4.9,43.1c22.8-2.8,45.7,3.3,68.6,5.7c14.6,1.5,29.4,1.5,44.1,1.4c2.6,0,5.3-0.1,7.5-1.5c1.3-1,2.4-2.2,3.1-3.7
			c2-3.8,2.9-8,3.4-12.3c1.4-10.7,1.5-21.5,1.5-32.3c0.1-26.1,0.2-52.3-3.1-78.2c-0.8-6.4-1.9-12.8-4.3-18.7
			c-2.4-6-6.4-11.4-12-14.6c-3.6-2.1-11.9-5.6-16.1-3.6C1360.2,357.1,1358,367.7,1355.7,372.1z"/>
		<path class="st23" d="M1357.4,445.8c-0.9-16.1-4.4-33.3,3.1-47.6c1.8-3.5-4.7-7.9-2.7-11.3c2.5-4.1,4.4-8.6,5.6-13.3
			c0.4-1.6,0.8-3.3,0.4-4.9c-0.7-2.9-3.6-4.7-6.1-6.5c-2.7-2-4.1-8-5-11.3c-0.9-3.3,7,0.7,10.1-0.5c4.4-1.6,10-0.6,14.3,1
			c2.4,0.9,5.1,1,7.7,1c5.1,0.1,10.1,0.3,15.2-0.4c2.3-0.3,4.5-0.7,6.8-0.6c5.8,0.3,10.8,4.3,14.2,9c3.4,4.7,5.6,10.1,8.4,15.2
			c2.3,4.2,5.1,8.2,7.1,12.6c1.8,3.9,2.9,8.1,4,12.2l2.9,10.7c0.5,1.5,0.7,3.1,0.7,4.7c-0.1,1.7-0.9,3.3-1.7,4.8
			c-2.9,5.6-6.4,10.9-10.4,15.8c-6,7.4-13.3,14-16.8,22.8c-1.4,3.4-2.2,7.1-2.9,10.7c-2.8,14.5-4.9,29.2-6.1,44
			c-6.5-3-13.3-5.3-20.3-6.8c-3.5-0.7-7-1.3-10.6-1.7c-3.1-0.3-7.1,0.3-10.1-0.6c-4.9-1.4-5.5-9.8-6.2-14.1
			c-1.2-7-1.4-14.1-1.5-21.1C1357.6,461.8,1357.9,453.8,1357.4,445.8z"/>
		<path class="st23" d="M1248.8,415.7c2.3,13.3,4.9,26.7,10,39.2c-0.1,0.1-0.3,0.2-0.4,0.3c-0.4,0.4-0.9,0.7-1.4,1.1
			c-1.1,0.8-2.4,1.5-3.3,2.5c-0.4,0.4-0.6,0.9-0.8,1.4c-0.4,0.8-0.4,1.7,0,2.5c-2.7,1.2-5.7,0.8-8.7,0.7c-2.6-0.1-5,0-7.1,1.4
			c-2.9,2-3.7,5.7-4.2,9.2c-0.2,1.3-0.3,2.5-0.4,3.8c-0.1,1.2-0.2,2.3-0.3,3.5c-0.3,3.9-0.3,7.8-0.1,11.7c0,0.7,0.1,1.4,0.1,2.1
			c-9.1-0.2-17.4-5-25.2-9.6c-1.8-1.1-3.6-2.2-4.8-3.9c-1.1-1.7-1.5-3.7-1.3-5.7c0-0.3,0.1-0.6,0.1-0.8c0.2-1.6,0.7-3.3,1.3-4.8
			c2.4-6.6,6.1-12.8,10.7-18.1c2-2.3,4.2-4.6,5.2-7.5c0.4-1.3,0.6-2.6,1-3.9c1.8-5.5,8.5-8.1,10.8-13.4c0.6-1.3,0.8-2.7,1.5-3.9
			c0.6-1,1.4-1.9,2.4-2.6c0.4-0.3,0.8-0.7,1.2-1c3.9-3.1,7.7-6.3,11.3-9.7c0.7-0.6,1.3-1.3,2-1.9
			C1248.1,410.7,1248.3,413.2,1248.8,415.7z"/>
		<path class="st23" d="M1304.8,376.3c-0.8,0.8-1.7,1.6-2.5,2.4l-0.2,0.2l-0.9,0.8c-1.6,1.4-3,3.1-4.2,4.9l-0.1,0.2
			c-2.8,5.1-1.8,11.3-1,17.1c1,7.2,1.4,14.4,1.3,21.7c-0.1,10-1.3,19.9-1.3,29.9c0,2.3,0,4.5,0.2,6.8c0.2,3.7,0.4,7.4,0.8,11
			c0.4,4,0.8,8.1,1.2,12.1c0.3,3.1,0.6,6.2,0.9,9.3c0.1,1.6,0.2,3.2,0.3,4.8c0.1,1.9,0.2,3.8,0.3,5.7l0,0c0,1.2,0.1,2.4,0.1,3.6
			c0,0.7,0,1.4,0,2c0,1.3,0,2.6-0.1,3.9c-0.1,1.7-0.2,3.3-0.3,5c-0.2,1.8-0.5,3.8-1.8,5.1c-0.1,0.1-0.2,0.2-0.2,0.2l-1.8-0.2
			c-12.4-1.5-24.9-1.7-37.4-0.7c0.3-1.9,0.5-3.8,0.8-5.6c0.1-0.9,0.2-1.8,0.3-2.7c0.1-1,0.2-2,0.4-3.1c0.1-1.1,0.2-2.2,0.4-3.3
			c0.3-2.9,0.5-5.7,0.8-8.6c0.3-4.2,0.6-8.4,0.7-12.6c0.1-2,0.1-4,0.2-6c0.1-2.5,0.1-5,0.1-7.5c0-2.4,0-4.8-0.1-7.3
			c0-0.8,0-1.6-0.1-2.4c0-0.7-0.1-1.4-0.3-2.1c-0.4-1.6-1-3.2-1.7-4.7c-0.1-0.3-0.2-0.6-0.4-0.9c-0.1-0.2-0.1-0.3-0.2-0.5
			c3.2-2.9,5.5-6.7,7.7-10.4c3.6-6.1,7.2-12.4,7.8-19.4c0.6-7-2.9-14.8-9.6-17c-1.8-0.6-3.7-0.7-5.6-1c-1.8-0.3-5.5-1-7.5-2.3
			c-1.1,1.1-2.2,2.3-3.3,3.4c0.1-1.7,0.5-3.3,1.2-4.8l0.8,0c-0.1-0.2-0.1-0.4-0.1-0.6c0-0.6,0.4-1.3,1.3-2c2.6-2.2,6.7-2.7,8.4-5.7
			c0.7-1.3,0.8-2.7,1.4-4.1c1.6-3.7,6.2-5.1,8.9-8.1c2.8-3,3.4-7.2,5.7-10.6c1.7-2.4,4-4.4,6.7-5.6c0.2-0.1,0.5-0.2,0.7-0.3
			c4.6-2,10.1-2.4,14.9-2.4c1.9,0,6.7,0.1,9,1c0.4,0.1,0.7,0.4,1,0.6C1310.6,368.5,1306.7,374.3,1304.8,376.3z"/>
		<path class="st23" d="M1249.7,403c8.7-2.6,18-1.6,26,2.7c4,2.2,7.6,5.3,9.8,9.3c3.3,6,3.2,13.2,2.9,20.1c-0.1,3.4-0.3,7-1.8,10.1
			c-1.8,3.6-5.1,6-8.4,8c-2.1,1.3-4.4,2.3-6.8,3c-3.7,0.8-7.6,0.1-11.4-0.6c-4.1-0.8-8.5-1.7-11.3-4.7c-1.7-1.8-2.6-4.1-3.5-6.3
			c-1.3-3.2-2.6-6.5-3.9-9.7c-2.3-5.6-3-10.3,0-15.8c1.4-2.5,3-4.8,4.3-7.3C1246.2,410.5,1248.6,403.3,1249.7,403z"/>
		<path class="st24" d="M1483.2,499.1v16.6c-11.4,4.7-23.6,7.2-36,7.1h-149.8c-0.1,0.1-0.2,0.2-0.2,0.2l-1.8-0.2h-266.6
			c-22.4,0-43.1-6-60.1-16.3v-25.4l128.2-14.8h0.1l74.7,6.3l19.3,1.7l10,0.9l20.8,1.8l10.7,0.9l15.6,1.3l2.2,0.2l11.2,1l15.2,1.3
			l21.4,1.8l35.7,3l25.1,2.1l41.2,3.5l7.8,0.7l0.8,0.1l0.7,0.1l10.3,0.9l11.4,1l1.3,0.1L1483.2,499.1z"/>
		<polygon class="st25" points="1332.6,498.4 1171.9,471 1165.7,502.5 1239.4,511.3 1262,514.2 1324.4,501.9 		"/>
		<path class="st25" d="M1249.4,512.6l80.5-15.1c1.5-0.3,3,0.7,3.3,2.2c0,0.2,0.1,0.4,0,0.5l0,0c0,1.3-1,2.5-2.3,2.7l-78.6,14.7
			L1249.4,512.6z"/>
		<path class="st22" d="M1284.4,465c2.5-0.2,5-0.6,7.3-1.7c2.8-1.4,4.9-3.8,7.5-5.5c5.7-3.9,13.2-4.4,19.7-2.2
			c6.5,2.2,11.9,7,15.7,12.7c2.5,3.8,4.4,8.7,2.6,12.9c-0.6,1.3-1.4,2.5-2.3,3.6l-4.6,6.1c-0.9,1.3-1.9,2.4-3.1,3.4
			c-1.7,1.3-3.9,1.8-6,2.1c-5.6,0.8-11.4,0.4-17.1,0.7c-9.8,0.7-19.3,3.8-29.1,3.7c-5.6-0.1-11.2-1.2-16.7-2.3l-24.3-5
			c-4.2-0.9-9-2.1-11-6c-0.9-1.7-1.1-3.7-1.2-5.7c-0.3-5.4,0-11.3,3.7-15.2c3.5-3.6,9-4.8,13.2-7.4c5.1-3.3,6.8-2.2,12.2,0.2
			C1261.3,464.1,1272.9,466.1,1284.4,465z"/>
		<path class="st26" d="M1284.4,465c2.5-0.2,5-0.6,7.3-1.7c2.8-1.4,4.9-3.8,7.5-5.5c5.7-3.9,13.2-4.4,19.7-2.2
			c6.5,2.2,11.9,7,15.7,12.7c2.5,3.8,4.4,8.7,2.6,12.9c-0.6,1.3-1.4,2.5-2.3,3.6l-4.6,6.1c-0.9,1.3-1.9,2.4-3.1,3.4
			c-1.7,1.3-3.9,1.8-6,2.1c-5.6,0.8-11.4,0.4-17.1,0.7c-9.8,0.7-19.3,3.8-29.1,3.7c-5.6-0.1-11.2-1.2-16.7-2.3l-24.3-5
			c-4.2-0.9-9-2.1-11-6c-0.9-1.7-1.1-3.7-1.2-5.7c-0.3-5.4,0-11.3,3.7-15.2c3.5-3.6,9-4.8,13.2-7.4c5.1-3.3,6.8-2.2,12.2,0.2
			C1261.3,464.1,1272.9,466.1,1284.4,465z"/>
		<path class="st22" d="M1382,457.4c-6.8,2.6-13.7,5.3-20.8,6.9c-12,2.6-24.5,2.2-36.4,5.2c-6.3,1.6-12.5,4.2-19,3.7
			c-2.9-0.2-5.7-1.1-8.5-1.8c-15.8-3.9-33.7-2.6-46.5,7.4c-4.4,3.4-8,7.7-11.2,12.2c-2.6,3.7-1.7,8.8,1.9,11.4
			c0.4,0.3,0.9,0.6,1.3,0.8c5,2.3,10.3,3.7,15.8,4.2c7.3,0.6,14.6-0.4,21.9-1.4c10.8-1.5,21.5-3.1,32.3-4.8
			c3.9-0.6,7.7-1.3,11.6-1.7c27.9-3.5,56.3,0.8,84.3-2.2c2.8-0.3,5.7-0.7,8.3-1.9c6.5-3.1,9.7-11.1,8.4-18.2
			c-1.3-7.1-6.5-13-12.8-16.6c-5.2-3-10.9-4.3-16.7-5.6C1390.5,453.7,1387.2,455.4,1382,457.4z"/>
		<path class="st2" d="M1441.9,415.1c3.1,4,3.7,9.4,3.4,14.5s-1.5,10-1.7,15.1c-0.2,7,1.4,13.9,1.2,20.8c-0.2,4.9-1.4,9.6-2.7,14.3
			c-1.6,5.5-3.9,11.4-9,14c-6.7,3.5-20.9,1.5-27.9,4.3c0.6-4,6.8-9.8,7.5-13.9c0.4-2.8,0.9-5.6,0.4-8.4c-0.6-3.6-2.7-6.7-5.2-9.3
			c-3.9-4.2-9.1-7.3-14.7-8.3c-5.6-1-19.4-0.2-24,3.4c-0.6-3.7,9.8-7.2,13.4-8c1.8-0.4,3.9-0.2,5.3-1.3c2.8-2.2,0.8-6.5,0.9-10
			c0.1-2.8,1.7-5.3,2.1-8.1c0.6-4.4-2.3-9-1.2-13.3c0.4-1.6,1.4-3,2-4.6c2-4.7,1.1-10.1,0.1-15c-0.7-3.1-1.3-6.7,0.5-9.3
			c1.6-2.5,6.2,6.4,9.1,6c9.7-1.4,18.5-8.6,26.3-2.7c4,3,4.5,6.1,6.1,10.4C1435.3,409.6,1439.3,411.7,1441.9,415.1z"/>
		<path class="st23" d="M1443.5,415.1c3.1,4,3.7,9.4,3.4,14.5s-1.5,10-1.7,15.1c-0.2,7,1.4,13.9,1.2,20.8c-0.2,4.9-1.4,9.6-2.7,14.3
			c-1.6,5.5-3.9,11.4-9,14c-6.7,3.5-20.9,1.5-27.9,4.3c0.6-4,6.8-9.8,7.5-13.9c0.4-2.8,0.9-5.6,0.4-8.4c-0.6-3.6-2.7-6.7-5.2-9.3
			c-3.9-4.2-9.1-7.3-14.7-8.3c-5.6-1-19.4-0.2-24,3.4c-0.6-3.7,9.8-7.2,13.4-8c1.8-0.4,3.9-0.2,5.3-1.3c2.8-2.2,0.8-6.5,0.9-10
			c0.1-2.8,1.7-5.3,2.1-8.1c0.6-4.4-2.3-9-1.2-13.3c0.4-1.6,1.4-3,2-4.6c2-4.7,1.1-10.1,0.1-15c-0.7-3.1-1.3-6.7,0.5-9.3
			c1.6-2.5,4.8-3.4,7.7-3.9c9.8-1.3,19.8,1.2,27.8,7.2c4,3,4.5,6.1,6.1,10.4C1436.9,409.6,1440.9,411.7,1443.5,415.1z"/>
		<path class="st25" d="M1075.9,388.8l30.2,111.6c0.8,2.8,3.2,4.8,6.1,5.1l136,13.1c3.8,0.4,7.2-2.4,7.6-6.3c0.1-0.8,0-1.6-0.2-2.3
			l-33.1-134.7c-0.8-3.3-3.9-5.5-7.3-5.3l-133.1,10c-3.8,0.3-6.7,3.6-6.4,7.5C1075.7,387.9,1075.8,388.3,1075.9,388.8z"/>
		<ellipse class="st27" cx="1345.4" cy="395.4" rx="14.9" ry="15.1"/>
		<path class="st27" d="M1357.7,367.8c0,0,3.2,9.4-6.1,13.3l-1.2,2.1l5.8,5.7c0,0,7.2-13.1,6.4-17.7
			C1362.6,371.2,1361.5,366.4,1357.7,367.8z"/>
		<circle class="st4" cx="1347.2" cy="396.1" r="14.4"/>
		<path class="st4" d="M1362.7,373.3l-2.3-3.8l-3.3-0.5c0.7-12.4-2.5-16.1-2.5-16.1l-0.8-0.1l-3.3-0.3l-6.1-6.4v-1.8
			c8.6,1,13.4,5.1,16,9.9C1364.9,362.7,1362.7,373.3,1362.7,373.3z"/>
		<path class="st28" d="M1353.8,350.5v2.3l-3.3-0.3l-6.1-6.4C1344.4,346.1,1353.9,348.3,1353.8,350.5z"/>
		<path class="st28" d="M1362.7,373.3l-2.3-3.8v-15.2C1364.9,362.7,1362.7,373.3,1362.7,373.3z"/>
		<ellipse transform="matrix(0.866 -0.5 0.5 0.866 -18.7593 708.7733)" class="st27" cx="1313.2" cy="389.4" rx="8" ry="14.6"/>
		<path class="st4" d="M1315.4,388.2c4,7,9,11.7,5.2,13.9c-3.8,2.2-15,1.1-19-5.9c-4-7-0.4-16.7,3.5-18.9
			C1308.8,375.1,1311.3,381.2,1315.4,388.2z"/>
		<path class="st2" d="M1351.3,337.8c0,22.4-15.3,43.9-37.6,43.9c-22.4,0-40.5-18.1-40.5-40.5s18.1-40.5,40.5-40.5
			C1336,300.7,1351.3,315.4,1351.3,337.8z"/>
		<circle class="st22" cx="1313.7" cy="340.1" r="40.5"/>
		<path class="st29" d="M1310.1,322.2c4.8,1.8,7.7,6.8,12,9.5c6.1,3.9,14.1,2.9,21,1c3.9-1.1,8-2.4,11.8-1.2
			c0.6,0.2,1.2,0.3,1.8,0.3c0.8-0.2,1.2-1.2,1.5-2c4.7-14.1,2.6-30.1-4.5-43.2c-1.8-3.4-4.1-6.6-7.1-9c-2.4-1.8-5.2-3-8.1-4.1
			c-5.2-1.9-10.6-3.2-16-4c-1-0.2-2-0.2-2.9-0.1c-1.3,0.2-2.5,0.9-3.7,1.6c-5.1,2.7-10.8,4.3-16.6,4.5c-7.8,0.3-16.7-1.5-22.7,3.5
			c-7.2,6-5.4,17.7-10.1,25.8c-3.1,5.4-9.1,9.3-10.1,15.4c-0.3,1.9-0.1,3.8,0.3,5.6c2.3,9.4,11.4,16.7,21.1,16.9
			c1.5,0.1,3-0.2,4.3-0.9c0.9-0.6,1.6-1.3,2.3-2.2C1290.8,332.1,1298.1,317.7,1310.1,322.2z"/>
		<path class="st2" d="M1358.3,325.6c-0.3,0.8-0.7,1.7-1.5,2c-0.6,0.1-1.2,0-1.8-0.3c-3.8-1.2-7.9,0.1-11.8,1.2c-7,1.9-15,3-21-1
			c-4.3-2.8-7.2-7.8-12-9.5c-12-4.4-19.3,9.9-25.7,17.5c-0.6,0.8-1.4,1.6-2.3,2.2c-1.3,0.7-2.8,1-4.3,0.9
			c-9.7-0.2-18.8-7.5-21.1-16.9c-0.1-0.6-0.2-1.1-0.3-1.7c0,0,0,0.1,0,0.1c-0.3,1.9-0.1,3.8,0.3,5.6c2.3,9.4,11.4,16.7,21.1,16.9
			c1.5,0.1,3-0.2,4.3-0.9c0.9-0.6,1.6-1.3,2.3-2.2c6.4-7.5,13.7-21.9,25.7-17.5c4.8,1.8,7.7,6.8,12,9.5c6.1,3.9,14.1,2.9,21,1
			c3.9-1.1,8-2.4,11.8-1.2c0.6,0.2,1.2,0.3,1.8,0.3c0.8-0.2,1.2-1.2,1.5-2c1.9-5.8,2.8-11.8,2.5-17.9
			C1360.6,316.5,1359.8,321.2,1358.3,325.6z"/>
	</g>
</g>
<g id="Layer_4">
	<path class="st18" d="M864,66.4c-3.8-0.1-7.6,0-11.2,1.1c-9.6,3-14.2,12.6-12.7,21c1.5,8.4,7.6,15.7,13.9,22.3
		c6.3,6.7,13.2,13.2,16.7,21.2c1.7,4,2.5,8.4,0.8,12.4c-2.7,6.1-10.9,9.5-18.8,10.2c-7.9,0.7-15.8-0.7-23.6-1.1
		c-3.3-0.2-6.7-0.2-9.8,0.7c-3.4,1-6.3,3-8.9,5c-10.2,8.1-18.4,19.2-17.1,30.9c1.5,13.2,14.9,23.7,29.5,29.3c4.8,1.9,10,3.4,14.2,6
		c11.2,7,13.8,20.1,12.6,31.7c-1.1,11.6-4.9,23.1-2.8,34.6c2.5,13.3,13.5,25.4,28.4,31c13.3,5,29.9,4.7,41.7-2.4
		c5.7-3.5,10.1-8.3,13.9-13.2c5.6-7.3,10.2-15.4,13.8-23.9c1.6-4,3.2-8.2,7-11c2.3-1.7,5.4-2.6,8.4-3.4c9-2.2,18.6-2.8,27.7-4.8
		s18.3-5.7,23.2-12.3c7-9.4,3.7-21.4,3.8-32.4c0.1-25.1,18.3-47.6,25-72.1c2.2-8,3-16.9-1.9-24c-3.3-4.8-9-8.3-14.9-11
		c-13-5.9-27.8-8.6-42.4-11.2c-20.2-3.6-44.8-4-60.5-15.6C905.1,74.3,884.5,66.4,864,66.4z"/>
	<g class="st30">
		<path class="st4" d="M805,209.5c-1,1.5-1.8,3.6-0.5,6.1c2.6,4.9,8.9,3.9,12,8.6c0.8,1.3,1.3,2.8,1.3,4.3c0.1,2.7-0.7,4.8-1.1,7.1
			c-0.6,2.8-0.1,5.6,1.2,8.1c1.5,2.6,3.8,4.6,6.6,5.8c2.4,1.1,4.7,1.3,7,1.8c2.8,0.7,5.6,1.6,8.3,2.8c1.3,0.5,2.4,1.2,3.5,2.1
			c1.3,1.2,2.5,2.4,3.6,3.8l10,12.3c1.3,1.7,2.7,3.2,4.2,4.6c1.7,1.4,3.5,2.5,5.5,3.4c4,2,8.1,4,11.6,3.8s5.8-3.6,4.2-8.2
			c-1.5-4.4-5.9-8.2-7.9-12.6c-3.1-7,1-12.2-1.6-19.1c-2.5-6.7-9.5-11.2-14-17.3c-3.2-4.4-5-9.4-7.9-14
			c-4.2-6.6-10.5-11.6-16.4-14.1c-5.2-2.2-10.9-3-16.5-2.3c-2.1,0.2-4.2,0.6-5.8,1.9c-1.6,1.4-1.4,3.9-2.5,5.7
			C808.6,206.3,806.3,207.5,805,209.5z"/>
		<path class="st31" d="M811.2,200.1c0,0,49.8,46.6,69.9,82.9"/>
		<path class="st31" d="M804.7,215.9c0,0,19.9-3.9,33.7,11.7"/>
		<path class="st31" d="M818.8,245.2c0,0,22-15.4,29.6-6.4"/>
		<path class="st31" d="M834.4,198.8c0,0-2.3,11.8,6,31"/>
		<path class="st31" d="M872.7,244.5c0,0-1.9,7.7-17.6,2"/>
		<path class="st31" d="M856.8,271.5c0,0,9.6-11,5.2-16.5"/>
	</g>
	<path class="st4" d="M795.6,155.5c-2.3,2.8-4.5,6.6-2.8,10.4c3.3,7.4,15.6,3.8,20,10.7c1.3,2.1,1.5,4.6,1.2,6.8
		c-0.6,4.4-2.8,8.1-4.3,12.2c-1.5,4-2.3,8.9-0.2,13.1c2,4.1,6.4,6.7,10.5,7.7c4.2,1,8.4,0.8,12.5,0.9c5,0.2,9.9,0.9,14.7,2.2
		c2.1,0.5,4.1,1.3,6,2.4c2.1,1.4,3.9,3.4,5.5,5.3l15,17.5c2,2.3,4,4.7,6.5,6.4c2.8,2,6.1,3,9.3,4c6.9,2.1,14,4.2,20.6,2.8
		c6.6-1.4,12.1-7.7,10.4-14.9c-1.6-6.9-8.6-11.8-11-18.6c-3.7-10.7,5.5-20.5,2.7-31.4c-2.7-10.4-14.4-15.8-21-24.6
		c-4.7-6.3-6.5-14.2-10.6-20.9c-5.9-9.7-16.2-16.1-26.5-18.5c-10.3-2.4-20.6-1.3-30.2,1.1c-4.1,1-8.1,2.3-11.4,4.9
		c-3.4,2.7-3.8,6.9-6.3,10.2C803.4,149,798.8,151.7,795.6,155.5z"/>
	<path class="st31" d="M810.2,137.9c0,0,79.4,62.5,106.1,116.8"/>
	<path class="st31" d="M793.1,166.2c0,0,38.6-12.5,59.7,9.2"/>
	<path class="st31" d="M810.8,210.7c0,0,45.9-32.3,57.5-19.7"/>
	<path class="st31" d="M854.1,128.7c0,0-7.9,20.3,1.9,49.8"/>
	<path class="st31" d="M912.2,193.2c0,0-6,13.4-33.7,8.7"/>
	<path class="st31" d="M874.1,243c0,0,21.3-21.3,14.8-29"/>
	<ellipse class="st17" cx="1081.4" cy="348.9" rx="217.6" ry="58.3"/>
	<path class="st4" d="M1251,46.2c0,0-16.8,16.8-7.3,41.7c9.5,24.9-16.2,66.3-16.2,66.3s0.3,0,0.8-0.1c34.4-6.1,51.6-45.5,32.4-74.7
		C1253.5,68.4,1247.7,55.6,1251,46.2z"/>
	<path class="st31" d="M1251,46.2c0,0-9.5,20.6,0,37.3c9.5,16.8,1.6,63.8-23.5,70.6"/>
	<path class="st4" d="M1280.8,114c0,0-19.1-3-20.9,14.1c-1.7,17.1-36.8,19.5-36.8,19.5l0.7,0.4c28.9,19,56.6,12.1,52.4-13.1
		C1274.7,125.6,1274.8,116.1,1280.8,114z"/>
	<path class="st32" d="M1280.8,114c0,0-19.1-3-20.9,14.1c-1.7,17.1-36.8,19.5-36.8,19.5l0.7,0.4c28.9,19,56.6,12.1,52.4-13.1
		C1274.7,125.6,1274.8,116.1,1280.8,114z"/>
	<path class="st31" d="M1280.8,114c0,0-14.9,3.3-13.6,16.8c1.2,13.5-22.1,29.7-44,16.9"/>
	<path class="st31" d="M907.7,176.9c0,0-6.2-21.1,1.2-36.6c3.1-6.5,4.1-13.8,2.7-20.9c-0.7-3.3-1.7-6.6-3-9.8"/>
	<path class="st4" d="M913.1,99.9c0,2.6-4.7,10.1-4.7,10.1s-4.7-7.5-4.7-10.1c0-2.6,2.1-4.7,4.7-4.7S913.1,97.3,913.1,99.9z"/>
	<path class="st4" d="M920.9,114.2c-1.4,2.2-9.4,5.9-9.4,5.9s0.1-8.8,1.5-11c1.3-2.2,4.2-3,6.4-1.7c2.2,1.3,3,4.2,1.7,6.4
		C921,114,921,114.1,920.9,114.2z"/>
	<path class="st4" d="M920.5,138.6c-2.3,1.2-11.1,0.4-11.1,0.4s4.6-7.5,6.9-8.7c2.3-1.3,5.1-0.5,6.4,1.8c1.3,2.3,0.5,5.1-1.8,6.4
		C920.8,138.5,920.7,138.6,920.5,138.6L920.5,138.6z"/>
	<path class="st4" d="M916.1,157.1c-2.1,1.5-10.9,2.2-10.9,2.2s3.2-8.2,5.3-9.7c2-1.6,4.9-1.3,6.6,0.7c1.6,2,1.3,4.9-0.7,6.6
		C916.4,156.9,916.2,157,916.1,157.1z"/>
	<path class="st4" d="M901.7,120.6c1.9,1.8,10.5,3.7,10.5,3.7s-2.1-8.6-4-10.4c-1.8-1.9-4.7-2-6.6-0.2s-2,4.7-0.2,6.6
		C901.4,120.4,901.5,120.5,901.7,120.6L901.7,120.6z"/>
	<path class="st4" d="M896.8,142.2c2.3,1.2,11.1,0.4,11.1,0.4s-4.6-7.5-6.9-8.7c-2.4-1.1-5.1,0-6.2,2.3
		C893.8,138.4,894.6,141.1,896.8,142.2L896.8,142.2z"/>
	<path class="st4" d="M894.9,163.9c2.1,1.5,10.9,2.2,10.9,2.2s-3.2-8.2-5.3-9.7c-2.2-1.4-5.1-0.9-6.5,1.3
		C892.6,159.7,893,162.4,894.9,163.9z"/>
	
		<linearGradient id="SVGID_1_" gradientUnits="userSpaceOnUse" x1="1144.1338" y1="274.2473" x2="1144.1338" y2="500.9557" gradientTransform="matrix(1 0 0 -1 -56.59 599.7715)">
		<stop  offset="0" style="stop-color:#808080;stop-opacity:0.25"/>
		<stop  offset="0.54" style="stop-color:#808080;stop-opacity:0.12"/>
		<stop  offset="1" style="stop-color:#808080;stop-opacity:0.1"/>
	</linearGradient>
	<path class="st33" d="M1294.1,299.4h-39.8c0.9-1.8,1.4-3.9,1.4-5.9V112.1c0-7.4-6-13.3-13.3-13.3H934.1c-7.4,0-13.3,6-13.3,13.3
		v181.4c0,2.1,0.5,4.1,1.4,5.9h-41.2c-1.9,0-3.5,1.6-3.5,3.5l0,0v2.8c0,10.9,8.8,19.7,19.7,19.7h0H1278c10.9,0,19.7-8.8,19.7-19.7
		c0,0,0,0,0,0V303C1297.7,301,1296.1,299.4,1294.1,299.4C1294.2,299.4,1294.1,299.4,1294.1,299.4z M1048.7,310.7l-3.4-3.9h84.8
		l-3.8,3.9H1048.7z"/>
	<path class="st34" d="M935.4,101.4H1241c6,0,10.9,4.9,10.9,10.9v181.5c0,6-4.9,10.9-10.9,10.9H935.4c-6,0-10.9-4.9-10.9-10.9V112.3
		C924.5,106.3,929.4,101.4,935.4,101.4z"/>
	<rect x="931.4" y="131" class="st35" width="312.9" height="166.1"/>
	<circle class="st27" cx="1087.9" cy="116.5" r="2.8"/>
	<path class="st34" d="M1136.2,297.5l-10.8,11h-75.8l-9.7-11H885.6c-1.9,0-3.4,1.5-3.4,3.4v2.8c0,10.6,8.6,19.3,19.3,19.3
		c0,0,0,0,0,0h372.2c10.6,0,19.3-8.6,19.3-19.3c0,0,0,0,0,0v-2.8c0-1.9-1.5-3.4-3.4-3.4H1136.2z"/>
	<rect x="950.5" y="143.7" class="st27" width="85.5" height="64.5"/>
	<rect x="958.9" y="149.2" class="st18" width="28.5" height="16.1"/>
	<rect x="994.2" y="149.2" class="st36" width="33.5" height="3.7"/>
	<rect x="994.2" y="155.4" class="st36" width="23.6" height="3.7"/>
	<rect x="994.2" y="161.6" class="st36" width="33.5" height="3.7"/>
	<rect x="958.9" y="167.8" class="st36" width="68.8" height="3.7"/>
	<rect x="958.9" y="174" class="st36" width="68.8" height="3.7"/>
	<rect x="958.9" y="180.2" class="st36" width="68.8" height="3.7"/>
	<rect x="958.9" y="186.4" class="st36" width="63.2" height="3.7"/>
	<rect x="958.9" y="192.6" class="st36" width="68.8" height="3.7"/>
	<rect x="958.9" y="198.8" class="st36" width="68.8" height="3.7"/>
	<rect x="1044.8" y="143.7" class="st27" width="85.5" height="64.5"/>
	<rect x="1053.1" y="149.2" class="st18" width="28.5" height="16.1"/>
	<rect x="1088.5" y="149.2" class="st36" width="33.5" height="3.7"/>
	<rect x="1088.5" y="155.4" class="st36" width="23.6" height="3.7"/>
	<rect x="1088.5" y="161.6" class="st36" width="33.5" height="3.7"/>
	<rect x="1053.1" y="167.8" class="st36" width="68.8" height="3.7"/>
	<rect x="1053.1" y="174" class="st36" width="68.8" height="3.7"/>
	<rect x="1053.1" y="180.2" class="st36" width="68.8" height="3.7"/>
	<rect x="1053.1" y="186.4" class="st36" width="63.2" height="3.7"/>
	<rect x="1053.1" y="192.6" class="st36" width="68.8" height="3.7"/>
	<rect x="1053.1" y="198.8" class="st36" width="68.8" height="3.7"/>
	<rect x="1139" y="143.7" class="st27" width="85.5" height="64.5"/>
	<rect x="1147.3" y="149.2" class="st18" width="28.5" height="16.1"/>
	<rect x="1182.7" y="149.2" class="st36" width="33.5" height="3.7"/>
	<rect x="1182.7" y="155.4" class="st36" width="23.6" height="3.7"/>
	<rect x="1182.7" y="161.6" class="st36" width="33.5" height="3.7"/>
	<rect x="1147.3" y="167.8" class="st36" width="68.8" height="3.7"/>
	<rect x="1147.3" y="174" class="st36" width="68.8" height="3.7"/>
	<rect x="1147.3" y="180.2" class="st36" width="68.8" height="3.7"/>
	<rect x="1147.3" y="186.4" class="st36" width="63.2" height="3.7"/>
	<rect x="1147.3" y="192.6" class="st36" width="68.8" height="3.7"/>
	<rect x="1147.3" y="198.8" class="st36" width="68.8" height="3.7"/>
	<rect x="950.5" y="216.2" class="st27" width="85.5" height="64.5"/>
	<rect x="958.9" y="221.8" class="st18" width="28.5" height="16.1"/>
	<rect x="994.2" y="221.8" class="st36" width="33.5" height="3.7"/>
	<rect x="994.2" y="228" class="st36" width="23.6" height="3.7"/>
	<rect x="994.2" y="234.2" class="st36" width="33.5" height="3.7"/>
	<rect x="958.9" y="240.4" class="st36" width="68.8" height="3.7"/>
	<rect x="958.9" y="246.6" class="st36" width="68.8" height="3.7"/>
	<rect x="958.9" y="252.8" class="st36" width="68.8" height="3.7"/>
	<rect x="958.9" y="259" class="st36" width="63.2" height="3.7"/>
	<rect x="958.9" y="265.2" class="st36" width="68.8" height="3.7"/>
	<rect x="958.9" y="271.4" class="st36" width="68.8" height="3.7"/>
	<rect x="1044.8" y="216.2" class="st27" width="85.5" height="64.5"/>
	<rect x="1053.1" y="221.8" class="st18" width="28.5" height="16.1"/>
	<rect x="1088.5" y="221.8" class="st36" width="33.5" height="3.7"/>
	<rect x="1088.5" y="228" class="st36" width="23.6" height="3.7"/>
	<rect x="1088.5" y="234.2" class="st36" width="33.5" height="3.7"/>
	<rect x="1053.1" y="240.4" class="st36" width="68.8" height="3.7"/>
	<rect x="1053.1" y="246.6" class="st36" width="68.8" height="3.7"/>
	<rect x="1053.1" y="252.8" class="st36" width="68.8" height="3.7"/>
	<rect x="1053.1" y="259" class="st36" width="63.2" height="3.7"/>
	<rect x="1053.1" y="265.2" class="st36" width="68.8" height="3.7"/>
	<rect x="1053.1" y="271.4" class="st36" width="68.8" height="3.7"/>
	<rect x="1139" y="216.2" class="st2" width="85.5" height="64.5"/>
	
		<linearGradient id="SVGID_2_" gradientUnits="userSpaceOnUse" x1="989.6936" y1="227.3573" x2="989.6936" y2="434.4073" gradientTransform="matrix(1 0 0 -1 -56.59 599.7715)">
		<stop  offset="0" style="stop-color:#808080;stop-opacity:0.25"/>
		<stop  offset="0.54" style="stop-color:#808080;stop-opacity:0.12"/>
		<stop  offset="1" style="stop-color:#808080;stop-opacity:0.1"/>
	</linearGradient>
	<path class="st37" d="M999.1,165.4h-132c-6.7,0-12.1,5.4-12.1,12.1c0,0,0,0,0,0v182.9c0,6.7,5.4,12.1,12.1,12.1c0,0,0,0,0,0h132
		c6.7,0,12.1-5.4,12.1-12.1c0,0,0,0,0,0V177.4C1011.2,170.8,1005.8,165.4,999.1,165.4C999.1,165.4,999.1,165.4,999.1,165.4z"/>
	<path class="st34" d="M866.2,167.8H1000c5.2,0,9.4,4.2,9.4,9.4v184c0,5.2-4.2,9.4-9.4,9.4H866.2c-5.2,0-9.4-4.2-9.4-9.4v-184
		C856.9,172,861.1,167.8,866.2,167.8z"/>
	<rect x="864.6" y="187" class="st35" width="137" height="164.4"/>
	<circle class="st27" cx="932.5" cy="177.1" r="1.9"/>
	<circle class="st27" cx="932.5" cy="360.6" r="5.6"/>
	<rect x="870.5" y="203.8" class="st27" width="39.1" height="29.5"/>
	<rect x="874.4" y="206.4" class="st18" width="13" height="7.4"/>
	<rect x="890.5" y="206.4" class="st36" width="15.3" height="1.7"/>
	<rect x="890.5" y="209.2" class="st36" width="10.8" height="1.7"/>
	<rect x="890.5" y="212" class="st36" width="15.3" height="1.7"/>
	<rect x="874.4" y="214.9" class="st36" width="31.4" height="1.7"/>
	<rect x="874.4" y="217.7" class="st36" width="31.4" height="1.7"/>
	<rect x="874.4" y="220.5" class="st36" width="31.4" height="1.7"/>
	<rect x="874.4" y="223.4" class="st36" width="28.9" height="1.7"/>
	<rect x="874.4" y="226.2" class="st36" width="31.4" height="1.7"/>
	<rect x="874.4" y="229" class="st36" width="31.4" height="1.7"/>
	<rect x="913.6" y="203.8" class="st27" width="39.1" height="29.5"/>
	<rect x="917.4" y="206.4" class="st18" width="13" height="7.4"/>
	<rect x="933.5" y="206.4" class="st36" width="15.3" height="1.7"/>
	<rect x="933.5" y="209.2" class="st36" width="10.8" height="1.7"/>
	<rect x="933.5" y="212" class="st36" width="15.3" height="1.7"/>
	<rect x="917.4" y="214.9" class="st36" width="31.4" height="1.7"/>
	<rect x="917.4" y="217.7" class="st36" width="31.4" height="1.7"/>
	<rect x="917.4" y="220.5" class="st36" width="31.4" height="1.7"/>
	<rect x="917.4" y="223.4" class="st36" width="28.9" height="1.7"/>
	<rect x="917.4" y="226.2" class="st36" width="31.4" height="1.7"/>
	<rect x="917.4" y="229" class="st36" width="31.4" height="1.7"/>
	<rect x="956.6" y="203.8" class="st27" width="39.1" height="29.5"/>
	<rect x="960.4" y="206.4" class="st18" width="13" height="7.4"/>
	<rect x="976.6" y="206.4" class="st36" width="15.3" height="1.7"/>
	<rect x="976.6" y="209.2" class="st36" width="10.8" height="1.7"/>
	<rect x="976.6" y="212" class="st36" width="15.3" height="1.7"/>
	<rect x="960.4" y="214.9" class="st36" width="31.4" height="1.7"/>
	<rect x="960.4" y="217.7" class="st36" width="31.4" height="1.7"/>
	<rect x="960.4" y="220.5" class="st36" width="31.4" height="1.7"/>
	<rect x="960.4" y="223.4" class="st36" width="28.9" height="1.7"/>
	<rect x="960.4" y="226.2" class="st36" width="31.4" height="1.7"/>
	<rect x="960.4" y="229" class="st36" width="31.4" height="1.7"/>
	<rect x="870.5" y="236.9" class="st27" width="39.1" height="29.5"/>
	<rect x="874.4" y="239.5" class="st18" width="13" height="7.4"/>
	<rect x="890.5" y="239.5" class="st36" width="15.3" height="1.7"/>
	<rect x="890.5" y="242.3" class="st36" width="10.8" height="1.7"/>
	<rect x="890.5" y="245.2" class="st36" width="15.3" height="1.7"/>
	<rect x="874.4" y="248" class="st36" width="31.4" height="1.7"/>
	<rect x="874.4" y="250.8" class="st36" width="31.4" height="1.7"/>
	<rect x="874.4" y="253.7" class="st36" width="31.4" height="1.7"/>
	<rect x="874.4" y="256.5" class="st36" width="28.9" height="1.7"/>
	<rect x="874.4" y="259.3" class="st36" width="31.4" height="1.7"/>
	<rect x="874.4" y="262.1" class="st36" width="31.4" height="1.7"/>
	<rect x="913.6" y="236.9" class="st27" width="39.1" height="29.5"/>
	<rect x="917.4" y="239.5" class="st18" width="13" height="7.4"/>
	<rect x="933.5" y="239.5" class="st36" width="15.3" height="1.7"/>
	<rect x="933.5" y="242.3" class="st36" width="10.8" height="1.7"/>
	<rect x="933.5" y="245.2" class="st36" width="15.3" height="1.7"/>
	<rect x="917.4" y="248" class="st36" width="31.4" height="1.7"/>
	<rect x="917.4" y="250.8" class="st36" width="31.4" height="1.7"/>
	<rect x="917.4" y="253.7" class="st36" width="31.4" height="1.7"/>
	<rect x="917.4" y="256.5" class="st36" width="28.9" height="1.7"/>
	<rect x="917.4" y="259.3" class="st36" width="31.4" height="1.7"/>
	<rect x="917.4" y="262.1" class="st36" width="31.4" height="1.7"/>
	<rect x="956.6" y="236.9" class="st27" width="39.1" height="29.5"/>
	<rect x="960.4" y="239.5" class="st18" width="13" height="7.4"/>
	<rect x="976.6" y="239.5" class="st36" width="15.3" height="1.7"/>
	<rect x="976.6" y="242.3" class="st36" width="10.8" height="1.7"/>
	<rect x="976.6" y="245.2" class="st36" width="15.3" height="1.7"/>
	<rect x="960.4" y="248" class="st36" width="31.4" height="1.7"/>
	<rect x="960.4" y="250.8" class="st36" width="31.4" height="1.7"/>
	<rect x="960.4" y="253.7" class="st36" width="31.4" height="1.7"/>
	<rect x="960.4" y="256.5" class="st36" width="28.9" height="1.7"/>
	<rect x="960.4" y="259.3" class="st36" width="31.4" height="1.7"/>
	<rect x="960.4" y="262.1" class="st36" width="31.4" height="1.7"/>
	<rect x="870.5" y="271.4" class="st27" width="39.1" height="29.5"/>
	<rect x="874.4" y="273.9" class="st18" width="13" height="7.4"/>
	<rect x="890.5" y="273.9" class="st36" width="15.3" height="1.7"/>
	<rect x="890.5" y="276.8" class="st36" width="10.8" height="1.7"/>
	<rect x="890.5" y="279.6" class="st36" width="15.3" height="1.7"/>
	<rect x="874.4" y="282.4" class="st36" width="31.4" height="1.7"/>
	<rect x="874.4" y="285.3" class="st36" width="31.4" height="1.7"/>
	<rect x="874.4" y="288.1" class="st36" width="31.4" height="1.7"/>
	<rect x="874.4" y="290.9" class="st36" width="28.9" height="1.7"/>
	<rect x="874.4" y="293.8" class="st36" width="31.4" height="1.7"/>
	<rect x="874.4" y="296.6" class="st36" width="31.4" height="1.7"/>
	<rect x="913.6" y="271.4" class="st27" width="39.1" height="29.5"/>
	<rect x="917.4" y="273.9" class="st18" width="13" height="7.4"/>
	<rect x="933.5" y="273.9" class="st36" width="15.3" height="1.7"/>
	<rect x="933.5" y="276.8" class="st36" width="10.8" height="1.7"/>
	<rect x="933.5" y="279.6" class="st36" width="15.3" height="1.7"/>
	<rect x="917.4" y="282.4" class="st36" width="31.4" height="1.7"/>
	<rect x="917.4" y="285.3" class="st36" width="31.4" height="1.7"/>
	<rect x="917.4" y="288.1" class="st36" width="31.4" height="1.7"/>
	<rect x="917.4" y="290.9" class="st36" width="28.9" height="1.7"/>
	<rect x="917.4" y="293.8" class="st36" width="31.4" height="1.7"/>
	<rect x="917.4" y="296.6" class="st36" width="31.4" height="1.7"/>
	<rect x="956.6" y="271.4" class="st27" width="39.1" height="29.5"/>
	<rect x="960.4" y="273.9" class="st18" width="13" height="7.4"/>
	<rect x="976.6" y="273.9" class="st36" width="15.3" height="1.7"/>
	<rect x="976.6" y="276.8" class="st36" width="10.8" height="1.7"/>
	<rect x="976.6" y="279.6" class="st36" width="15.3" height="1.7"/>
	<rect x="960.4" y="282.4" class="st36" width="31.4" height="1.7"/>
	<rect x="960.4" y="285.3" class="st36" width="31.4" height="1.7"/>
	<rect x="960.4" y="288.1" class="st36" width="31.4" height="1.7"/>
	<rect x="960.4" y="290.9" class="st36" width="28.9" height="1.7"/>
	<rect x="960.4" y="293.8" class="st36" width="31.4" height="1.7"/>
	<rect x="960.4" y="296.6" class="st36" width="31.4" height="1.7"/>
	<rect x="870.5" y="304.5" class="st27" width="39.1" height="29.5"/>
	<rect x="874.4" y="307.1" class="st18" width="13" height="7.4"/>
	<rect x="890.5" y="307.1" class="st36" width="15.3" height="1.7"/>
	<rect x="890.5" y="309.9" class="st36" width="10.8" height="1.7"/>
	<rect x="890.5" y="312.7" class="st36" width="15.3" height="1.7"/>
	<rect x="874.4" y="315.6" class="st36" width="31.4" height="1.7"/>
	<rect x="874.4" y="318.4" class="st36" width="31.4" height="1.7"/>
	<rect x="874.4" y="321.2" class="st36" width="31.4" height="1.7"/>
	<rect x="874.4" y="324.1" class="st36" width="28.9" height="1.7"/>
	<rect x="874.4" y="326.9" class="st36" width="31.4" height="1.7"/>
	<rect x="874.4" y="329.7" class="st36" width="31.4" height="1.7"/>
	<rect x="913.6" y="304.5" class="st27" width="39.1" height="29.5"/>
	<rect x="917.4" y="307.1" class="st18" width="13" height="7.4"/>
	<rect x="933.5" y="307.1" class="st36" width="15.3" height="1.7"/>
	<rect x="933.5" y="309.9" class="st36" width="10.8" height="1.7"/>
	<rect x="933.5" y="312.7" class="st36" width="15.3" height="1.7"/>
	<rect x="917.4" y="315.6" class="st36" width="31.4" height="1.7"/>
	<rect x="917.4" y="318.4" class="st36" width="31.4" height="1.7"/>
	<rect x="917.4" y="321.2" class="st36" width="31.4" height="1.7"/>
	<rect x="917.4" y="324.1" class="st36" width="28.9" height="1.7"/>
	<rect x="917.4" y="326.9" class="st36" width="31.4" height="1.7"/>
	<rect x="917.4" y="329.7" class="st36" width="31.4" height="1.7"/>
	<rect x="956.6" y="304.5" class="st2" width="39.1" height="29.5"/>
	
		<linearGradient id="SVGID_3_" gradientUnits="userSpaceOnUse" x1="921.1981" y1="210.6243" x2="921.1981" y2="372.4177" gradientTransform="matrix(1 0 0 -1 -56.59 599.7715)">
		<stop  offset="0" style="stop-color:#808080;stop-opacity:0.25"/>
		<stop  offset="0.54" style="stop-color:#808080;stop-opacity:0.12"/>
		<stop  offset="1" style="stop-color:#808080;stop-opacity:0.1"/>
	</linearGradient>
	<path class="st38" d="M898.5,227.4h-67.8c-3.7,0-6.7,3-6.7,6.7c0,0,0,0,0,0v148.4c0,3.7,3,6.7,6.7,6.7c0,0,0,0,0,0h67.8
		c3.7,0,6.7-3,6.7-6.7l0,0V234C905.2,230.3,902.2,227.3,898.5,227.4C898.5,227.4,898.5,227.4,898.5,227.4z"/>
	<path class="st34" d="M829.8,228.6h69.7c2.8,0,5.1,2.3,5.1,5.1v149.6c0,2.8-2.3,5.1-5.1,5.1h-69.7c-2.8,0-5.1-2.3-5.1-5.1V233.7
		C824.6,230.9,826.9,228.6,829.8,228.6z"/>
	<rect x="830.5" y="243.5" class="st35" width="68.2" height="130.2"/>
	<circle class="st27" cx="856.5" cy="236" r="0.6"/>
	<path class="st27" d="M860.1,235.4h12.7c0.3,0,0.5,0.2,0.5,0.5v0.3c0,0.3-0.2,0.5-0.5,0.5h-12.7c-0.3,0-0.5-0.2-0.5-0.5v-0.3
		C859.7,235.6,859.9,235.4,860.1,235.4z"/>
	<circle class="st27" cx="864.3" cy="379.9" r="4.3"/>
	<rect x="841.4" y="251.3" class="st2" width="46.5" height="35"/>
	<rect x="841.4" y="290.7" class="st27" width="46.5" height="35"/>
	<rect x="845.9" y="293.7" class="st18" width="15.5" height="8.8"/>
	<rect x="865.1" y="293.7" class="st36" width="18.2" height="2"/>
	<rect x="865.1" y="297.1" class="st36" width="12.8" height="2"/>
	<rect x="865.1" y="300.5" class="st36" width="18.2" height="2"/>
	<rect x="845.9" y="303.8" class="st36" width="37.4" height="2"/>
	<rect x="845.9" y="307.2" class="st36" width="37.4" height="2"/>
	<rect x="845.9" y="310.6" class="st36" width="37.4" height="2"/>
	<rect x="845.9" y="313.9" class="st36" width="34.4" height="2"/>
	<rect x="845.9" y="317.3" class="st36" width="37.4" height="2"/>
	<rect x="845.9" y="320.7" class="st36" width="37.4" height="2"/>
	<rect x="841.4" y="330.2" class="st27" width="46.5" height="35"/>
	<rect x="845.9" y="333.2" class="st18" width="15.5" height="8.8"/>
	<rect x="865.1" y="333.2" class="st36" width="18.2" height="2"/>
	<rect x="865.1" y="336.6" class="st36" width="12.8" height="2"/>
	<rect x="865.1" y="340" class="st36" width="18.2" height="2"/>
	<rect x="845.9" y="343.3" class="st36" width="37.4" height="2"/>
	<rect x="845.9" y="346.7" class="st36" width="37.4" height="2"/>
	<rect x="845.9" y="350.1" class="st36" width="37.4" height="2"/>
	<rect x="845.9" y="353.4" class="st36" width="34.4" height="2"/>
	<rect x="845.9" y="356.8" class="st36" width="37.4" height="2"/>
	<rect x="845.9" y="360.2" class="st36" width="37.4" height="2"/>
	
		<linearGradient id="SVGID_4_" gradientUnits="userSpaceOnUse" x1="1038.655" y1="205.7439" x2="1038.655" y2="296.0996" gradientTransform="matrix(1 0 0 -1 -56.59 599.7715)">
		<stop  offset="0" style="stop-color:#808080;stop-opacity:0.25"/>
		<stop  offset="0.54" style="stop-color:#808080;stop-opacity:0.12"/>
		<stop  offset="1" style="stop-color:#808080;stop-opacity:0.1"/>
	</linearGradient>
	<path class="st39" d="M1046.7,346.8c-3.1-3.8-7-8.2-6.4-13.3c0.4-4.1-0.6-7.9-0.4-12c0.3-5.9-0.9-10.5-5.1-14.2
		c-2.5-2.2-6.6-3.9-7.8-3.5c-2.4,0.9-5.1,0.5-7.6,1.1c-1.9,0.5-3.2,1.1-4,2c-1.6,1.4-1.6,3.4-0.9,5.5c-2.5,4.5-0.8,10.2,3.7,12.7
		c0.3,0.2,0.6,0.3,0.9,0.4c-1.8,0.7-3.3,2.4-3.9,5.8c-0.4,2.4-1,4.7-1.9,6.9c-0.4,0.2-0.8,0.3-1.1,0.5c0.1,0,0.2,0.1,0.3,0.1
		c-0.2,0.1-0.4,0.1-0.6,0.2c0.3,0.1,0.7,0.2,1,0.3c-1.3,3.3-3,6.4-5.1,9.3c0,0-5.3,1.2-7.4-0.9c0,0,0.3,0.4,0.8,1
		c-2-0.8-5.3-2.2-8.1-3.3c-2.1-0.8-2.6,0-2.6,1.1c-0.5,0.1-1,0.2-1.4,0.5c-0.6-0.4-1.2-0.7-1.9-1c-1.2-0.3-5-2.3-8.8,4.7
		c-2.2,4.1-8,11.5-12.3,17.1c-8.5,3.9-19.7,8.9-23.8,10.2h-2.6c-0.3-0.6-0.6-0.9-0.6-0.9l-0.2,0.1l-0.1-0.1c0,0-5.2,3.6-10.5,3.6
		c-0.8,0-1.5-0.1-2.2-0.3c-2.4-0.6-4.1-0.9-5.4-0.9c-1.4,0-2.3,0.3-2.8,1l0,0c-0.1,0.1-0.1,0.2-0.2,0.3l0,0
		c-0.1,0.1-0.1,0.2-0.2,0.3l0,0c0,0.1-0.1,0.2-0.1,0.3c0,0.2,0,0.4,0.2,0.6c0.1,0.1,0.1,0.2,0.2,0.3l0.1,0.2c1,1,2.2,1.8,3.4,2.6
		c0.4,0.3,0.9,0.6,1.4,0.9l0.9,0.6l0.8,0.5l0.3,0.2l0.4,0.2l0.7,0.4l0.4,0.2l0.7,0.4l0.6,0.4c1.5,0.9,3.1,1.8,4.5,2.6l1,0.5l0.1,0.1
		l0.6,0.3l1.1,0.6l0.7,0.4l0.3,0.2l0.4,0.2l0.1,0l0.6,0.4c0.3,0,0.5,0,0.8-0.2c0.2-0.8,0.6-2.5,1.1-2.6c0.5-0.1,2.6-3.9,3.2-6.3h5.7
		c1.1-0.1,2.2-0.3,3.4-0.5c-1.5,1.1-3,1.7-4.1,1.4c-2.4-0.6-4.7,0.9-4.9,2.3l0,0.1c0,0,0,0.1,0,0.1c0,0,0,0.1,0,0.1s0,0.1,0,0.1
		s0,0.1,0,0.1c0,0,0,0.1,0,0.1c0,0,0,0.1,0,0.1c0,0,0,0.1,0,0.1s0,0.1,0,0.1c0,0,0,0.1,0,0.1c0,0.1,0,0.1,0.1,0.1v0
		c0,0.1,0.1,0.1,0.1,0.2l0,0.1l0.1,0.1l0.1,0.1l0.1,0.1l0.1,0.1l0.1,0.1l0.1,0.1l0.2,0.1l0.1,0.1l0.2,0.1l0.1,0
		c0.1,0,0.2,0.1,0.3,0.1c0.1,0,0.4,0.1,0.7,0.2l0.2,0.1l0.4,0.1l0.2,0l0.8,0.2l0.4,0.1l0.3,0.1l0.7,0.1l1.4,0.2l1.2,0.2l1.6,0.2
		l0.4,0l0.6,0.1l0.8,0.1l0.6,0.1l0,0l1.5,0.2l0.5,0.1l0.9,0.1c1.2,0.1,2.4,0.3,3.5,0.4l1.3,0.1l0.6,0.1l0.3,0l0.8,0.1l0.4,0l0.5,0.1
		l0.7,0.1h0.1l0.5,0l0,0c0.2,0,0.4-0.1,0.5-0.4c0,0,0,0,0,0l0,0l0,0c0,0,0,0,0,0c0-0.1,0.1-0.1,0.1-0.2c0-0.7,0.1-1.4,0.3-2.1
		c0-0.1,0.1-0.2,0.1-0.4l0-0.1c0.1-0.1,0.1-0.3,0.2-0.4c0-0.1,0.1-0.2,0.1-0.3l0-0.1c0-0.1,0-0.1,0-0.2c0.6-2-0.1-5.8-0.3-7.3
		c-0.1-0.5-0.2-0.9-0.3-1.4c0,0,0.1,0,0.1,0c0.3-0.1,0.6-0.3,0.9-0.5c4.3-1.5,8-3.3,9.2-5.1c1.9-0.5,3.9-0.3,5.6,0.6
		c2.2,1.1,19.3,6.7,27.2,9.2c1.4,1.2,2.5,1.9,3.2,1.9c0,0,10.1,1.6,14.1-1.6c0.4,0.2,0.6,0.4,0.6,0.4s5.9-2.9,6.8-6.7
		c0.3-1.2,0.5-3.1,0.8-5.1c1.4-1.4,2.1-3.2,2.1-5.2c0.2-6.4,2.7-13.7,4.5-20.2c2.2,0.2,3.1-0.2,5.1-1.3l-0.1-0.1L1046.7,346.8z
		 M1012.9,356.3l-1.1-0.4c0.4-0.5,0.7-1.1,1-1.6L1012.9,356.3z M1006.6,359l6.8,4.1l0.1,0.8c-0.1,0.6-0.1,1.3,0.1,1.9
		C1010.5,363.2,1007,359.9,1006.6,359L1006.6,359z M1003.8,353c-0.7-0.3-1.4-0.6-1.8-0.8l1.6,0.1
		C1003.7,352.6,1003.7,352.8,1003.8,353L1003.8,353z M985.5,359.7c0,0,1.2-2.6,3.8,1.8c0.4,0.7,1.2,1.8,2.2,3.1l-7.7-1
		C984.6,362.4,985.2,361.1,985.5,359.7L985.5,359.7z"/>
	<path class="st40" d="M1002.5,349.1c0,0-5.4-2.3-9.7-4c-4.3-1.7-1.7,4-1.7,4s7.1,2,7.1,2.3s6,0.6,6,0.6L1002.5,349.1z"/>
	<path class="st26" d="M1002.5,349.1c0,0-5.4-2.3-9.7-4c-4.3-1.7-1.7,4-1.7,4s7.1,2,7.1,2.3s6,0.6,6,0.6L1002.5,349.1z"/>
	<path class="st41" d="M1025.5,326.7c0,0-9.7-5.1-11.4,4.8c-1.1,6.1-3.5,11.8-7.1,16.8c0,0-5.1,1.1-7.1-0.9c0,0,4.8,5.7,2.6,6.3
		c0,0,5.1,3.7,7.4,2.6c2.3-1.1,4-8.8,4.8-10.8C1015.5,343.5,1018.7,326.1,1025.5,326.7z"/>
	<path class="st2" d="M1025.5,326.7c0,0-9.7-5.1-11.4,4.8c-1.1,6.1-3.5,11.8-7.1,16.8c0,0-5.1,1.1-7.1-0.9c0,0,4.8,5.7,2.6,6.3
		c0,0,5.1,3.7,7.4,2.6c2.3-1.1,4-8.8,4.8-10.8C1015.5,343.5,1018.7,326.1,1025.5,326.7z"/>
	<path class="st40" d="M1020.1,323.3c0,0,6,6.8,6.3,12.5c0.3,5.7,6.8-6,7.4-6.3c0.6-0.3-5.7-9.9-6.3-13.1
		C1026.9,313.3,1020.1,323.3,1020.1,323.3z"/>
	<polygon class="st40" points="1024.2,326.2 1020.4,329.6 1022.2,336.8 1027,332.2 1026.5,327.7 	"/>
	<polygon class="st40" points="945.6,376.7 939.1,376.7 941.7,383 947.9,381.3 	"/>
	<path class="st2" d="M940.6,375.8c0,0-6.8,4.7-12.5,3.2c-5.8-1.5-7.4-0.9-8,1c-0.6,1.7,16.2,11,18.8,12.4c0.1,0.1,0.3,0.1,0.4-0.1
		c0,0,0-0.1,0-0.1c0.2-0.8,0.6-2.4,1.1-2.6c0.6-0.2,3.4-5.4,3.3-7.5C943.6,380.2,940.6,375.8,940.6,375.8z"/>
	<path class="st42" d="M940.3,375.8c0,0-6.8,4.7-12.5,3.2c-5.8-1.5-7.4-0.9-8,1c-0.6,1.7,16.2,11,18.8,12.4c0.1,0.1,0.3,0.1,0.4-0.1
		c0,0,0-0.1,0-0.1c0.2-0.8,0.6-2.4,1.1-2.6c0.6-0.2,3.4-5.4,3.3-7.5C943.3,380.2,940.3,375.8,940.3,375.8z"/>
	<path class="st41" d="M996.2,364.5l-19-2.6c0,0-31,14.8-34.7,15.1l0.9,6.6h5.7c2.3,0,24.4-4.8,27.6-9.7c1.8-0.5,3.7-0.3,5.4,0.6
		c2.8,1.4,30.1,10.2,30.1,10.2L996.2,364.5z"/>
	<path class="st2" d="M996.2,364.5l-19-2.6c0,0-31,14.8-34.7,15.1l0.9,6.6h5.7c2.3,0,24.4-4.8,27.6-9.7c1.8-0.5,3.7-0.3,5.4,0.6
		c2.8,1.4,30.1,10.2,30.1,10.2L996.2,364.5z"/>
	<polygon class="st40" points="962.4,373.3 959.3,377.3 962.4,379 966.9,375.6 	"/>
	<path class="st41" d="M1016.7,368.7c0,0-10.2-8.8-10.9-10.3s-17.5-12.4-18.6-12.7c-1.1-0.3-4.8-2.3-8.5,4.5
		c-3.7,6.8-17.3,23.3-17.3,23.3s4.3,6,5.7,5.7c1.4-0.3,17.3-13.6,18.5-20.2c0,0,1.1-2.6,3.7,1.7s19,24.7,22.2,24.4
		c0,0,12.2,2,14.8-2.8C1028.6,377.5,1016.7,368.7,1016.7,368.7z"/>
	
		<linearGradient id="SVGID_5_" gradientUnits="userSpaceOnUse" x1="971.2549" y1="315.9926" x2="1013.8061" y2="315.9926" gradientTransform="matrix(1 0 0 -1 0 654.8915)">
		<stop  offset="0" style="stop-color:#808080;stop-opacity:0.25"/>
		<stop  offset="0.54" style="stop-color:#808080;stop-opacity:0.12"/>
		<stop  offset="1" style="stop-color:#808080;stop-opacity:0.1"/>
	</linearGradient>
	<rect x="971.3" y="322.9" class="st43" width="42.6" height="32.1"/>
	<rect x="973" y="324.2" class="st27" width="39.1" height="29.5"/>
	<rect x="976.8" y="326.7" class="st18" width="13" height="7.4"/>
	<rect x="993" y="326.7" class="st36" width="15.3" height="1.7"/>
	<rect x="993" y="329.6" class="st36" width="10.8" height="1.7"/>
	<rect x="993" y="332.4" class="st36" width="15.3" height="1.7"/>
	<rect x="976.8" y="335.2" class="st36" width="31.4" height="1.7"/>
	<rect x="976.8" y="338" class="st36" width="31.4" height="1.7"/>
	<rect x="976.8" y="340.9" class="st36" width="31.4" height="1.7"/>
	<rect x="976.8" y="343.7" class="st36" width="28.9" height="1.7"/>
	<rect x="976.8" y="346.5" class="st36" width="31.4" height="1.7"/>
	<rect x="976.8" y="349.4" class="st36" width="31.4" height="1.7"/>
	<path class="st42" d="M1022.5,327.1c0,0-3.6,1.6-3.8,8.1c-0.3,6.5-6.6,17.6-6.6,17.6l0.6,13.1c0,0,6.8,6.8,7.4,11.1
		c0.6,4.3,5.4,7.1,5.4,7.1s5.7-2.8,6.6-6.6c0.9-3.7,1.4-12.8,2.8-16.2c1.4-3.4,0.6-24.7,0.6-24.7l-4.3-7.4l-2.3-2.6l-6,6.8
		C1022.9,333.5,1019.7,329.1,1022.5,327.1z"/>
	<path class="st2" d="M1014.1,361.6c0,0-0.9-10.2,1.7-12.5l5.1-14.5c0,0,1.8-7,1.6-7.5c-0.3-0.6-6.7,5.5-6.7,5.5l-4.3,15.1l1.1,15.9
		L1014.1,361.6z"/>
	<path class="st41" d="M1013.8,361.6c0,0-0.9-10.2,1.7-12.5l5.1-14.5c0,0,2-7.1,1.7-7.7c-0.3-0.6-6.8,5.7-6.8,5.7l-4.3,15.1
		l1.1,15.9L1013.8,361.6z"/>
	<path class="st40" d="M1015.8,357.1c0,0-14.2-4.5-15.1-5.7c-0.8-1.1-9.9-8.5-13.1-3.4s11.6,6.6,11.6,6.6l15.1,9.1L1015.8,357.1z"/>
	<path class="st2" d="M963,377.2l-4.2-0.8c0,0-6.9,8.8-10.5,7.9s-6.9,3-3.1,4.2c3.4,1.1,18.2,2.7,21,3c0.2,0,0.4-0.1,0.5-0.4
		c0,0,0,0,0-0.1c0-1.1,0.2-2.2,0.6-3.2c0.8-1.9,0-5.9-0.2-7.4c-0.1-0.9-0.4-1.8-0.8-2.6L963,377.2z"/>
	<path class="st42" d="M962.9,377.5l-4.2-0.8c0,0-6.9,8.8-10.5,7.9c-3.6-0.9-6.9,3-3.1,4.2c3.4,1.1,18.2,2.7,21,3
		c0.2,0,0.4-0.1,0.5-0.4c0,0,0,0,0-0.1c0-1.1,0.2-2.2,0.6-3.2c0.8-1.9,0-5.9-0.2-7.4c-0.1-0.9-0.4-1.8-0.8-2.6L962.9,377.5z"/>
	<circle class="st2" cx="1022.2" cy="317.5" r="9.1"/>
	<circle class="st40" cx="1021.4" cy="317.5" r="9.1"/>
	<path class="st41" d="M1030.3,326.4c0,0,10.8,3.7,10.8,11.4c0,7.7-6,19.9-6.3,29.8c-0.3,9.9-15.9,8.5-15.9,8.5s-2.3-33.5,0-36.1
		C1021.2,337.5,1031.5,327.5,1030.3,326.4z"/>
	<path class="st2" d="M1028.3,342.3c0,0-4,17.6-13.4,14.5c0,0-4.8,7.1-1.4,10.2c0,0,8.2,2,13.6-3.4c5.4-5.4,9.4-7.4,10.2-14
		c0.9-6.6,1.4-15.6-1.4-14.8S1028.3,342.3,1028.3,342.3z"/>
	<path class="st41" d="M1028.6,342c0,0-4,17.6-13.4,14.5c0,0-4.8,7.1-1.4,10.2c0,0,8.2,2,13.6-3.4s9.4-7.4,10.2-13.9
		s1.4-15.6-1.4-14.8S1028.6,342,1028.6,342z"/>
	<path class="st44" d="M967.5,387.4C967.5,387.4,967.5,387.4,967.5,387.4c-0.2,0.6-0.4,1.1-0.5,1.6c0.1-0.2,0.1-0.5,0.2-0.7
		C967.4,388,967.5,387.7,967.5,387.4z"/>
	<path class="st44" d="M945.4,388.1c-1.2-0.4-1.7-1-1.7-1.7c-0.5,0.9-0.2,2,1.5,2.5c3.4,1.1,18.2,2.7,21,3c0.2,0,0.4-0.1,0.5-0.4
		c0,0,0,0,0-0.1l0,0c0-0.2-0.2-0.4-0.4-0.4C963.2,390.7,948.8,389.2,945.4,388.1z"/>
	<path class="st44" d="M920.1,379.5c0.1-0.2,0.2-0.4,0.3-0.6c-0.3,0.3-0.5,0.7-0.7,1.1c-0.6,1.7,16.2,11,18.8,12.4
		c0.1,0.1,0.3,0,0.4-0.1c0,0,0-0.1,0-0.1l0,0c0-0.1,0-0.3-0.1-0.3C935.9,390.3,919.5,381.2,920.1,379.5z"/>
	<path class="st44" d="M940.5,389.2c-0.1,0-0.3,0.2-0.4,0.5h0c0.1,0,0.3-0.3,0.6-0.7C940.7,389.1,940.6,389.2,940.5,389.2z"/>
	<path class="st2" d="M1020.1,325.5c-0.8,1.8-1,3.7-1.6,5.6c-1.2,3.7-4,6.6-7.6,7.9c3,1.2,6.4-0.3,8.7-2.6s3.6-5.6,4.9-8.7
		c3.3,2.2,2.9,7.3,4,11.3c1,3.5,3.4,6.4,6.7,8c3.3,1.5,7,1.4,10.3-0.2c-3-3.7-7.4-8.8-6.8-13.7c0.4-4-2.5-7-2.3-11.1
		c0.3-5.7-1.9-8.6-6-12.2c-2.4-2.1,1.4-5.1-1.7-4.3c-1.2,0.3-2.5-0.9-3.7-0.5c-2.3,0.8-4.9,0.5-7.3,1.1
		C1005.2,309,1021.3,322.9,1020.1,325.5z"/>
	<path class="st45" d="M1020.4,325.2c-0.8,1.8-1,3.7-1.6,5.6c-1.2,3.7-4,6.6-7.6,7.9c3,1.2,6.4-0.3,8.7-2.6s3.6-5.6,4.9-8.7
		c3.3,2.2,2.9,7.3,4,11.3c1,3.5,3.4,6.4,6.7,8c3.3,1.5,7,1.4,10.3-0.2c-3-3.7-7.1-8-6.6-12.9c0.4-4-0.2-8.1,0-12.1
		c0.3-5.7-2.5-11.2-6.6-14.8c-2.4-2.1-6.1-2.4-7.3-2c-2.3,0.8-4.9,0.5-7.3,1.1C1005.5,308.8,1021.6,322.6,1020.4,325.2z"/>
	
		<linearGradient id="SVGID_6_" gradientUnits="userSpaceOnUse" x1="339.9877" y1="184.3458" x2="339.9877" y2="385.1524" gradientTransform="matrix(-1 0 0 -1 1251.9824 599.7715)">
		<stop  offset="0" style="stop-color:#808080;stop-opacity:0.25"/>
		<stop  offset="0.54" style="stop-color:#808080;stop-opacity:0.12"/>
		<stop  offset="1" style="stop-color:#808080;stop-opacity:0.1"/>
	</linearGradient>
	<path class="st46" d="M868.9,411.7c16.4-5,26.1-4.6,26.1-4.6l-1.3-7.6c0.4-0.3,0.8-0.6,1.1-1c0,0-1.7-9.2,0-11.6
		c1.7-2.3,6.3-23.3,6.3-23.3v-7.1c8.4-2.9,18.3-20,18.3-20l12.4,31.9c0,0,12.4,24.6,14.1,25.4c1.3,0.7,2,6.2,2.2,8.4l-0.1,0
		c0.1,0.5,0.1,0.9,0.1,0.9l0.1-0.1v0.1c0.2-0.1,0.4-0.3,0.7-0.4c-2.4,2.8-6,6.8-9.1,9.4c-1.7,1.5,1.3,2.6,2.7,2.6
		c0.8,0,1.6,0.1,2.3,0.3c7.1,2.4,18.7-6.5,18.7-6.5l-2.9-8.1c0.8-0.1,1.2-0.1,1.2-0.1s-9.5-33.2-13.9-36.3c-1.4-1-2.7-2.2-3.7-3.5
		c-2.1-2.6-3.2-5.8-3-9.1l1.5-27.2c2.5-0.4,4.1-0.7,4.1-0.7s0.6-7.4,0.6-13.2c0-3-0.1-5.6-0.6-6.6c-0.5-1.2-0.7-3.6-0.7-6
		c0-3.3,0.3-6.3,0.3-6.3s3.4-4.4,8-14.5c2-4.4,2.6-8,2.5-10.5c0-1.2-0.1-2.3-0.3-3.5c-0.3-1.1-1-2.1-2-2.7
		c-2.7-1.6-8.7-5.6-10.5-9.5c-2.3-4.9-5.5-5.6-5.7-5.7l-0.2-0.9c1.3-1,2.2-2.4,2.6-4c0.7-2.1,0.8-4.4,1.4-6.5c0.3-1,0.7-2,0.9-3.1
		c0.3-1,0.4-2.1,0.4-3.2c0.1-1.6-0.3-3.1-0.9-4.5c-1.1-2.2-3.2-4-5.7-4.3c-1.4-0.2-2.9,0.1-4-0.7c-0.8-0.5-1.2-1.5-1.9-2.1
		c-1.3-1.3-3.5-1.2-5.2-0.6c-2.3,0.8-4.3,2.4-5.7,4.4c-0.8,1.2-1.4,2.7-2.4,3.7c-0.9,0.9-2,1.5-3,2.3c-1.4,1.1-2.3,2.8-2.3,4.7
		c0,0,0,0,0,0.1c0,0.1,0,0.2,0,0.4c0,1.8,1.3,3.6,3.1,4c0.5,0.1,0.9,0.1,1.4,0c-1.6,6,1.9,12.3,8,13.9c0.1,0,0.3,0.1,0.4,0.1
		c0,0.1-0.1,0.3-0.1,0.5h0.1c-0.2,0.7-0.5,1.4-0.8,2.1h-0.1l0.3-0.6l-4.8-0.3c-1.4-0.1-2.8,0.2-4.1,0.8c-1.7,0.8-3.5,2.3-3.7,5.2
		c-0.4,5.4-10.7,13.6-10.7,13.6c-3.6,5.7-26.9,6.7-26.9,6.7s0.1,0.1,0.1,0.2l-0.5-0.1l-1.8-0.3c0,0-5.5-16.2-10.7-13.2
		c-5.3,2.9,9,18.9,9,18.9l4.1,0.3l0.4,0c-0.2,1-0.4,2.1-0.7,3.1l0,0c-0.1,0.2-0.1,0.3-0.1,0.4l0,0c0,0,10.9-1.3,20.1-1.1h0.8l0.6,0
		c0.5,5.1,7.7,15.4,7.7,15.4l4.5,0.9l0.3,0.1c-1.4,3-3.3,5.7-5.4,8.2l-1.5,8.2l0.1,0l-0.1,0.7c0.3-0.1,0.5-0.2,0.7-0.4
		c-2.9,7.6-7.7,19.5-11,23.7c-5,6.3-4.4,16.4-4.4,16.4s-5,26.5-4.8,31.3c0,2.3-0.6,4.6-1.8,6.6c-1,1.1-1.9,2.4-2.6,3.7
		c-3.8,6.5-9.9,6.1-9.9,6.1C862.6,409,868.9,411.7,868.9,411.7z M901.3,283.6L901.3,283.6l0.5-0.2l0.1-0.1l0.5-0.2l0.1,0l0.5-0.2
		l0.1,0l0.5-0.2l0.1-0.1l0.5-0.2h0l0.5-0.3l0.1-0.1l0.5-0.3l0.1,0l0.4-0.2l0.1-0.1l0.4-0.3l0.1-0.1l0.4-0.3l0,0l0.4-0.3l0.1-0.1
		l0.4-0.3l0.1,0l0.3-0.3l0.1-0.1l0.4-0.3l0.1-0.1l0.3-0.3h0l0.3-0.3l0.1-0.1l0.3-0.3l0,0l0.3-0.2l0,0l0.3-0.2l0,0l0.3-0.2l0,0
		l0.2-0.2l0,0l0.5-0.5l0.7-0.1c0.6,0.8,0.8,2.1,0.8,3.6c-0.1,3.9-1.3,8.8-1.3,8.8c-0.1,2.4-0.5,4.8-1.2,7.1c-0.5,0-1-0.2-1.5-0.4
		c0,0,0,0.1-0.1,0.4l-0.4-0.1l-2-0.5C906.5,295.8,904.8,287.1,901.3,283.6z"/>
	<path class="st47" d="M958.3,395.5l3.9,10.9c0,0-10.7,8.2-17.6,6.5c-1-0.3-2.1-0.4-3.2-0.5c-1.4-0.1-3.9-1.2-2.4-2.5
		c4.9-4.3,11.5-12.3,11.5-12.3L958.3,395.5z"/>
	<path class="st47" d="M893.5,394.4l1.8,10.5c0,0-9.4-0.4-25.4,4.5c0,0-6.2-2.7-1-5.9c0,0,5.9,0.4,9.6-5.9c3.7-6.4,5.9-5.5,5.9-5.5
		L893.5,394.4z"/>
	<path class="st48" d="M942.3,318.5l-1.8,31.8c-0.2,3.4,0.9,6.7,3.1,9.3c1,1.2,2.1,2.2,3.4,3.2c4.3,3.1,13.5,35.5,13.5,35.5
		s-10.5,0.6-13.3,2.7c0,0-0.6-8.2-2.3-9s-13.7-24.8-13.7-24.8L919.1,336c0,0-9.6,16.6-17.8,19.5v7c0,0-4.5,20.5-6.2,22.8
		s0,11.3,0,11.3s-4.7,5.9-15.6-0.4c0,0,3.5-3.9,3.3-8.6c-0.2-4.7,4.7-30.6,4.7-30.6s-0.6-9.8,4.3-16c4.9-6.2,13.1-29.7,13.1-29.7
		l5.6-12.1L942.3,318.5z"/>
	<g class="st49">
		<path d="M958.6,398.3c0,0-9.2-32.4-13.5-35.5c-1.3-1-2.5-2.1-3.6-3.4c-2.1-2.5-3.2-5.8-3-9.1l1.8-31.8l-30.3-18.6l0.4-0.9
			l31.7,19.5l-1.8,31.8c-0.2,3.3,0.9,6.6,3,9.1c1,1.3,2.2,2.4,3.6,3.4c4.3,3.1,13.5,35.5,13.5,35.5s-10.5,0.6-13.3,2.7
			c0,0,0-0.3-0.1-0.8C951.1,398.8,958.6,398.3,958.6,398.3z"/>
		<path d="M893.2,396.5c0,0-1.6-9,0-11.3s6.2-22.8,6.2-22.8v-7c8.2-2.9,17.8-19.5,17.8-19.5l0.7,1.8c-2.8,4.4-10.2,15.4-16.7,17.6v7
			c0,0-4.5,20.5-6.2,22.8c-1.6,2.3,0,11.3,0,11.3s-2.3,2.9-7.3,2.5C891.5,398.7,893.2,396.5,893.2,396.5z"/>
	</g>
	<path class="st50" d="M871.7,282.9l4,0.3l2.1,0.1v-5.1l-2.8-0.5l-1.7-0.3c0,0-5.3-15.8-10.5-12.9
		C857.8,267.2,871.7,282.9,871.7,282.9z"/>
	<path class="st50" d="M936.4,240.6c0,0,2.7,10.3,3.5,16.6c0.8,6.4-19.1,1.2-19.1,1.2s7.6-9.2,3.3-14.2L936.4,240.6z"/>
	<path class="st51" d="M914.8,283.3l-0.4,3.9l6.4-0.4l6.4-5.5l6.4-17.8l4.1-6.4l3.1-3.9l-1.2-4.7c0,0-0.6,0.5-1.5,1.2
		c-3.1,2.4-10.5,7.4-15.8,6c-0.2-0.1-0.5-0.1-0.7-0.2l-8,13.7L914.8,283.3z"/>
	<path class="st2" d="M937.8,247.2c0,0,3.3,0.6,5.5,5.5c1.7,3.8,7.6,7.7,10.2,9.3c1,0.6,1.7,1.6,2,2.8c0.5,2.3,0.7,6.7-2.1,13
		c-4.5,9.8-7.8,14.2-7.8,14.2s-0.8,9.8,0.4,12.7c1.2,2.9,0,18.7,0,18.7s-21.5,4.1-28.7,0s-6.2-19.9-6.2-19.9s-6.8,14.4-9.2,14.8
		l1.4-8c0,0,8-8.6,8.4-19.7c0,0,2.5-10,0.4-12.7c0,0-34.7,2.9-36.7,0.4c0,0,22.8-1,26.3-6.6c0,0,10-8,10.5-13.3
		c0.1-2,1.3-3.9,3.1-4.8c1.4-0.8,3-1.2,4.6-1l4.6,0.3c0,0-8,14.1-7.6,16c0.4,1.9-0.4,16.8-0.4,16.8s9.2-19.9,13.3-22.2
		c4.1-2.3,8.8-11.5,8.8-11.5L937.8,247.2"/>
	<path class="st2" d="M914.8,283.3l-0.4,3.9l6.4-0.4l6.4-5.5l6.4-17.8l4.1-6.4l3.1-3.9l-1.2-4.7c0,0-0.6,0.5-1.5,1.2l0.3,1.6
		c0,0-4.7,9.3-8.8,11.5S916,284.9,916,284.9s0.8-15,0.4-16.8c-0.3-1.3,3.3-8.2,5.6-12.5c-0.2-0.1-0.5-0.1-0.7-0.2l-8,13.7
		L914.8,283.3z"/>
	<path class="st2" d="M875.8,283.1l2.1,0.1v-5.1l-2.8-0.5C876.1,278.9,876,281.2,875.8,283.1z"/>
	<path class="st52" d="M937.8,246.6c0,0,3.3,0.6,5.5,5.5c1.7,3.8,7.6,7.7,10.2,9.3c1,0.6,1.7,1.6,2,2.8c0.5,2.3,0.7,6.7-2.1,13
		c-4.5,9.8-7.8,14.2-7.8,14.2s-0.8,9.8,0.4,12.7c1.2,2.9,0,18.7,0,18.7s-21.5,4.1-28.7,0s-6.2-19.9-6.2-19.9s-6.8,14.4-9.2,14.8
		l1.4-8c0,0,8-8.6,8.4-19.7c0,0,2.5-10,0.4-12.7c0,0-8,8.6-17,8.4c-9-0.2-19.7,1-19.7,1s2.1-6.6,0-9c0,0,22.8-1,26.3-6.6
		c0,0,10-8,10.5-13.3c0.1-2,1.3-3.9,3.1-4.8c1.4-0.8,3-1.2,4.6-1l4.6,0.3c0,0-8,14.1-7.6,16c0.4,1.8-0.4,16.8-0.4,16.8
		s9.2-19.9,13.3-22.2c4.1-2.3,8.8-11.5,8.8-11.5L937.8,246.6"/>
	<path class="st2" d="M942.3,268.1c0,0-4.9,16.6-7.8,18.7c-2.9,2.1-20.3,12.5-25.4,10c0,0-1.2,6.2,0.6,7.6c0,0,19.1-0.7,19.3-0.8
		c0,0,12.5-1.6,14.6-7.8c2.1-6.2,4.5-16.6,4.5-16.6L942.3,268.1z"/>
	<ellipse class="st53" cx="916" cy="285.8" rx="0.7" ry="1"/>
	<ellipse class="st53" cx="914" cy="293" rx="0.7" ry="1"/>
	<g class="st49">
		<path d="M944.6,322.4c0,0,1.2-15.8,0-18.7c-1.2-2.9-0.4-12.7-0.4-12.7s3.3-4.3,7.8-14.2c2.9-6.3,2.7-10.6,2.1-13
			c-0.3-1.2-1-2.2-2-2.8c-2.6-1.6-8.5-5.5-10.2-9.3c-1.3-2.8-2.9-4.2-4-4.9l-0.1-0.5c0,0,3.3,0.6,5.5,5.5c1.7,3.8,7.6,7.7,10.2,9.3
			c1,0.6,1.7,1.6,2,2.8c0.5,2.3,0.7,6.7-2.1,13c-4.5,9.8-7.8,14.2-7.8,14.2s-0.8,9.8,0.4,12.7c1.2,2.9,0,18.7,0,18.7
			s-15.4,2.9-24.5,1.4C930.7,325.1,944.6,322.4,944.6,322.4z"/>
		<path d="M916.9,268.1c0.3,1.3,0,8.7-0.2,13.2c-1,2-1.6,3.4-1.6,3.4s0.8-15,0.4-16.8c-0.4-1.8,6.8-14.6,7.5-15.9l1.5,0.1
			C924.5,252.1,916.5,266.2,916.9,268.1z"/>
		<path d="M893.7,285.3c9,0.2,17-8.4,17-8.4c0.2,0.3,0.4,0.7,0.5,1.1c-2.3,2.2-8.9,7.7-16.1,7.5c-9-0.2-19.7,1-19.7,1s0-0.1,0.1-0.4
			C881.6,285.5,887.6,285.3,893.7,285.3z"/>
		<path d="M909.7,302.5c0,0-0.1,1.3,0,3.2c-2.1,4.2-6,11.5-7.8,11.8l0.3-1.7C905.2,312.1,909.7,302.5,909.7,302.5z"/>
	</g>
	
		<linearGradient id="SVGID_7_" gradientUnits="userSpaceOnUse" x1="887.5452" y1="367.1583" x2="887.5452" y2="404.1068" gradientTransform="matrix(1 0 0 -1 0 654.8915)">
		<stop  offset="0" style="stop-color:#808080;stop-opacity:0.25"/>
		<stop  offset="0.54" style="stop-color:#808080;stop-opacity:0.12"/>
		<stop  offset="1" style="stop-color:#808080;stop-opacity:0.1"/>
	</linearGradient>
	<rect x="863" y="250.8" class="st54" width="49" height="36.9"/>
	<rect x="864.3" y="251.7" class="st27" width="46.5" height="35"/>
	<rect x="868.8" y="254.8" class="st18" width="15.5" height="8.8"/>
	<rect x="888" y="254.8" class="st36" width="18.2" height="2"/>
	<rect x="888" y="258.1" class="st36" width="12.8" height="2"/>
	<rect x="888" y="261.5" class="st36" width="18.2" height="2"/>
	<rect x="868.8" y="264.9" class="st36" width="37.4" height="2"/>
	<rect x="868.8" y="268.2" class="st36" width="37.4" height="2"/>
	<rect x="868.8" y="271.6" class="st36" width="37.4" height="2"/>
	<rect x="868.8" y="275" class="st36" width="34.4" height="2"/>
	<rect x="868.8" y="278.4" class="st36" width="37.4" height="2"/>
	<rect x="868.8" y="281.7" class="st36" width="37.4" height="2"/>
	<path class="st50" d="M903.9,300.5l4.4,0.9l3.4,0.7l-1.8-5.1l-1.3-0.3l-2-0.5c0,0-2.9-14.3-8.6-13.3
		C892.3,283.9,903.9,300.5,903.9,300.5z"/>
	<path class="st2" d="M908.3,301.4l3.4,0.7l-1.8-5.1l-1.3-0.3C908.3,298.2,908.2,299.8,908.3,301.4z"/>
	<path class="st52" d="M942.3,267.7c0,0-4.9,16.6-7.8,18.7c-2.9,2.1-20.3,12.5-25.4,10c0,0-1.2,6.2,0.6,7.6c0,0,19.1-0.7,19.3-0.8
		c0,0,12.5-1.6,14.6-7.8c2.1-6.2,4.5-16.6,4.5-16.6L942.3,267.7z"/>
	<path class="st2" d="M936.1,241c0,0,0.4,1.6,1,3.9c-2.3,4.4-7.3,6.7-12.2,5.6c0.5-2.1,0.4-4.2-1.1-5.9L936.1,241z"/>
	<circle class="st50" cx="927.5" cy="239.4" r="11.1"/>
	<path class="st2" d="M917.9,236.3c-0.8,0.2-1.6,0.3-2.5,0.1c-1.7-0.4-3-2.1-3-3.9c0-1.8,0.9-3.5,2.3-4.6c0.9-0.8,2.1-1.3,2.9-2.2
		c1-1,1.6-2.4,2.3-3.6c1.3-2,3.3-3.5,5.6-4.3c1.7-0.6,3.8-0.6,5.1,0.6c0.7,0.6,1.1,1.5,1.8,2.1c1.1,0.8,2.6,0.5,3.9,0.7
		c2.4,0.4,4.5,1.9,5.6,4.2c1,2.2,1.2,4.7,0.5,7.1c-0.3,1-0.6,2-0.9,3c-0.6,2.1-0.7,4.3-1.4,6.3c-0.7,2.1-2,4.1-4.1,4.7
		c0.2-2.3-0.3-4.6-1.3-6.7c-0.2-0.5-0.5-0.8-0.9-1c-0.4-0.1-0.8-0.1-1.1,0c-2.6,0.4-5.2-0.2-7.5-1.5c-0.8-0.5-2-2.1-2.9-2.3
		C921.3,234.8,919,236.1,917.9,236.3z"/>
	<path class="st55" d="M917.9,235.9c-0.8,0.2-1.6,0.3-2.5,0.1c-1.7-0.4-3-2.1-3-3.9c0-1.8,0.9-3.5,2.3-4.6c0.9-0.8,2.1-1.3,2.9-2.2
		c1-1,1.6-2.4,2.3-3.6c1.3-2,3.3-3.5,5.6-4.3c1.7-0.6,3.8-0.6,5.1,0.6c0.7,0.6,1.1,1.5,1.8,2.1c1.1,0.8,2.6,0.5,3.9,0.7
		c2.4,0.4,4.5,1.9,5.6,4.2c1,2.2,1.2,4.7,0.5,7.1c-0.3,1-0.6,2-0.9,3c-0.6,2.1-0.7,4.3-1.4,6.3c-0.7,2.1-2,4.1-4.1,4.7
		c0.2-2.3-0.3-4.6-1.3-6.7c-0.2-0.5-0.5-0.8-0.9-1c-0.4-0.1-0.8-0.1-1.1,0c-2.6,0.4-5.2-0.2-7.5-1.5c-0.8-0.5-2-2.1-2.9-2.3
		C921.3,234.4,919,235.7,917.9,235.9z"/>
	<path class="st4" d="M832.5,401.8c0.9-0.7,1.5-1.6,1.8-2.7c0.2-1.1-0.2-2.4-1.3-2.8c-1.2-0.4-2.4,0.4-3.3,1.2
		c-0.9,0.8-2,1.7-3.2,1.6c1.3-1.2,1.9-2.9,1.5-4.6c-0.1-0.3-0.2-0.7-0.4-0.9c-0.6-0.7-1.8-0.4-2.6,0.1c-2.4,1.7-3.1,5-3.1,8
		c-0.2-1.1,0-2.2,0-3.3c0-1.1-0.3-2.3-1.2-2.9c-0.6-0.3-1.2-0.5-1.9-0.4c-1.1,0-2.3,0.1-3.1,0.9c-0.9,1-0.7,2.7,0.1,3.7
		c0.8,1.1,2,1.8,3.2,2.5c0.9,0.5,1.7,1.3,2.3,2.2c0.1,0.1,0.1,0.3,0.2,0.4h6.8C829.8,404,831.2,403,832.5,401.8z"/>
	<path class="st4" d="M1239.3,336.8c0.9-0.7,1.5-1.6,1.8-2.7c0.2-1.1-0.2-2.4-1.3-2.8c-1.2-0.4-2.4,0.4-3.3,1.2
		c-0.9,0.8-2,1.7-3.2,1.6c1.3-1.2,1.9-2.9,1.5-4.6c-0.1-0.3-0.2-0.7-0.4-0.9c-0.6-0.7-1.8-0.4-2.6,0.1c-2.4,1.7-3.1,5-3.1,8
		c-0.2-1.1,0-2.2,0-3.3c0-1.1-0.3-2.3-1.2-2.9c-0.6-0.3-1.2-0.5-1.9-0.4c-1.1,0-2.3,0.1-3.1,0.9c-0.9,1-0.7,2.7,0.1,3.7
		c0.8,1.1,2,1.8,3.2,2.5c0.9,0.5,1.7,1.3,2.3,2.2c0.1,0.1,0.1,0.3,0.2,0.4h6.9C1236.6,338.9,1238,337.9,1239.3,336.8z"/>
	
		<linearGradient id="SVGID_8_" gradientUnits="userSpaceOnUse" x1="1319.2655" y1="247.9331" x2="1319.2655" y2="444.2505" gradientTransform="matrix(1 0 0 -1 -56.59 599.7715)">
		<stop  offset="0" style="stop-color:#808080;stop-opacity:0.25"/>
		<stop  offset="0.54" style="stop-color:#808080;stop-opacity:0.12"/>
		<stop  offset="1" style="stop-color:#808080;stop-opacity:0.1"/>
	</linearGradient>
	<path class="st56" d="M1300.1,196.1c-1-2.8-2.4-6.4-3.5-7.3c-0.1-0.1-0.1-0.1-0.2-0.1h-0.1v-3.5l-2.6,0.4c-0.4-1.3-0.7-2.6-0.9-3.9
		c0.5,0.5,1.3,0.7,2,0.4c0-0.1-0.1-0.1-0.1-0.2l0.1-0.1c-0.4-0.7-0.6-1.5-0.6-2.4c0-0.8,0.1-1.5,0.4-2.2c0.5-1.6,1.3-3.1,1.7-4.7
		c0.3-1,0.4-2.1,0.4-3.2c0-1.8-0.4-3.6-1.2-5.3c-0.2-0.5-0.5-0.9-0.9-1.2c-0.4-0.2-0.7-0.4-1.1-0.6c-0.6-0.4-1.2-1-1.6-1.6
		c-1.9-2.3-4.3-3.9-7.1-4.8c-0.7-0.3-1.5-0.3-2.3-0.2c-1.8,0.5-2.4,2.6-3.8,3.8c-1.3,1-3,1.1-4.6,1.4c-1.6,0.3-3.2,1-4.2,2.2
		c-0.7,0.8-1.1,1.9-1.1,3.1c-0.1,1.1,0.4,2.1,1.3,2.7c1,0.6,2.2,0.8,3.3,0.5c-1.7,6,1.7,12.3,7.7,14c0.3,0.1,0.6,0.2,0.8,0.2
		l0.3,0.5l0,0c0.9,1.8,1.7,3.6,2.1,5.5c-2.4,1.4-5,2.6-6.6,2.8c-0.1,0.6-0.2,1.2-0.3,1.8c-0.4,1.5-1.1,2.9-2.1,4.1
		c-2.2,2.4-11.9,20.8-11.9,20.8s-0.3,0.7-0.8,2c-6,0.7-15.9,1.8-18.6,1.3l-10.8-10.2c0,0-3.5,2.7-3.2,5.9l-1.9-1.8
		c0,0-10.2,7.8,5.9,12.9l24.6,2.9c-2.3,7.1-4.5,15.3-3.9,19.8h0.2c0.5,0,0.9,0,1.4-0.1l0,0.8l-2.4,42.4c0,0-0.5,7.8,6.7,11.3
		c0,0,8.9,26.1,5.4,29.1c0,0,0.4,0.2,1.1,0.5l-7.3,6.5c0,0-5.4,1.3-8.4,1.1c-1.1-0.1-2.1,0.5-2.4,1.6c0,0.1,0,0.1,0,0.2v0.1
		c0,0.1,0,0.1,0,0.2s0,0,0,0.1c0,0,0,0.1,0,0.1s0,0,0,0.1c0,0,0,0.1,0,0.2v0.1c0,0.1,0,0.1,0.1,0.2l0,0.1c0,0.1,0.1,0.1,0.1,0.2v0
		c0,0.1,0.1,0.1,0.1,0.2l0,0.1c0,0.1,0.1,0.1,0.1,0.2l0,0c0.1,0.1,0.1,0.1,0.2,0.2l0,0l0.2,0.2l0,0c0.1,0.1,0.2,0.1,0.2,0.2l0.1,0
		c0.1,0.1,0.2,0.1,0.3,0.2h0l0.3,0.1h0l0.4,0.1l0.1,0l0.4,0.1h0.1l0.4,0.1h0l0.5,0.1h0.1l0.5,0.1h0.1l0.6,0.1
		c1.1,0.1,2.6,0.1,4.3,0.1l0,0c0,0,0,0,0,0.1c0,0,0,0.1,0,0.1v0.1c0,0.1,0,0.1,0,0.2v0.1c0,0.1,0,0.1,0.1,0.2l0,0.1
		c0,0.1,0.1,0.1,0.1,0.2v0c0,0.1,0.1,0.1,0.1,0.2l0,0.1c0,0.1,0.1,0.1,0.1,0.2l0,0c0.1,0.1,0.1,0.1,0.2,0.2l0,0l0.2,0.2l0,0
		c0.1,0.1,0.2,0.1,0.2,0.2l0.1,0c0.1,0.1,0.2,0.1,0.3,0.2h0l0.3,0.1h0l0.4,0.1l0.1,0l0.4,0.1h0.1l0.4,0.1h0l0.5,0.1h0.1l0.5,0.1h0.1
		l0.6,0.1c7,0.5,29.4-1.1,29.4-1.1v-0.1l0,0v-0.1l0,0c0.2-1,1.3-7.1-2.5-11.6c0.1-0.1,0.2-0.2,0.3-0.4c0,0-3-5.1-1.3-6.7
		c1.6-1.6-8.1-29.6-8.1-29.6s-5.1-8.1-2.2-17.2s-0.3-19.1-0.3-19.1s7.1-2.1,7.2-10.8c0-0.3,0-0.5,0-0.8c0.2,0,0.3,0,0.5,0
		c0.1,0,0.2,0,0.3,0c0,0-1.3-4.8,0.3-8.4c1.6-3.5,5.1-0.3,8.4-14.6c2.3-10.3,4.4-22.2,5.4-28
		C1300.9,200.7,1300.8,198.3,1300.1,196.1z M1238.6,226.4l-2.5-2.3c0.8,0.3,1.7,0.7,2.7,1l9.3,1.1
		C1244,226.5,1240.2,226.7,1238.6,226.4L1238.6,226.4z"/>
	<path class="st57" d="M1262.1,225c0,0-19.1,2.6-23,1.9l-10.6-10.1c0,0-10.1,7.7,5.8,12.7l29.7,3.4L1262.1,225z"/>
	<path class="st26" d="M1262.1,225c0,0-19.1,2.6-23,1.9l-10.6-10.1c0,0-10.1,7.7,5.8,12.7l29.7,3.4L1262.1,225z"/>
	<path class="st58" d="M1268.9,332.5l-9.3,8.2c0,0-5.3,1.3-8.2,1.1c-2.9-0.3-4.2,4.5,2.6,5s28.9-1.1,28.9-1.1s2.1-8.5-4.2-13.2
		H1268.9z"/>
	<path class="st26" d="M1268.9,332.5l-9.3,8.2c0,0-5.3,1.3-8.2,1.1c-2.9-0.3-4.2,4.5,2.6,5s28.9-1.1,28.9-1.1s2.1-8.5-4.2-13.2
		H1268.9z"/>
	<path class="st59" d="M1283.3,342.1c0,1-0.1,1.9-0.3,2.9c0,0-22,1.6-28.9,1.1c-3.3-0.3-4.7-1.5-5-2.7c-0.3,1.4,0.9,3.2,5,3.5
		c6.9,0.5,28.9-1.1,28.9-1.1C1283.2,344.6,1283.3,343.3,1283.3,342.1z"/>
	<path class="st57" d="M1279.8,182.4c0,0,5.8,8.2,3.7,13.8c-2.1,5.6,11.1-5.8,11.1-5.8s-4.2-7.4-2.1-15.4L1279.8,182.4z"/>
	<path class="st58" d="M1278.2,335.7l-9.3,8.2c0,0-5.3,1.3-8.2,1.1c-2.9-0.3-4.2,4.5,2.6,5c6.9,0.5,28.9-1.1,28.9-1.1
		s2.1-8.5-4.2-13.2H1278.2z"/>
	<path class="st60" d="M1280.9,333.9c-1.4,1.7-3.3,2.3-5.4,2.5c-4.6,0.2-9.7-2.5-9.7-2.5c3.4-2.9-5.3-28.6-5.3-28.6
		c-7.1-3.4-6.6-11.1-6.6-11.1l2.3-41.7l0.6-10.5l7.4-4.5l5.8,4.5l5.5,4.3c0.4,1.4,0.6,2.7,0.7,4.1c0.6,9.7-7,12-7,12
		s3.2,9.8,0.3,18.8c-2.9,9,2.1,16.9,2.1,16.9s9.5,27.5,8,29.1C1278,328.8,1280.9,333.9,1280.9,333.9z"/>
	<path class="st26" d="M1280.9,333.9c-1.4,1.7-3.3,2.3-5.4,2.5c-4.6,0.2-9.7-2.5-9.7-2.5c3.4-2.9-5.3-28.6-5.3-28.6
		c-7.1-3.4-6.6-11.1-6.6-11.1l2.3-41.7l0.6-10.5l7.4-4.5l5.8,4.5l5.5,4.3c0.4,1.4,0.6,2.7,0.7,4.1c0.6,9.7-7,12-7,12
		s3.2,9.8,0.3,18.8c-2.9,9,2.1,16.9,2.1,16.9s9.5,27.5,8,29.1C1278,328.8,1280.9,333.9,1280.9,333.9z"/>
	<path class="st60" d="M1290.1,337c-4.5,5.6-15.1,0-15.1,0c0.2-0.2,0.4-0.4,0.5-0.7c1.9-5.3-6.6-30.5-6.6-30.5
		c-7.1-3.4-8-11.6-8-11.6l-1.9-42.4l-0.2-5.5l11.1-4.3l3.4-1.3l11.4,8.7c0.5,1.8,0.7,3.7,0.7,5.5c-0.1,8.6-7.1,10.6-7.1,10.6
		s3.2,9.8,0.3,18.8s2.1,16.9,2.1,16.9s9.5,27.5,8,29.1C1287.2,332,1290.1,337,1290.1,337z"/>
	<path class="st2" d="M1285.6,254.9c-2.3-0.3-6.9-3.1-9.3-4.6c-0.9-0.6-1.5-0.9-1.5-0.9s-2.4-6.6-8.7-1.6c-2.1,1.7-4.4,3-6.9,3.9
		c-1,0.3-1.9,0.6-2.9,0.7l0.6-10.5l7.4-4.5l5.8,4.5l3.4-1.3l11.4,8.7C1285.3,251.2,1285.6,253.1,1285.6,254.9z"/>
	<path class="st61" d="M1299.9,204.1c-0.9,5.7-3,17.4-5.3,27.5c-3.2,14-6.6,10.9-8.2,14.3c-1.6,3.4-0.3,8.2-0.3,8.2
		c-2.6,0.3-11.4-5.6-11.4-5.6s-2.4-6.6-8.7-1.6c-6.4,5-11.4,4.8-11.4,4.8c-1.3-8.7,8.5-32,8.5-32s9.5-18,11.6-20.4
		c1-1.2,1.7-2.5,2-4c0.2-0.6,0.3-1.2,0.3-1.8c3.4-0.3,11.9-6.1,11.9-6.1l6.6-1.1v3.4c0.1,0,0.1,0.1,0.2,0.1c1.1,0.8,2.5,4.4,3.4,7.2
		C1300.1,199.4,1300.3,201.8,1299.9,204.1z"/>
	<path class="st2" d="M1294.6,193.3c0,0-6.9-5.6-17.2,12.4c-10.3,18-12.7,15.1-12.7,15.1s2.1,8,1.1,9.5c0,0,7.1-0.5,9.8,0
		c2.6,0.5,19.1-20.1,19.1-20.1S1303.1,198.5,1294.6,193.3z"/>
	<path class="st2" d="M1294.4,192.2c0,0-6.9-5.6-17.2,12.4c-10.3,18-12.7,15.1-12.7,15.1s8.2,9,10.9,9.5
		c2.6,0.5,19.1-20.1,19.1-20.1S1302.8,197.5,1294.4,192.2z"/>
	<path class="st2" d="M1265.5,228.6c0.1-2-0.6-5.4-1.1-7.2c1.6-0.2,2.6-0.4,2.6-0.4l1.9,8L1265.5,228.6z"/>
	<path class="st2" d="M1292.8,175.5l-12.7,7.4c0.5,0.8,1,1.6,1.5,2.4c0.7,0.1,1.5,0.2,2.2,0.2c3.4,0,5-3.6,7-6
		C1290.6,177.7,1292.2,177.6,1292.8,175.5z"/>
	<circle class="st57" cx="1283.5" cy="173.9" r="11.1"/>
	
		<linearGradient id="SVGID_9_" gradientUnits="userSpaceOnUse" x1="1221.537" y1="400.7976" x2="1221.537" y2="468.2915" gradientTransform="matrix(1 0 0 -1 0 654.8915)">
		<stop  offset="0" style="stop-color:#808080;stop-opacity:0.25"/>
		<stop  offset="0.54" style="stop-color:#808080;stop-opacity:0.12"/>
		<stop  offset="1" style="stop-color:#808080;stop-opacity:0.1"/>
	</linearGradient>
	<rect x="1176.8" y="186.6" class="st62" width="89.6" height="67.5"/>
	<rect x="1178.8" y="188.1" class="st27" width="85.5" height="64.5"/>
	<rect x="1187.1" y="193.7" class="st18" width="28.5" height="16.1"/>
	<rect x="1222.5" y="193.7" class="st36" width="33.5" height="3.7"/>
	<rect x="1222.5" y="199.9" class="st36" width="23.6" height="3.7"/>
	<rect x="1222.5" y="206.1" class="st36" width="33.5" height="3.7"/>
	<rect x="1187.1" y="212.3" class="st36" width="68.8" height="3.7"/>
	<rect x="1187.1" y="218.5" class="st36" width="68.8" height="3.7"/>
	<rect x="1187.1" y="224.7" class="st36" width="68.8" height="3.7"/>
	<rect x="1187.1" y="230.9" class="st36" width="63.2" height="3.7"/>
	<rect x="1187.1" y="237.1" class="st36" width="68.8" height="3.7"/>
	<rect x="1187.1" y="243.3" class="st36" width="68.8" height="3.7"/>
	<path class="st2" d="M1269.4,164.9c1.1-1.2,2.6-1.9,4.2-2.2c1.5-0.3,3.2-0.4,4.5-1.4c1.4-1.1,2-3.2,3.7-3.7
		c0.7-0.2,1.5-0.1,2.2,0.2c2.8,0.8,5.2,2.5,7,4.7c0.4,0.6,1,1.2,1.6,1.6c0.4,0.2,0.8,0.3,1.1,0.5c0.4,0.3,0.7,0.7,0.9,1.2
		c1.2,2.5,1.5,5.4,0.8,8.1c-0.4,1.6-1.2,3.1-1.7,4.7c-0.5,1.6-0.6,3.4,0.3,4.8c-0.8,0.4-1.8-0.1-2.3-0.9c-0.5-0.8-0.7-1.7-0.9-2.6
		c-0.5-1.7-1.5-3.3-2.9-4.5c-0.8-0.7-2.3-1.2-2.9-0.3c-0.2,0.4-0.2,0.8-0.4,1.2c-0.4,0.7-1.5,0.9-2.2,0.5c-0.7-0.5-1.2-1.2-1.4-2
		c-1.1-3.7-2.9-6-6.9-4.4c-1.5,0.6-3.2,1-4.6,0C1267.7,169.1,1268.1,166.4,1269.4,164.9z"/>
	<path class="st45" d="M1269.4,164.7c1.1-1.2,2.6-1.9,4.2-2.2c1.5-0.3,3.2-0.4,4.5-1.4c1.4-1.1,2-3.2,3.7-3.7
		c0.7-0.2,1.5-0.1,2.2,0.2c2.8,0.8,5.2,2.5,7,4.7c0.4,0.6,1,1.2,1.6,1.6c0.4,0.2,0.8,0.3,1.1,0.5c0.4,0.3,0.7,0.7,0.9,1.2
		c1.2,2.5,1.5,5.4,0.8,8.1c-0.4,1.6-1.2,3.1-1.7,4.7s-0.6,3.4,0.3,4.8c-0.8,0.4-1.8-0.1-2.3-0.9c-0.5-0.8-0.7-1.7-0.9-2.6
		c-0.5-1.7-1.5-3.3-2.9-4.5c-0.8-0.7-2.3-1.2-2.9-0.3c-0.2,0.4-0.2,0.8-0.4,1.2c-0.4,0.7-1.5,0.9-2.2,0.5c-0.7-0.5-1.2-1.2-1.4-2
		c-1.1-3.7-2.9-6-6.9-4.4c-1.5,0.6-3.2,1-4.6,0C1267.7,168.8,1268.1,166.2,1269.4,164.7z"/>
	<path class="st26" d="M1295.9,189.9h-5.4c0,0-10.6,5.3-10.9,5c-0.2-0.2-1.8,0.1-2.9,0.3c0.2-0.6,0.3-1.2,0.3-1.8
		c3.4-0.3,11.9-6.1,11.9-6.1l6.6-1.1v3.4C1295.8,189.9,1295.8,189.9,1295.9,189.9z"/>
	<path class="st59" d="M1292.6,345.3c0,1-0.1,1.9-0.3,2.9c0,0-22,1.6-28.9,1.1c-3.3-0.3-4.7-1.5-5-2.7c-0.3,1.4,0.9,3.2,5,3.5
		c6.9,0.5,28.9-1.1,28.9-1.1C1292.5,347.7,1292.6,346.5,1292.6,345.3z"/>
	<g class="st63">
		<path d="M1263.5,246.7c-3.6,2.8-6.7,4-8.8,4.5c0,0.2,0,0.4,0.1,0.6c0,0,5,0.3,11.4-4.8c1-0.8,2.1-1.5,3.4-1.8
			C1268.2,244.6,1266.2,244.6,1263.5,246.7z"/>
		<path d="M1299.4,197.1c-0.9-2.8-2.3-6.3-3.4-7.2c-0.1-0.1-0.1-0.1-0.2-0.1c0,0-2.2,0.1-2.1,0.1c1.1,0.8,2.1,4.1,3.1,6.9
			c0.8,2.3,1,4.7,0.6,7c-0.9,5.7-3,17.4-5.3,27.5c-3.2,14-6.6,10.9-8.2,14.3c-1.3,2.8-0.7,6.5-0.4,7.8c1.1,0.5,2.1,0.8,2.8,0.7
			c0,0-1.3-4.8,0.3-8.2c1.6-3.4,5-0.3,8.2-14.3c2.3-10.2,4.3-21.8,5.3-27.5C1300.4,201.8,1300.2,199.4,1299.4,197.1z"/>
	</g>
	<path class="st57" d="M1268.9,229l-3.4-0.4l-26.2-3c-15.9-5-5.8-12.7-5.8-12.7l10.6,10.1c3.1,0.6,15-0.8,20.4-1.5
		c1.6-0.2,2.6-0.4,2.6-0.4L1268.9,229z"/>
	<path class="st61" d="M1294.6,192.7c0,0-6.9-5.6-17.2,12.4c-10.3,18-12.7,15.1-12.7,15.1s2.1,8,1.1,9.5c0,0,7.1-0.5,9.8,0
		c2.6,0.5,19.1-20.1,19.1-20.1S1303.1,198,1294.6,192.7z"/>
</g>
</svg>
