<svg xmlns="http://www.w3.org/2000/svg" xmlns:xlink="http://www.w3.org/1999/xlink" viewBox="0 0 674.75 356.43"><defs><style>.cls-1,.cls-10,.cls-11,.cls-12{fill:#647daa;}.cls-1,.cls-10,.cls-11,.cls-12,.cls-13,.cls-14,.cls-15,.cls-16,.cls-17,.cls-18,.cls-19,.cls-2,.cls-20,.cls-21,.cls-3,.cls-4,.cls-5,.cls-6,.cls-7,.cls-8,.cls-9{fill-rule:evenodd;}.cls-2,.cls-20,.cls-5,.cls-7{fill:none;stroke-linecap:round;}.cls-2{stroke:#303;}.cls-2,.cls-20{stroke-miterlimit:30;}.cls-3{fill:#381c4a;}.cls-4{fill:#453b74;}.cls-20,.cls-5{stroke:#000;}.cls-5,.cls-7{stroke-linejoin:round;}.cls-6{fill:#9e93c7;}.cls-7{stroke:#333;stroke-width:2px;}.cls-8{fill:#8d8e70;}.cls-9{fill:#e4e7a1;}.cls-10{fill-opacity:0.18;}.cls-11{fill-opacity:0.4;}.cls-12{fill-opacity:0.15;}.cls-13{fill:#91a4c6;fill-opacity:0.51;}.cls-14{fill:#408aa3;}.cls-15{fill:#5e73b4;}.cls-16{fill:#930;}.cls-17{fill:#305880;}.cls-18{fill:#036;}.cls-19{fill:#333;}.cls-21{fill:#999;}</style><symbol id="handPick_2" data-name="handPick 2" viewBox="0 0 351.99 413.75"><path class="cls-5" d="M71.48,211.23l-2.08-2.38M180.65,204c.2.7.4,1.42.6,2.15M210,412.5h-1.73c0,.25,0,.5.08.75"/><g id="Layer_3" data-name="Layer 3"><path class="cls-6" d="M118.1,243.6q18.94-36.16,64.35-27a1,1,0,0,0,.35.15q4.35,1.65,10.45,4c.63.27,1.3.52,2,.75a1.63,1.63,0,0,0,.4.15q10.65,3.9,30.75,12.65l5.5,2.45a1.63,1.63,0,0,1,.4.15q15.24,6.75,70,33.47,16.19,7.92,35.81,17.56,36.12,61-21.53,81.1-77-45.87-95.55-57.63Q188.18,290.61,118.1,243.6Z"/><path class="cls-5" d="M182.45,216.6a1,1,0,0,0,.35.15q4.35,1.65,10.45,4c.63.27,1.3.52,2,.75a1.63,1.63,0,0,0,.4.15q10.65,3.9,30.75,12.65l5.5,2.45a1.63,1.63,0,0,1,.4.15q15.24,6.75,70,33.47,16.19,7.92,35.81,17.56M316.55,369q-77-45.87-95.55-57.63-32.82-20.79-102.9-67.8"/></g><path class="cls-6" d="M75.85,94.9q-5.05,1.16-14.4,5.55a33.82,33.82,0,0,1-14.4,3.25,23.62,23.62,0,0,1-5-.6q-11.8,26.55-17.65,28.4a51,51,0,0,1-10.55,2.25H13.5q-2.14.15-10.7-2.1,9-55,46.5-60.85,8.89-3.49,14.9-6Q74.35,60.4,75.85,58.9q5.3-3.75,56.2,33.85a2.21,2.21,0,0,0,.3.25l3.3.6q12.15,6.11,24,42,13.55,40.8,21,68.4a5.22,5.22,0,0,0,.4,1.65l.2.5c0,.11.34,1.58.92,4.4.37,1.79.86,4.14,1.45,7q-10.2,34.2-64.72,27.25c0-.18,0-.35,0-.53l-.87-.15q-18.9-3.63-25-9.45-5.59-5.35-17.75-19.1-1.81-2.07-3.77-4.32c-.42-.62-.61-1-.56-1.28-.51-.34-1-.71-1.52-1.1-.23-.17-.47-.35-.7-.55a75.15,75.15,0,0,0-13.05-8.1,64.12,64.12,0,0,1-14.6-10,82.62,82.62,0,0,1-8.8-3.15,45,45,0,0,1-4.4-2.2,27.58,27.58,0,0,1-9.25-8.75,114.71,114.71,0,0,1-7.4-14.65Q5.65,148.8.5,137c1.13-.27,2.23-.5,3.3-.7h.05A86.29,86.29,0,0,1,14,134.6c4.23-.47,7.5-.38,9.8.25a6.82,6.82,0,0,1,2.6,1.2Q30.6,139.39,41,154q3.26,1,11.9,4.3l3.65,1.4q8.21,3,10.9,3.45c.87.13,1.92.27,3.15.4s2.48.2,4,.3l2.2-1.15c1-.53,2-1.07,3.1-1.6q25.65-12.9,31.55-17.1-4.4.8-8.35-14.85-1.39-5.55-2.1-8.15a3.5,3.5,0,0,1-.2-.75q.5-10.15,3.9-11.7h-.8a14.12,14.12,0,0,1-3,1.1,13.53,13.53,0,0,1-3.35.5Q87.7,110.1,79.9,99a37.1,37.1,0,0,1-2.85-4.7Zm-.8-16c-.07.23-.13.48-.2.75Q73,86.4,77,94.2l0,0,0,0q-4-7.8-2.15-14.55C74.92,79.38,75,79.13,75.05,78.9Zm12.4,88.2q-1.7-2.44-8-3H79.3c-.6,0-1.17-.05-1.7-.05l-3-.2a8.06,8.06,0,0,1-.8.45,8.06,8.06,0,0,0,.8-.45l3,.2c.53,0,1.1,0,1.7.05h.15Q85.75,164.65,87.45,167.1Zm-46.4,23.05c1,.33,2.1.65,3.2.95C43.15,190.8,42.08,190.48,41.05,190.15Zm1-87.05c-1.23-.3-2.53-.68-3.9-1.15-4-1.37-6.33-2.92-7.1-4.65.77,1.73,3.13,3.28,7.1,4.65C39.52,102.42,40.82,102.8,42.05,103.1ZM70.92,210A20.12,20.12,0,0,0,78.1,213c3.23.67,4.57,1,4,.95.57,0-.77-.28-4-.95A20.12,20.12,0,0,1,70.92,210Z"/><path class="cls-5" d="M135.65,93.6q12.15,6.11,24,42,13.55,40.8,21,68.4a5.22,5.22,0,0,0,.4,1.65l.2.5c0,.11.34,1.58.92,4.4.37,1.79.86,4.14,1.45,7m-64.7,26.72-.87-.15q-18.9-3.63-25-9.45-5.59-5.35-17.75-19.1-1.81-2.07-3.77-4.32M70.92,210c-.51-.34-1-.71-1.52-1.1-.23-.17-.47-.35-.7-.55a75.15,75.15,0,0,0-13.05-8.1,64.12,64.12,0,0,1-14.6-10,82.62,82.62,0,0,1-8.8-3.15,45,45,0,0,1-4.4-2.2,27.58,27.58,0,0,1-9.25-8.75,114.71,114.71,0,0,1-7.4-14.65Q5.65,148.8.5,137c1.13-.27,2.23-.5,3.3-.7h.05A86.29,86.29,0,0,1,14,134.6c4.23-.47,7.5-.38,9.8.25a6.82,6.82,0,0,1,2.6,1.2Q30.6,139.39,41,154q3.26,1,11.9,4.3l3.65,1.4q8.21,3,10.9,3.45c.87.13,1.92.27,3.15.4s2.48.2,4,.3l2.2-1.15c1-.53,2-1.07,3.1-1.6q25.65-12.9,31.55-17.1-4.4.8-8.35-14.85-1.39-5.55-2.1-8.15a3.5,3.5,0,0,1-.2-.75q.5-10.15,3.9-11.7h-.8a14.12,14.12,0,0,1-3,1.1,13.53,13.53,0,0,1-3.35.5Q87.7,110.1,79.9,99a37.1,37.1,0,0,1-2.85-4.7m-1.2.65q-5.05,1.16-14.4,5.55a33.82,33.82,0,0,1-14.4,3.25,23.62,23.62,0,0,1-5-.6q-11.8,26.55-17.65,28.4a51,51,0,0,1-10.55,2.25H13.5q-2.14.15-10.7-2.1,9-55,46.5-60.85,8.89-3.49,14.9-6Q74.35,60.4,75.85,58.9q5.3-3.75,56.2,33.85a2.21,2.21,0,0,0,.3.25M75.05,78.9c-.07.23-.13.48-.2.75Q73,86.4,77,94.2l0,0m10.4,72.85q-1.7-2.44-8-3H79.3c-.6,0-1.17-.05-1.7-.05l-3-.2a8.06,8.06,0,0,1-.8.45m-32.7,25.9c1,.33,2.1.65,3.2.95m-2.2-88c-1.23-.3-2.53-.68-3.9-1.15-4-1.37-6.33-2.92-7.1-4.65M70.92,210A20.12,20.12,0,0,0,78.1,213c3.23.67,4.57,1,4,.95"/><path class="cls-6" d="M131,82.35q-2.44-5-5.7-10.55l-.8-1.3q-7.9-13.09-14.15-19.2a90.75,90.75,0,0,0-10.75-9.25A27,27,0,0,0,95.8,40a27,27,0,0,1,3.75,2.1A90.75,90.75,0,0,1,110.3,51.3q6.26,6.11,14.15,19.2l.8,1.3Q128.51,77.35,131,82.35ZM95.8,40,71.05,20.5a16.45,16.45,0,0,1-4.8-5.95,13.7,13.7,0,0,1-.8-5.25A25.89,25.89,0,0,1,66,5.05,33.54,33.54,0,0,1,67.05.5h.8q3.56-.6,12,4.8,3,2.25,15.45,10.1a184.48,184.48,0,0,1,22.15,17.1l3.2,4.8q2.89,8.66,4.6,14.9,1.91,7,3.75,17.4v.15c.07.43.15.88.25,1.35q.85,5.2,1.7,11.25a94.57,94.57,0,0,1,4,9.2c.23.7.47,1.38.7,2-.43-.2-.85-.38-1.25-.55a13.12,13.12,0,0,0-2.15-.6.62.62,0,0,0,.05.25l-.25,0q-50.9-37.6-56.2-33.85-1.5,1.5-11.65,5.85L63.05,62.1q-5.89-4.16-10-6.75-7.65-4.85-12.35-6.05v-.8h0Q27.8,48.25,21.8,45.8,10.25,41,10.25,26.9c0-2.67.55-4.53,1.65-5.6s3.08-1.6,6-1.6q6.2,0,27.3,5.6Q57,28.45,67.65,31.7l2.6.8q.45.15,18.3,5A44.44,44.44,0,0,1,95.8,40Z"/><path class="cls-5" d="M131,82.35q-2.44-5-5.7-10.55l-.8-1.3q-7.9-13.09-14.15-19.2a90.75,90.75,0,0,0-10.75-9.25A27,27,0,0,0,95.8,40a44.44,44.44,0,0,0-7.25-2.5q-17.85-4.8-18.3-5l-2.6-.8Q57,28.45,45.15,25.3,24,19.7,17.85,19.7q-4.31,0-6,1.6c-1.1,1.07-1.65,2.93-1.65,5.6Q10.25,41,21.8,45.8q6,2.45,18.85,2.7h2.4m77.6-11.2q2.89,8.66,4.6,14.9,1.91,7,3.75,17.4v.15c.07.43.15.88.25,1.35q.85,5.2,1.7,11.25a94.57,94.57,0,0,1,4,9.2c.23.7.47,1.38.7,2-.43-.2-.85-.38-1.25-.55a13.12,13.12,0,0,0-2.15-.6.62.62,0,0,0,.05.25v0a.92.92,0,0,0,0,.25M79.85,5.3q3,2.25,15.45,10.1a184.48,184.48,0,0,1,22.15,17.1m-46.4-12a16.45,16.45,0,0,1-4.8-5.95,13.7,13.7,0,0,1-.8-5.25A25.89,25.89,0,0,1,66,5.05,33.54,33.54,0,0,1,67.05.5h.8m-4.8,61.6q-5.89-4.16-10-6.75-7.65-4.85-12.35-6.05"/></symbol><symbol id="Symbol_1" data-name="Symbol 1" viewBox="0 0 67.3 193.3"><g id="Layer_3-2" data-name="Layer 3"><path class="cls-3" d="M60,1.1q7,.1,6.85,5.1L65.65,57.8q-.11,5-7.1,4.9l-51.1-.6q-7,0-6.95-5.05L1.7,5.45Q1.85.46,8.85.5Z"/><path class="cls-2" d="M60,1.1,8.85.5q-7,0-7.15,5L.5,57.05q0,5,7,5.05l51.1.6q7,.11,7.1-4.9L66.8,6.2Q67,1.21,60,1.1Z"/></g><path class="cls-4" d="M55.38,192.8H15.3L14,59.7l12.75.6c2.57-1.63,3.23-3.1,2-4.4a.15.15,0,0,0-.15-.1,13,13,0,0,1-1.35-1.25,5.07,5.07,0,0,1-1.35-3.4,5,5,0,0,1,2.7-4.35,10.23,10.23,0,0,1,6.55-1.45,11.24,11.24,0,0,1,6.55,2.2,5.73,5.73,0,0,1,2.7,4.65v.25a5,5,0,0,1-2.6,4.1,4.18,4.18,0,0,0-.9,1.75c.33.87,1.27,1.57,2.8,2.1,2.17.77,5.6,1.18,10.3,1.25Z"/><path class="cls-5" d="M15.3,192.8,14,59.7l12.75.6c2.57-1.63,3.23-3.1,2-4.4a.15.15,0,0,0-.15-.1,13,13,0,0,1-1.35-1.25,5.07,5.07,0,0,1-1.35-3.4,5,5,0,0,1,2.7-4.35,10.23,10.23,0,0,1,6.55-1.45,11.24,11.24,0,0,1,6.55,2.2,5.73,5.73,0,0,1,2.7,4.65v.25a5,5,0,0,1-2.6,4.1,4.18,4.18,0,0,0-.9,1.75c.33.87,1.27,1.57,2.8,2.1,2.17.77,5.6,1.18,10.3,1.25L55.38,192.8"/></symbol><symbol id="PZL-BASE" data-name="PZL-BASE" viewBox="0 0 181.7 134.05"><g id="Layer_3-3" data-name="Layer 3"><polygon class="cls-1" points="181.15 133.55 108.1 133.55 107.7 1.05 181.2 1.65 181.15 133.55"/><polyline class="cls-2" points="108.1 133.55 107.7 1.05 181.2 1.65 181.15 133.55"/></g><polygon class="cls-1" points="78.38 133.55 0.5 133.55 0.75 1.2 76.9 0.51 78.38 133.55"/><polyline class="cls-2" points="0.5 133.55 0.75 1.2 76.9 0.51 78.38 133.55"/></symbol><symbol id="winddd" data-name="winddd" viewBox="0 0 15.8 241"><g id="Layer_3-4" data-name="Layer 3"><path class="cls-7" d="M14.8,1V240M10,1V240M5.8,1V240M1,1V240"/></g></symbol><symbol id="handPick_2_front" data-name="handPick 2 front" viewBox="0 0 210.5 282.98"><path class="cls-5" d="M71.48,80.46,69.4,78.08m111.25-4.9c.2.7.4,1.42.6,2.15M210,281.73h-1.73c0,.25,0,.5.08.75"/><g id="Layer_3-15" data-name="Layer 3"><path class="cls-6" d="M71.48,80.46c-.42-.62-.61-1-.56-1.28-.51-.34-1-.71-1.52-1.1a8.4,8.4,0,0,1-.7-.55,76.39,76.39,0,0,0-13.05-8.1,64.12,64.12,0,0,1-14.6-10.05,82.62,82.62,0,0,1-8.8-3.15,42.86,42.86,0,0,1-4.4-2.2,27.58,27.58,0,0,1-9.25-8.75,114,114,0,0,1-7.4-14.65Q5.65,18,.5,6.18c1.13-.26,2.23-.5,3.3-.7h.05A86.29,86.29,0,0,1,14,3.83q6.35-.69,9.8.25a6.82,6.82,0,0,1,2.6,1.2Q30.6,8.64,41,23.18q3.26,1,11.9,4.3l3.65,1.4q8.21,3.06,10.9,3.45c.87.14,1.92.27,3.15.4s2.48.2,4,.3l2.2-1.15c1-.53,2-1.06,3.1-1.6q19.85-10,27.88-14.75c1.55-.93,2.78-1.71,3.67-2.35a2.19,2.19,0,0,1-1.05,0q23.58-20.65,49.2-8.82l.15.47q13.55,40.8,21,68.4a5.1,5.1,0,0,0,.4,1.65c.07.17.13.34.2.5s.34,1.58.92,4.4c.37,1.8.86,4.14,1.45,7Q173.42,121,118.9,114c0-.17,0-.35,0-.53l-.87-.15q-18.9-3.63-25-9.45-5.59-5.34-17.75-19.1Q73.44,82.71,71.48,80.46Zm16-44.13q-1.7-2.44-8-3H79.3c-.6,0-1.17-.05-1.7-.05-1.07-.06-2.08-.13-3-.2a8.06,8.06,0,0,1-.8.45,8.06,8.06,0,0,0,.8-.45c1,.07,2,.14,3,.2.53,0,1.1,0,1.7.05h.15Q85.75,33.88,87.45,36.33ZM41.05,59.38c1,.34,2.1.65,3.2.95C43.15,60,42.08,59.72,41.05,59.38Zm29.87,19.8a20.12,20.12,0,0,0,7.18,3c3.23.67,4.57,1,4,1,.57,0-.77-.28-4-1A20.12,20.12,0,0,1,70.92,79.18Z"/><path class="cls-5" d="M70.92,79.18c-.51-.34-1-.71-1.52-1.1a8.4,8.4,0,0,1-.7-.55,76.39,76.39,0,0,0-13.05-8.1,64.12,64.12,0,0,1-14.6-10.05,82.62,82.62,0,0,1-8.8-3.15,42.86,42.86,0,0,1-4.4-2.2,27.58,27.58,0,0,1-9.25-8.75,114,114,0,0,1-7.4-14.65Q5.65,18,.5,6.18c1.13-.26,2.23-.5,3.3-.7h.05A86.29,86.29,0,0,1,14,3.83q6.35-.69,9.8.25a6.82,6.82,0,0,1,2.6,1.2Q30.6,8.64,41,23.18q3.26,1,11.9,4.3l3.65,1.4q8.21,3.06,10.9,3.45c.87.14,1.92.27,3.15.4s2.48.2,4,.3l2.2-1.15c1-.53,2-1.06,3.1-1.6q19.85-10,27.88-14.75c1.55-.93,2.78-1.71,3.67-2.35a2.19,2.19,0,0,1-1.05,0m49.2-8.82.15.47q13.55,40.8,21,68.4a5.1,5.1,0,0,0,.4,1.65c.07.17.13.34.2.5s.34,1.58.92,4.4c.37,1.8.86,4.14,1.45,7m-64.7,26.72-.87-.15q-18.9-3.63-25-9.45-5.59-5.34-17.75-19.1-1.81-2.07-3.77-4.32m16-44.13q-1.7-2.44-8-3H79.3c-.6,0-1.17-.05-1.7-.05-1.07-.06-2.08-.13-3-.2a8.06,8.06,0,0,1-.8.45m-32.7,25.9c1,.34,2.1.65,3.2.95M70.92,79.18a20.12,20.12,0,0,0,7.18,3c3.23.67,4.57,1,4,1"/></g></symbol></defs><title>AboutUs</title><g id="Layer_2" data-name="Layer 2"><g id="Layer_1-2" data-name="Layer 1"><path class="cls-8" d="M345.25,190.1l.2,0a1.05,1.05,0,0,0-.3.15A.94.94,0,0,0,345.25,190.1Z"/><path class="cls-9" d="M323.6,97.8a11.93,11.93,0,0,0,1.85-.65c.27,1,.57,2.22.9,3.65.54,2.1,1.15,4.68,1.85,7.75,1.27,5.37,1.95,8.38,2.05,9a4.42,4.42,0,0,1,2.2,1.05,1.54,1.54,0,0,1,.4.6q1,2.1,2.4,11,1.85,10.91,3,17.65a3.62,3.62,0,0,1,2.5,1.95q.4.71,1.55,11.5c.37,3,.93,6.4,1.7,10.2l-2.1.55q-2.14-5.44-3.9-9.65-4.2-10-4.2-10.8a3.59,3.59,0,0,1,1.25-2.9l-2.5-7.2q-1.5-4.31-3.4-9.7Q325.51,121.4,326,120.3a4.23,4.23,0,0,1,1.35-2q-.35-.94-2.55-8.9-1.5-5.25-2.4-8.65c-.26-1-.5-1.93-.7-2.7A8.94,8.94,0,0,0,323.6,97.8Z"/><path class="cls-10" d="M330.45,269.8q.26,4.09-7,6.95t-17.7,2.9q-6.5,0-9.8-.25-17.25.25-37.1.25-25.35,0-43.4-1.8T197.3,273.5q-.15-2.55,17.7-4.4,4.11-.41,8.65-.7a3.08,3.08,0,0,1-1.2-2.1q-.19-3,7.65-5.1a74.67,74.67,0,0,1,19.05-2.1H250a.36.36,0,0,0-.1-.15q-2.15-5.14,4.6-8t18.4-1.85q11.55,1.05,18.55,3.9t7.25,7v.2q2.85-.26,6-.25a50.25,50.25,0,0,1,18,2.9Q330.26,265.74,330.45,269.8Z"/><path class="cls-11" d="M30,145.05c.14-2.27,3.33-4.22,9.6-5.85a88,88,0,0,1,22.15-2.45h1a.17.17,0,0,0-.05-.15q-1.69-5.9,6.5-9.2t21.45-2.1q13.05,1.2,20.7,4.45t7.25,8.05a.65.65,0,0,1,0,.25q3.3-.3,7-.3,12,0,20.2,3.35t7.85,8q-.34,4.69-9.1,8a58.78,58.78,0,0,1-20.75,3.3q-7.44,0-11.25-.25-19.8.26-42.6.25-29.14,0-49.65-2Q-.2,156.25,0,153.3t21.05-5.05q4.75-.45,10.05-.8A3,3,0,0,1,30,145.05Z"/><path class="cls-12" d="M12.7,151.8a90.72,90.72,0,0,1,17.9-1.5q3.21,0,6.15.15a0,0,0,0,1,0,0q-.35-2.21,6.45-3.7a109.08,109.08,0,0,1,18.3-2q11.7-.49,19,1t5.8,4.15l0,0H87A144.17,144.17,0,0,1,106.65,151c5.5.73,8.32,1.62,8.45,2.65.07.4-.23.77-.9,1.1,3.1.07,6.07.18,8.9.35q18.35.94,18.6,2.3t-17.85,2.25q-18.15.94-43.95.95-20.19,0-37.75-.15c-2.23.1-5.57.15-10,.15a95,95,0,0,1-18.35-1.55c-5.16-1-7.85-2.17-8-3.6S7.8,152.83,12.7,151.8Z"/><path class="cls-13" d="M663.75,88.3q-11,5.51-26.55,5.5-9.65,0-14.45-.5-25.74.49-55.2.5-37.69,0-64.35-3.45t-26.6-8.2q0-4.8,26.6-8.25,6.15-.8,12.95-1.35a5.84,5.84,0,0,1-1.65-4q0-5.59,11.8-9.6t28.45-4H556c0-.1-.06-.22-.1-.35q-2.74-9.64,7.5-15t27.4-3.5q17.1,1.9,27.25,7.35T628.3,56.7v.45a77,77,0,0,1,8.9-.5q15.56,0,26.55,5.4t11,13.15Q674.75,82.9,663.75,88.3Z"/><path class="cls-13" d="M663.75,90.05q-11,3.75-26.55,3.75-9.65,0-14.45-.4-25.74.41-55.2.4-37.69,0-64.35-2.3T476.6,86q0-3.26,26.6-5.55,6.15-.56,12.95-.9a3.44,3.44,0,0,1-1.65-2.65q0-3.8,11.8-6.5a131.53,131.53,0,0,1,28.45-2.65H556l-.1-.2q-2.74-6.49,7.5-10.15t27.4-2.3q17.1,1.31,27.25,4.9t10.25,8.9v.25c2.84-.2,5.8-.3,8.9-.3q15.56,0,26.55,3.65t11,8.8Q674.75,86.46,663.75,90.05Z"/><use width="351.99" height="413.75" transform="matrix(-0.16, -0.29, -0.28, 0.17, 357.01, 50.62)" xlink:href="#handPick_2"/><path class="cls-14" d="M337.6,214.05q6.86,0,6.85,6v31.6q0,6-6.85,6H301.55q-6.8,0-6.8-6v-31.6q0-6,6.8-6Z"/><path class="cls-5" d="M337.6,214.05H301.55q-6.8,0-6.8,6v31.6q0,6,6.8,6H337.6q6.86,0,6.85-6v-31.6Q344.45,214.05,337.6,214.05Z"/><path class="cls-14" d="M405.2,220.05v31.6q0,6-7.15,6H360.2q-7.2,0-7.2-6v-31.6q0-6,7.2-6h37.85Q405.21,214.05,405.2,220.05Z"/><path class="cls-5" d="M405.2,220.05q0-6-7.15-6H360.2q-7.2,0-7.2,6v31.6q0,6,7.2,6h37.85q7.15,0,7.15-6Z"/><use width="67.3" height="193.3" transform="translate(321.23 234.14) scale(0.87 0.63)" xlink:href="#Symbol_1"/><use width="181.7" height="134.05" transform="translate(275.39 271.62) scale(0.82 0.63)" xlink:href="#PZL-BASE"/><path class="cls-15" d="M411.85,269.55l.1,4a0,0,0,0,1,.05.05h-1.9l-7.05-.25a11.05,11.05,0,0,0-1.45-.1,1.38,1.38,0,0,0-.6-.05c-.16,0-.25,0-.25,0l-.35-.05h-.85a2,2,0,0,0-.65.1,1.47,1.47,0,0,1-.3.1,3.48,3.48,0,0,0-1.25.65.81.81,0,0,0-.35,1.1,1.21,1.21,0,0,0,.6.95s0,.07.1.1a3.68,3.68,0,0,0,.4.25l.15.15a3.47,3.47,0,0,1,.75.55,2.26,2.26,0,0,1,.45,1c.07.73-.38,1.37-1.35,1.9a7.19,7.19,0,0,1-3.65.75,8.37,8.37,0,0,1-3.9-.85c-1.1-.5-1.61-1.1-1.55-1.8a2.43,2.43,0,0,1,.6-1.55,4,4,0,0,1,.7-.85,1.08,1.08,0,0,1,.05-.2q.81-1.91-3-2.7a1.93,1.93,0,0,0-.65-.1c-1.16-.07-2.3-.08-3.4-.05h-1.25l-1,0-2.93-.12-.95.1c-.9,0-1.81,0-2.75,0a6.38,6.38,0,0,0-.7-.05,11.66,11.66,0,0,0-1.6-.2l-.55-37a2.58,2.58,0,0,1,1.4-2.45,7.6,7.6,0,0,1,4.15-.65l7.5.2q6.56.3,3.8,3.6a.74.74,0,0,0-.4.45,1.09,1.09,0,0,0-.2,1c.1.7.69,1.3,1.75,1.8a8.87,8.87,0,0,0,3.95.7,6.87,6.87,0,0,0,3.45-.75c.94-.53,1.27-1.13,1-1.8a1.36,1.36,0,0,0-.55-.8.9.9,0,0,0-.3-.35q-2.25-3.26,5-3.35c.7,0,2,0,4,.1a4.11,4.11,0,0,1,1.1.15c2.77.27,4.27,1.38,4.5,3.35ZM326.6,268.2l0,4c.07,0,.1,0,.1.1q-.9,0-1.95,0l-7.05-.1a10.8,10.8,0,0,0-1.5-.1,1.61,1.61,0,0,0-.55,0c-.16,0-.25,0-.25,0l-.35-.05h-.85a1.33,1.33,0,0,0-.6.15,1.23,1.23,0,0,0-.35.05,4.54,4.54,0,0,0-1.2.7.81.81,0,0,0-.35,1.1,1.06,1.06,0,0,0,.6.95s0,.08.1.15a2.92,2.92,0,0,1,.4.25l.15.1a6.06,6.06,0,0,1,.7.5,1.54,1.54,0,0,1,.45,1.05c.1.73-.33,1.38-1.3,1.95a7.07,7.07,0,0,1-3.65.85,8.37,8.37,0,0,1-3.9-.85c-1.16-.47-1.7-1-1.6-1.7a2.31,2.31,0,0,1,.65-1.55,3.25,3.25,0,0,1,.65-.85,1.86,1.86,0,0,0,.1-.2c.54-1.33-.5-2.23-3.1-2.7a3.12,3.12,0,0,0-.55-.05,27.53,27.53,0,0,0-3.4,0h-2.17l-3-.05a5.74,5.74,0,0,0-.95.15H289.2l-.7-.1a14.49,14.49,0,0,0-1.6-.15l-.6-37a2.55,2.55,0,0,1,1.5-2.45,7,7,0,0,1,4.05-.75l7.5.05q6.6.19,3.8,3.55a1.16,1.16,0,0,0-.4.4,1.3,1.3,0,0,0-.15,1.05c.1.7.69,1.28,1.75,1.75a8.4,8.4,0,0,0,3.95.65,6.8,6.8,0,0,0,3.45-.85c.9-.57,1.24-1.17,1-1.8a1.36,1.36,0,0,0-.55-.8,3.63,3.63,0,0,0-.3-.35q-2.25-3.19,5-3.4a36.35,36.35,0,0,1,4,0,6.33,6.33,0,0,1,1.1.1q4.15.3,4.55,3.25Z"/><path class="cls-16" d="M387.35,272.85l-4.05-.15c1.1,0,2.24,0,3.4.05A1.93,1.93,0,0,1,387.35,272.85Zm15.7.5-4.15-.1a2,2,0,0,1,.65-.1h.85l.35.05s.09,0,.25,0a1.38,1.38,0,0,1,.6.05A11.05,11.05,0,0,1,403.05,273.35ZM302,272l-3.95-.05a27.53,27.53,0,0,1,3.4,0A3.12,3.12,0,0,1,302,272Zm15.75.2h-4.1a1.33,1.33,0,0,1,.6-.15h.85l.35.05s.09,0,.25,0a1.61,1.61,0,0,1,.55,0A10.8,10.8,0,0,1,317.75,272.2Z"/><path class="cls-2" d="M411.85,269.55l-.1-33c-.23-2-1.73-3.08-4.5-3.35m-1.1-.15c-2-.1-3.35-.13-4-.1m-17.45-.5-7.5-.2a7.6,7.6,0,0,0-4.15.65,2.58,2.58,0,0,0-1.4,2.45l.55,37,.15.2m5.85,0,2.93.12M326.6,268.2l-.05-33q-.39-3-4.55-3.25m-1.1-.1a36.35,36.35,0,0,0-4,0m-17.5-.2-7.5-.05a7,7,0,0,0-4.05.75,2.55,2.55,0,0,0-1.5,2.45l.6,37,.1.25m5.9-.15,3,.05m87.42.75,4.05.15m15.7.5-4.15-.1m-81.15-1.05h-4.1m-15.6-.25L302,272"/><path class="cls-5" d="M407.25,233.2a4.11,4.11,0,0,0-1.1-.15m-4-.1q-7.2.11-5,3.35a.9.9,0,0,1,.3.35,1.36,1.36,0,0,1,.55.8c.27.67-.06,1.27-1,1.8a6.87,6.87,0,0,1-3.45.75,8.87,8.87,0,0,1-3.95-.7c-1.06-.5-1.65-1.1-1.75-1.8a1.09,1.09,0,0,1,.2-1,.74.74,0,0,1,.4-.45q2.76-3.3-3.8-3.6m-10.2,40.15c.94,0,1.85,0,2.75,0l3.88,0,1,0h1.25c1.1,0,2.24,0,3.4.05a1.93,1.93,0,0,1,.65.1q3.81.79,3,2.7a1.08,1.08,0,0,0-.05.2,4,4,0,0,0-.7.85,2.43,2.43,0,0,0-.6,1.55c-.06.7.45,1.3,1.55,1.8a8.37,8.37,0,0,0,3.9.85,7.19,7.19,0,0,0,3.65-.75c1-.53,1.42-1.17,1.35-1.9a2.26,2.26,0,0,0-.45-1,3.47,3.47,0,0,0-.75-.55l-.15-.15a3.68,3.68,0,0,1-.4-.25c-.06,0-.1-.07-.1-.1a1.21,1.21,0,0,1-.6-.95.81.81,0,0,1,.35-1.1,3.48,3.48,0,0,1,1.25-.65,1.47,1.47,0,0,0,.3-.1,2,2,0,0,1,.65-.1h.85l.35.05s.09,0,.25,0a1.38,1.38,0,0,1,.6.05,11.05,11.05,0,0,1,1.45.1l7.05.25H412a0,0,0,0,0-.05-.05l-.1-4M322,232a6.33,6.33,0,0,0-1.1-.1m-4,0q-7.2.19-5,3.4a3.63,3.63,0,0,1,.3.35,1.36,1.36,0,0,1,.55.8c.24.63-.1,1.23-1,1.8a6.8,6.8,0,0,1-3.45.85,8.4,8.4,0,0,1-3.95-.65c-1.06-.47-1.65-1.05-1.75-1.75a1.3,1.3,0,0,1,.15-1.05,1.16,1.16,0,0,1,.4-.4q2.81-3.34-3.8-3.55m-10.15,40.4H292c1.43-.06,2.74-.09,3.93-.1h2.17a27.53,27.53,0,0,1,3.4,0,3.12,3.12,0,0,1,.55.05c2.6.47,3.64,1.37,3.1,2.7a1.86,1.86,0,0,1-.1.2,3.25,3.25,0,0,0-.65.85,2.31,2.31,0,0,0-.65,1.55c-.1.67.44,1.23,1.6,1.7a8.37,8.37,0,0,0,3.9.85,7.07,7.07,0,0,0,3.65-.85c1-.57,1.4-1.22,1.3-1.95a1.54,1.54,0,0,0-.45-1.05,6.06,6.06,0,0,0-.7-.5l-.15-.1a2.92,2.92,0,0,0-.4-.25c-.06-.07-.1-.12-.1-.15a1.06,1.06,0,0,1-.6-.95.81.81,0,0,1,.35-1.1,4.54,4.54,0,0,1,1.2-.7,1.23,1.23,0,0,1,.35-.05,1.33,1.33,0,0,1,.6-.15h.85l.35.05s.09,0,.25,0a1.61,1.61,0,0,1,.55,0,10.8,10.8,0,0,1,1.5.1l7.05.1q1.05,0,1.95,0c0-.07,0-.1-.1-.1l0-4m45.7,4.35c.74,0,1.45,0,2.15.05M287,272.05c.7,0,1.44,0,2.2,0"/><path class="cls-17" d="M389.35,204.15l.4,9.1v.2l-5.6.15a9.41,9.41,0,0,0-3.65.5,2.62,2.62,0,0,0-1.65,2.75v3.35l-.05,1.2-.2.25c-.46.37-1.08.33-1.85-.1a6.38,6.38,0,0,1-.65-.4,1.93,1.93,0,0,0-.35-.15,2.36,2.36,0,0,0-.35-.05,2.78,2.78,0,0,0-.8-.1,2.75,2.75,0,0,0-2.2,1,3.64,3.64,0,0,0-.8,1.65,4.4,4.4,0,0,0-.05.65v.1a4.07,4.07,0,0,0,1.25,2.4,3.55,3.55,0,0,0,2.4,1l1-.25h.1a1.65,1.65,0,0,0,.8-.45,2.37,2.37,0,0,1,1.45-.6c.14-.07.47,0,1,.25l.05.7a.92.92,0,0,0,0,.25l.5,4.65h-3.7c-2.06,0-3.53.38-4.4,1.15a2.72,2.72,0,0,0-.65,1.3l.05,8.75-5.5-.15q-2.59.15-.5,2a2.35,2.35,0,0,1,1.25,1.55,1.9,1.9,0,0,1-1.1,1.8,5.19,5.19,0,0,1-2.85.8,5.91,5.91,0,0,1-3-.75c-1-.47-1.46-1.05-1.5-1.75s.17-1.27,1-1.8a3.34,3.34,0,0,1,1.2-.5c.9-.7.53-1.17-1.1-1.4l-7.2-.15c-1.23-.37-1.46-.87-.7-1.5a4.26,4.26,0,0,0,1.05-.5,2,2,0,0,0,1.1-1.8,2.29,2.29,0,0,0-1.45-1.75,6.38,6.38,0,0,0-2.5-.7h-1a6,6,0,0,0-2.4.7,2.31,2.31,0,0,0-1.45,1.75,1.8,1.8,0,0,0,1.05,1.8,3.42,3.42,0,0,0,1.1.5c.7.63.47,1.13-.7,1.5l-7.3.15c-1.6.23-2,.7-1.1,1.4a3.77,3.77,0,0,1,1.25.5,2,2,0,0,1,1.05,1.8,2.61,2.61,0,0,1-1.55,1.75,6.27,6.27,0,0,1-3.1.75,4.87,4.87,0,0,1-2.75-.8,1.8,1.8,0,0,1-1.1-1.8,2.19,2.19,0,0,1,1.2-1.55q2.2-1.9-.45-2l-5.55.15.15-8.75a4,4,0,0,0-.7-1.3c-.86-.77-2.31-1.15-4.35-1.15h-3.7l.4-4.65a.65.65,0,0,0,0-.25l.05-.7c.57-.23.9-.32,1-.25a2.54,2.54,0,0,1,1.5.6,2.1,2.1,0,0,0,.8.45c.1,0,.17,0,.2.1a5.36,5.36,0,0,1,.85.15,3.51,3.51,0,0,0,2.4-1,3.68,3.68,0,0,0,1.25-2.4v-.1a3.36,3.36,0,0,0-.05-.65,3.9,3.9,0,0,0-.75-1.65,2.89,2.89,0,0,0-2.25-1,2.15,2.15,0,0,0-.7.1,1.45,1.45,0,0,0-.4.05,1.93,1.93,0,0,0-.35.15c-.16.1-.37.23-.6.4-.83.43-1.48.47-2,.1l-.15-.25-.05-1.2v-3.35a2.6,2.6,0,0,0-1.65-2.75,9.83,9.83,0,0,0-3.65-.5l-5.65-.15v-.2l.4-9.1q.36-4.91,7.25-5H346.4l.2-.1a.37.37,0,0,0,.15,0q1.15-.75.15-1.65c-.4-.23-.76-.47-1.1-.7a3.13,3.13,0,0,1-1.3-2.35,2.85,2.85,0,0,1,1.3-2.25,4.7,4.7,0,0,1,3-.95,1,1,0,0,1,.3,0,1.45,1.45,0,0,1,.4,0,4.82,4.82,0,0,1,3,.95,2.85,2.85,0,0,1,1.25,2.25,3.12,3.12,0,0,1-1.25,2.35c-.36.23-.75.47-1.15.7-.66.6-.58,1.15.25,1.65a.19.19,0,0,0,.1,0,1.61,1.61,0,0,1,.25.1H382.2Q389,199.25,389.35,204.15Z"/><path class="cls-18" d="M378.85,220.2v1.2h-.05Zm10.5-16q-.35-4.91-7.15-5h-8.5l8.5-.15q6.8,0,7.15,4.9Zm-69.9,16,.05,1.2h-.05Zm5.15-21h-8.45q-6.9,0-7.25,5V204q.36-4.9,7.25-4.9Z"/><path class="cls-5" d="M389.35,204.15l.4,9.1v.2l-5.6.15a9.41,9.41,0,0,0-3.65.5,2.62,2.62,0,0,0-1.65,2.75v3.35m-.25,1.45c-.46.37-1.08.33-1.85-.1a6.38,6.38,0,0,1-.65-.4,1.93,1.93,0,0,0-.35-.15,2.36,2.36,0,0,0-.35-.05,2.78,2.78,0,0,0-.8-.1,2.75,2.75,0,0,0-2.2,1,3.64,3.64,0,0,0-.8,1.65,4.4,4.4,0,0,0-.05.65v.1a4.07,4.07,0,0,0,1.25,2.4,3.55,3.55,0,0,0,2.4,1l1-.25h.1a1.65,1.65,0,0,0,.8-.45,2.37,2.37,0,0,1,1.45-.6c.14-.07.47,0,1,.25l.05.7a.92.92,0,0,0,0,.25l.5,4.65h-3.7c-2.06,0-3.53.38-4.4,1.15a2.72,2.72,0,0,0-.65,1.3l.05,8.75-5.5-.15q-2.59.15-.5,2a2.35,2.35,0,0,1,1.25,1.55,1.9,1.9,0,0,1-1.1,1.8,5.19,5.19,0,0,1-2.85.8,5.91,5.91,0,0,1-3-.75c-1-.47-1.46-1.05-1.5-1.75s.17-1.27,1-1.8a3.34,3.34,0,0,1,1.2-.5c.9-.7.53-1.17-1.1-1.4l-7.2-.15c-1.23-.37-1.46-.87-.7-1.5a4.26,4.26,0,0,0,1.05-.5,2,2,0,0,0,1.1-1.8,2.29,2.29,0,0,0-1.45-1.75,6.38,6.38,0,0,0-2.5-.7h-1a6,6,0,0,0-2.4.7,2.31,2.31,0,0,0-1.45,1.75,1.8,1.8,0,0,0,1.05,1.8,3.42,3.42,0,0,0,1.1.5c.7.63.47,1.13-.7,1.5l-7.3.15c-1.6.23-2,.7-1.1,1.4a3.77,3.77,0,0,1,1.25.5,2,2,0,0,1,1.05,1.8,2.61,2.61,0,0,1-1.55,1.75,6.27,6.27,0,0,1-3.1.75,4.87,4.87,0,0,1-2.75-.8,1.8,1.8,0,0,1-1.1-1.8,2.19,2.19,0,0,1,1.2-1.55q2.2-1.9-.45-2l-5.55.15.15-8.75a4,4,0,0,0-.7-1.3c-.86-.77-2.31-1.15-4.35-1.15h-3.7l.4-4.65a.65.65,0,0,0,0-.25l.05-.7c.57-.23.9-.32,1-.25a2.54,2.54,0,0,1,1.5.6,2.1,2.1,0,0,0,.8.45c.1,0,.17,0,.2.1a5.36,5.36,0,0,1,.85.15,3.51,3.51,0,0,0,2.4-1,3.68,3.68,0,0,0,1.25-2.4v-.1a3.36,3.36,0,0,0-.05-.65,3.9,3.9,0,0,0-.75-1.65,2.89,2.89,0,0,0-2.25-1,2.15,2.15,0,0,0-.7.1,1.45,1.45,0,0,0-.4.05,1.93,1.93,0,0,0-.35.15c-.16.1-.37.23-.6.4-.83.43-1.48.47-2,.1m-.2-1.45v-3.35a2.6,2.6,0,0,0-1.65-2.75,9.83,9.83,0,0,0-3.65-.5l-5.65-.15v-.2l.4-9.1m15.7-5h21.8l.2-.1a.37.37,0,0,0,.15,0q1.15-.75.15-1.65c-.4-.23-.76-.47-1.1-.7a3.13,3.13,0,0,1-1.3-2.35,2.85,2.85,0,0,1,1.3-2.25,4.7,4.7,0,0,1,3-.95,1,1,0,0,1,.3,0,1.45,1.45,0,0,1,.4,0,4.82,4.82,0,0,1,3,.95,2.85,2.85,0,0,1,1.25,2.25,3.12,3.12,0,0,1-1.25,2.35c-.36.23-.75.47-1.15.7-.66.6-.58,1.15.25,1.65a.19.19,0,0,0,.1,0,1.61,1.61,0,0,1,.25.1H373.7m5.1,22.2.05-1.2m10.5-16q-.35-4.91-7.15-5h-8.5m-54.25,21,.05,1.2m5.1-22.2h-8.45q-6.9,0-7.25,5"/><use width="15.8" height="241" transform="translate(398.63 283.9) scale(1.37 0.3)" xlink:href="#winddd"/><use width="15.8" height="241" transform="translate(369.38 283.9) scale(1.37 0.3)" xlink:href="#winddd"/><use width="15.8" height="241" transform="translate(342.54 283.5) scale(1.16 0.3)" xlink:href="#winddd"/><use width="15.8" height="241" transform="translate(311.43 283.5) scale(1.37 0.3)" xlink:href="#winddd"/><use width="15.8" height="241" transform="translate(282.18 283.5) scale(1.37 0.3)" xlink:href="#winddd"/><use width="15.8" height="241" transform="matrix(0.01, -1, 0.13, 0, 335.17, 219.85)" xlink:href="#winddd"/><use width="15.8" height="241" transform="matrix(0.01, -1, 0.12, 0, 335.17, 233.9)" xlink:href="#winddd"/><use width="15.8" height="241" transform="matrix(1.37, 0.02, 0, 0.1, 383.23, 244.04)" xlink:href="#winddd"/><use width="15.8" height="241" transform="matrix(1.37, 0.02, 0, 0.1, 297.93, 242.24)" xlink:href="#winddd"/><use width="15.8" height="241" transform="matrix(1.06, 0.01, 0, 0.03, 384.79, 220.95)" xlink:href="#winddd"/><use width="15.8" height="241" transform="matrix(1.06, 0.01, 0, 0.03, 298.95, 219.75)" xlink:href="#winddd"/><path class="cls-19" d="M299.75.5h.15q2,7.31,8.85,31.55,7.71,27,13.3,46.85a8.26,8.26,0,0,0-2.85.3A8.52,8.52,0,0,0,316,80.75Z"/><path class="cls-2" d="M299.75.5,316,80.75a8.52,8.52,0,0,1,3.25-1.55,8.26,8.26,0,0,1,2.85-.3q-5.6-19.8-13.3-46.85Q301.85,7.8,299.9.5Z"/><path class="cls-8" d="M341.9,172.1l2.1-.55c-.77-3.8-1.33-7.2-1.7-10.2q-1.14-10.8-1.55-11.5a3.62,3.62,0,0,0-2.5-1.95q-1.15-6.75-3-17.65t-2.8-11.6a4.42,4.42,0,0,0-2.2-1.05c-.1-.67-.78-3.68-2.05-9q-1.8-7.69-2.75-11.4a10.76,10.76,0,0,0,2.3-1.6q3.15,4.9,5.8,20.65,3.26-4.24,8.3,13.7c.3,1,.59,2,.85,3.1q1.35,5.15,2.85,11.85,5.1-4,9.4,23.05L365.4,165q4.75-1.4,6.55,4.2l2.35,7.3q1.76,5.7-3.35,7.1l-21.25,5.45c-1-.33-1.22-.9-.75-1.7l.8-1.1a3.62,3.62,0,0,0,.55-2.85,3.9,3.9,0,0,0-1.75-2.25,4.09,4.09,0,0,0-3.4-.15,5,5,0,0,0-2.9,1.9,3.57,3.57,0,0,0-.55,2.75,3.77,3.77,0,0,0,1.85,2.25c.4.17.82.35,1.25.55a1,1,0,0,1,.45,1.65.94.94,0,0,1-.1.1c-.33.17-.38.23-.15.2L326,195.35c-2.9.67-4.73-.47-5.5-3.4a4.9,4.9,0,0,1-.2-1.3l-1.2-7.45q-.8-5.5,3.85-6.7l7.4-1.95q-8.79-26.25-2.8-25.25-10.14-35-2.85-31.05-5.55-14.44-5.35-20.35a9.5,9.5,0,0,0,2.4.2q.94,3.75,3.1,11.35,2.2,8,2.55,8.9a4.23,4.23,0,0,0-1.35,2q-.5,1.1,3.15,11.55t5.9,16.9a3.59,3.59,0,0,0-1.25,2.9q0,.79,4.2,10.8Q339.76,166.65,341.9,172.1Z"/><path class="cls-5" d="M341.9,172.1q-2.14-5.44-3.9-9.65-4.2-10-4.2-10.8a3.59,3.59,0,0,1,1.25-2.9q-2.25-6.5-5.9-16.9T326,120.3a4.23,4.23,0,0,1,1.35-2q-.35-.94-2.55-8.9-2.15-7.61-3.1-11.35m23.45,92.1a.94.94,0,0,0,.1-.1,1,1,0,0,0-.45-1.65c-.43-.2-.85-.38-1.25-.55a3.77,3.77,0,0,1-1.85-2.25,3.57,3.57,0,0,1,.55-2.75,5,5,0,0,1,2.9-1.9,4.09,4.09,0,0,1,3.4.15,3.9,3.9,0,0,1,1.75,2.25,3.62,3.62,0,0,1-.55,2.85l-.8,1.1c-.47.8-.22,1.37.75,1.7m-24.25-91.9q.94,3.7,2.75,11.4c1.27,5.37,1.95,8.38,2.05,9a4.42,4.42,0,0,1,2.2,1.05q1,.7,2.8,11.6t3,17.65a3.62,3.62,0,0,1,2.5,1.95q.4.71,1.55,11.5c.37,3,.93,6.4,1.7,10.2"/><path class="cls-2" d="M321.7,98.1a9.5,9.5,0,0,1-2.4-.2m8.45-2.35a10.76,10.76,0,0,1-2.3,1.6"/><path class="cls-5" d="M355,167.9q-4.29-27-9.4-23.05-1.5-6.71-2.85-11.85c-.26-1.07-.55-2.1-.85-3.1q-5.06-18-8.3-13.7-2.64-15.75-5.8-20.65"/><path class="cls-20" d="M319.3,97.9q-.19,5.89,5.35,20.35-7.29-3.94,2.85,31.05-6-1,2.8,25.25l-7.4,1.95q-4.65,1.2-3.85,6.7l1.2,7.45a4.9,4.9,0,0,0,.2,1.3c.77,2.93,2.6,4.07,5.5,3.4L345,190.4m4.7-1.35L371,183.6q5.1-1.4,3.35-7.1L372,169.2q-1.8-5.59-6.55-4.2L355,167.9"/><path class="cls-21" d="M316,80.75a8.52,8.52,0,0,1,3.25-1.55,8.26,8.26,0,0,1,2.85-.3,8.61,8.61,0,0,1,4.2,1.35,9,9,0,0,1,4.2,5.9,9.64,9.64,0,0,1-1.1,7.3,10,10,0,0,1-1.6,2.1,10.76,10.76,0,0,1-2.3,1.6,11.93,11.93,0,0,1-1.85.65,8.94,8.94,0,0,1-1.9.3,9.5,9.5,0,0,1-2.4-.2,10.1,10.1,0,0,1-2.8-1.15,9.15,9.15,0,0,1-4.15-5.9,9.77,9.77,0,0,1,1-7.3A9,9,0,0,1,316,80.75Z"/><path class="cls-2" d="M322.05,78.9a8.61,8.61,0,0,1,4.2,1.35,9,9,0,0,1,4.2,5.9,9.64,9.64,0,0,1-1.1,7.3,10,10,0,0,1-1.6,2.1m-2.3,1.6a11.93,11.93,0,0,1-1.85.65,8.94,8.94,0,0,1-1.9.3m-2.4-.2a10.1,10.1,0,0,1-2.8-1.15,9.15,9.15,0,0,1-4.15-5.9,9.77,9.77,0,0,1,1-7.3,9,9,0,0,1,2.55-2.8"/><use width="210.5" height="282.98" transform="matrix(-0.16, -0.29, -0.28, 0.17, 320.49, 73.31)" xlink:href="#handPick_2_front"/></g></g></svg>