<?xml version="1.0" encoding="utf-8"?>
<!-- Generator: Adobe Illustrator 24.3.0, SVG Export Plug-In . SVG Version: 6.00 Build 0)  -->
<svg version="1.2" baseProfile="tiny" xmlns="http://www.w3.org/2000/svg" xmlns:xlink="http://www.w3.org/1999/xlink" x="0px"
	 y="0px" viewBox="0 0 888 460.5" overflow="visible" xml:space="preserve">
<g id="b6c881ec-80a2-4aeb-a87c-bea63cd39014">
	<path fill="#E2E2E2" d="M257,171.3c3.8,0,7.4,1.4,10.2,3.8c2.2-0.6,4.6-0.7,6.9-0.3c4.9-7.1,14.7-8.9,21.8-4
		c4.2,2.9,6.8,7.7,6.8,12.9h-61C243.2,176.5,249.6,171.3,257,171.3z"/>
	<path fill="#E2E2E2" d="M438.5,144.6c3.6,0,7,1.3,9.7,3.6c2.1-0.6,4.3-0.7,6.5-0.3c4.6-6.7,13.9-8.4,20.6-3.8
		c4,2.8,6.4,7.3,6.4,12.2H424C425.5,149.4,431.5,144.6,438.5,144.6z"/>
	<path fill="#E2E2E2" d="M73.4,139.3c3.7,0,7.3,1.3,10.1,3.8c2.2-0.6,4.5-0.7,6.8-0.3c4.8-7,14.4-8.8,21.4-3.9
		c4.2,2.9,6.7,7.6,6.7,12.7h-60C59.9,144.4,66.2,139.3,73.4,139.3z"/>
	<path fill="#E2E2E2" d="M567.1,103.2c4.3,0,8.4,1.6,11.7,4.5c2.6-0.7,5.2-0.9,7.8-0.4c5.6-8.5,16.7-10.6,24.8-4.8
		c4.8,3.5,7.7,9.2,7.7,15.4h-69.5C551.4,109.3,558.7,103.2,567.1,103.2z"/>
	<path fill="#E2E2E2" d="M147.1,209.8c4,0,8,1.5,11,4.3c2.4-0.7,4.9-0.8,7.4-0.3c5.3-8,15.8-10,23.4-4.5c4.6,3.3,7.3,8.7,7.3,14.5
		h-65.7C132.2,215.6,139.1,209.8,147.1,209.8z"/>
	<path fill="#E2E2E2" d="M358.2,65.1c4.2,0,8.3,1.6,11.5,4.5c2.5-0.7,5.1-0.8,7.7-0.4c5.5-8.3,16.4-10.4,24.4-4.7
		c4.8,3.4,7.6,9.1,7.6,15.1H341C342.7,71.1,349.9,65.1,358.2,65.1z"/>
	<path fill="#E2E2E2" d="M742.2,312.2v86.9H776V311l-7.8,0.3v-17.8h-5.7l-0.9-39.4c2.3-1.5,3.9-5.1,3.9-9.2c0-1.2-0.1-2.4-0.4-3.5
		c2.2-2.4,2.6-6,0.8-8.8c3,2.6,7.6,2.3,10.2-0.7c2.6-3,2.3-7.6-0.7-10.2c0,0-0.1-0.1-0.1-0.1c3.8-1.4,5.7-5.6,4.3-9.3
		s-5.6-5.7-9.3-4.3c-2.8,1.1-4.7,3.8-4.7,6.8c0,0.1,0,0.2,0,0.3c-3.8-1.2-7.9,1-9,4.8c-0.1,0.3-0.2,0.7-0.2,1
		c-3.4-2-7.9-0.9-9.9,2.5c-2,3.4-0.9,7.9,2.5,9.9c0.7,0.4,1.4,0.7,2.2,0.9c0,0.1,0,0.1,0,0.2c0.7,2,1.5,4,2.6,5.9
		c-0.5,1.5-0.8,3.1-0.7,4.7c0,4.1,1.6,7.7,3.9,9.2l-0.9,39.4H750v18.4L742.2,312.2z M763.3,229.2L763.3,229.2c0.1,0,0.2,0,0.3,0
		c0.1,0.2,0.1,0.4,0.2,0.6C763.6,229.6,763.5,229.4,763.3,229.2L763.3,229.2z"/>
	<rect x="723.6" y="342.3" fill="#3F3D56" width="102.6" height="118.7"/>
	<rect x="761" y="436.9" fill="#E2E2E2" width="27.7" height="24.1"/>
	<path fill="#E2E2E2" d="M689.4,186.1c0,0.1,0,0.2,0,0.3c0,3.3,1.3,6.4,3.7,8.7c0.2,0.4,0.4,0.8,0.6,1.1c-0.8,2.5-1.3,5.2-1.2,7.8
		c0,9.2,4.7,16.6,10.6,16.6c5.8,0,10.6-7.4,10.6-16.6c0-2-0.2-4-0.7-5.9c3.7-4,4.3-10.1,1.3-14.7c5,4.4,12.6,3.9,17-1.1
		c4.4-5,3.9-12.6-1.1-17c-0.1-0.1-0.2-0.1-0.2-0.2c6.3-2.3,9.5-9.3,7.1-15.5c-2.3-6.3-9.3-9.5-15.5-7.1c-4.7,1.8-7.9,6.3-7.9,11.3
		c0,0.2,0,0.4,0,0.5c-6.4-1.9-13.1,1.6-15.1,8c-0.2,0.6-0.3,1.1-0.4,1.7c-5.7-3.4-13.1-1.5-16.5,4.2c-3.4,5.7-1.5,13.1,4.2,16.5
		C686.8,185.4,688.1,185.8,689.4,186.1z M710,177.8c0.2,0,0.3,0,0.5,0c0.1,0.4,0.2,0.7,0.4,1C710.6,178.5,710.3,178.2,710,177.8
		L710,177.8z"/>
	<path fill="#6C63FF" d="M696.9,303.1H709l-0.4-18.1v0l-1.6-66.4c-2.5,1.5-5.6,1.5-8.1,0l-1.6,66.4v0L696.9,303.1z"/>
	<polygon fill="#6C63FF" points="674.8,316.2 674.8,461 731.1,461 731.1,314.1 718,314.6 718,285 687.8,285 687.8,315.7 	"/>
	<path fill="#E2E2E2" d="M833.2,186.1c0,0.1,0,0.2,0,0.3c0,3.3,1.3,6.4,3.7,8.7c0.2,0.4,0.4,0.8,0.6,1.1c-0.8,2.5-1.3,5.2-1.2,7.8
		c0,9.2,4.7,16.6,10.6,16.6c5.8,0,10.6-7.4,10.6-16.6c0-2-0.2-4-0.7-5.9c3.7-4,4.3-10.1,1.3-14.7c5,4.4,12.6,3.9,17-1.1
		c4.4-5,3.9-12.6-1.1-17c-0.1-0.1-0.2-0.1-0.2-0.2c6.3-2.3,9.5-9.3,7.1-15.5c-2.3-6.3-9.3-9.5-15.5-7.1c-4.7,1.8-7.9,6.3-7.9,11.3
		c0,0.2,0,0.4,0,0.5c-6.4-1.9-13.1,1.6-15.1,8c-0.2,0.6-0.3,1.1-0.4,1.7c-5.7-3.4-13.1-1.5-16.5,4.2c-3.4,5.7-1.5,13.1,4.2,16.5
		C830.7,185.4,831.9,185.8,833.2,186.1z M853.8,177.8c0.2,0,0.3,0,0.5,0c0.1,0.4,0.2,0.7,0.4,1C854.4,178.5,854.1,178.2,853.8,177.8
		L853.8,177.8z"/>
	<path fill="#6C63FF" d="M840.7,303.1h12.1l-2-84.5c-2.6,0.9-5.4,0.9-8,0L840.7,303.1z"/>
	<polygon fill="#6C63FF" points="818.6,316.2 818.6,461 875,461 875,314.1 870.3,314.3 861.9,314.6 861.9,285 831.7,285 
		831.7,315.7 	"/>
	<rect x="790.2" y="356.6" fill="#FFFFFF" width="13.9" height="13.9"/>
	<rect x="767.9" y="356.6" fill="#FFFFFF" width="13.9" height="13.9"/>
	<rect x="745.6" y="356.6" fill="#FFFFFF" width="13.9" height="13.9"/>
	<rect x="790.2" y="378.9" fill="#FFFFFF" width="13.9" height="13.9"/>
	<rect x="767.9" y="378.9" fill="#FFFFFF" width="13.9" height="13.9"/>
	<rect x="745.6" y="378.9" fill="#FFFFFF" width="13.9" height="13.9"/>
	<rect x="790.2" y="401.2" fill="#FFFFFF" width="13.9" height="13.9"/>
	<rect x="767.9" y="401.2" fill="#FFFFFF" width="13.9" height="13.9"/>
	<rect x="745.6" y="401.2" fill="#FFFFFF" width="13.9" height="13.9"/>
	<rect x="696" y="351.1" fill="#FFFFFF" width="13.9" height="13.9"/>
	<rect x="696" y="373.3" fill="#FFFFFF" width="13.9" height="13.9"/>
	<rect x="696" y="395.6" fill="#FFFFFF" width="13.9" height="13.9"/>
	<rect x="696" y="417.9" fill="#FFFFFF" width="13.9" height="13.9"/>
	<rect x="839.7" y="351.1" fill="#FFFFFF" width="13.9" height="13.9"/>
	<rect x="839.7" y="373.3" fill="#FFFFFF" width="13.9" height="13.9"/>
	<rect x="839.7" y="395.6" fill="#FFFFFF" width="13.9" height="13.9"/>
	<rect x="839.7" y="417.9" fill="#FFFFFF" width="13.9" height="13.9"/>
	<g>
		<path fill="none" stroke="#535461" stroke-width="2" stroke-miterlimit="10" d="M-36.1,500.5"/>
		<image width="356" height="203" xlink:href="16D042E97B866E21.png"  transform="matrix(1 0 0 1 13 262.5256)">
		</image>
		<image width="17" height="10" xlink:href="16D042E97B866E23.png"  transform="matrix(1 0 0 1 20 327.5256)">
		</image>
		<image width="17" height="10" xlink:href="16D042E97B866E26.png"  transform="matrix(1 0 0 1 55 327.5256)">
		</image>
		<image width="17" height="10" xlink:href="16D042E97B866E27.png"  transform="matrix(1 0 0 1 20 344.5256)">
		</image>
		<image width="17" height="10" xlink:href="16D042E97B866E22.png"  transform="matrix(1 0 0 1 55 344.5256)">
		</image>
		<image width="17" height="10" xlink:href="16D042E97B866E2D.png"  transform="matrix(1 0 0 1 20 362.5256)">
		</image>
		<image width="17" height="10" xlink:href="16D042E97B866E2E.png"  transform="matrix(1 0 0 1 55 362.5256)">
		</image>
		<image width="17" height="10" xlink:href="16D042E97B866E2F.png"  transform="matrix(1 0 0 1 20 379.5256)">
		</image>
		<image width="17" height="10" xlink:href="16D042E97B866E24.png"  transform="matrix(1 0 0 1 55 379.5256)">
		</image>
		<image width="17" height="9" xlink:href="4C19ABBEDA6DEADA.png"  transform="matrix(1 0 0 1 20 397.5256)">
		</image>
		<image width="17" height="9" xlink:href="4C19ABBEDA6DEADD.png"  transform="matrix(1 0 0 1 55 397.5256)">
		</image>
		<image width="17" height="10" xlink:href="4C19ABBEDA6DEADE.png"  transform="matrix(1 0 0 1 20 414.5256)">
		</image>
		<image width="17" height="10" xlink:href="4C19ABBEDA6DEADC.png"  transform="matrix(1 0 0 1 55 414.5256)">
		</image>
		<image width="17" height="9" xlink:href="4C19ABBEDA6DEADB.png"  transform="matrix(1 0 0 1 20 432.5256)">
		</image>
		<image width="17" height="9" xlink:href="4C19ABBEDA6DEAC5.png"  transform="matrix(1 0 0 1 55 432.5256)">
		</image>
		<image width="37" height="5" xlink:href="4C19ABBEDA6DEAC6.png"  transform="matrix(1 0 0 1 84 410.5256)">
		</image>
		<image width="37" height="6" xlink:href="4C19ABBEDA6DEAC4.png"  transform="matrix(1 0 0 1 84 416.5256)">
		</image>
		<image width="37" height="5" xlink:href="4C19ABBEDA6DEACA.png"  transform="matrix(1 0 0 1 84 423.5256)">
		</image>
		<image width="37" height="5" xlink:href="4C19ABBEDA6DEACD.png"  transform="matrix(1 0 0 1 179 412.5256)">
		</image>
		<image width="37" height="5" xlink:href="4C19ABBEDA6DEAE1.png"  transform="matrix(1 0 0 1 179 419.5256)">
		</image>
		<image width="37" height="6" xlink:href="4C19ABBEDA6DEAE3.png"  transform="matrix(1 0 0 1 179 425.5256)">
		</image>
		<image width="37" height="5" xlink:href="4C19ABBEDA6DEAE0.png"  transform="matrix(1 0 0 1 84 430.5256)">
		</image>
		<image width="37" height="6" xlink:href="4C19ABBEDA6DEAEF.png"  transform="matrix(1 0 0 1 84 436.5256)">
		</image>
		<image width="37" height="6" xlink:href="4C19ABBEDA6DEAE2.png"  transform="matrix(1 0 0 1 84 443.5256)">
		</image>
		<image width="12" height="14" xlink:href="4C19ABBEDA6DEAE6.png"  transform="matrix(1 0 0 1 133 363.5256)">
		</image>
		<image width="11" height="14" xlink:href="4C19ABBEDA6DEAE7.png"  transform="matrix(1 0 0 1 155 363.5256)">
		</image>
		<image width="12" height="14" xlink:href="4C19ABBEDA6DEADF.png"  transform="matrix(1 0 0 1 133 384.5256)">
		</image>
		<image width="11" height="14" xlink:href="4C19ABBEDA6DEAD9.png"  transform="matrix(1 0 0 1 155 384.5256)">
		</image>
		<image width="12" height="14" xlink:href="4C19ABBEDA6DEAD8.png"  transform="matrix(1 0 0 1 133 405.5256)">
		</image>
		<image width="11" height="14" xlink:href="4C19ABBEDA6DEB04.png"  transform="matrix(1 0 0 1 155 405.5256)">
		</image>
		<image width="12" height="14" xlink:href="4C19ABBEDA6DEB3B.png"  transform="matrix(1 0 0 1 133 426.5256)">
		</image>
		<image width="11" height="14" xlink:href="4C19ABBEDA6DEB3C.png"  transform="matrix(1 0 0 1 155 426.5256)">
		</image>
		<image width="14" height="18" xlink:href="4C19ABBEDA6DEB3F.png"  transform="matrix(1 0 0 1 221 294.5256)">
		</image>
		<image width="14" height="18" xlink:href="4C19ABBEDA6DEB3D.png"  transform="matrix(1 0 0 1 221 318.5256)">
		</image>
		<image width="14" height="18" xlink:href="4C19ABBEDA6DEB3A.png"  transform="matrix(1 0 0 1 221 343.5256)">
		</image>
		<image width="14" height="18" xlink:href="4C19ABBEDA6DEB05.png"  transform="matrix(1 0 0 1 221 367.5256)">
		</image>
		<image width="14" height="18" xlink:href="4C19ABBEDA6DEB07.png"  transform="matrix(1 0 0 1 221 392.5256)">
		</image>
		<image width="14" height="18" xlink:href="4C19ABBEDA6DEB0A.png"  transform="matrix(1 0 0 1 221 416.5256)">
		</image>
		<image width="51" height="16" xlink:href="4C19ABBEDA6DEB0B.png"  transform="matrix(1 0 0 1 263 328.5256)">
		</image>
		<image width="51" height="15" xlink:href="4C19ABBEDA6DEB17.png"  transform="matrix(1 0 0 1 263 360.5256)">
		</image>
		<image width="50" height="15" xlink:href="4C19ABBEDA6DEB69.png"  transform="matrix(1 0 0 1 264 391.5256)">
		</image>
		<image width="51" height="16" xlink:href="4C19ABBEDA6DEB6B.png"  transform="matrix(1 0 0 1 264 422.5256)">
		</image>
		<image width="8" height="15" xlink:href="4C19ABBEDA6DEB6E.png"  transform="matrix(1 0 0 1 24 298.5256)">
		</image>
		<image width="17" height="23" xlink:href="4C19ABBEDA6DEB6F.png"  transform="matrix(1 0 0 1 352 363.5256)">
		</image>
		<image width="17" height="22" xlink:href="4C19ABBEDA6DEB6A.png"  transform="matrix(1 0 0 1 352 395.5256)">
		</image>
		<image width="17" height="23" xlink:href="4C19ABBEDA6DEB75.png"  transform="matrix(1 0 0 1 352 426.5256)">
		</image>
		<path fill="#6C63FF" d="M31.9,441.7c0,0-29.3,17.7,24.7,44.9c0,0,11.9-22.1-1.3-40.1c-5.3-7.3-15.2-9.4-23-5L31.9,441.7z"/>
		<path fill="none" stroke="#535461" stroke-miterlimit="10" d="M32.2,441.3c0,0,25.1,19.2,24.4,45.3"/>
		<path fill="none" stroke="#535461" stroke-width="2" stroke-miterlimit="10" d="M58,487.6c0,0-9.2-31.2,1.7-54.1
			c4.6-9.6,6.1-20.4,4-30.9c-1-5-2.5-9.8-4.4-14.5"/>
		<path fill="#6C63FF" d="M66.1,373.6c0,3.8-6.9,14.9-6.9,14.9s-6.9-11.1-6.9-14.9c-0.1-3.8,2.9-7,6.8-7.1c3.8-0.1,7,2.9,7.1,6.8
			C66.1,373.4,66.1,373.5,66.1,373.6L66.1,373.6z"/>
		<path fill="#6C63FF" d="M77.5,394.8c-2.1,3.2-13.9,8.7-13.9,8.7s0.2-13.1,2.3-16.3c2.2-3.2,6.5-4,9.6-1.8
			C78.6,387.5,79.4,391.6,77.5,394.8L77.5,394.8z"/>
		<path fill="#6C63FF" d="M77,430.9c-3.4,1.7-16.4,0.5-16.4,0.5s6.8-11.2,10.2-12.9c3.4-1.7,7.6-0.2,9.2,3.2
			C81.6,425.2,80.3,429.2,77,430.9L77,430.9z"/>
		<path fill="#6C63FF" d="M70.5,458.2c-3.1,2.3-16.1,3.3-16.1,3.3s4.8-12.1,7.9-14.4c3.1-2.3,7.4-1.7,9.7,1.4
			C74.2,451.5,73.6,455.8,70.5,458.2C70.5,458.1,70.5,458.2,70.5,458.2z"/>
		<path fill="#6C63FF" d="M49.1,404.3c2.7,2.7,15.5,5.4,15.5,5.4s-3.1-12.7-5.9-15.3c-2.7-2.7-7.1-2.8-9.8-0.1
			c-2.7,2.7-2.8,7.1-0.1,9.8C48.9,404.1,49,404.2,49.1,404.3L49.1,404.3z"/>
		<path fill="#6C63FF" d="M41.9,436.2c3.4,1.7,16.4,0.5,16.4,0.5s-6.8-11.2-10.2-12.9c-3.4-1.7-7.6-0.2-9.2,3.2
			C37.2,430.5,38.6,434.5,41.9,436.2L41.9,436.2z"/>
		<path fill="#6C63FF" d="M39.1,468.3c3.1,2.3,16.1,3.3,16.1,3.3s-4.8-12.1-7.9-14.4c-3.1-2.2-7.4-1.6-9.7,1.5
			C35.4,461.8,36.1,466,39.1,468.3L39.1,468.3z"/>
		<image width="15" height="22" xlink:href="4C19ABBEDA6DEB76.png"  transform="matrix(1 0 0 1 52 366.5256)">
		</image>
		<image width="16" height="20" xlink:href="4C19ABBEDA6DEB77.png"  transform="matrix(1 0 0 1 63 383.5256)">
		</image>
		<image width="21" height="15" xlink:href="4C19ABBEDA6DEB79.png"  transform="matrix(1 0 0 1 60 417.5256)">
		</image>
		<image width="20" height="16" xlink:href="4C19ABBEDA6DEB56.png"  transform="matrix(1 0 0 1 54 445.5256)">
		</image>
		<image width="19" height="19" xlink:href="4C19ABBEDA6DEB51.png"  transform="matrix(1 0 0 1 46 391.5256)">
		</image>
		<image width="21" height="15" xlink:href="4C19ABBEDA6DEB52.png"  transform="matrix(1 0 0 1 38 422.5256)">
		</image>
		<image width="20" height="17" xlink:href="4C19ABBEDA6DEB50.png"  transform="matrix(1 0 0 1 36 455.5256)">
		</image>
		<path fill="none" stroke="#535461" stroke-width="2" stroke-miterlimit="10" d="M344.5,479.5c0,0-9.2-31.2,1.7-54.1
			c4.6-9.6,6.1-20.4,4-30.9c-1-5-2.5-9.8-4.4-14.5"/>
		<path fill="#6C63FF" d="M352.6,365.6c0,3.8-6.9,14.9-6.9,14.9s-6.9-11.1-6.9-14.9c-0.1-3.8,2.9-7,6.8-7.1c3.8-0.1,7,2.9,7.1,6.8
			C352.6,365.4,352.6,365.5,352.6,365.6L352.6,365.6z"/>
		<path fill="#6C63FF" d="M364,386.7c-2.1,3.2-13.9,8.7-13.9,8.7s0.2-13.1,2.3-16.3c2-3.3,6.3-4.3,9.5-2.3c3.3,2,4.3,6.3,2.3,9.5
			C364.1,386.5,364.1,386.6,364,386.7L364,386.7z"/>
		<path fill="#6C63FF" d="M363.5,422.9c-3.4,1.7-16.4,0.5-16.4,0.5s6.8-11.2,10.2-12.9c3.4-1.7,7.6-0.2,9.2,3.2
			C368.1,417.1,366.8,421.1,363.5,422.9L363.5,422.9z"/>
		<path fill="#6C63FF" d="M357,450.1c-3.1,2.3-16.1,3.3-16.1,3.3s4.8-12.1,7.9-14.4c3.1-2.2,7.4-1.6,9.7,1.5
			C360.6,443.6,360,447.9,357,450.1z"/>
		<path fill="#6C63FF" d="M335.6,396.2c2.7,2.7,15.5,5.4,15.5,5.4s-3.1-12.7-5.9-15.3c-2.7-2.7-7.1-2.6-9.8,0.1
			C332.8,389.2,332.9,393.5,335.6,396.2z"/>
		<path fill="#6C63FF" d="M328.4,428.2c3.4,1.7,16.4,0.5,16.4,0.5s-6.8-11.2-10.2-12.9c-3.5-1.6-7.6-0.2-9.2,3.3
			C323.8,422.5,325.1,426.5,328.4,428.2z"/>
		<path fill="#6C63FF" d="M325.6,460.2c3.1,2.3,16.1,3.3,16.1,3.3s-4.8-12.1-7.9-14.4c-3.1-2.2-7.4-1.6-9.7,1.5
			C321.9,453.7,322.6,458,325.6,460.2z"/>
		<path fill="none" stroke="#535461" stroke-width="2" stroke-miterlimit="10" d="M303.1,476.5c0,0-4.9-16.7,0.9-29.1
			c2.5-5.2,3.2-11,2.1-16.6c-0.5-2.7-1.3-5.3-2.3-7.8"/>
		<path fill="#6C63FF" d="M307.4,415.3c0,2.1-3.7,8-3.7,8s-3.7-6-3.7-8c0-2.1,1.7-3.7,3.7-3.7C305.8,411.5,307.4,413.2,307.4,415.3z
			"/>
		<path fill="#6C63FF" d="M313.6,426.6c-1.1,1.7-7.5,4.7-7.5,4.7s0.1-7,1.2-8.7c1-1.8,3.3-2.4,5.1-1.3c1.8,1,2.4,3.3,1.3,5.1
			C313.7,426.4,313.6,426.5,313.6,426.6z"/>
		<path fill="#6C63FF" d="M313.3,446.1c-1.8,0.9-8.8,0.3-8.8,0.3s3.6-6,5.5-6.9c1.9-0.8,4.1,0,4.9,1.9
			C315.7,443,315,445.1,313.3,446.1L313.3,446.1z"/>
		<path fill="#6C63FF" d="M309.8,460.7c-1.7,1.2-8.6,1.8-8.6,1.8s2.6-6.5,4.2-7.7c1.7-1.1,4-0.7,5.2,1
			C311.6,457.4,311.3,459.5,309.8,460.7z"/>
		<path fill="#6C63FF" d="M298.3,431.7c1.5,1.4,8.3,2.9,8.3,2.9s-1.7-6.8-3.2-8.2c-1.4-1.5-3.8-1.6-5.3-0.2
			c-1.5,1.4-1.6,3.8-0.2,5.3C298.1,431.6,298.2,431.7,298.3,431.7L298.3,431.7z"/>
		<path fill="#6C63FF" d="M294.4,448.9c1.8,0.9,8.8,0.3,8.8,0.3s-3.6-6-5.5-6.9c-1.9-0.8-4.1,0-4.9,1.9
			C292,445.9,292.7,448,294.4,448.9L294.4,448.9z"/>
		<path fill="#6C63FF" d="M292.9,466.1c1.7,1.2,8.6,1.8,8.6,1.8s-2.6-6.5-4.2-7.8c-1.7-1.2-4-0.7-5.2,1
			C291.1,462.8,291.4,464.9,292.9,466.1z"/>
		<image width="2" height="1" xlink:href="4C19ABBEDA6DEB5E.png"  transform="matrix(1 0 0 1 160 395.5256)">
		</image>
		<image width="1" height="1" xlink:href="4C19ABBEDA6DEB53.png"  transform="matrix(1 0 0 1 161 395.5256)">
		</image>
		<image width="1" height="1" xlink:href="4C19ABBEDA6DEB57.png"  transform="matrix(1 0 0 1 161 395.5256)">
		</image>
		
			<ellipse transform="matrix(0.9008 -0.4343 0.4343 0.9008 -154.6984 100.622)" fill="#F2F2F2" cx="142.8" cy="388.8" rx="0.5" ry="0.7"/>
	</g>
	<g>
		<path fill="#E6E6E6" d="M415.1,262.6V170c0-2.2,1.8-4,4-4H550c2.2,0,4,1.8,4,4v92.6c0,2.2-1.8,4-4,4H419.1
			C416.9,266.6,415.1,264.8,415.1,262.6z"/>
		<path fill="#FFFFFF" d="M420.5,175.5v81.6c0,2.2,1.8,4,4,4h120c2.2,0,4-1.8,4-4v-81.6c0-2.2-1.8-4-4-4h-120
			C422.3,171.5,420.5,173.3,420.5,175.5z"/>
		<circle fill="#A0616A" cx="488.8" cy="206.7" r="16.1"/>
		<path fill="#A0616A" d="M478.7,210.5h20.1c-3.3,9.6-2.7,20.8,0,32.8l-28.8-2.9C475.7,229.1,479.8,218.5,478.7,210.5z"/>
		<path fill="#6C63FF" d="M454,234c0.5-0.3,1.1-0.4,1.7-0.6l19.4-4l0.2,0l13.8,3.5l7.8-1.7l0.2,0l19,8.4l2.1,1
			c2.7,1.2,4.2,4.2,3.5,7.2c-1.1,4.5-2.1,9-2.9,13.4h-67.3c-0.5-6.7-0.9-13.6-1.3-20.7C450.1,237.8,451.6,235.2,454,234z"/>
		<path fill="#6C63FF" d="M442.9,246c1.4-6.7,7.1-11.8,13.9-12.5l-2.6,27.6h-14.5L442.9,246z"/>
		<path fill="#6C63FF" d="M516.1,239.6l0-0.4c7,2.8,11.6,9.5,11.8,17l0.5,4.9h-13.9L516.1,239.6z"/>
		<path fill="#2F2E41" d="M504.6,199.5c0.1-2.3-3.1-6.8-5.4-7.2c-2.8-4.9-9.6-7.1-15.3-4.1c-1.3-0.2-2.5,0.4-3.7,1
			c-12.3,5.8-12.8,19.9-1.9,30.3l1.5-12.1c7.3-11.3,14.6-14,21.8-9.8L504.6,199.5z"/>
		<path fill="#E6E6E6" d="M530.1,341.3v-91.9c0-2.2,1.8-4,4-4h130.1c2.2,0,4,1.8,4,4v91.9c0,2.2-1.8,4-4,4H534.1
			C531.9,345.3,530.1,343.5,530.1,341.3z"/>
		<path fill="#FFFFFF" d="M535.5,254.8v81.1c0,2.2,1.8,4,4,4h119.2c2.2,0,4-1.8,4-4v-81.1c0-2.2-1.8-4-4-4H539.5
			C537.3,250.8,535.5,252.6,535.5,254.8z"/>
		<polygon fill="#2F2E41" points="592,275.4 623.5,287.7 607.9,317 571.2,308.6 		"/>
		<circle fill="#FFB9B9" cx="602.2" cy="292.5" r="13.3"/>
		<path fill="#FFB9B9" d="M611.8,313.7c-3.8-3.1-4.3-7.2-2.9-11.9l-16.2-4.3c1.5,7.5,1.2,14.2-4.8,18.4c-6.7-0.9-11.7,7.1-16.5,15.8
			l32.3,4.7C603.1,328.7,606.5,321.2,611.8,313.7z"/>
		<path fill="#6C63FF" d="M573.4,327.7l4.8-11.2l4.2-0.7l3-0.5c-0.2,0.3-0.4,0.5-0.6,0.8c-0.8,1.2-1.2,2.5-1.2,3.9
			c0,4,3.3,7.7,7.9,7.4l2.6-0.2c1.9-0.1,3.8-1,5-2.5l7-8.2l1.6-1.8l2.4-2.8l0.1-0.1l0.4,0.1l4.2,1.1c0.1,0,0.2,0,0.2,0.1h0
			c1,0.4,1.6,1.2,1.7,2.3l0.1,2l1.4,19.4c-0.1,0.1-0.1,0.1-0.2,0.2c-0.8,0.9-1.6,1.9-2.3,2.8h-51.2
			C565.6,335.6,568.6,331.5,573.4,327.7z"/>
		<polygon fill="#FFB9B9" points="632.1,329.3 642.1,339.9 625.5,339.9 623.5,338.1 619.9,334.7 626.3,323.1 		"/>
		<path fill="#6C63FF" d="M569,322.6c1.8-3.8,5.5-6.4,9.7-6.7l3.7-0.2l0,0l-0.4,1.7l-3.5,15.3l-1.7,7.2h-15.7L569,322.6z"/>
		<path fill="#6C63FF" d="M633.1,327.8l-15.8-14c-0.4-0.4-0.9-0.6-1.4-0.6l0,0c-1.3-0.2-2.5,0.6-2.9,1.9l-5.4,18.5l15.4,5.2
			C626.9,332.9,630.1,332.8,633.1,327.8z"/>
		<path fill="#2F2E41" d="M627.7,293.4c0.1,2.5-0.5,4.9-1.6,7.2c-1.4,3,0.3,6.8,0.3,6.8c6.9,10.3,3,10.3,3,10.3l-14.3-0.3l0.3-2.2
			l-2.9,1.3l-6.4,2.4c0,0,3.5-1.2,0.5-7.7c-3-6.5,4.6-13.2,8.2-16c0,0,0.1-0.1,0.1-0.1c0.5-0.4,0.9-1,1.1-1.6
			c0.5-1.7-0.4-3.6-2.2-4.1c-5-1.6-13.9-6.7-13.9-6.7l2.3,3.1c-7.6-1-10.4-8.6-10.4-8.6l-0.1,0.1c-3.7,6-6.6,12.5-8.4,19.4
			l-3.8,14.1l-8.5-2.3l0,0c2.4-3.5,5-6.8,7.7-9.9c4.2-4.9,4.5-9,4.3-11c-0.2-1.7-0.1-3.5,0.2-5.2c1.9-10.2,10-11.7,10-11.7
			C622.9,261.8,627.3,283,627.7,293.4z"/>
		<ellipse fill="#A0616A" cx="480.5" cy="207.6" rx="2" ry="2.6"/>
		<path fill="#3F3D56" d="M592.1,182.3C592.1,182.3,592.1,182.3,592.1,182.3c0-0.2,0.4-0.4,0.7-0.4c14.3-0.4,28.1,3.2,38.6,10.1
			c10.6,6.9,17.3,16.8,18.8,27.7c0,0.2-0.2,0.4-0.6,0.4c-0.3,0-0.6-0.1-0.6-0.2c-1.5-10.8-8.1-20.6-18.6-27.4
			c-10.3-6.8-23.8-10.3-37.8-9.9C592.3,182.6,592.1,182.5,592.1,182.3L592.1,182.3z"/>
		<polygon fill="#3F3D56" points="593.4,178.9 587.4,182.5 593.5,185.9 		"/>
		<path fill="#3F3D56" d="M463.7,276.5c0.2-0.1,0.4,0,0.4,0.2c3.5,11.4,9.7,21.5,17.5,28.5c7.7,6.9,16.7,13.7,24.9,13c0,0,0,0,0,0
			c0.2,0,0.4,0.1,0.4,0.3c0,0.2-0.1,0.4-0.3,0.4c-8.4,0.8-17.6-6.1-25.4-13.1c-7.9-7.1-14.2-17.3-17.7-28.8
			C463.4,276.7,463.5,276.5,463.7,276.5z"/>
		<polygon fill="#3F3D56" points="505.6,321.7 511.5,318 505.3,314.7 		"/>
	</g>
</g>
<g id="Layer_2">
	<path fill="#E2E2E2" d="M505,455.3l-13.8-21.9l13.8,24.3l0,2.5c1,0,2,0,2.9-0.1l-1.1-32l0-0.2l0,0l-0.1-3l14.4-24l-14.4,21.7l0,0.6
		l-0.8-24.2l12.4-24.8l-12.5,20.6l-0.6-50.2l0-0.2l0,0.2l-0.3,39.5L493,368.2l11.9,19.2l0.1,21.7l-11-20.9l11,24.1l0,12l-16-29.1
		l16,33.3L505,455.3z"/>
	<path fill="#E2E2E2" d="M623.3,455.3l-13.8-21.9l13.8,24.3l0,2.5c1,0,2,0,2.9-0.1l-1.1-32l0-0.2l0,0l-0.1-3l14.4-24L625,422.5
		l0,0.6l-0.8-24.2l12.4-24.8L624,394.7l-0.6-50.2l0-0.2l0,0.2l-0.3,39.5l-11.8-15.8l11.9,19.2l0.1,21.7l-11-20.9l11,24.1l0,12
		l-16-29.1l16,33.3L623.3,455.3z"/>
	<path fill="#E2E2E2" d="M386.6,456.7l-10-15.8l10,17.5l0,1.8c0.7,0,1.4,0,2.1-0.1l-0.8-23.1l0-0.2l0,0l-0.1-2.2l10.4-17.3
		L387.8,433l0,0.5l-0.6-17.5l8.9-17.9l-9,14.8l-0.4-36.2l0-0.1l0,0.1l-0.2,28.6l-8.6-11.4l8.6,13.9l0,15.6l-7.9-15.1l7.9,17.4l0,8.7
		l-11.5-21l11.5,24.1L386.6,456.7z"/>
	<rect x="537.2" y="419.2" fill="#6C63FF" width="74.4" height="3.2"/>
	<rect x="533.4" y="416" fill="#6C63FF" width="74.4" height="3.2"/>
	<rect x="537.8" y="412.8" fill="#6C63FF" width="74.4" height="3.2"/>
	<rect x="545.4" y="409.7" fill="#6C63FF" width="74.4" height="3.2"/>
	<rect x="482.1" y="395.8" fill="#3F3D56" width="2.6" height="18.3"/>
	
		<rect x="478.8" y="376" transform="matrix(0.9266 -0.3761 0.3761 0.9266 -102.9783 227.152)" fill="#3F3D56" width="103.1" height="2.6"/>
	<rect x="434.3" y="432.7" fill="#3F3D56" width="22.5" height="8.8"/>
	<rect x="436.4" y="440.4" fill="#3F3D56" width="110.8" height="9.8"/>
	<polygon fill="#E2E2E2" points="454.6,445.4 481.2,445.4 481.2,411.9 461.3,411.9 454.6,428.8 	"/>
	<rect x="465.7" y="414" fill="#FFFFFF" width="11.4" height="11.4"/>
	<polygon fill="#FFFFFF" points="457.1,425.5 464.4,425.5 464.4,414.1 461.3,414.1 	"/>
	<rect x="473.9" y="431.8" fill="#3F3D56" width="2.6" height="4.9"/>
	<path fill="#3F3D56" d="M462.2,426.2h-0.1c-1.4,0-2.5-1.1-2.5-2.5l0,0c0-1.4,1.1-2.5,2.5-2.5h0.1l0,0V426.2L462.2,426.2z"/>
	<path fill="#3F3D56" d="M558.2,445.4h-0.1c-1.4,0-2.5-1.1-2.5-2.5l0,0c0-1.4,1.1-2.5,2.5-2.5h0.1l0,0V445.4L558.2,445.4z"/>
	<path fill="#E2E2E2" d="M444.2,440.4c-3.9,0-7.5,1.9-9.9,4.9h-5l4.9-13.7l22.9-4.5l-0.6,18.2h-2.2
		C451.8,442.3,448.1,440.5,444.2,440.4z"/>
	<circle fill="#3F3D56" cx="444" cy="448.6" r="11.2"/>
	<circle fill="#E2E2E2" cx="444" cy="448.6" r="5.9"/>
	<circle fill="#3F3D56" cx="545.5" cy="449.9" r="9.8"/>
	<circle fill="#E2E2E2" cx="545.5" cy="449.9" r="5.2"/>
	<rect x="480.4" y="407.3" fill="#3F3D56" width="5.4" height="39.1"/>
	<rect x="480.4" y="439.3" fill="#3F3D56" width="78" height="2.3"/>
	<rect x="460.6" y="426" fill="#3F3D56" width="2.6" height="1"/>
	<path fill="#3F3D56" d="M574.8,422.3c0-0.1-0.1-0.1-0.1-0.2l3.6-33.7c0-0.1,0.1-0.2,0.3-0.2h0c0.1,0,0.2,0.1,0.3,0.2l3.9,33.6
		c0,0.1-0.1,0.3-0.2,0.3c0,0,0,0,0,0l-7.4,0.1h0C574.9,422.4,574.8,422.3,574.8,422.3z M578.5,390.8l-3.3,31.1l6.8-0.1L578.5,390.8z
		"/>
	<path fill="#3F3D56" d="M434.2,431.9l0.1,0c1.3,0.5,1.9,1.9,1.4,3.2l0,0c-0.5,1.3-1.9,1.9-3.2,1.4l-0.1,0l0,0L434.2,431.9
		L434.2,431.9z"/>
	<rect x="577.4" y="356.8" fill="#3F3D56" width="2.6" height="37.7"/>
	<circle fill="#3F3D56" cx="483.4" cy="396.3" r="3.6"/>
	<rect x="488.6" y="436.2" fill="#6C63FF" width="74.4" height="3.2"/>
	<rect x="493" y="433" fill="#6C63FF" width="74.4" height="3.2"/>
	<rect x="489.9" y="430.5" fill="#6C63FF" width="74.4" height="3.2"/>
	<rect x="494.3" y="427.3" fill="#6C63FF" width="74.4" height="3.2"/>
	<rect x="370.3" y="458.9" fill="#3F3D56" width="559.7" height="1.3"/>
</g>
</svg>
