<?xml version="1.0" encoding="utf-8"?>
<!-- Generator: Adobe Illustrator 24.1.2, SVG Export Plug-In . SVG Version: 6.00 Build 0)  -->
<svg version="1.1" id="Layer_1" xmlns="http://www.w3.org/2000/svg" xmlns:xlink="http://www.w3.org/1999/xlink" x="0px" y="0px"
	 viewBox="0 0 771.9 352.3" style="enable-background:new 0 0 771.9 352.3;" xml:space="preserve">
<style type="text/css">
	.st0{fill:#403E56;}
	.st1{fill:#A0626B;}
	.st2{fill:#302E41;}
	.st3{fill:#D1CDE2;}
	.st4{fill:#F3F3F3;}
	.st5{fill:#6466AF;}
	.st6{opacity:0.1;fill:#010101;enable-background:new    ;}
	.st7{opacity:0.1;fill:#6466AF;enable-background:new    ;}
	.st8{fill:none;stroke:#545562;stroke-width:2;stroke-miterlimit:10;}
	.st9{opacity:0.25;fill:#010101;enable-background:new    ;}
	.st10{fill:#FFD139;}
	.st11{fill:#A9A8A8;}
	.st12{opacity:0.2;fill:#010101;enable-background:new    ;}
	.st13{fill:url(#SVGID_1_);}
	.st14{fill:#FFFFFF;}
	.st15{fill:#5B5874;}
	.st16{opacity:0.2;fill:#5B5874;enable-background:new    ;}
	.st17{fill:url(#SVGID_2_);}
	.st18{fill:#EFB7B9;}
	.st19{fill:#F16484;}
	.st20{fill:#454154;}
	.st21{fill:#A2626B;}
	.st22{fill:#935A79;}
	.st23{opacity:0.1;}
	.st24{fill:#010101;}
</style>
<g>
	<ellipse class="st0" cx="178.2" cy="265.4" rx="166.8" ry="13"/>
	<polygon class="st1" points="319.9,241.2 321.5,252.6 310.6,253.7 312.1,239.6 	"/>
	<path class="st1" d="M268.3,83.8c0,0,1,14.1,1,14.6s-7.3,36.5-7.3,36.5s-10.4,19.8,0,19.3c10.4-0.5,7.3-18.8,7.3-18.8l10.9-30.2
		l-4.7-21.4L268.3,83.8z"/>
	<polygon class="st1" points="285.5,241.2 284,252.6 294.9,253.7 293.4,239.6 	"/>
	<path class="st2" d="M273.5,133.8l-2.6,3.6c0,0-1.6,15.6,0,20.8c1.6,5.2,4.7,29.2,4.7,30.7s0.5,2.6,0,3.1c-0.5,0.5-2.1,0.5-1,1.6
		c1,1,1,4.2,1,4.2v2.6l6.8,38.6c0,0-4.2,4.7-1,4.7s14.6,0,14.1-5.2l-1-0.5c0,0-1.6-34.4-1-36c0.5-1.6,0-4.7,0-4.7s-1-1.6,0-2.1
		c1-0.5,1-4.7,1-4.7l4.7-31.8c0,0,4.2,21.4,6.8,23.5c2.6,2.1,2.1,7.3,2.1,7.3l2.1,45.9c0,0-2.1,5.2,0,6.3c2.1,1,10.9,4.7,11.5-0.5
		c0.5-5.2,3.1-50.6,3.1-52.6s-0.5-3.1,0-4.7c0.5-1.6-0.5-1.6,0-1.6s-1-1.6-1-2.6v-25.5c0,0,0.5-5.2,1-6.3c0.5-1-0.5-2.1,0-3.6
		s-1-6.8-1-6.8l-23.5-6.3L273.5,133.8z"/>
	<path class="st2" d="M291.8,250.6c0,0,2.6-2.6-1-2.6c-2.3,0-4.6,0.6-6.8,1.6l-2.6,9.4c0,0-10.7,8.6,1.3,7.6c12-1,10.2-0.3,10.2-0.3
		s3.6-1,4.2-2.1c0.5-1-1-16.2-1-16.2S294.4,252.1,291.8,250.6z"/>
	<path class="st2" d="M314.2,250.6c0,0-2.6-2.6,1-2.6c2.3,0,4.6,0.6,6.8,1.6l2.6,9.4c0,0,10.7,8.6-1.3,7.6c-12-1-11.7-0.3-11.7-0.3
		s-3.6-1-4.2-2.1c-0.5-1,2.6-16.2,2.6-16.2S311.6,252.1,314.2,250.6z"/>
	<circle class="st1" cx="280.3" cy="29.1" r="13.6"/>
	<path class="st1" d="M275.6,39c0,0,2.1,10.4,2.1,12c0,1.6,8.9,6.3,8.9,6.3l9.9-12.5c0,0-6.3-8.9-6.3-10.9L275.6,39z"/>
	<path class="st3" d="M283.4,52.5c0,0-4.5-1.2-5.9-3.2c0,0-14.4,14.2-14.4,16.8l11.5,20.3c0,0,0,7.3,1,7.8c1,0.5,0,0,0,2.1
		c0,2.1-3.1,15.6-2.1,17.7s2.1,0.5,1,3.6c-1,3.1-3.6,19.8-3.6,19.8s9.4-3.1,22.9,2.1c13.6,5.2,29.7-2.1,29.7-2.1s-4.2-9.4-3.1-12.5
		c1-3.1-2.6-8.9-2.6-8.9l-2.6-47.9c0,0,3.6-21.4,1-22.4l-5.2-2.1l-16.7-2.1C294.4,41.6,290.2,52,283.4,52.5z"/>
	<path class="st3" d="M268.3,62.4l-5.2,3.6c0,0-2.6,7.8,0,11.5c2.6,3.6,3.6,8.9,3.6,8.9l10.4-1L268.3,62.4z"/>
	<path class="st2" d="M270,14.7l-2.4-0.9c0,0,4.9-5.4,11.8-4.9l-1.9-2.1c0,0,4.7-1.9,9,3.1c2.2,2.6,4.8,5.6,6.5,9.1h2.5l-1.1,2.3
		l3.7,2.3l-3.8-0.4c0.4,2,0.2,4.1-0.4,6l0.1,1.8c0,0-4.4-6.8-4.4-7.7v2.4c0,0-2.4-2.1-2.4-3.5l-1.3,1.6l-0.6-2.6l-7.9,2.6l1.3-2.1
		l-4.9,0.7l1.9-2.6c0,0-5.6,3.1-5.8,5.6c-0.2,2.6-3,5.9-3,5.9l-1.3-2.4C265.7,28.9,263.8,18.3,270,14.7z"/>
	<rect x="66" y="119.8" class="st4" width="207.1" height="145.5"/>
	<rect x="83.4" y="175.3" class="st0" width="52" height="90.8"/>
	<rect x="93.1" y="180.8" class="st4" width="14" height="13.1"/>
	<rect x="111.8" y="180.8" class="st4" width="14" height="13.1"/>
	<rect x="93.1" y="198.6" class="st4" width="14" height="13.5"/>
	<rect x="111.8" y="198.6" class="st4" width="14" height="13.5"/>
	<circle class="st5" cx="128.8" cy="226.8" r="3.3"/>
	<rect x="152.9" y="166.7" class="st0" width="102.8" height="86.3"/>
	<polygon class="st0" points="294.8,147.2 44.4,147.2 61.1,112.3 64.8,104.5 69.7,94.3 73.4,86.4 77.8,77.4 275,77.4 277.6,86.4 
		279.8,94.3 282.7,104.5 284.9,112.3 	"/>
	<rect x="156.5" y="202.5" class="st5" width="3.6" height="22.2"/>
	<rect x="156.5" y="205.8" class="st4" width="3.6" height="2.7"/>
	<rect x="156.5" y="218.7" class="st4" width="3.6" height="2.7"/>
	<rect x="161.9" y="202.5" class="st5" width="8.7" height="22.2"/>
	<rect x="161.9" y="205.8" class="st4" width="8.7" height="2.7"/>
	<rect x="161.9" y="218.7" class="st4" width="8.7" height="2.7"/>
	<rect x="172.7" y="202.5" class="st5" width="3.6" height="22.2"/>
	<rect x="172.7" y="205.8" class="st4" width="3.6" height="2.7"/>
	<rect x="172.7" y="218.7" class="st4" width="3.6" height="2.7"/>
	<rect x="178.1" y="202.5" class="st5" width="3.6" height="22.2"/>
	<rect x="178.1" y="205.8" class="st4" width="3.6" height="2.7"/>
	<rect x="178.1" y="218.7" class="st4" width="3.6" height="2.7"/>
	
		<rect x="185.6" y="202.5" transform="matrix(0.9357 -0.3527 0.3527 0.9357 -63.2898 79.8465)" class="st5" width="3.6" height="22.2"/>
	
		<rect x="183.4" y="206.2" transform="matrix(0.9357 -0.3527 0.3527 0.9357 -61.3033 78.6537)" class="st4" width="3.6" height="2.7"/>
	
		<rect x="187.9" y="218.3" transform="matrix(0.9357 -0.3527 0.3527 0.9357 -65.2764 81.0392)" class="st4" width="3.6" height="2.7"/>
	<rect x="243.7" y="202.5" class="st5" width="8.7" height="22.2"/>
	<rect x="243.7" y="205.8" class="st4" width="8.7" height="2.7"/>
	<rect x="243.7" y="218.7" class="st4" width="8.7" height="2.7"/>
	<rect x="237.9" y="202.5" class="st5" width="3.6" height="22.2"/>
	<rect x="237.9" y="205.8" class="st4" width="3.6" height="2.7"/>
	<rect x="237.9" y="218.7" class="st4" width="3.6" height="2.7"/>
	<rect x="232.5" y="202.5" class="st5" width="3.6" height="22.2"/>
	<rect x="232.5" y="205.8" class="st4" width="3.6" height="2.7"/>
	<rect x="232.5" y="218.7" class="st4" width="3.6" height="2.7"/>
	
		<rect x="215.7" y="211.8" transform="matrix(0.3527 -0.9357 0.9357 0.3527 -53.04 350.4987)" class="st5" width="22.2" height="3.6"/>
	
		<rect x="227.8" y="205.7" transform="matrix(0.3527 -0.9357 0.9357 0.3527 -45.9058 348.7175)" class="st4" width="2.7" height="3.6"/>
	
		<rect x="223.2" y="217.8" transform="matrix(0.3527 -0.9357 0.9357 0.3527 -60.1742 352.28)" class="st4" width="2.7" height="3.6"/>
	<rect x="152.9" y="224.7" class="st4" width="102.8" height="2.1"/>
	<rect x="197.7" y="202.5" class="st5" width="18.9" height="22.2"/>
	<rect x="202.3" y="207.3" class="st4" width="9.6" height="4.2"/>
	<rect x="203.4" y="166.7" class="st4" width="1.8" height="19.2"/>
	<circle class="st4" cx="204.3" cy="185.9" r="3"/>
	<polygon class="st5" points="279.8,94.3 69.7,94.3 73.4,86.4 277.6,86.4 	"/>
	<polygon class="st5" points="284.9,112.3 61.1,112.3 64.8,104.5 282.7,104.5 	"/>
	<path class="st1" d="M306.9,67.1c0,0-3,7.8-2.4,15.4c0.1,1.4,0.6,2.7,1.3,3.8l0,0l-37,17.6c0,0-16.7,1.7-12.5,9
		c4.2,7.3,19.3-3.6,19.3-3.6s39.6-5.7,42.7-11.5c3.1-5.7,5.2-29.7,5.2-29.7L306.9,67.1z"/>
	<path class="st3" d="M308.5,45.7h7.8c0,0,5.7,1,7.3,11.5s3.1,13,1.6,13s-20.3-0.5-20.3-1C304.8,68.7,308.5,45.7,308.5,45.7z"/>
	<circle class="st5" cx="47.5" cy="161.3" r="40.1"/>
	<circle class="st6" cx="47.5" cy="161.3" r="34.5"/>
	<path class="st4" d="M45.8,181.7v-5c-2.5,0-5.2-0.9-6.7-2.2l1-3.3c1.8,1.4,4,2.1,6.3,2.1c3.1,0,5.2-2,5.2-4.9
		c0-2.7-1.7-4.4-4.9-5.9c-4.5-2-7.2-4.3-7.2-8.6c0-4.1,2.6-7.3,6.6-8v-5h2.7v4.8c2,0,4,0.6,5.7,1.7l-1.1,3.3
		c-1.6-1.1-3.5-1.7-5.5-1.7c-3.4,0-4.6,2.3-4.6,4.3c0,2.6,1.6,3.9,5.4,5.7c4.5,2.1,6.8,4.7,6.8,9.1c0,3.9-2.4,7.6-6.9,8.4v5.2H45.8z
		"/>
</g>
<g>
	<path class="st7" d="M758.2,250.7c-0.3,0.2-0.6,0.5-1,0.7c-1.2,0.9-2.5,1.6-3.8,2.3c-6.9,3.6-15.3,5.4-23.5,6.6
		c-18.5,2.7-37.3,3.2-56.1,3.7c-50.7,1.4-101.5,2.8-152.1-0.4c-20-1.3-40.4-3.4-58.5-9.9c-2.6-0.9-5.1-2-7.6-3.1
		c-5-2.3-9.9-5-13.9-8.3c-3.8-3.1-6.9-6.6-8.7-10.7c-3.8-8.4-1.8-17.8,2.6-26.1c1.8-3.3,3.9-6.5,6.1-9.6c3.4-4.6,7.1-9.1,10.5-13.8
		c12.1-16.5,20-37.3,8.8-54.2c-3.2-4.9-7.8-9.1-10.4-14.2c-3.3-6.5-3.1-13.7-2-20.7c0.1-0.9,0.3-1.8,0.4-2.6
		c1.8-10.4,5.2-21.5,15.7-28c10.9-6.7,26.4-6.4,39.9-4c21,3.8,40.4,11.6,60.1,18.6s40.1,13.5,61.7,14.2c19,0.6,41.2-4,53.9-15.9
		c12.3-11.6,35.3-12.5,51.9-5.5c11.4,4.8,19.9,13.4,23.5,23.2c0.7,2,1.3,4,1.6,6c0.3,1.9,0.4,3.8,0.3,5.7c0,0.9-0.1,1.9-0.3,2.8
		c-2.8,19.2-22.8,34.3-34.9,51.5c-5.9,8.4-10.1,18.4-6,27.5c6.2,13.8,27.9,18.6,41,28.9c2.5,1.9,4.6,4.1,6.4,6.6
		C769.9,231.1,767.6,243.4,758.2,250.7z"/>
	<g id="d00831fc-a64a-413c-b5dd-d7bd6eafa01d">
		<path class="st8" d="M481.4,164.8c0,0-15.3-27.1-38.4-35c-9.7-3.3-18.1-9.5-23.9-17.9c-2.7-4-5.1-8.3-7.1-12.7"/>
		<path class="st5" d="M397.5,94.2c2.6,2.5,14.9,5.2,14.9,5.2s-3-12.2-5.6-14.7c-2.7-2.5-6.9-2.4-9.4,0.3
			C394.9,87.6,394.9,91.7,397.5,94.2L397.5,94.2z"/>
		<path class="st5" d="M404.4,116.2c3.6,0.7,15.3-3.7,15.3-3.7s-9.1-8.6-12.7-9.3c-3.6-0.6-7.1,1.8-7.7,5.4
			C398.7,112.1,400.9,115.4,404.4,116.2L404.4,116.2z"/>
		<path class="st5" d="M429.6,140c3.5-1.2,11.3-10.9,11.3-10.9s-12.2-2.8-15.7-1.6c-3.5,1.1-5.5,4.8-4.4,8.3
			c1.1,3.5,4.8,5.5,8.3,4.4C429.3,140.1,429.5,140.1,429.6,140L429.6,140z"/>
		<path class="st5" d="M452.8,153.8c3.6-0.6,13-8.9,13-8.9s-11.6-4.8-15.2-4.2c-3.6,0.6-6.1,4-5.5,7.6
			C445.7,151.9,449.1,154.3,452.8,153.8L452.8,153.8z"/>
		<path class="st5" d="M429.9,103c0,3.7-6.6,14.3-6.6,14.3s-6.6-10.6-6.6-14.3c-0.1-3.7,2.8-6.7,6.5-6.8c3.7-0.1,6.7,2.8,6.8,6.5
			C429.9,102.8,429.9,102.9,429.9,103L429.9,103z"/>
		<path class="st5" d="M456.8,119.4c-1.1,3.5-10.6,11.7-10.6,11.7s-3.2-12.1-2.1-15.7c1.2-3.4,5.1-5.2,8.5-4
			C455.8,112.6,457.6,116,456.8,119.4L456.8,119.4z"/>
		<path class="st5" d="M480.7,138.9c-0.5,3.6-8.5,13.3-8.5,13.3s-5.2-11.4-4.7-15c0.5-3.6,3.9-6.1,7.5-5.6
			C478.7,132.1,481.1,135.3,480.7,138.9L480.7,138.9z"/>
		<path class="st9" d="M397.5,94.2c2.6,2.5,14.9,5.2,14.9,5.2s-3-12.2-5.6-14.7c-2.7-2.5-6.9-2.4-9.4,0.3
			C394.9,87.6,394.9,91.7,397.5,94.2L397.5,94.2z"/>
		<path class="st9" d="M404.4,116.2c3.6,0.7,15.3-3.7,15.3-3.7s-9.1-8.6-12.7-9.3c-3.6-0.6-7.1,1.8-7.7,5.4
			C398.7,112.1,400.9,115.4,404.4,116.2L404.4,116.2z"/>
		<path class="st9" d="M429.6,140c3.5-1.2,11.3-10.9,11.3-10.9s-12.2-2.8-15.7-1.6c-3.5,1.1-5.5,4.8-4.4,8.3
			c1.1,3.5,4.8,5.5,8.3,4.4C429.3,140.1,429.5,140.1,429.6,140L429.6,140z"/>
		<path class="st9" d="M452.8,153.8c3.6-0.6,13-8.9,13-8.9s-11.6-4.8-15.2-4.2c-3.6,0.6-6.1,4-5.5,7.6
			C445.7,151.9,449.1,154.3,452.8,153.8L452.8,153.8z"/>
		<path class="st9" d="M429.9,103c0,3.7-6.6,14.3-6.6,14.3s-6.6-10.6-6.6-14.3c-0.1-3.7,2.8-6.7,6.5-6.8c3.7-0.1,6.7,2.8,6.8,6.5
			C429.9,102.8,429.9,102.9,429.9,103L429.9,103z"/>
		<path class="st9" d="M456.8,119.4c-1.1,3.5-10.6,11.7-10.6,11.7s-3.2-12.1-2.1-15.7c1.2-3.4,5.1-5.2,8.5-4
			C455.8,112.6,457.6,116,456.8,119.4L456.8,119.4z"/>
		<path class="st9" d="M480.7,138.9c-0.5,3.6-8.5,13.3-8.5,13.3s-5.2-11.4-4.7-15c0.5-3.6,3.9-6.1,7.5-5.6
			C478.7,132.1,481.1,135.3,480.7,138.9L480.7,138.9z"/>
		<path class="st8" d="M480.5,164.2c0,0-3-31-20.9-47.5c-7.5-6.9-12.8-16-14.6-26.1c-0.9-4.8-1.3-9.6-1.3-14.5"/>
		<path class="st5" d="M432.4,65.7c1.4,3.4,11.5,10.8,11.5,10.8s2.2-12.3,0.8-15.7c-1.4-3.4-5.2-5-8.6-3.7
			C432.6,58.5,431,62.3,432.4,65.7L432.4,65.7z"/>
		<path class="st5" d="M429.8,88.6c3,2.1,15.5,2.8,15.5,2.8s-4.9-11.5-7.8-13.7c-3-2.1-7.1-1.4-9.3,1.6
			C426.1,82.4,426.8,86.5,429.8,88.6z"/>
		<path class="st5" d="M443.2,120.6c3.7,0.3,14.8-5.4,14.8-5.4s-10-7.5-13.7-7.8c-3.6-0.4-6.9,2.3-7.3,5.9c-0.4,3.6,2.3,6.9,5.9,7.3
			C443,120.6,443.1,120.6,443.2,120.6L443.2,120.6z"/>
		<path class="st5" d="M458.8,142.6c3.5,0.9,15.5-2.8,15.5-2.8s-8.6-9.1-12.2-10c-3.6-0.9-7.1,1.3-8,4.9
			C453.3,138.1,455.4,141.6,458.8,142.6L458.8,142.6z"/>
		<path class="st5" d="M458.5,86.9c-1.5,3.4-11.9,10.4-11.9,10.4s-1.8-12.4-0.3-15.8c1.4-3.4,5.3-5,8.7-3.5s5,5.3,3.5,8.7
			C458.6,86.8,458.5,86.8,458.5,86.9z"/>
		<path class="st5" d="M476.4,112.8c-2.4,2.8-14.4,6.4-14.4,6.4s2-12.4,4.4-15.1c2.4-2.8,6.6-3,9.4-0.6S478.8,110,476.4,112.8z"/>
		<path class="st5" d="M490.4,140.3c-1.9,3.1-13.1,8.7-13.1,8.7s-0.1-12.5,1.8-15.7c1.9-3.1,6-4.1,9.1-2.2
			C491.3,133.1,492.3,137.2,490.4,140.3L490.4,140.3z"/>
	</g>
	<ellipse class="st7" cx="531.4" cy="335.4" rx="37.1" ry="4.8"/>
	<g id="_x35_cfdbbb0-8197-4f02-a5fd-2740d54b5dec">
		<ellipse class="st7" cx="456.4" cy="335" rx="11.3" ry="1.9"/>
		<path class="st5" d="M458.8,313.5c0,0,1.8,2.4-0.8,6s-4.9,6.7-4,8.9c0,0,4-6.7,7.3-6.8C464.6,321.5,462.4,317.6,458.8,313.5z"/>
		<path class="st6" d="M458.8,313.5c0.2,0.2,0.3,0.5,0.4,0.8c3.2,3.8,4.9,7.3,1.8,7.4c-2.9,0.1-6.3,5.2-7.1,6.5
			c0,0.1,0.1,0.2,0.1,0.3c0,0,4-6.7,7.3-6.8C464.6,321.5,462.4,317.6,458.8,313.5z"/>
		<path class="st10" d="M462.2,316.6c0,0.8-0.1,1.5-0.2,1.5s-0.2-0.7-0.2-1.5c0-0.9,0.1-0.4,0.2-0.4
			C462.1,316.1,462.2,315.7,462.2,316.6z"/>
		<path class="st10" d="M463.4,317.6c-0.7,0.4-1.4,0.6-1.4,0.5c-0.1-0.1,0.5-0.5,1.2-0.9c0.7-0.4,0.4-0.1,0.5,0
			S464.1,317.2,463.4,317.6z"/>
		<path class="st5" d="M449.1,313.5c0,0-1.8,2.4,0.8,6c2.7,3.6,4.9,6.7,4,8.9c0,0-4-6.7-7.3-6.8
			C443.4,321.5,445.5,317.6,449.1,313.5z"/>
		<path class="st6" d="M449.1,313.5c-0.2,0.2-0.3,0.5-0.4,0.8c-3.2,3.8-4.9,7.3-1.8,7.4c2.9,0.1,6.3,5.2,7.1,6.5
			c0,0.1-0.1,0.2-0.1,0.3c0,0-4-6.7-7.3-6.8C443.4,321.5,445.5,317.6,449.1,313.5z"/>
		<path class="st10" d="M445.7,316.6c0,0.8,0.1,1.5,0.2,1.5s0.2-0.7,0.2-1.5c0-0.9-0.1-0.4-0.2-0.4S445.7,315.7,445.7,316.6z"/>
		<path class="st10" d="M444.6,317.6c0.7,0.4,1.4,0.6,1.4,0.5c0.1-0.1-0.5-0.5-1.2-0.9c-0.7-0.4-0.4-0.1-0.5,0
			S443.8,317.2,444.6,317.6z"/>
		<path class="st11" d="M446.3,328.1c0,0,5.1-0.2,6.7-1.3c1.5-1.1,7.9-2.4,8.2-0.6s7.7,8.8,1.9,8.8c-5.8,0-13.4-0.9-15-1.8
			C446.7,332.2,446.3,328.1,446.3,328.1z"/>
		<path class="st12" d="M463.2,334.4c-5.8,0-13.4-0.9-15-1.8c-1.2-0.7-1.6-3.3-1.8-4.5h-0.2c0,0,0.3,4.1,1.9,5.1
			c1.5,0.9,9.2,1.9,15,1.8c1.7,0,2.2-0.6,2.2-1.5C465.1,334.1,464.5,334.4,463.2,334.4z"/>
		<path class="st5" d="M617.1,327.9c0,0-14.1-0.8-12.4,9c0,0-0.3,1.7,1.2,2.5c0,0,0-0.7,1.4-0.5c0.5,0.1,1,0.1,1.5,0.1
			c0.7,0,1.3-0.3,1.9-0.8l0,0c0,0,4-1.6,5.5-8.1c0,0,1.1-1.4,1.1-1.8l-2.4,1c0,0,0.8,1.7,0.2,3.1c0,0-0.1-3.1-0.5-3
			c-0.1,0-1.2,0.6-1.2,0.6s1.4,3,0.3,5.2c0,0,0.4-3.7-0.8-4.9l-1.7,1c0,0,1.6,3.1,0.5,5.6c0,0,0.3-3.9-0.9-5.4l-1.5,1.2
			c0,0,1.5,3,0.6,5.1c0,0-0.1-4.5-0.9-4.8c0,0-1.3,1.2-1.5,1.7c0,0,1,2.2,0.4,3.4c0,0-0.4-3-0.7-3c0,0-1.3,2-1.5,3.3
			c0,0,0.1-2,1.1-3.5c-0.8,0.1-1.5,0.5-2,1c0,0,0.2-1.4,2.3-1.5c0,0,1.1-1.5,1.4-1.6c0,0-2.1-0.2-3.4,0.4c0,0,1.1-1.3,3.8-0.7
			l1.5-1.2c0,0-2.8-0.4-4,0c0,0,1.4-1.2,4.4-0.3l1.6-1c0,0-2.4-0.5-3.8-0.3c0,0,1.5-0.8,4.3,0.1l1.2-0.5c0,0-1.8-0.3-2.3-0.4
			c-0.5-0.1-0.5-0.2-0.5-0.2c1.1-0.2,2.3-0.1,3.3,0.4C614.7,329,617.2,328.1,617.1,327.9z"/>
		<ellipse class="st7" cx="607.4" cy="340.3" rx="10" ry="1.7"/>
		<path class="st5" d="M592.5,328.5c0,0-7.9-0.5-7,5.1c-0.1,0.6,0.2,1.2,0.7,1.4c0,0,0-0.4,0.8-0.3c0.3,0,0.6,0.1,0.9,0
			c0.4,0,0.8-0.2,1.1-0.4l0,0c0,0,2.2-0.9,3.1-4.6c0,0,0.6-0.8,0.6-1l-1.3,0.6c0,0,0.5,1,0.1,1.8c0,0,0-1.7-0.3-1.7
			c-0.1,0-0.7,0.3-0.7,0.3s0.8,1.7,0.2,2.9c0,0,0.2-2.1-0.4-2.8l-0.9,0.6c0,0,0.9,1.7,0.3,3.2c0,0,0.2-2.2-0.5-3l-0.9,0.7
			c0,0,0.9,1.7,0.3,2.9c0,0-0.1-2.5-0.5-2.7c-0.3,0.3-0.6,0.6-0.9,0.9c0,0,0.6,1.2,0.2,1.9c0,0-0.2-1.7-0.4-1.7c0,0-0.7,1.1-0.8,1.9
			c0-0.7,0.3-1.4,0.6-2c-0.4,0.1-0.8,0.3-1.1,0.6c0,0,0.1-0.8,1.3-0.9c0,0,0.6-0.8,0.8-0.9c0,0-1.2-0.1-1.9,0.2c0,0,0.6-0.7,2.2-0.4
			l0.8-0.7c0,0-1.6-0.2-2.3,0c0,0,0.8-0.7,2.5-0.2l0.9-0.5c-0.7-0.2-1.4-0.2-2.2-0.2c0,0,0.8-0.5,2.4,0l0.7-0.3c0,0-1-0.2-1.3-0.2
			c-0.3,0-0.3-0.1-0.3-0.1c0.6-0.1,1.3,0,1.9,0.2C591.1,329,592.5,328.5,592.5,328.5z"/>
		<ellipse class="st7" cx="587" cy="335.5" rx="5.6" ry="0.9"/>
		<path class="st5" d="M607.6,316.7c0,0-9.6-0.6-8.5,6.1c-0.1,0.7,0.2,1.4,0.9,1.7c0,0,0-0.5,1-0.3c0.3,0.1,0.7,0.1,1,0
			c0.5,0,0.9-0.2,1.3-0.5l0,0c0,0,2.7-1.1,3.7-5.5c0,0,0.8-1,0.7-1.2l-1.6,0.7c0,0,0.6,1.2,0.1,2.1c0,0-0.1-2.1-0.4-2
			c-0.1,0-0.8,0.4-0.8,0.4s1,2,0.2,3.5c0,0,0.3-2.5-0.5-3.4l-1.1,0.7c0,0,1.1,2.1,0.4,3.8c0,0,0.2-2.6-0.6-3.7l-1,0.8
			c0,0,1,2.1,0.4,3.5c0,0-0.1-3.1-0.6-3.3c0,0-0.9,0.8-1,1.1c0,0,0.7,1.5,0.3,2.3c0,0-0.3-2-0.5-2c0,0-0.9,1.3-1,2.3
			c0-0.9,0.3-1.7,0.8-2.4c-0.5,0.1-1,0.3-1.4,0.7c0,0,0.1-1,1.6-1c0,0,0.7-1,0.9-1.1c0,0-1.5-0.1-2.3,0.3c0,0,0.8-0.9,2.6-0.5l1-0.8
			c0,0-1.9-0.3-2.7,0c0,0,0.9-0.8,3-0.2l1.1-0.7c0,0-1.6-0.3-2.6-0.2c0,0,1-0.6,2.9,0l0.8-0.4c0,0-1.2-0.2-1.5-0.3
			c-0.3,0-0.4-0.1-0.4-0.1c0.8-0.1,1.5,0,2.2,0.2C605.9,317.4,607.6,316.8,607.6,316.7z"/>
		<ellipse class="st7" cx="601" cy="325.1" rx="6.8" ry="1.1"/>
	</g>
	<g id="_x31_cf578eb-5ffb-4cd7-95b8-45aaaddab7e0">
		
			<linearGradient id="SVGID_1_" gradientUnits="userSpaceOnUse" x1="641.2981" y1="74.0546" x2="641.2981" y2="239.3078" gradientTransform="matrix(1 0 0 -1 -41.9 327.7275)">
			<stop  offset="0" style="stop-color:#818181;stop-opacity:0.25"/>
			<stop  offset="0.54" style="stop-color:#818181;stop-opacity:0.12"/>
			<stop  offset="1" style="stop-color:#818181;stop-opacity:0.1"/>
		</linearGradient>
		<path class="st13" d="M757.8,251.3V88.4H441V242c4,3.4,8.9,6.2,14,8.6c2.5,1.2,5.1,2.2,7.7,3.2H754L757.8,251.3z"/>
		<path class="st14" d="M757.2,251.4V93.1H441.7v149.2c4,3.3,8.9,6,13.9,8.3c2.5,1.1,5,2.1,7.6,3.1h290.2L757.2,251.4z"/>
		<rect x="441.7" y="88.9" class="st15" width="315.5" height="8.4"/>
	</g>
	<g id="_x36_703b009-63cb-4af0-a0d7-9948e224c180">
		<circle class="st14" cx="448" cy="93.1" r="2.2"/>
		<circle class="st14" cx="453.8" cy="93.1" r="2.2"/>
		<circle class="st14" cx="459.6" cy="93.1" r="2.2"/>
	</g>
	<g id="_x38_c4e1fb4-b9ff-4530-b767-610e84618ea6">
		<rect x="522.3" y="115.7" class="st5" width="52.1" height="32.7"/>
		<rect x="450.2" y="115.7" class="st16" width="52.1" height="32.7"/>
		<rect x="594.5" y="115.7" class="st16" width="52.1" height="32.7"/>
		<rect x="450.2" y="162.5" class="st16" width="52.1" height="32.7"/>
		<rect x="522.3" y="162.5" class="st16" width="52.1" height="32.7"/>
		<rect x="594.5" y="162.5" class="st16" width="52.1" height="32.7"/>
		<rect x="450.2" y="209.3" class="st16" width="52.1" height="32.7"/>
		<rect x="522.3" y="209.3" class="st16" width="52.1" height="32.7"/>
		<rect x="594.5" y="209.3" class="st16" width="52.1" height="32.7"/>
	</g>
	<g id="_x32_796dd85-6618-42ad-b8a0-d6b4cc80ab2d">
		
			<linearGradient id="SVGID_2_" gradientUnits="userSpaceOnUse" x1="581.7889" y1="-8.6919" x2="581.7889" y2="203.8963" gradientTransform="matrix(1 0 0 -1 -41.9 327.7275)">
			<stop  offset="0" style="stop-color:#818181;stop-opacity:0.25"/>
			<stop  offset="0.54" style="stop-color:#818181;stop-opacity:0.12"/>
			<stop  offset="1" style="stop-color:#818181;stop-opacity:0.1"/>
		</linearGradient>
		<path class="st17" d="M565.1,197.7c0,0-9.4-17.1-7.8-19.9c1.6-2.8,2.7-6.8,2.7-6.8s3.5-2.4,3.5-3.3s2.7-3.2,4.2-4.2
			c1.4-1,0.7-5.6,0-6.1c-0.7-0.6-1.9-2.5-1.9-2.5s1-2.8,0-3.6c-1-0.8,0.1-1.7,0-2.5s0-3.9,0-3.9c-1.2-1.6-2.5-2.4-3.7-2.7l-0.1-0.4
			l-0.6-2.6c0,0,3-5.7-1.9-8.8c-0.3-0.2-0.7-0.4-1.1-0.6c0,0,0-0.1,0-0.4c-0.1-0.9-0.3-3-0.7-4.4c-0.3-0.8-0.6-1.3-1-1.2
			c-0.1,0-0.2,0.1-0.3,0.2c-0.2,0.2-0.4,0.4-0.5,0.6l0,0c0,0,0,0,0,0l0,0c-0.6,1-0.9,2.1-1.1,3.2c-0.1,0.7-0.3,1.3-0.3,2l0,0
			c-0.2,0.4-0.4,0.8-0.6,1.2c-0.6,1.5-1.3,4.2,0,6.1c1.1,1.7,2.5,4,3.5,5.6l0,0.1l0.1,0.1l-0.1,0.1v0.3l0.1,1.4l0.8,12.1
			c-0.2-0.1-0.5-0.1-0.7-0.2c-0.4-0.1-0.7-0.1-1.1-0.1c-0.7-2.8-2.6-5.3-3-8.2c0-0.3-0.1-0.6-0.1-0.9c0-1.8,0.5-3.6,0.4-5.4
			c0-0.3,0-0.7,0-1l0,0c0-0.1,0-0.2,0-0.3c-0.4-2.7-2-5-4.5-6.2c-0.8-0.4-1.7-0.7-2.6-1.1c-1.9-1.1-3.1-3-4.8-4.3
			c-1.3-1-3.2-1.5-4.6-1c-0.8,0.1-1.5,0.3-2.2,0.5l0,0c-1.8,0.5-3.5,1.2-5.1,2.1c-0.2,0.1-0.4,0.3-0.6,0.4c-0.5,0.3-0.8,0.7-1,1.2
			c-0.1,0.4-0.2,0.9-0.2,1.3c0,0.3,0,0.6,0,1c-0.1,5.3-5.8,9.5-6.3,14.7c0,0.1,0,0.2,0,0.4c0,0,0,0.1,0,0.1c0,0.1,0,0.3,0,0.5l0,0
			c0,0.1,0,0.1,0,0.2s0,0.1,0,0.2c0.1,2.3,1.3,4.4,1.5,6.7c0,0.2,0,0.4,0,0.6c0,1-0.2,2.1-0.6,3.1c-0.7,0.2-1.4,0.5-2.1,0.8
			c-1.7,1.1-4.9,3.1-6,6.8c-0.3,1-0.4,2-0.4,3c0,3.6-0.3,7.1-1,10.6c-0.1,0.9-0.3,1.8-0.6,2.6c0,0.1,0,0.2,0,0.3l-0.7,9l-0.1,1.6
			l-0.2,2.3c0,0,0,0.1,0.1,0.4c0.1,0.3,0.2,0.7,0.3,1c0.2,0.8,0.2,1.6,0.1,2.3c-0.1,0.3-0.2,0.6-0.5,0.9c0,0,0,0-0.1,0.1
			c-0.2,0.3-0.4,1.1-0.5,2.3c-0.1,0.5-0.1,1-0.2,1.6c-0.3,3.5-0.5,8.9-0.7,13.2c-0.1,4.3-0.2,7.7-0.2,7.7c0.6,0.4,1.2,0.7,1.8,0.9
			c0,0.1-0.1,0.2-0.1,0.4c-0.6,1.5-0.9,3-1.1,4.6c-0.3,3.3,0.6,6.9,5.2,8.8c0.3,0.1,0.6,0.2,0.9,0.3c1,0.3,1.7,0.2,2.3-0.1
			c0,0.2,0,0.4,0,0.6c0,0.8,0.1,1.6,0.1,2.2c0.1,3.9,1.1,10.7,1.1,10.7s0.3,2.8,0,3.6c-0.3,0.8,0,4.2,0,4.2s1,1.7,0,2.5
			c-1,0.8-1.3,5-1,5.6c0,0,0,0,0,0.1c0.2,1.4-1,21.9-1,21.9s-1.2,3.1-2.1,6.4c-0.9,3.2-1.6,6.5-0.8,7.1c0.4,0.3,1.4,0.5,2.6,0.7
			c0,0.1,0,0.3,0,0.4c-0.1,1.5-0.3,3.1-0.6,3.5c-0.4,0.6-0.8,5-1,7.3l0,0.3c-0.4,1-0.8,2.1-1.1,3.1c0,0-3.2,8-2.1,10.1
			c0.1,0.2,0.2,0.4,0.4,0.5l0,0c0,0,0.1,0.1,0.1,0.1c1.5,1.2,5.4,1.5,6.8,1.5l-0.1,2v0.1h1.8v0c0-0.2,0-1.4,0.1-2.9
			c0-0.3,0-0.6,0-0.9c0-0.2,0-0.5,0-0.7c0.5-1.4,0.8-2.9,0.8-4.4c0-1.7,0.2-3.5,0.7-5.2c0.2-0.9,0.5-1.7,0.9-2.5c0,0,0.6-3-0.2-5.1
			c-0.2-0.4-0.4-0.8-0.7-1.2c0-0.1,0-0.1,0-0.2s0-0.2,0-0.2s0-0.1,0-0.2c0-1.4,0.1-2.9,0.4-4.3c0,0,0,0,0-0.1c0-0.1,0.1-0.2,0.1-0.3
			l0-0.1l0.6,0c1.8,0,3.1,0,3.1,0s1.4-7.4,1.3-10.6c0-0.1,0-0.3,0-0.4c0-3.2,0.9-7.5,0.9-7.5l1.2-11.3c0,0-0.6-2,0-3.3
			c0.4-0.9,1.1-2.5,1.6-3.6c0.2-0.5,0.4-0.9,0.5-1.1l0-0.1c-0.2-0.1-0.4-0.1-0.5-0.3l0,0c-0.5-0.3-0.9-0.9,0.5-1.8
			c2.2-1.4,1.4-4.9,1.4-4.9s-0.6-1.3,0.1-2.4s0-5.3,0-5.3c0.6-1.1,1.1-2.3,1.5-3.5c0.5-1.7,1.9-9.8,2.5-13.7
			c0.2-1.3,0.3-2.1,0.3-2.1l0,0.2l0,0.2l0,0l0.2,1.9l0,0.2l0.3,3.5c0,0,0.7,9.2,0.2,12.8c0,0,0,0,0,0.1c0,0.4-0.1,0.7-0.2,1.1
			c-0.8,1.7-0.6,8.6-0.6,10.1c0,0.1,0,0.2,0,0.3s-0.5,1.4-0.4,2.4l0,0c0,0.3,0.1,0.5,0.3,0.7c0.2,0.3,0.3,0.7,0.3,1.1v0
			c0,0.2,0,0.3,0,0.5c-0.1,0.6-0.3,1.3-0.5,1.9c0,0-0.8,2-0.5,3.1l0,0c0,0.1,0.1,0.3,0.2,0.4c0.1,0.1,0.1,0.3,0.1,0.4c0,0,0,0,0,0
			c0.3,2.2-0.4,12.1-0.8,17.5c-0.2,2.1-0.3,3.6-0.3,3.6l-1.1,11.8l0.1,0.1c0.1,0.1,0.4,0.3,0.7,0.4c0,0,0,0,0,0l0,0.4
			c-0.2,1.1-0.4,2.5-0.6,3.5c0,0.1,0,0.1-0.1,0.2c-0.4,0.1-0.9,0.2-1.2,0.5c-2.4,4.3-1.4,7.7,0,8.7c0.4,0.3,0.6,1.1,0.8,2l0.3,4.3
			c0,0.2,0,0.3,0,0.5c0,0.1,0,0.3,0.1,0.4l0.1,1.3l0.1,1.8h1.1v-2.2h0.1c1.7,0.1,4.6,0.1,5.8,0h0c0.1,0,0.2,0,0.3,0
			c0.1,0,0.1,0,0.2-0.1c0.6-0.3,2.3-4.9,0.8-5.9c-1.5-1-1.8-4-1.8-4c-0.1-0.4-0.3-0.8-0.4-1.1c0-0.1,0-0.1,0-0.2c0-1.4,0-3,0.2-3.8
			c0.2-0.9,0.3-2.9,0.4-4.6c0-0.1,0-0.3,0-0.4v0c0.3-0.1,0.5-0.1,0.7-0.2l0.1,0c0.4-0.2,0.9-0.4,1.2-0.7L550,293l0.4-2.1l2.4-12
			c0,0-0.9-4.2,0-4.9c0.3-0.3,0.4-1.3,0.4-2.6c0-2.2-0.4-4.9-0.4-4.9s1.2-1.8,1.7-2.9c0.6-1.1,0-4,0-4l1.1-6.7c0,0,1.3-7.9,4.5-14.6
			c2.3-4.9,0.8-18.2-0.7-25.2c0-0.2-0.1-0.4-0.1-0.5v0c0.7-0.4,1.6-0.8,2.5-1.2l0.4-0.2c1.2-0.6,2.4-1.1,3.6-1.6l0.1,0
			c0.8-0.4,1.6-0.7,2.5-0.9c0.2-0.1,0.5-0.1,0.8-0.2C571.2,208.3,565.1,197.7,565.1,197.7z M520.1,220.3h0.6
			c-0.1,0.1-0.1,0.3-0.2,0.4c0,0.1-0.1,0.2-0.1,0.2c-0.2,0.5-0.4,0.9-0.6,1.4c0.1-0.5,0.1-1,0.2-1.6
			C520,220.6,520,220.5,520.1,220.3z M518.4,229C518.4,229,518.4,229,518.4,229l0-0.2c0-0.1-0.1-0.2-0.1-0.3
			c0.2-0.1,0.4-0.1,0.6-0.2h0c0,0,0,0.1,0,0.1c0,0.2,0,0.3-0.1,0.5l0,0c0,0,0,0,0,0.1c0,0.1,0,0.2,0,0.4c0,0.2-0.1,0.5-0.1,0.7
			c-0.1-0.2-0.1-0.4-0.2-0.6C518.5,229.2,518.5,229.1,518.4,229L518.4,229z"/>
		<path class="st18" d="M561.7,144.3l-3.6,1.3l-1.3-2.2c-1-1.7-2.4-3.9-3.4-5.6c-1.8-2.9,0.6-7.3,0.6-7.3s0.4-4.5,1.9-5.8
			c1.5-1.4,1.9,5.8,1.9,5.8c6.1,2.8,2.8,9.3,2.8,9.3l0.6,2.6L561.7,144.3z"/>
		<path class="st6" d="M561.7,144.3l-3.6,1.3l-1.3-2.2v-0.2c0,0,2.1-1.4,4.5-0.9L561.7,144.3z"/>
		<path class="st19" d="M555.9,158.9l1.8-1.5l-0.9-13.7c0,0,4.7-3.2,8.1,1.8c0,0-0.1,3.1,0,3.9c0.1,0.8-1,1.7,0,2.5
			c1,0.8,0,3.6,0,3.6s1.1,1.9,1.8,2.5c0.7,0.6,1.4,5.1,0,6.1c-1.4,1-4,3.2-4,4.2c0,1-3.3,3.3-3.3,3.3l-2.9-3.9L555.9,158.9z"/>
		<path class="st18" d="M516.9,242.3c-6.7-2.9-5.2-9.8-4-13.3c0.3-0.7,0.5-1.4,0.9-2.1l3.8-2.3c0,0,0.8,2,1.6,4.6
			C521.1,235.3,523.3,245,516.9,242.3z"/>
		<path class="st18" d="M526.1,305.8c-0.5,0.9-0.8,1.8-1,2.8c-0.3,1.6-0.5,3.2-0.4,4.8c0,1.1,0.1,1.8,0.1,1.8l-7.5,5.1
			c0,0,0-0.6,0.1-1.5c0.2-2.4,0.6-6.7,1-7.3c0.3-0.4,0.4-2,0.6-3.4c0.1-1.5,0.2-2.8,0.2-2.8S528.2,302,526.1,305.8z"/>
		<path class="st18" d="M543.8,309.5c0,0,0,1.4-0.1,3.1s-0.2,3.6-0.4,4.5c-0.2,0.8-0.2,2.4-0.2,3.8c0,1.7,0.2,3.2,0.2,3.2
			s-7.6-7.2-6.9-7.8c0.2-0.2,0.4-0.8,0.6-1.6c0.2-1,0.4-2.3,0.6-3.5c0.2-1.3,0.3-2.4,0.3-2.4L543.8,309.5z"/>
		<path class="st6" d="M526.1,305.8c-0.5,0.9-0.8,1.8-1,2.8c-2-0.1-4.1-0.2-6.1-0.5c0.1-1.4,0.2-2.8,0.2-2.8S528.2,302,526.1,305.8z
			"/>
		<path class="st6" d="M543.8,309.5c0,0,0,1.4-0.1,3.1c-2.4,0.6-4.8-0.6-6-1.3c0.2-1.3,0.3-2.4,0.3-2.4L543.8,309.5z"/>
		<path class="st20" d="M559.5,238.6c-3.1,6.7-4.3,14.6-4.3,14.6l-1.1,6.7c0,0,0.6,2.9,0,4c-0.6,1.1-1.7,2.9-1.7,2.9s0.8,6.8,0,7.5
			c-0.8,0.7,0,4.9,0,4.9l-2.8,14l-3.9,18c-3.7,3.1-8.7-0.8-8.7-0.8l1.1-11.8c0,0,1.7-20.6,1-21.5c-0.7-0.8,0.3-3.5,0.3-3.5
			s1-2.5,0.3-3.5c-0.7-1,0.1-3.1,0.1-3.1s-0.3-8.5,0.6-10.4c0.8-1.9,0-13.9,0-13.9L540,239l-0.2-2.1l0-0.2c0,0-0.1,0.8-0.3,2.1
			c-0.6,3.9-1.9,12-2.4,13.7c-0.4,1.2-0.8,2.4-1.4,3.5c0,0,0.7,4.2,0,5.3c-0.7,1.1-0.1,2.4-0.1,2.4s0.7,3.5-1.4,4.9
			c-2.1,1.4,0,2.1,0,2.1s-1.5,3.3-2.1,4.7c-0.6,1.4,0,3.3,0,3.3l-1.1,11.2c0,0-1,4.7-0.8,7.9c0.1,3.2-1.2,10.5-1.2,10.5
			s-10.7,0-12.3-1.2c-1.6-1.2,2.7-13.4,2.7-13.4s1.2-21.4,1-21.9c-0.3-0.6,0-4.7,1-5.5c1-0.8,0-2.5,0-2.5s-0.3-3.3,0-4.2
			c0.3-0.8,0-3.6,0-3.6s-0.9-6.8-1.1-10.7c-0.1-3.9-0.8-12.6-0.8-12.6s0.7-5.4,0.8-8c0-0.9,0.5-2.1,1-3.2c0.6-1.3,1.3-2.5,2.1-3.6
			c0,0,32.9-9.7,34.2-8.7c0.4,0.3,0.9,2,1.4,4.5C560.3,220.5,561.7,233.8,559.5,238.6z"/>
		<circle class="st21" cx="539.2" cy="144.3" r="9.6"/>
		<path class="st6" d="M558.8,213.5c-1.1,0.6-1.8,1-1.8,1s-15.5,7.3-19.9,6.9c-3.4-0.3-12.1-0.1-15.9,0c0.6-1.3,1.3-2.5,2.1-3.6
			c0,0,32.9-9.7,34.2-8.7C557.7,209.2,558.3,211,558.8,213.5z"/>
		<path class="st19" d="M532.6,159.6c0,0-8.9,1.4-11,2.8c-2.1,1.4-6.2,4-6.2,9.7c0,5.7-1,11.5-1.5,13.2c-0.6,1.7,8.7,15.1,8.7,15.1
			l-3.3,20.4c0,0,13.3-0.4,17.8,0c4.4,0.4,20-6.9,20-6.9s9.2-4.9,11.1-5c1.9-0.1-3.9-10.7-3.9-10.7s-9-17.1-7.5-19.8
			s2.6-6.8,2.6-6.8l-1.7-14.1c0,0-2.5-0.8-4.6,0.7c-2.1,1.5-9.2,0.7-9.2,0.7L532.6,159.6z"/>
		<path class="st6" d="M517.5,184.3l-3.5,1l-1,13c0,0,1.2,3.5,0,4.6c-1.2,1.1-1.5,24.8-1.5,24.8s4,2.9,8.7,0.7c0,0-0.7-2.6,1.4-12.2
			s2.1-14.4,2.1-14.4s0-11.9,1-13.9c1-1.9,0-6.8,0-6.8s-1.9-2.6-1.8-3.6C523.1,176.5,517.5,184.3,517.5,184.3z"/>
		<path class="st6" d="M519.2,229.2c-2,0.7-4.3,0.6-6.3-0.2c0.3-0.7,0.5-1.4,0.9-2.1l3.8-2.3C517.6,224.6,518.4,226.5,519.2,229.2z"
			/>
		<path class="st19" d="M517.3,184.3l-3.5,1l-1,13c0,0,1.2,3.5,0,4.6c-1.2,1.1-1.5,24.8-1.5,24.8s4,2.9,8.7,0.7
			c0,0-0.7-2.6,1.4-12.2c2.1-9.6,2.1-14.4,2.1-14.4s0-11.9,1-13.9c1-1.9,0-6.8,0-6.8s-1.9-2.6-1.8-3.6
			C522.9,176.5,517.3,184.3,517.3,184.3z"/>
		<path class="st6" d="M552.8,186.4c0,0-1.8,15.5-7.1,18.4C545.7,204.8,557.5,201.5,552.8,186.4z"/>
		<path class="st6" d="M526.3,187.8c0,0,6.5,3.2,5,5.4C529.8,195.4,526.3,187.8,526.3,187.8z"/>
		<path class="st6" d="M526.3,194.1c0,0,4.2,4.3,3.3,5.8C528.8,201.5,526.3,194.1,526.3,194.1z"/>
		<path class="st6" d="M559.9,158.5c0,0,1.6,2.8,1.8,4.6C561.8,164.9,559.9,158.5,559.9,158.5z"/>
		<path class="st6" d="M559.9,154.8c0,0,0.8-0.7,2.9,0C564.9,155.5,559.9,154.8,559.9,154.8z"/>
		<path class="st6" d="M551.9,235.8c-3.4,0.5-6.9,0-10.1-1.3L540,239l-0.2-2.1c0.3-1.7,0.8-3.6,1.9-4.1
			C541.7,232.8,545.6,235.9,551.9,235.8z"/>
		<path class="st6" d="M523.4,241.6c0,0,8.5,1.8,10.9,1.5L523.4,241.6z"/>
		<path class="st6" d="M524.3,243.9c0,0,3.6-0.2,5.5,0.6L524.3,243.9z"/>
		<path class="st6" d="M524.7,245.4c1.7,0.4,3.3,0.6,5,0.7L524.7,245.4z"/>
		<path class="st6" d="M524.5,264.5c0.2-0.1,7.3-1.8,8.2-0.6L524.5,264.5z"/>
		<path class="st6" d="M524.5,266.6c0,0,6.2-0.7,6.3,0C531,267.4,524.5,266.6,524.5,266.6z"/>
		<path class="st6" d="M524.5,268.6c0,0,6.6-1.4,7.4-1C532.7,267.9,524.5,268.6,524.5,268.6z"/>
		<path class="st6" d="M524.8,315.2l-7.5,5.1c0,0,0-0.6,0.1-1.5c1.7-4.1,3.8-6.3,3.8-6.3c1.7-0.4,2.8,0,3.4,0.8
			C524.7,314.5,524.8,315.2,524.8,315.2z"/>
		<path class="st20" d="M525.6,319.8c-1.1,2.4-1.6,5-1.6,7.7c0,2.2-0.5,4.3-1.6,6.2c-0.2,0.3-0.3,0.5-0.5,0.8c0,0-5.2,0-7-1.6
			c-0.2-0.2-0.4-0.4-0.5-0.6c-1-2.1,2-10,2-10c1.6-6.1,4.9-9.4,4.9-9.4C527.1,311.3,525.6,319.8,525.6,319.8z"/>
		<path class="st6" d="M522.4,333.6c-0.2,0.3-0.3,0.5-0.5,0.8c0,0-5.2,0-7-1.6c0.9-3,3.8-11.9,5.1-10.4
			C521.2,323.9,522.1,330.7,522.4,333.6z"/>
		<path class="st20" d="M521.7,323l-0.4,13.4h1.7c0,0,0.3-11.8,1.1-13.4S521.7,323,521.7,323z"/>
		<path class="st6" d="M543.4,324.1c0,0-7.6-7.2-6.9-7.8c0.2-0.2,0.4-0.8,0.6-1.6c1.5-0.3,4,0.4,6.1,6.2
			C543.3,322.6,543.4,324.1,543.4,324.1z"/>
		<path class="st20" d="M544.5,332.1c-0.1,0-0.1,0-0.2,0.1c-0.9,0.2-4.2,0.1-6.1,0c-0.7,0-1.3-0.6-1.3-1.3c0-0.5,0-1.1,0-1.8
			c-0.1-2.1-0.3-4.5-1.1-5c-1.3-1-2.3-4.4,0-8.7c0,0,4.5-3.4,7.7,6.8c0,0,0.3,2.9,1.7,4S545.2,331.9,544.5,332.1z"/>
		<path class="st6" d="M544.3,332.2c-0.9,0.2-4.2,0.1-6.1,0c-0.7,0-1.3-0.6-1.3-1.3c0-0.5,0-1.1,0-1.8c0.6-2.5,1.4-5,2.4-5.6
			C539.4,323.5,542.5,323.1,544.3,332.2z"/>
		<polygon class="st20" points="536.5,323.2 537.3,334.4 538.4,334.4 538.4,322.3 		"/>
		<path class="st6" d="M539.1,129.1c-3,0.2-5.9,1.2-8.5,2.7c-0.7,0.4-1.3,0.9-1.6,1.6c-0.2,0.6-0.1,1.3-0.1,2
			c0.1,5.7-6.3,10.1-6.1,15.8c0.1,2.3,1.2,4.4,1.4,6.7c0.3,3.8-1.9,7.3-4,10.4c2.2,0.1,4.4-0.6,6.1-2c2.3,7.5,2.6,15.5,0.8,23.2h3.1
			c0.3,0,0.6,0,0.9,0.1c0.3,0.1,0.5,0.3,0.7,0.5c2.9,2.9,4.8,7.1,3.7,11l6.5-2.4c1.6-0.6,3.1-1.2,4.5-2.1c1.4-1,2.5-2.4,2.8-4
			c0.2-1,0.1-2.2,0.9-2.8c0.4-0.2,0.8-0.4,1.3-0.5c1.8-0.6,2.6-2.7,3-4.6c0.4-2.3,0.6-4.6,0.4-6.9c-0.3-3.9-1.4-7.9-0.5-11.7
			c0.5-2.1,1.7-4.1,1.8-6.3c0.2-3.6-2.7-6.8-3.1-10.4c-0.3-2.5,0.6-5.1,0.3-7.6c-0.3-2.6-1.9-4.9-4.3-6.2c-0.8-0.4-1.7-0.7-2.5-1.1
			c-1.8-1-3-2.9-4.6-4.2s-4.4-1.8-5.6-0.1L539.1,129.1z"/>
		<path class="st22" d="M539.1,128.7c-3,0.2-5.9,1.2-8.5,2.7c-0.7,0.4-1.3,0.9-1.6,1.6c-0.2,0.6-0.1,1.3-0.1,2
			c0.1,5.7-6.3,10.1-6.1,15.8c0.1,2.3,1.2,4.4,1.4,6.7c0.3,3.8-1.9,7.3-4,10.4c2.2,0.1,4.4-0.6,6.1-2c2.3,7.5,2.6,15.5,0.8,23.2h3.1
			c0.3,0,0.6,0,0.9,0.1c0.3,0.1,0.5,0.3,0.7,0.5c2.9,2.9,4.8,7.1,3.7,11l6.5-2.4c1.6-0.6,3.1-1.2,4.5-2.1c1.4-1,2.5-2.4,2.8-4
			c0.2-1,0.1-2.2,0.9-2.8c0.4-0.2,0.8-0.4,1.3-0.5c1.8-0.6,2.6-2.7,3-4.6c0.5-2.3,0.6-4.6,0.4-7c-0.3-3.9-1.4-7.9-0.5-11.7
			c0.5-2.1,1.7-4.1,1.8-6.3c0.2-3.6-2.7-6.8-3.1-10.4c-0.3-2.5,0.6-5.1,0.3-7.6c-0.3-2.6-1.9-4.9-4.3-6.2c-0.8-0.4-1.7-0.7-2.5-1.1
			c-1.8-1.1-3-2.9-4.6-4.2c-1.6-1.3-4.4-1.8-5.6-0.1L539.1,128.7z"/>
		<g class="st23">
			<path class="st24" d="M528.8,133.6c0,0.1,0,0.3,0,0.4C528.8,133.9,528.8,133.8,528.8,133.6z"/>
			<path class="st24" d="M553,147c0.1-1.8,0.5-3.5,0.4-5.3C553.3,143.4,552.9,145.2,553,147z"/>
			<path class="st24" d="M524.1,155.8c-0.2-2.1-1.2-4-1.4-6.1c0,0.4-0.1,0.8,0,1.1c0.1,2.2,1.2,4.3,1.4,6.6
				C524.2,156.9,524.2,156.3,524.1,155.8z"/>
			<path class="st24" d="M554.3,164c-0.3,1.4-0.4,2.7-0.3,4.1c0-0.8,0.1-1.6,0.3-2.4c0.5-2.1,1.7-4.1,1.8-6.3c0-0.4,0-0.8-0.1-1.2
				C555.8,160.2,554.8,162,554.3,164z"/>
			<path class="st24" d="M526.2,164.1c-1.4,1.2-3.1,1.9-4.9,2c-0.4,0.6-0.8,1.2-1.2,1.7c2.2,0.1,4.4-0.6,6.1-2
				c1.2,4,1.9,8.2,1.9,12.5C528.2,173.5,527.6,168.7,526.2,164.1z"/>
			<path class="st24" d="M554.4,182.5c-0.4,1.9-1.2,3.9-3,4.6c-0.4,0.1-0.9,0.3-1.3,0.5c-0.8,0.6-0.8,1.8-0.9,2.8
				c-0.3,1.6-1.4,3-2.8,4c-1.4,1-2.9,1.6-4.5,2.2l-6.2,2.3c0,0.6-0.1,1.2-0.3,1.8l6.5-2.4c1.6-0.6,3.1-1.2,4.5-2.1
				c1.4-1,2.5-2.4,2.8-4c0.2-1,0.1-2.2,0.9-2.8c0.4-0.2,0.8-0.4,1.3-0.5c1.8-0.6,2.6-2.7,3-4.6c0.4-1.9,0.5-3.9,0.5-5.9
				C554.8,179.8,554.7,181.2,554.4,182.5z"/>
			<path class="st24" d="M531.7,188c-0.2-0.2-0.4-0.4-0.7-0.5c-0.3-0.1-0.6-0.1-0.9-0.1h-2.7c-0.1,0.6-0.2,1.2-0.3,1.7h3.1
				c0.3,0,0.6,0,0.9,0.1c0.3,0.1,0.5,0.3,0.7,0.5c2.1,2.1,3.7,4.9,4,7.8C536,194.1,534.2,190.5,531.7,188z"/>
		</g>
		<path class="st6" d="M516.5,199.3c0,0,2.5-1,3,0C520.1,200.4,516.5,199.3,516.5,199.3z"/>
		<path class="st6" d="M517.4,201.1c0,0,2.5-1,3,0C521,202.2,517.4,201.1,517.4,201.1z"/>
	</g>
	<g id="_x35_f43f84a-a268-4bb5-a31a-6b0c09aee323">
		<path class="st7" d="M670.9,66.7c0,0-12.7-0.8-11.2,8.1c0,0-0.3,1.6,1.1,2.3c0,0,0-0.7,1.3-0.4c0.5,0.1,0.9,0.1,1.4,0.1
			c0.6,0,1.2-0.3,1.7-0.7l0,0c0,0,3.6-1.5,4.9-7.3c0,0,1-1.3,1-1.6L669,68c0,0,0.7,1.5,0.2,2.8c0,0-0.1-2.8-0.5-2.7
			c-0.1,0-1.1,0.5-1.1,0.5s1.3,2.7,0.3,4.6c0,0,0.4-3.3-0.7-4.4l-1.5,0.9c0,0,1.5,2.8,0.5,5c0,0,0.3-3.5-0.8-4.8L664,71
			c0,0,1.4,2.7,0.5,4.6c0,0-0.1-4-0.8-4.3c0,0-1.2,1.1-1.4,1.5c0,0,0.9,2,0.4,3c0,0-0.4-2.7-0.7-2.7c0,0-1.2,1.8-1.3,3
			c0.1-1.1,0.4-2.2,1-3.2c-0.7,0.1-1.3,0.5-1.8,0.9c0,0,0.2-1.3,2.1-1.4c0,0,1-1.4,1.2-1.4c0,0-1.9-0.2-3.1,0.4c0,0,1-1.2,3.4-0.7
			l1.3-1.1c0,0-2.5-0.3-3.6,0c0,0,1.2-1.1,4-0.3l1.5-0.9c0,0-2.2-0.5-3.4-0.3c0,0,1.4-0.7,3.9,0.1l1-0.5c0,0-1.6-0.3-2-0.4
			c-0.5,0-0.5-0.2-0.5-0.2c1-0.2,2-0.1,3,0.3C668.7,67.6,671,66.8,670.9,66.7z"/>
		<path class="st7" d="M652.9,59.5c0,0-10.7,6.9-4.2,13.2c0,0,0.7,1.4,2.3,1.2c0,0-0.4-0.5,0.8-1.1c0.4-0.2,0.8-0.5,1.1-0.8
			c0.5-0.4,0.8-0.9,0.9-1.6l0,0c0,0,2-3.3-0.3-8.8c0,0,0.1-1.6-0.2-1.9l-1.2,2c0,0,1.5,0.8,1.8,2.2c0,0-1.7-2.2-2-1.9
			c-0.1,0.1-0.6,1.1-0.6,1.1s2.6,1.4,3,3.6c0,0-1.7-2.9-3.2-3.2l-0.7,1.6c0,0,2.8,1.4,3.4,3.8c0,0-1.9-3-3.5-3.4l-0.5,1.7
			c0,0,2.7,1.4,3.2,3.4c0,0-2.5-3.2-3.3-3c0,0-0.3,1.6-0.2,2c0,0,1.9,1,2.1,2.2c0,0-1.9-2-2.1-1.8c0,0,0.1,2.1,0.7,3.2
			c-0.6-0.9-1-2-1.1-3.2c-0.5,0.5-0.8,1.2-0.9,1.8c0,0-0.6-1.1,0.9-2.4c0,0,0-1.7,0.1-1.9c0,0-1.6,1-2.3,2.1c0,0,0.1-1.6,2.4-2.6
			l0.4-1.7c0,0-2.2,1.2-2.9,2.2c0,0,0.4-1.6,3-2.6l0.7-1.6c0,0-2,0.9-2.9,1.8c0,0,0.7-1.4,3.2-2.2l0.6-1c0,0-1.5,0.7-1.9,0.9
			c-0.4,0.2-0.5,0.1-0.5,0.1c0.7-0.7,1.6-1.2,2.6-1.5C651.7,61.5,653,59.6,652.9,59.5z"/>
		<path class="st7" d="M636.6,67.5c0,0-6.4,11,2.2,13.6c0,0,1.3,1,2.5,0c0,0-0.6-0.3,0.2-1.4c0.3-0.4,0.5-0.8,0.7-1.2
			c0.2-0.6,0.3-1.2,0.1-1.8l0,0c0,0,0.3-3.8-4.3-7.7c0,0-0.7-1.5-1-1.6l-0.1,2.3c0,0,1.7,0,2.6,1.1c0,0-2.5-1.2-2.6-0.8
			c0,0.1,0,1.2,0,1.2s3,0.1,4.3,1.8c0,0-2.8-1.8-4.3-1.4l0.1,1.7c0,0,3.1-0.1,4.7,1.8c0,0-3-1.8-4.7-1.5l0.3,1.7c0,0,3.1,0,4.4,1.6
			c0,0-3.7-1.7-4.3-1.2c0,0,0.4,1.5,0.7,1.9c0,0,2.2,0,2.9,1c0,0-2.6-0.9-2.7-0.6c0,0,1.1,1.9,2.1,2.5c-1-0.6-1.8-1.4-2.4-2.3
			c-0.2,0.7-0.2,1.4,0,2c0,0-1-0.7-0.3-2.5c0,0-0.8-1.5-0.7-1.8c0,0-1,1.6-1.1,2.9c0,0-0.6-1.4,1-3.4l-0.4-1.7c0,0-1.4,2.1-1.6,3.2
			c0,0-0.4-1.6,1.5-3.7l-0.1-1.7c0,0-1.4,1.7-1.8,2.9c0,0,0-1.5,1.8-3.4l0-1.1c0,0-1,1.3-1.2,1.7c-0.2,0.4-0.4,0.3-0.4,0.3
			c0.3-1,0.9-1.8,1.6-2.5C636.5,69.9,636.8,67.5,636.6,67.5z"/>
	</g>
	<path class="st5" d="M691.3,192.8c-2.6,0-4.8,2.1-4.8,4.8s2.1,4.8,4.8,4.8c2.6,0,4.8-2.1,4.8-4.8l0,0
		C696.1,194.9,694,192.8,691.3,192.8z M677.4,155.4v4.8h4.8l8.6,17.4l-3.6,5.8c-0.4,0.7-0.6,1.5-0.6,2.3c0,3.2,2.2,4.8,5.1,4.8h27.9
		v-4.6h-27.3c-0.3,0-0.6-0.2-0.6-0.5c0,0,0,0,0-0.1c0.1-0.2,0.1-0.4,0.3-0.6l2.4-3.8h17.8c1.7,0,3.4-1,4.2-2.5l8.6-14.8
		c0.2-0.4,0.2-0.8,0.2-1.2c0-1.3-1.1-2.3-2.3-2.3c0,0,0,0-0.1,0h-35.3l-2.3-4.8L677.4,155.4z M714.8,192.8c-2.6,0-4.8,2.1-4.8,4.8
		s2.1,4.8,4.8,4.8c2.6,0,4.8-2.1,4.8-4.8C719.6,194.9,717.4,192.8,714.8,192.8z"/>
	<polygon class="st14" points="708.7,168.6 704.7,168.6 704.7,164.6 701.7,164.6 701.7,168.6 697.7,168.6 697.7,171.6 701.7,171.6 
		701.7,175.6 704.7,175.6 704.7,171.6 708.7,171.6 	"/>
</g>
</svg>
