<svg xmlns="http://www.w3.org/2000/svg" viewBox="0 0 1102.33 533.48"><defs><style>.cls-1{fill:#f5f5f5;}.cls-2,.cls-7,.cls-8{opacity:0.1;}.cls-11,.cls-12,.cls-13,.cls-2,.cls-6,.cls-7,.cls-8{isolation:isolate;}.cls-3{fill:#3ad29f;}.cls-4{fill:none;stroke:#fff;stroke-linecap:round;stroke-width:5.6px;}.cls-21,.cls-4{stroke-miterlimit:10;}.cls-5{opacity:0.4;}.cls-6{opacity:0.3;}.cls-14,.cls-7{fill:#6c63ff;}.cls-21,.cls-8{fill:#fff;}.cls-11,.cls-12,.cls-13,.cls-9{opacity:0.5;}.cls-10,.cls-13{fill:#47e6b1;}.cls-11{fill:#4d8af0;}.cls-12{fill:#f55f44;}.cls-15{fill:#ffb9b9;}.cls-16{fill:#575a89;}.cls-17{fill:#2f2e41;}.cls-18{fill:#3f3d56;}.cls-19{fill:#ccc;}.cls-20{fill:#f2f2f2;}.cls-21{stroke:#000;stroke-width:1.5px;}.cls-22{fill:#ffb8b8;}</style></defs><g id="Layer_2" data-name="Layer 2"><g id="Layer_1-2" data-name="Layer 1"><polygon class="cls-1" points="423.2 92.42 379.77 79.29 377.1 138.68 422.8 152.45 423.2 92.42"/><polygon class="cls-1" points="117.5 0 117.5 60.43 377.1 138.68 379.77 79.29 117.5 0"/><polygon class="cls-2" points="423.2 92.42 379.77 79.29 377.1 138.68 422.8 152.45 423.2 92.42"/><polygon class="cls-3" points="423.2 206.17 379.77 193.04 377.1 252.43 422.8 266.2 423.2 206.17"/><polygon class="cls-3" points="117.5 113.75 117.5 174.18 377.1 252.43 379.77 193.04 117.5 113.75"/><polygon class="cls-2" points="423.2 206.17 379.77 193.04 377.1 252.43 422.8 266.2 423.2 206.17"/><polyline class="cls-4" points="390.81 227.1 397.92 237.76 412.14 219.99"/><g class="cls-5"><line class="cls-4" x1="391.21" y1="102.69" x2="405.43" y2="127.57"/><line class="cls-4" x1="408.98" y1="106.24" x2="391.21" y2="124.02"/></g><polygon class="cls-1" points="423.2 312.81 379.77 299.68 377.1 359.06 422.8 372.84 423.2 312.81"/><polygon class="cls-1" points="117.5 220.39 117.5 280.82 377.1 359.06 379.77 299.68 117.5 220.39"/><polygon class="cls-2" points="423.2 312.81 379.77 299.68 377.1 359.06 422.8 372.84 423.2 312.81"/><g class="cls-5"><line class="cls-4" x1="391.21" y1="323.08" x2="405.43" y2="347.96"/><line class="cls-4" x1="408.98" y1="326.63" x2="391.21" y2="344.4"/></g><ellipse class="cls-6" cx="297.01" cy="195.11" rx="8.89" ry="17.77"/><ellipse class="cls-7" cx="297.01" cy="195.11" rx="74.65" ry="149.29"/><ellipse class="cls-8" cx="297.01" cy="195.11" rx="40.88" ry="81.76"/><g class="cls-9"><rect class="cls-10" x="2.76" y="88.27" width="1.18" height="6.71"/><rect class="cls-10" y="91.04" width="6.71" height="1.18"/></g><g class="cls-9"><rect class="cls-10" x="422.96" y="415.62" width="1.18" height="6.71"/><rect class="cls-10" x="420.19" y="418.39" width="6.71" height="1.18"/></g><g class="cls-9"><rect class="cls-10" x="393.77" y="273.11" width="1.18" height="6.71"/><rect class="cls-10" x="391.01" y="275.88" width="6.71" height="1.18"/></g><g class="cls-9"><rect class="cls-10" x="343.22" y="409.77" width="1.18" height="6.71"/><rect class="cls-10" x="340.45" y="412.53" width="6.71" height="1.18"/></g><g class="cls-9"><rect class="cls-10" x="307.67" y="495.48" width="1.18" height="6.71"/><rect class="cls-10" x="304.91" y="498.24" width="6.71" height="1.18"/></g><g class="cls-9"><rect class="cls-10" x="53.32" y="192.15" width="1.18" height="6.71"/><rect class="cls-10" x="50.55" y="194.91" width="6.71" height="1.18"/></g><path class="cls-11" d="M71.76,87.6A1.45,1.45,0,0,1,71,85.85a.45.45,0,0,0,0-.16h0a.72.72,0,0,0-.68-.77.69.69,0,0,0-.62.29h0a.39.39,0,0,0-.08.14,1.46,1.46,0,0,1-1.76.81.41.41,0,0,0-.16,0h0a.72.72,0,0,0-.48,1.3h0a.39.39,0,0,0,.14.08,1.45,1.45,0,0,1,.81,1.76.45.45,0,0,0,0,.16h0a.73.73,0,0,0,1.31.48h0a.64.64,0,0,0,.08-.14A1.45,1.45,0,0,1,71.26,89a.45.45,0,0,0,.16,0h0a.73.73,0,0,0,.48-1.31h0Z"/><path class="cls-11" d="M338.44,28.22a1.44,1.44,0,0,1-.81-1.75.9.9,0,0,0,0-.16h0a.73.73,0,0,0-1.31-.49h0a1.09,1.09,0,0,0-.08.15,1.46,1.46,0,0,1-1.75.81l-.16,0h0a.74.74,0,0,0-.77.69.71.71,0,0,0,.28.62h0l.15.08a1.47,1.47,0,0,1,.81,1.76.75.75,0,0,0,0,.16h0a.74.74,0,0,0,.69.77.73.73,0,0,0,.62-.29h0a.64.64,0,0,0,.08-.14,1.45,1.45,0,0,1,1.76-.81.41.41,0,0,0,.16,0h0a.73.73,0,0,0,.77-.68.76.76,0,0,0-.29-.63h0Z"/><path class="cls-11" d="M10.62,239.53a1.46,1.46,0,0,1-.81-1.76.41.41,0,0,0,0-.16h0a.72.72,0,0,0-.68-.77.69.69,0,0,0-.62.29h0a.39.39,0,0,0-.08.14,1.46,1.46,0,0,1-1.76.81.41.41,0,0,0-.16,0h0a.72.72,0,0,0-.77.68.74.74,0,0,0,.29.63h0l.14.08A1.44,1.44,0,0,1,7,241.19a.45.45,0,0,0,0,.16H7a.73.73,0,0,0,1.31.48h0a.64.64,0,0,0,.08-.14,1.45,1.45,0,0,1,1.75-.81.45.45,0,0,0,.16,0h0a.72.72,0,0,0,.77-.68.69.69,0,0,0-.29-.62h0A.39.39,0,0,0,10.62,239.53Z"/><path class="cls-11" d="M21.28,388.82a1.44,1.44,0,0,1-.8-1.75l0-.17h0a.73.73,0,0,0-.68-.77.76.76,0,0,0-.63.29h0a.71.71,0,0,0-.08.15,1.45,1.45,0,0,1-1.75.8l-.17,0h0a.73.73,0,0,0-.77.68.76.76,0,0,0,.29.63h0l.14.08a1.44,1.44,0,0,1,.81,1.75l0,.17h0a.73.73,0,0,0,.68.77.76.76,0,0,0,.63-.29h0A.71.71,0,0,0,19,391a1.44,1.44,0,0,1,1.75-.8l.17,0h0a.73.73,0,0,0,.77-.68.76.76,0,0,0-.29-.63h0A.71.71,0,0,0,21.28,388.82Z"/><circle class="cls-12" cx="199.06" cy="107.63" r="2.37"/><circle class="cls-11" cx="263.04" cy="416.88" r="2.37"/><circle class="cls-11" cx="408.78" cy="171.61" r="2.37" transform="translate(173.91 547.62) rotate(-80.78)"/><circle class="cls-13" cx="451.44" cy="278.25" r="2.37"/><circle class="cls-12" cx="292.66" cy="9.28" r="2.37"/><rect class="cls-14" x="169.91" y="113.36" width="22.89" height="17.8" transform="translate(52.16 298.74) rotate(-87.78)"/><path class="cls-15" d="M253.15,190.58s24.63-11.77,24.24-1.61-24.83,16.85-24.83,16.85Z"/><path class="cls-14" d="M239.63,276.58s11.62,28.45,15.92,49,10.83,48.77,2.42,68.81-32.33,78.91-32.57,85.27,2,12.8-3,12.6-32.74-8.9-33.86-12.76,9.43-13.63,9.43-13.63L224,384.14,196.8,330.92l-19.62,79.4-3.84,99.11s-18.86-5.82-21.6-.84c0,0-8.45-11.78-9.53-16.91s4-102.92,4-102.92-17.32-111.38-3.34-110.84S211.59,245,239.63,276.58Z"/><path class="cls-16" d="M222.56,487.16s12.89,28.5,14.11,29.82,9.63,14.37,3.27,14.12-21.35-7.19-32.39-17.8-25.6-29-24.28-30.21,10.36-4.68,10.36-4.68Z"/><path class="cls-16" d="M171,503s.78,12.76,3.13,17.94,2,12.8-4.31,12.55-22.77-3.42-22.77-3.42-1-7.68.34-8.9,6.95-15,4.56-18.91S171,503,171,503Z"/><path class="cls-15" d="M161.65,89s-13.55,21.11-18.83,26,9.58,15.64,9.58,15.64L179,134.25s-.33-24.19,1-26.68S161.65,89,161.65,89Z"/><path class="cls-14" d="M184.75,116.66s-5.47,10-10.56,9.77S142.82,115,141.7,111.18,133,138.83,133,138.83L197.32,252,213,241.19l-7.6-66.46-6.25-35.87Z"/><path class="cls-16" d="M139.33,218c2.56,5.36,4.17,11,3.94,16.69,0,.26,0,.51,0,.76-.61,11.76-4.94,25.37-6.49,35.26-1.13,7.09-.81,12.27,3.34,13.49,10.07,2.93-1.47,5,37.48,18s45.74,1.78,45.84-.76-5.52-21.85-4.2-23.07,18.47,16,23.65,13.64.59-15.25.59-15.25S231.77,249.56,232,243.2s-17.68-36.31-17.68-36.31l-12.19-79.37s-4.69-10.36-11-11.88a15.59,15.59,0,0,0-11.53,2.1l10.55,23.31L201.3,182.2l-1.86,15.2S186.5,170.18,178,159.67s-26.62-35.39-26.62-35.39-4.23-14.28-1-18.55S137,100.81,130,118.36c-3.73,9.29-9.79,23.16-13.59,36.07-3.38,11.43-5,22.12-1.63,28.24C119.87,192,132.76,204.27,139.33,218Z"/><path class="cls-2" d="M114.75,182.67c5.12,9.33,18,21.6,24.58,35.31,1.71-6.19,3.81-12.58,3.81-12.58s8-43-15.72-54.06a15.88,15.88,0,0,0-11,3.09C113,165.86,111.4,176.55,114.75,182.67Z"/><path class="cls-16" d="M209,180l20.13,5.87,28,1.08L260,211.2,214,214.51S202.57,182.25,209,180Z"/><path class="cls-15" d="M176.19,261.63S203.13,266.1,197,274.2s-30-.42-30-.42Z"/><path class="cls-2" d="M143.23,235.43c-.61,11.76-4.94,25.37-6.49,35.26,8.58,8.12,16.73,15.28,19.81,15.4,6.35.24,16.57-.63,20.33.79s6-22.68,6-22.68-2.25-7.72-12.26-11.93C163.82,249.43,150.86,241.71,143.23,235.43Z"/><path class="cls-16" d="M127.71,143.72s-21.5-3.38-20.34,32.3-2.26,58.44,6.38,65.14,36.74,37.06,43.1,37.3,16.56-.63,20.33.79,6-22.67,6-22.67-2.24-7.72-12.26-11.93-33.62-19.12-33.42-24.2,6-22.67,6-22.67S151.46,154.82,127.71,143.72Z"/><circle class="cls-15" cx="180.61" cy="92.32" r="27.97" transform="translate(60.54 255.81) rotate(-80.78)"/><path class="cls-17" d="M199.44,52.23a5.45,5.45,0,0,0,2.35,1.18,1.69,1.69,0,0,0,2-1.35,6.93,6.93,0,0,0,2.67,3.42c1.31.69,3.33.11,3.51-1.35a6.24,6.24,0,0,0,1.42,3,2.13,2.13,0,0,0,3,.1c-.57,3.13-.22,6.34-.4,9.52s-1,6.54-3.42,8.62c-3.5,3-8.76,2.3-13.36,1.72a4,4,0,0,0-2.09.11c-1.72.74-1.65,3.14-1.67,5a13.91,13.91,0,0,1-12.17,13.2A7,7,0,0,1,176,94.15c-1.31-1.11-2-2.91-3.48-3.74-2.43-1.36-5.38.62-7.16,2.76s-3.54,4.78-6.3,5.17c-3.64.52-6.42-3.2-7.78-6.62a38.59,38.59,0,0,1,.76-30C159.7,45.13,185.71,42.5,199.44,52.23Z"/><path class="cls-18" d="M882.77,433.7H550.91A12.92,12.92,0,0,1,538,420.8V49.45a12.94,12.94,0,0,1,12.91-12.91H882.77a12.94,12.94,0,0,1,12.91,12.91V420.8A12.92,12.92,0,0,1,882.77,433.7ZM550.91,38.06a11.41,11.41,0,0,0-11.39,11.39V420.8a11.42,11.42,0,0,0,11.39,11.39H882.77a11.41,11.41,0,0,0,11.39-11.39V49.45a11.4,11.4,0,0,0-11.39-11.39Z"/><rect class="cls-18" x="538.76" y="68.13" width="356.15" height="1.52"/><circle class="cls-14" cx="556.23" cy="53.25" r="6.08"/><circle class="cls-14" cx="575.21" cy="53.25" r="6.08"/><circle class="cls-14" cx="594.2" cy="53.25" r="6.08"/><path class="cls-18" d="M835.31,123.87H598.38a9.87,9.87,0,1,1,0-19.74H835.31a9.87,9.87,0,0,1,0,19.74ZM598.38,105.65a8.35,8.35,0,1,0,0,16.7H835.31a8.35,8.35,0,1,0,0-16.7Z"/><path class="cls-19" d="M776.72,201.78H668.89a6.08,6.08,0,1,1,0-12.15H776.72a6.08,6.08,0,1,1,0,12.15Z"/><path class="cls-19" d="M839,222.28H668.89a6.08,6.08,0,1,1,0-12.15H839a6.08,6.08,0,1,1,0,12.15Z"/><path class="cls-19" d="M628.48,223.42H595.83a7.23,7.23,0,0,1-7.22-7.21V195.7a7.23,7.23,0,0,1,7.22-7.21h32.65a7.22,7.22,0,0,1,7.22,7.21v20.51A7.22,7.22,0,0,1,628.48,223.42ZM595.83,190a5.7,5.7,0,0,0-5.7,5.69v20.51a5.7,5.7,0,0,0,5.7,5.69h32.65a5.7,5.7,0,0,0,5.7-5.69V195.7a5.7,5.7,0,0,0-5.7-5.69Z"/><path class="cls-19" d="M776.72,273.92H668.89a6.08,6.08,0,1,1,0-12.15H776.72a6.08,6.08,0,1,1,0,12.15Z"/><path class="cls-19" d="M839,294.43H668.89a6.08,6.08,0,0,1,0-12.16H839a6.08,6.08,0,1,1,0,12.16Z"/><path class="cls-19" d="M628.48,295.56H595.83a7.23,7.23,0,0,1-7.22-7.21v-20.5a7.24,7.24,0,0,1,7.22-7.22h32.65a7.23,7.23,0,0,1,7.22,7.22v20.5A7.22,7.22,0,0,1,628.48,295.56Zm-32.65-33.41a5.7,5.7,0,0,0-5.7,5.7v20.5a5.72,5.72,0,0,0,5.7,5.7h32.65a5.72,5.72,0,0,0,5.7-5.7v-20.5a5.7,5.7,0,0,0-5.7-5.7Z"/><path class="cls-20" d="M776.72,346.06H668.89a6.08,6.08,0,1,1,0-12.15H776.72a6.08,6.08,0,1,1,0,12.15Z"/><path class="cls-20" d="M839,366.57H668.89a6.08,6.08,0,1,1,0-12.15H839a6.08,6.08,0,1,1,0,12.15Z"/><path class="cls-20" d="M628.48,367.71H595.83a7.24,7.24,0,0,1-7.22-7.22V340a7.24,7.24,0,0,1,7.22-7.22h32.65A7.24,7.24,0,0,1,635.7,340v20.5A7.24,7.24,0,0,1,628.48,367.71Z"/><path class="cls-14" d="M612.16,217.15l-1.76-1.59c-6.25-5.73-10.37-9.45-10.37-14.09a6.61,6.61,0,0,1,6.48-6.71h.19a7.2,7.2,0,0,1,5.46,2.57,7.18,7.18,0,0,1,5.45-2.57,6.6,6.6,0,0,1,6.67,6.52v.19c0,4.64-4.12,8.36-10.37,14.09Z"/><path class="cls-14" d="M612.16,289.29l-1.76-1.59C604.15,282,600,278.25,600,273.62a6.59,6.59,0,0,1,6.48-6.71h.19a7.16,7.16,0,0,1,5.46,2.56,7.14,7.14,0,0,1,5.45-2.56,6.58,6.58,0,0,1,6.67,6.51v.2c0,4.63-4.12,8.35-10.37,14.08Z"/><path class="cls-21" d="M942.22,209.23a9.09,9.09,0,0,1,9.22,8.92v32.09a9.09,9.09,0,0,1-9.22,8.92H889.4a9.09,9.09,0,0,1-9.22-8.92V218.15a9.09,9.09,0,0,1,9.22-8.92Z"/><path class="cls-14" d="M915.81,251.71l2.84-2.48c10.1-9,16.77-14.8,16.77-22A10.48,10.48,0,0,0,925,216.67h-.31a11.79,11.79,0,0,0-8.83,4,11.79,11.79,0,0,0-8.83-4,10.52,10.52,0,0,0-10.79,10.21v.3c0,7.25,6.67,13.08,16.77,22Z"/><polygon class="cls-22" points="946.36 493.64 932.69 490.5 938.73 438.01 958.89 442.65 946.36 493.64"/><path class="cls-17" d="M903.33,496.71l42.94,9.88h0l3.94-16h0l-26.35-6.07c-9.16-2.11-18.36,3.37-20.53,12.24Z"/><path class="cls-17" d="M959.77,459.84l29.67-98.41-37.08-8.9L930.61,456.76a5.36,5.36,0,0,0,4.32,6.3,5.88,5.88,0,0,0,.93.1l18.44.53h.16A5.51,5.51,0,0,0,959.77,459.84Z"/><polygon class="cls-22" points="1030.97 493.97 1016.92 493.97 1010.25 441.55 1030.97 441.56 1030.97 493.97"/><path class="cls-17" d="M989.84,506.59H1034v-16.5h-27.09c-9.42,0-17,7.39-17,16.5Z"/><path class="cls-17" d="M1033.43,473.61a5.18,5.18,0,0,0,1.66-3.72l12.79-98.17a5.45,5.45,0,0,0-5.49-5.38l-28.56-.2h0a5.46,5.46,0,0,0-5.52,5.27l-1.52,96.71a5.42,5.42,0,0,0,5.4,5.42l17.33,1.6h.08A5.62,5.62,0,0,0,1033.43,473.61Z"/><ellipse class="cls-22" cx="1027.31" cy="119.48" rx="30.17" ry="29.2"/><path class="cls-14" d="M1067.06,366.59c19.64-14.85,19.43-32.16,12.73-55.29-1.89-6.52-3.92-13.12-6.08-20.11-10-32.48-21.37-69.3-17.06-99.7l-.61-.08.61.08c1.18-8.32-1.83-17.08-8.26-24s-15.08-10.8-23.78-10.58-17.12,4.52-23.16,11.79-8.88,32.64-9.73,36.29c-3.9,16.72-6.25,26.81-7.94,42.91-2,19-25.93,75.95-33.55,85.5a22,22,0,0,0-4.52,18,21.2,21.2,0,0,0,10.39,14.42,127.21,127.21,0,0,0,40.18,15.3,101.12,101.12,0,0,0,18.7,1.74C1034.46,382.83,1053.08,377.16,1067.06,366.59Z"/><path class="cls-22" d="M941.59,256.59a11.71,11.71,0,0,1,15.55-4.7,11.59,11.59,0,0,1,1.71,1.06l22.86-12.62L993,251.9l-32.55,17.39a11.85,11.85,0,0,1-16.35.95,11,11,0,0,1-2.54-13.65Z"/><path class="cls-17" d="M976.44,265.15l41-12.46a27.46,27.46,0,0,0,19.67-24.76l1.76-38.53c.41-8.9-6.72-16.43-15.92-16.83s-17,6.51-17.39,15.41c0,.4,0,.8,0,1.21l1.13,35.44-43.61,17.22a5.28,5.28,0,0,0-3,7,4.65,4.65,0,0,0,.6,1.06l9.65,13.25a5.62,5.62,0,0,0,6.17,2Z"/><path class="cls-17" d="M1075.94,155.81c-1.38-8-1.33-16.29-1.28-24.31,0-2.18,0-4.36,0-6.53-.06-10.1-.71-20.8-5-30.65-4.65-10.72-13.24-18.46-23-20.71-11-2.53-22.94,3.07-26.54,12.3a18.75,18.75,0,0,0-25.11,6.76,17.53,17.53,0,0,0,7,24.3,18.78,18.78,0,0,0,6.9,2.19l.46,0,3.59-9,.06.48c.23,1.88.47,3.82,2.07,4.94h0c2,1.39,4.48,6,3.75,10.66a39,39,0,0,1-2,7,37,37,0,0,0-2.14,7.7,12.8,12.8,0,0,0,2.54,9.52,7.69,7.69,0,0,0,5.21,2.9l40.52,4,1.82-13.1L1076.32,158Z"/><path class="cls-19" d="M865.23,507.3H1101.1a1.19,1.19,0,1,0,0-2.38H865.23a1.19,1.19,0,1,0,0,2.38Z"/></g></g></svg>