<?xml version="1.0" encoding="utf-8"?>
<!-- Generator: Adobe Illustrator 24.3.0, SVG Export Plug-In . SVG Version: 6.00 Build 0)  -->
<svg version="1.2" baseProfile="tiny" id="a82e93cf-5769-44b9-87d7-e6c1d0b8b4f4"
	 xmlns="http://www.w3.org/2000/svg" xmlns:xlink="http://www.w3.org/1999/xlink" x="0px" y="0px" viewBox="0 0 1108.9 696"
	 overflow="visible" xml:space="preserve">
<path fill="#2F2E41" d="M900.3,26C885.7,1.2,856.7,0.1,856.7,0.1s-28.2-3.6-46.4,34.1c-16.9,35.1-40.2,69.1-3.8,77.3l6.6-20.5
	l4.1,22c5.2,0.4,10.4,0.5,15.6,0.3c39-1.3,76.2,0.4,75-13.6C906.3,81,914.4,49.8,900.3,26z"/>
<ellipse fill="#3F3D56" cx="825.6" cy="650" rx="224" ry="13"/>
<ellipse fill="#3F3D56" cx="290.6" cy="653" rx="284" ry="13"/>
<ellipse fill="#3F3D56" cx="633.6" cy="683" rx="253" ry="13"/>
<path fill="#6C63FF" d="M738.8,597.1c0.9,31.6-17.5,43.1-40.7,43.8c-0.5,0-1.1,0-1.6,0c-1.1,0-2.1,0-3.2-0.1
	c-20.9-0.9-37.5-12-38.4-41.3c-0.9-30.4,36.8-69.8,39.6-72.8l0,0c0.1-0.1,0.2-0.2,0.2-0.2S737.9,565.6,738.8,597.1z"/>
<path fill="#3F3D56" d="M696.5,636.1l14.7-21.9l-14.7,24.2l0,2.5c-1.1,0-2.1,0-3.2-0.1l0.7-31.6l0-0.2l0,0l0.1-3l-16.1-23.4
	l16.1,21.1l0.1,0.6l0.6-23.9l-13.9-24.2l13.9,20l-0.1-49.5l0-0.2l0,0.2l0.9,39l12.7-15.8l-12.6,19.2l0.3,21.4l11.7-20.9l-11.6,24
	l0.2,11.9l17-29.1l-16.9,33.2L696.5,636.1z"/>
<path fill="#6C63FF" d="M83.8,608.1c0.9,31.6-17.5,43.1-40.7,43.8c-0.5,0-1.1,0-1.6,0c-1.1,0-2.1,0-3.2-0.1
	C17.4,651,0.9,639.9,0,610.6c-0.9-30.4,36.8-69.8,39.6-72.8l0,0c0.1-0.1,0.2-0.2,0.2-0.2S82.9,576.6,83.8,608.1z"/>
<path fill="#3F3D56" d="M41.5,647.1l14.7-21.9l-14.7,24.2l0,2.5c-1.1,0-2.1,0-3.2-0.1l0.7-31.6l0-0.2l0,0l0.1-3l-16.1-23.4
	l16.1,21.1l0.1,0.6l0.6-23.9l-13.9-24.2l13.9,20l-0.1-49.5l0-0.2l0,0.2l0.9,39L53.3,561l-12.6,19.2l0.3,21.4l11.7-20.9l-11.6,24
	l0.2,11.9l17-29.1l-16.9,33.2L41.5,647.1z"/>
<path fill="#3F3D56" d="M1025.5,626.9l74.1-110.1l-73.9,122l0.2,12.4c-5.4,0-10.8,0-16.1-0.3l3.7-159.3l-0.1-1.2l0.1-0.2l0.4-15.1
	l-81.1-117.8l81,106.5l0.3,3.2l2.8-120.4l-70.1-122.1l70.3,101l-0.7-249.4l0-0.8l0,0.8l4.7,196.5l63.9-79.8l-63.6,96.8l1.4,107.7
	l58.8-105.1L1022.7,413l0.8,59.9l85.4-146.4l-85.2,167.3L1025.5,626.9z"/>
<path fill="#2F2E41" d="M813.5,260.5c0,0-17.2,46-6.2,87.2S847.2,487,847.2,487l38.4,76.2c0,0,22,15.1,35-15.8l-35-65.9l34.3-119.1
	c6.5-22.3,7.9-45.7,4.1-68.6c-2-11.3-5.3-22.6-10.9-31.3C913.1,262.5,823.8,248.8,813.5,260.5z"/>
<path fill="#2F2E41" d="M849.2,478.8l-20.6,107.1c0,0,21.3,15.1,33.6,10.3l20.6-78.9L849.2,478.8z"/>
<path fill="#2F2E41" d="M831.4,583.8l-22,44.6l-8.9,17.8c0,0-48.7,46.7-10.3,41.9s41.2-11.7,41.2-11.7l7.6-11l2.1,4.1
	c0,0,11-8.9,11-11.7s-4.1-30.9-4.1-30.9l5.5-33L831.4,583.8z"/>
<path fill="#2F2E41" d="M893.8,562.5l11.7,31.6l-6.9,27.5c0,0-26.8,36.4,0.7,34.3s32.3-22,32.3-22l4.1-13l3.4,1.4l10.3-18.5
	l-19.2-30.9l-13-22.7L893.8,562.5z"/>
<path fill="#FFB8B8" d="M966.6,298.9l4.1,21.3c0,0,17.2,38.4,0,39.8s-17.2-37.8-17.2-37.8l1.4-15.8L966.6,298.9z"/>
<path fill="#FFB8B8" d="M670.7,188.4l-24-4.1c0,0-47.4-24.7-46.7-6.9s44.6,26.1,44.6,26.1l13,4.8L670.7,188.4z"/>
<circle fill="#FFB8B8" cx="854.7" cy="56.6" r="31.6"/>
<path fill="#FFB8B8" d="M841,77.9c0,0,6.9,26.1-5.5,31.6s-13.7,9.6-13.7,9.6s82.4,26.1,88.6-4.8l-28.1-15.8c0,0-2.7-22-5.5-23.3
	S841,77.9,841,77.9z"/>
<path fill="#D0CDE1" d="M939.2,132.6c-0.5-2.1-1.8-3.9-3.6-5c-7.2-4.6-25.8-16.3-28.4-15c-3.2,1.7-27.4,13.3-75.3-1.4
	c0,0-36.3,10-46.6,16.9s-31.8,29-31.8,29s-97.7,15.8-97,24s-7,28-7,28s64,13,129-14c0,0,20.6,47.6,18.5,56.5s-2.1,15.1,14.4,13.7
	s41.9-5.5,54.9-3.4s61.8,5.5,61.8,2.1v-21.3c0,0,15.1,74.1,24.7,74.1s24.5-5.8,30.7-27.8l-30-96L939.2,132.6z"/>
<image width="21" height="148" xlink:href="7AF844108594D631.png"  transform="matrix(1 0 0 1 846 335)">
</image>
<polygon fill="#2F2E41" points="893.9,24.7 865.2,9.7 825.7,15.9 817.5,52 837.9,51.2 843.6,38 843.6,51 853,50.7 858.4,29.5 
	861.8,52 895.2,51.3 "/>
<path fill="#FF6584" d="M589,124.5c-4.7-4.7-12.4-4.7-17.1,0c-4.7,4.7-4.7,12.4,0,17.1c0,0,0,0,0,0l17.1,17.1l17.1-17.1
	c4.7-4.7,4.7-12.4,0-17.1C601.3,119.8,593.7,119.8,589,124.5z"/>
<path fill="#FF6584" d="M634,64.5c-4.7-4.7-12.4-4.7-17.1,0c-4.7,4.7-4.7,12.4,0,17.1c0,0,0,0,0,0L634,98.7l17.1-17.1
	c4.7-4.7,4.7-12.4,0-17.1C646.3,59.8,638.7,59.8,634,64.5z"/>
<path fill="#FF6584" d="M568,8.5c-6.9-6.9-18.2-6.9-25.1,0s-6.9,18.2,0,25.1l0,0L568,58.7l25.1-25.1c6.9-6.9,6.9-18.2,0-25.1
	S574.9,1.6,568,8.5L568,8.5L568,8.5z"/>
<rect x="68.6" y="251" fill="#3F3D56" width="452" height="400"/>
<rect x="105.6" y="291" fill="#FFFFFF" width="379" height="238"/>
<rect x="105.6" y="565" fill="#6C63FF" width="232" height="14"/>
<rect x="105.6" y="595" fill="#6C63FF" width="379" height="14"/>
<g transform="translate(0,-952.36218)">
	<path fill-rule="evenodd" fill="#6666FF" d="M167.3,1454.2h-21.2v-70.4h21.2c0,0,0.5,12.5,0.5,12.5l4.6-0.1
		c9.2-3.6,24.1-7.3,32.4-7.3c9.6,0,16.2,1.8,22.4,3.6c6.3,1.8,12.4,3.7,20.3,3.7l27.4-0.8c6.2,0,10.1,3,10.1,6.3
		c0,3.4-2.6,8.8-10.2,8.4l-52.2,2.1c-1.4,0.1-2.5,0.3-2.4,1.7c0.1,1.4,1.3,1.5,2.7,1.4l52.1-2.2c0,0,0.1,0,0.1,0
		c5-0.2,10.4-3.1,12.2-7.3c0.1,0,0.2-0.1,0.2-0.1l51.9-25.4c2.1-1,3.9-1.4,5.6-1.4l0,0c3.1,0,5.3,1.6,6.7,3.6c1.1,1.5,1.5,3.4,1.3,5
		c-0.2,1.6-1,3.1-2.7,4.3c-10.3,7-29.5,20.8-48.1,32.8c-9.3,6-18.5,11.6-26.3,15.6c-7.8,4-14.5,6.4-17.4,6.4
		c-28.6,0-54.9-9-91.2-3.8L167.3,1454.2z"/>
</g>
<g>
	<path fill="#FF6584" d="M286.7,431.6c0.4,0.4,1.1,0.7,1.7,0.7c0.6,0,1.2-0.3,1.7-0.7l54.3-54.3c14.4-14.4,14.4-37.7,0-52.1
		c-7-7-16.2-10.8-26.1-10.8c-9.8,0-19.1,3.8-26,10.8l-3.9,3.9l-3.9-3.9c-7-7-16.2-10.8-26.1-10.8c-9.8,0-19.1,3.8-26,10.8
		c-14.4,14.4-14.4,37.7,0,52.1L286.7,431.6z"/>
	<path d="M321.6,336.2c4.3,1.6,7.8,4.7,9.7,8.9c1.9,4.1,2.2,8.8,0.6,13.1c-0.4,1.2,0.2,2.6,1.4,3.1c0.3,0.1,0.6,0.1,0.8,0.1
		c1,0,1.9-0.6,2.2-1.6c2-5.5,1.7-11.5-0.8-16.8c-2.5-5.3-6.9-9.3-12.4-11.3c-1.3-0.5-2.6,0.2-3.1,1.4
		C319.7,334.4,320.3,335.8,321.6,336.2z"/>
</g>
</svg>
