<?xml version="1.0" standalone="no"?>
<!DOCTYPE svg PUBLIC "-//W3C//DTD SVG 20010904//EN"
 "http://www.w3.org/TR/2001/REC-SVG-20010904/DTD/svg10.dtd">
<svg version="1.0" xmlns="http://www.w3.org/2000/svg"
 width="452.000000pt" height="452.000000pt" viewBox="0 0 452.000000 452.000000"
 preserveAspectRatio="xMidYMid meet">
<metadata>
Created by potrace 1.11, written by Peter Selinger 2001-2013
</metadata>
<g transform="translate(0.000000,452.000000) scale(0.100000,-0.100000)"
fill="#000000" stroke="none">
<path d="M0 2260 l0 -2260 2260 0 2260 0 0 2260 0 2260 -2260 0 -2260 0 0
-2260z m3958 232 l2 -1492 -277 2 -278 3 -5 140 c-3 88 -9 138 -15 136 -5 -3
-23 -23 -39 -45 -97 -138 -234 -235 -394 -278 -109 -30 -303 -30 -424 0 -167
41 -287 112 -414 243 -146 153 -232 320 -281 549 -26 121 -26 503 0 640 56
300 171 516 360 678 81 69 164 115 279 153 82 27 111 32 238 36 126 5 157 3
230 -16 143 -35 221 -81 332 -191 70 -70 99 -93 103 -82 3 8 5 238 5 511 0
273 0 499 0 504 0 4 129 6 288 5 l287 -3 3 -1493z m-2606 1016 l3 -303 175 -5
175 -5 3 -207 2 -208 -177 -2 -178 -3 0 -630 c0 -497 3 -638 13 -667 12 -33
20 -40 65 -53 32 -9 92 -15 164 -15 l113 0 0 -214 0 -214 -77 -7 c-42 -4 -166
-5 -277 -2 -165 4 -214 9 -276 27 -132 38 -205 92 -255 190 -44 86 -45 99 -45
863 l0 727 -155 0 -155 0 2 208 3 207 153 3 152 3 0 304 0 305 285 0 285 0 2
-302z"/>
<path d="M2805 2753 c-70 -15 -135 -40 -169 -65 -92 -65 -167 -192 -207 -348
-33 -125 -32 -386 1 -515 57 -228 181 -362 368 -396 73 -14 208 -4 270 19 214
82 333 339 319 687 -14 333 -129 526 -359 604 -58 20 -167 27 -223 14z"/>
</g>
</svg>
