<?xml version="1.0" encoding="UTF-8" standalone="no"?>
<svg
   xmlns:dc="http://purl.org/dc/elements/1.1/"
   xmlns:cc="http://creativecommons.org/ns#"
   xmlns:rdf="http://www.w3.org/1999/02/22-rdf-syntax-ns#"
   xmlns:svg="http://www.w3.org/2000/svg"
   xmlns="http://www.w3.org/2000/svg"
   xmlns:sodipodi="http://sodipodi.sourceforge.net/DTD/sodipodi-0.dtd"
   xmlns:inkscape="http://www.inkscape.org/namespaces/inkscape"
   inkscape:version="1.0beta1 (32d4812, 2019-09-19)"
   sodipodi:docname="SEO-tasks.svg"
   xml:space="preserve"
   overflow="visible"
   viewBox="0 0 1648 1166"
   y="0px"
   x="0px"
   id="Layer_1"
   version="1.2"><metadata
   id="metadata395">
  <rdf:RDF>
    <cc:Work
       rdf:about="">
      <dc:format>image/svg+xml</dc:format>
      <dc:type
         rdf:resource="http://purl.org/dc/dcmitype/StillImage" />
      <dc:title></dc:title>
    </cc:Work>
  </rdf:RDF>
</metadata>
<defs
   id="defs393" />
<sodipodi:namedview
   inkscape:current-layer="Layer_1"
   inkscape:window-maximized="0"
   inkscape:window-y="563"
   inkscape:window-x="0"
   inkscape:cy="560"
   inkscape:cx="400"
   inkscape:zoom="0.35"
   showgrid="false"
   id="namedview391"
   inkscape:window-height="855"
   inkscape:window-width="1440"
   inkscape:pageshadow="2"
   inkscape:pageopacity="0"
   guidetolerance="10"
   gridtolerance="10"
   objecttolerance="10"
   borderopacity="1"
   inkscape:document-rotation="0"
   bordercolor="#666666"
   pagecolor="#ffffff" />

<path
   id="path10"
   d="M1647.9,786c-4.9-0.7-6.2-5.2-8.5-8.3c-24.3-33-49.7-65.2-77.5-95.3c-10.1-10-28.3,16.2-30.6,25.1  c-1,2.6,1,4.2,2.4,5.6c42.5,45,77.1,96.9,114.3,145.9v10c-1.7,0.3-3.3-0.5-4.1-2c-23.8-33.8-49.2-66.3-76.5-97.3  c-4.1-4.6-8.8-8.6-12.3-13.7c-1.2-1.8-2.4-2.1-4.6-1.2c-12.9,5.2-20.6,15-25.2,27.6c-0.7,1.8,0.4,2.8,1.4,3.9  c6.2,7.1,12.2,14.4,18.6,21.4C1583,850,1614.2,897.8,1648,943v9c-2.6,0.1-3.7-2-4.9-3.7c-27.5-39-54.6-78.5-84.9-115.4  c-13-18.4-32.1-33.2-43.1-52.6c-4.2-16.7-11.1-32.1-19.4-47.1c-6-11-11.8-22.1-17.7-33.1c-1.1-2.1-2.1-4.6,0.2-6.3  c2.1-1.5,4,0.3,5.7,1.7c23,17.4,44.5,38.8,70.7,51.2c-9.5-11.9-19.6-23.3-30-34.4c-1.7-2-2.9-4.4-3.4-7c-7-29.1-23.8-53.9-37.2-80.2  c-1-1.7-2-4.2-0.3-5.4s4.2-0.8,6.3,0.9c22,18,43.7,36.5,68.2,51c18.9,13.9,31.6,33.3,46.6,50.9c15.5,17.3,27.7,37.7,43.2,54.7  L1647.9,786L1647.9,786z M1527.3,700.8c9.9-22.5,29.6-23.3,22.8-26.7c-12.6-8.4-24.9-17.1-36.8-26.6c-1.7-1.3-3.8-3.3-6.6-1  c-2.6,2.2-1.7,4.1-0.5,6.5C1515,668.8,1521.1,683.4,1527.3,700.8z M1520.7,775.4c16.1-29.7,35.8-19.8,14.6-32.6  c-9.6-6.7-19-13.5-28.1-20.9c-3.3-4-10.4-0.7-7.5,4.5C1507.6,741.8,1515.6,757.3,1520.7,775.4z"
   fill="#6C63FE" />

<path
   id="path12"
   d="M954.7,351.3c28.6-5.7,48.5,8.1,71.1,23.6c29.7,31.9,34.2,85.4,24.8,126.3c-7,34.6-36.7,61.1-71.7,65  c-16.3,1.3-33.2,3.2-48.1-4.6c-2.2-1.4-5.1-4-8.6-1.9c-20.8-9.3-38-29.1-43.5-51.2c-12.9-39.2-13.2-85.7,9.5-121.5  C903.4,366.6,928.6,351.3,954.7,351.3L954.7,351.3z M1011,466.9c-1.4-19.6-2.1-42.5-13.4-59.2c-10.2-18.9-37.6-25.5-56.3-14.4  c-23.1,10.8-28.3,40-26.8,63.3c1.5,20.8,3,44,17.3,60.5C974.7,551.2,1014.7,515.7,1011,466.9L1011,466.9z"
   fill="#6C63FE" />

<path
   id="path14"
   d="M833.3,509c19.8-0.9,22.1,1.9,21.6,20.5c1.7,11.4,1.3,22.9,2.1,34.4c0.3,3.9-1.2,4.8-5,5.3  c-28.5,2.8-56.9,4.7-85.5,6c-5.8-0.2-11.8-0.6-17.7,1.6c-5,1.8-10.3-0.5-15.6-0.2c-30,2.9-28.9,4.7-28.3-26  c0.4-8.1,18.1,2.4,18.2-18c-2.7-19.7-4-39.5-4.3-59.5c0.1-14.9-2.5-29.7-1.8-44.7c0.6-2.6-3.1-3.6-2.4-5.5  c3.7-6.7-0.7-13.6,0.2-20.4c-1.5-5.4-18.9,3.6-18-7.6c0.2-7.4,0.7-14.9-1.8-22.1c-0.8-2.2,0.5-3.6,3.1-3.9c20.3-3.2,40.7-2,60.9-4.1  c23.5-1.2,46.8-1.9,70.2-3.9c16.2,0.6,12.6,5.9,13.6,19c-0.2,3.7,0.6,7.2,2,10.6c-2.8,9.2,5.8,26-7.8,28.4  c-8.2,0.1-16.6-0.5-24.4,2.8c-7,0.8-6.1-14-5.2-18.5c0.5-2.7,0.1-3.6-2.4-3.1c-6,2.5-49.1-1.8-46.1,6.8c1.7,12.2,1.6,24.3,1.9,36.7  c0.1,3.8,1.6,5.7,5.4,5.4c20.8-2,41.7-2.6,62.5-3.9c2-0.3,3.1,0.8,3.2,2.9c0.1,8,2.2,15.7,2,23.7c-0.1,9.7-0.8,11.1-10.5,11.2  c-16.4,0.3-32.7,1.3-49.1,2.7c-8.3,0.3-11.4-1.7-10.5,8.1c0.2,6.3,1.7,12.7,0.7,18.8c-1.3,7.8,3.7,14.5,2.4,22.2  c0.9,5.5,14.7,1.3,18.8,1.2c7.2-1,14.3-0.6,21.4-0.7C832.4,534.6,799.9,504.3,833.3,509L833.3,509z"
   fill="#6C63FE" />

<path
   id="path16"
   d="M371.9,308.4c-0.4-2.1-6.1-3.7-4.6-6.2c3.4-3.7,8.4,1.7,12,2.9c1.7,1.2,3.9,1.1,5.5-0.1  c11.6-6.8,19.9-18.9,21.1-32.4c2.6-7.6-17.8-0.3-24-6.7c-18.8-13.3-13.1-55.4-17.6-76.4c-3-16.4,13.6-28.1,28.4-27.5  c12.4-3.4,25.7-2.9,35.9,5.5c8.2,8.5,6.6,22.5,8.4,33.4c1,18.7,10.2,40.3-1.4,57.1c-6.8,11.8-23.6,5-23.6,14.1  c-3.4,39.8-28.3,31.9-28.1,45.6c-4.1,22.9-45.3,10.4-61.6,9.6c-15.5-2.3-30.5-4.5-46-4.9c-7.5-1-16.1-1.7-22.7,1.1  c-9.9,4.1-19.6,2.7-29.5,3.6c-13.3,1.2-26.7,1.7-40.1,2.1c-5.8-1.2-33.8,6.7-31-2.6c1.5-9.1-4.6-17.4,9.1-15.7  c7.4-0.3,9.1-1.9,8.9-9.2c-0.1-4.4,0.5-8.9-0.8-13.3c-0.6-2.1-1.5-3.1-3.3-2.4c-5,1.9-10.2,0.9-15.3,0.9  c-20.1-2.6-64.2,14.7-68.6-14.1c0.7-24.4-3.9-48.6-3.9-73c2.5-17.3-11.3-53,15.4-54.6c54-2.5,108-5.3,161.9-8.5  c12.6-0.5,25.2-2,37.9-1.6c6.1,0.2,14.4,8,15,15.2c1,19.6,2.2,39.1,3.7,58.6c1.4,70.7,17.1,70.7-61,72.3c-5.5,1.1-20.2-2.3-19,6.6  c2.2,20.2-7.1,18.9,14.9,18.2c7.7,0.7-2.4,12,9.1,10.5c15.2-0.9,30.4-0.2,45.4,2.1c17.6,0,63.5,13.8,74.1,1.3  c2.8-3.1,1.7-7.9-2.8-4.9c-11.6,2.5-30.5,2.7-34.7-10.9c-0.5-2,0.6-4.1,2.5-4.9c5-3.7,24-3.8,23.3,4.3c-1.1,2.3-3.3,1.8-5.2,0.6  c-1.6-1.5-15.1-2.5-14.6,0.9c-0.2,1.6,1.1,2.2,2.1,2.4C355.4,308.7,363.5,312.4,371.9,308.4L371.9,308.4z M196.9,264.8  c33.3,0.3,63.1-4.2,96-4.7c2.5-0.3,4.3-1.5,3.9-4.2c-2.3-13.3-1.5-26.7-2.6-40.1c-1.6-19.4-2.2-38.9-3-58.4c-0.1-3.8-1.8-4.7-5-4.1  c-27.9,3.2-56.2,3.5-84.2,5.3c-34.1,2.6-68.6,2.7-102.7,5.6c-1.8,0.4-3.3,1.6-2.8,3.9c2.5,20.5,1.9,41.3,3.6,61.9  c1,12,1.4,24.1,2,36.2c0.1,2.8,1.2,3.9,3.9,3.8C135.6,269.7,168.5,267.1,196.9,264.8z M385.3,202.9c-6-0.5-9.9,2-9.5,5.4  c1.6,13.1,3.2,26.1,4.8,39.1c4.5,17.6,26.7,11.6,39.6,9c8.1-1.7,13.4-8.3,12.3-15.4c-2-12.4-2.2-24.9-4.5-37.2  C423.9,195.9,393,200.2,385.3,202.9L385.3,202.9z M198.1,286c-8.1-0.1-9.9,1.3-8.9,7.1c2,4.4-2.3,16.8,5,15.9c6-2.5,21,2.9,20.9-6.3  C213.6,285.5,217.7,283,198.1,286z M403.3,181.4h-0.1c-0.1,2.9-0.7,9,3.5,8.5c4.7-2.4,18.6,2.9,19.4-1.6  c1.9-10.6-7.7-17.6-17.1-18.7C401.3,167.6,402.9,176.6,403.3,181.4L403.3,181.4z M395.9,181.7c2.8-14.2-11.4-10.8-18.1-4.3  c-3.4,2-6.4,17.4-1.4,17.4c3.5-3.3,8.5-0.7,12.2-3.4c2.2-1.6,6.5,1.2,7.7-1.6C397.3,187.5,396.1,184.2,395.9,181.7L395.9,181.7z"
   fill="#6C63FE" />

<path
   id="path18"
   d="M603.8,587c-17.4,1-33.8-4.1-50.4-8.2c-6.1-0.7-3-25.1-5.4-31.1c-3.7-35.4,1.3-20.7,29.5-27.7  c4.4-0.7,6.7,1,6.5,5.7c-0.2,5.3,1.6,10.5,1.2,15.8c-0.2,3.1,2.1,4.4,4.7,5.5c20.8,8.4,60.3,0.1,52-29.4c-1-4.6-5.5-8.5-3.1-14.3  c1-2.4-3.2-2.6-4.8-4c-0.7-0.6-1.4-1.8-2.4-0.5c-3.7,5-8.7,2.3-12.6,1.3c-19.5-6-40.1-9.9-57.4-21.4  c-33.7-27.2-25.5-87.7,16.2-101.7c21.5-8.9,45.5-10.1,68.2-5c9.3,3.5,28.5,2.6,27.1,16.1c-2.5,8.6,9.3,45-4.2,43.3  c-6.2,0.2-12.3,1-18.3,2.4c-3.5,0.4-11.3,2.9-12.1-2.1c-3-9.5,3.7-27.5-7.6-30.7c-0.7-0.4-1.8-0.3-1.8,1c0.2,5-3.4,4.3-6.2,3.8  c-10.7-2-20.3,1.2-29.2,6.4c-13.6,8.9-8.5,31.7,7.8,36.2c11.6,7.2,25.3,7.6,37.5,12.5c14,4.1,25,12.9,36.4,21.1  c8.8,9.3,12.4,23,12.5,35.6C692.2,567.3,648.3,588.5,603.8,587L603.8,587z"
   fill="#6C63FE" />

<path
   id="path20"
   d="M908,978.7c-6.5,1.8-11.9-1.6-17.8-3.8c-22.8-0.1-22.9-27.1-39.5-23.5c-4.7,0.7-9.4,1.2-14.2,1.5  c-6.3,0.8-13.2-15.6-17.4-6.1c-1.5,2.9-6.3,3.9-8.1,7.5c-1.9,2-5.5-1.4-7-2.9c-11.1-14.6-12.7,5.7-24.9,5.3  c-6.1,0.1-11.7,1-16.3-4.3c-2.5-2.9-5.2-3.5-7.9,0.7c-17.5,21.3-34.9-16.4-47.9-25.4c-3.7-1.4-2-6.8,1.7-6.7  c11.9,0,23.7-2.2,35.5-2.5c33.5-1.6,67-4.5,100.5-6.2c3.7-0.5,7.4-1.5,11.3-1.2c3.1,0.2,3.3-2.9,4.7-4.5  c7.9-14.9,7.1-12.4,19.8-22.5c26.2-16.3,64.7-0.8,73.5,28.6C965.3,942.3,940,980.3,908,978.7L908,978.7z M921,928.3  c0-8.6-3.9-16.2-8.3-16.1c-12.4,0.2-22.5,7-22.6,15.1C888.7,946.9,921.2,948.6,921,928.3L921,928.3z"
   fill="#6C63FE" />

<path
   id="path22"
   d="M620,693.3c0.8-1.3,1.3-3.1,1.9-3.1c10.4,0.5,3-24.7,3.2-31c-0.5-4.3-8.1-0.4-7.6-7.3  c0.3-4.8-1.8-10.6,6.2-10.9c9.5-1.6,18.4,1.2,27-1.8c20.3-2.8,18.5,3,20.1,20.3c2.6-13,12.5-23,26.2-23.6  c8.2,0.1,24.7,0.3,22.9,11.7c-0.4,9.8,0.3,13.6-11.6,13.5c-4.2,0-5.8-1.4-5.3-5.5c1.2-9.7-12.2-1.6-12.5,3.3  c-2.9,10-2.5,25.9,11.7,24.9c8.1,2.3,13-9.1,16.8-0.7c0.8,1.8,1.7,4.7,3.7,3.4c2.7-1.7,8-0.9,7.3-6.4c-0.8-6.2,1.5-12.6-1.6-18.6  c-0.5-1.1,0.3-2.8,0.6-4.3c1.6-10-3.3-19.6-1.5-29.6c-1.3-3.3-9.5,1.2-7.9-10.9c0.9-5,3.5-4.6,6.9-4.7c3.8-0.1,7.5-1.2,11.3-1  c6,0.3,8.3,3.1,7.3,9.1c-0.8,4.6,2.2,8.5,2.5,12.9c2.2,5.6,11.5-6.4,20.7,2.9c4,5,10,1.6,11.3,4.6c1.6,4.8,4.7,9,2.4,14.4  c3.4,4.8,1,10.5,2.6,15.6c1.1,4.4-2.6,7.5,2.8,10.5c3,2.1,5,9.9,3.2,12.8c-0.3,0.5-1.1,1.2-1.5,1.2c-5.1-1-9.6,2.6-15,1.5  c-4.7-1.5-13.8,4.2-15.6-3c-0.7-2.7-0.5-5.3-0.8-7.9c-0.5-3.5,3.1-3.4,4.9-4.7c4.9-2.9,1.6-24.7-0.4-29.9c-4-8.3-15.7,2.3-14,10  c1.6,7.7-2.1,18,5.9,22.9c4.8,2.7,1.4,12.5-3.6,13.1c-7.1,0.3-20.2,5.7-25.6,0c-1.6-3.7-4.8-3.3-6.8-1.2c-8.8,9.3-32.1,7.6-40.2-1.6  c-4.5-5.8-8-12.6-7-20.5c0.4-3.1-1-5.8-1-8.8c0.2-1.1-0.9-2.2-2-1.8c-6.6-1.2-14.3,5.4-14.1-4.9c-0.1-1,0-2-1.5-2  c-3.3,0-8.5,5.7-7.2,8.7c2.2,5.5,1.8,11,1.7,16.6c0,3,0.9,4.8,4.2,5.7c5.2,1,10.7,12.2,4.4,14.9c-10.1,1.3-20.7,2-30.5,2.9  c-5.4-5.2-10.5,1.4-15.9,0.3c-4.1-0.8-8.5,4-13-0.8c-0.9-1-4,2.3-6.7,3c-41.5,10.6-44.9-63-6.4-65.2c6.3-0.8,26.9,0,28,7.9  c-1.2,10.6,2.6,21,1.5,31.7c-0.2,2.1-1.6,8,4.8,7.5C619,689.2,618.7,691.7,620,693.3L620,693.3z M593,670c-0.4-3.7,1.3-9.3-2-11.8  c-4.3-2.6-13.5,2.4-13.8,7.7c-0.4,5.8-0.4,11.6-0.1,17.4c0.3,5.6,4.7,8.5,11,7.6C597.2,688.8,592.6,676.8,593,670L593,670z"
   fill="#6C63FE" />

<path
   id="path24"
   d="M641.9,223.6c4.8,4.6,9.2,9.2,14,13.2c7.5,6.1-2.5,14.6-9.1,15.5c-14.5,8.3-21.4,27.5-32,40.2  c-2.8,4-7.5,3.3-11.3,3.3c-6.9,0-13.6-8.3-13.6-15.2c-0.1-2,0.5-4,1.6-5.6c7.3-9.7,14.6-19.4,22-29c2.7-3.5,4-8.1,7.7-10.8  c0.9-0.7,0.6-1.6,0.3-2.7c-3.1-8.9,2.9-16.2,12.5-15c0.9,0.1,1.9,0.5,1.9-0.5c0-4.9,3.2-9.5,0-14.7c-11.7-20.3-11.2-44.7,2.8-63.8  c7.8-11.8,26-25.1,40.5-23.7c15.3-0.4,19.4-0.7,31.8,8.7c7.2,3.8,12.8,0.9,18.2,9.5c9.7,13,18.5,28.9,14.7,45.5  c-1.6,23.6-24.6,51.9-50,50.6c-5-0.6-10,2.3-15.3,1.7c-6.4-0.3-10.4-5.1-15.6,1.9C656.9,239.4,648,221.3,641.9,223.6L641.9,223.6z   M691.1,139.1c-9.2-3.9-13.1,0.2-20.5,3.4c-13.7,4.5-21,22.5-19,33.9c2.3,16.7,10.7,23,27.2,27.6c18.5,9.9,36.1-8.5,40.6-25.3  c3.7-11.2-0.5-19.9-6.7-28.4c-1.8-2.4-6.4-3.1-3.6-7.7c0.4-0.7-0.7-1.2-1.4-1.7c-5.6-4.4-6.7-4.5-13.6-0.4  c11.1,5.8,5.9,10.9-3.9,11.3c-8.3-2.1-18.5,7.5-22.8,3.2c-5.5-8.2,12.6-16.7,19.6-14.9C688.3,140.6,690,140.2,691.1,139.1  L691.1,139.1z"
   fill="#6C63FE" />

<path
   id="path26"
   d="M621.1,774c-4.4-12.5,8.7-12.4,11.6-22c1.8-5.4,6.6-4.1,10.5-4c3.7,0.1,4.6,4,4.6,6.1  c0.1,10.7,16.3-1.8,15.3,14.2c-1.5,11.1-15.7-2.7-14.1,14.2c-0.2,5.6,1.4,11.1,0.3,16.8c-0.6,13.2,16.8-2.9,17.4,14.4  c3.2-0.4-0.2-5.7,2.1-6.8c10.6-5,2.6-22.9,3.2-32c-0.9-4.7-7.6,1.8-7-7.6c-1.4-13.1,11.3-10.1,20.2-10.3c5.1,0.3,7.2,3.2,7,8.2  c-0.7,12,0.4,23.9,1.6,35.8c0.9,5.6,6.2,5,5.9,13.6c3.3-3.4-0.4-7.5,2.8-9.8c7.6-2.8,4.6-9.2,4.3-14.1c-0.3-4.1-0.3-8.2,0.1-12.3  c0.8-11.2-9.9-2.9-9-16.7c-0.4-2.2,1.3-7.3,6.1-6.7c6.1,0.7,12.5-1.9,18.4,1.7c0.8,0.5,1.5-0.2,2.2-0.6c16.5-10.1,23.1,5.9,32-1.2  c6.9-5.6,23.3-6.2,27.3,2.8c-0.3,2.2,0.6,3.2,2.7,3.8c5.5,6,4.2,23.3,4.3,31.6c-0.4,5.4,0.4,4.8,5.3,6.4c1.5,0.3,0,4.4,2.9,2.5  c2.5-1.6,5.7-2.6,6-6.6c0.8-9.4-1.3-18.7-1.4-28.1c0.1-2.3-2-2.3-3.7-2.2c-3.7,0.2-4.1-1.5-3.8-5c0.4-12.3,8.1-11.9,17.7-9.4  c9,2.4,11.6,7.4,9.9,19.2c-1.2,8.3,1.9,16.3,1.2,24.6c1.1,5.4,7.7-1.4,5.8,9.8c-0.3,8.3-11.7,9.1-18.2,8.6c-4.3-0.4-8.7,2-12.9-0.5  c-9.2,4.8-19.2,0.9-28.7,2.7c-3.5,0.7-6.8-0.4-10.4,0.2c-8.3-0.3-22.7,7.3-27.8-1.4c-9,9.4-33.9,2.3-46.3,5.6  c-10.4,2-21-0.4-31.2,3.1c-8.5,2.9-17.9-0.8-22.2-6.8c-1.9-2.7-1.8-5.9-1.9-8.5c-0.4-9.3-2.8-18.5-1.5-28c0.3-2,0.2-5.5-4-3.5  c-2,0.9-3.3-0.9-4.8-1.9L621.1,774L621.1,774z M729.4,760.8c-0.2,1.8,1.6,1.8,2.4,2.6c2,2.3,2.4,5.1-0.8,6.5  c-7.6,3-4.1,11.4-5.5,17.5c-0.1,4.4,2.1,8.8,2,13.3c0,0.4,1,1,1.5,1.1c3,0.3,6.5,2.9,8.9,0.3c4.1-9.1-0.4-23.1-0.7-33.3  C736.4,763.6,735.2,761.4,729.4,760.8L729.4,760.8z M758.3,787.4H758c1.1,6.3-0.4,14.5,6.7,17.3c1.6-2.5,6.5-2.3,6.5-5.1  c1-7.8-0.9-15.6-0.8-23.3C774,762.6,752.3,762.1,758.3,787.4L758.3,787.4z"
   fill="#6C63FE" />

<path
   id="path28"
   d="M894.7,122.5c29.9,82.9,48.5,68.8-43.4,72c-9.8,1.5-13.4-3-10.2-12.2c6.5-18.2,12.7-36.6,18.4-55.1  c1-3.3,0.3-4.2-3-4c-5.9,0.2-11.9-0.7-17.8,1c-2.5,1.1-5.7-2.9-7.2,0.3s-1.2,7.3-0.1,10.8c1.2,3.6-1.9,6.9-0.3,10.2  c1.9,4.1,2.5,8.7,1.6,13.1c-1.8,12.6-0.5,25.1,0.2,37.7c-0.9,6.5,29.4,0.9,34.4,1c21.7,0.5,43.7,0.2,65.5-0.9  c2.2-0.3,4.4,0.8,5.4,2.7c1.4,3.8,8.5,12.1,1.4,13.2c-33.3,1.7-66.8,2-100.1,3.2c-9.7-0.2-18.9,2.8-28.9,0.5c-2.4-0.2-5.2,3-7.1-0.6  c-1.6-3.1,0.2-5.8,1.5-8.4c5.5-14,16.6-2.8,16-11.8c-0.9-22.8-0.3-45.6-2-68.4c-0.2-2.5-0.4-4.2-3.8-3c-4.1,1.1-13.9,1.3-12-5.2  c2.1-13.5,15.4,0.6,14.8-13.9c0.8-14.4-0.5-28.7-1.9-43c-0.3-3.3,1.7-4.2,4.5-3.3c2.9,1.9,10.5,2.3,9.4,6.8  c-2.4,6.9-0.4,13.8,0.3,20.6c1.7,6.2-3.9,26.5,6.1,25.4c7-0.4,14-0.5,21-0.1c4.4,0.2,6.7-0.8,5.8-5.9c-0.9-4.9,1.2-10.5-2-14.9  c-2.3-4.6-3.3-17.1,4.6-16.3c7.5-0.1,15-0.1,22.5-0.2c7.8-0.1,5.8,12.1,3.7,17.3c-1.5,1.7-2.6,19.9,1.5,18.7  c5.2,0.3,12.5-2,11.8,6.2C905.1,123.6,899.6,121.5,894.7,122.5L894.7,122.5z M859.4,150.5c6.9-8.3,8.4,2.1,14.8-3.9  c1.6-0.8-0.6-2-1.2-3c-7-16.6,20.8-15.9,12.7,0.4c-0.6,0.9-2.2,1.5-1.5,2.8c0.8,1.6,2.1,0.3,3.1,0.2c4.8-0.1,6.8,4.6,11.8,4.9  c-2.7-6.9-5.2-13.2-7.6-19.6c-3.7-9.8-5-10.8-15.1-10.1c-2.9,0.7-8-0.3-9.2,3.2C864.5,133.8,861.9,142.2,859.4,150.5L859.4,150.5z   M884.8,93.5c0.4-3.1-0.3-6.6,1.8-9.8c1.3-2-0.2-3.5-2.5-3.5c-3.8,0.7-22.4-2.9-17.1,4.9c1.9,2.1,1.9,4.4,2.1,6.8  c0.3,5.3,1.3,10.5,1,15.9c-0.1,1.6,0.5,3.6,2.2,3c4.5-1.9,14.8,2.1,12.7-5.9c0-2.5-1.6-1.8-3.1-1.3c-9,1.8-9-11.9,0-10.6  C882.7,93.3,883.4,94.4,884.8,93.5L884.8,93.5z M881.2,186.2c-1.9-1.1-3.6-2.5-6-1.7c-7.1,2.3-14.3,0.7-21.5,0.7  c-2.4,0-3.8-2.1-2.5-3.6c2.9-3,1-7.7,4.5-10.4c1.6-1.3,0.1-3-1.1-3.6c-1.9-1-1.5,1-1.8,1.9c0,3.6-9.3,19.3-3.2,18.6  C860.2,188.4,870.8,187.8,881.2,186.2z M883.1,166.8c0.3-8.7-11.7-7.4-12,0C872,174.6,882.1,174.5,883.1,166.8z M909.4,179.2  c-0.9,10.6-18.3,0.7-23.1,6.9c1.1,2.5,16.1,0.3,19.7,0.9C913,186.8,913.4,186,909.4,179.2L909.4,179.2z M858,155.8  c-1.3,3.2-3.5,5.4-2.4,9.4C857.6,162,859.1,159.5,858,155.8z M900,154.6c-1.6,3,0.7,5.2,0.2,7.5c-0.1,1,0.8,2,1.9,1.8  C905.2,162.6,900.7,157.3,900,154.6L900,154.6z"
   fill="#6C63FE" />

<path
   id="path30"
   d="M824.8,612.1c12.8-1.1,25.7-1.2,38.5-3c3.3-0.5,5.6,0.7,5.7,4.4c0.1,5.4-0.2,10.9,1.8,16.2  c0.9,2.5-6.5,7.7-9.9,5.8c-5.8,1.9-9.4,1.3-8.5-6.3c0.2-1.7-2.7-1.5-4.3-1.7c-10.4-1.3-11.8,6.6-8.5,14.6c0.4,1.3,1.8,0.5,3,0.4  c5,0.7,23.3-5.1,22.5,2.7c-0.6,4.4,4.3,13.1-3.1,13.1c-6,0.1-11.9,1.4-17.8,0.9c-3.4-0.3-4.2,1.3-4.2,4.5  c-0.2,11.3,1.1,12.6,12.3,11.5c6.8-0.8,0.6-10.4,10.3-10c10.7-0.2,11.2,0.3,11.4,11c0,1.3,0.1,2.6,0.5,3.9c0.3,0.8,2.2,1.6,2.1,0.4  c-0.2-4.3,6.2-3.6,6.3-7.9c-0.6-8.9-1.1-17.8-1.7-26.7c-0.2-2.9-1.8-4.2-4.7-3.4c-2.6,0.7-3.4-1.4-3.6-3.3  c-0.9-10.5,0.3-11.9,10.6-11.9c5.1,0,9.9-1.2,15.4,0.2c5.5,1.8,17-7.3,21.8-0.3c1.1,1.8,2.3,2.4,4,2c14.2-0.6,9.2,30.2,12.2,39.3  c0.3,4.5,5.2,2.6,6.1,6.7c0.6,3.3-0.2,13.9-4.4,12.8c-7.9-2.2-16.3,0-23.9,0.8c-2.7,1.5-4.3-6.2-8.1-0.5c-1.6,2.5-6.6,0.6-10,0.8  s-6.9-0.3-10.1,1.6c-1.9,1.1-4.3,0.5-6.3-0.3c-5.3-2.2-5.5-2.8-9.2-1.1c-5.5,2.5-11.3,1.9-17,2.6c-12.4,0.3-25.6,3.5-37.8,0.8  c-3.1-1-3.1-9.3-0.1-11.6c2.5-1.9,6.6-4.5,4.9-7.1c-3.7-5.5,1.8-10.6-1.2-16.4c-2.3-4.5-0.8-11.1-0.5-16.7c0.2-3.1-1.9-5.9-0.4-9.2  c0.2-0.5,0-4.8-3.8-3.2c-6.4,0-2.8-9.2-4.6-13.2C811.9,610.8,820.8,612.4,824.8,612.1L824.8,612.1z M917,661.6  c0-6.6,0.1-16.2-3.6-22.6c-4.7,0.9-13.1,3.1-12.3,9.9c0.3,7.8,1.2,15.5,1.9,23.3c0.1,1.4,7,6.2,7.2,5.6c1.4-3.9,8.5-3.7,6.8-9.8  C916.6,666.3,917,664.4,917,661.6L917,661.6z"
   fill="#6C63FE" />

<path
   id="path32"
   d="M1252.8,621.9c-2.6-4.6-10.3-4.5-9.7-10.7c0-5.6,24.4-7.3,14.9-12.9c-4.9-3.9-15.2-5.6-16-12.5  c0.1-2.5,1.6-3.7,3.8-4.6c19.5-7.8,38-17.5,56.7-27.1c14.4-5.9,30.1-20.9,45.7-10.6c15.7,8.5,31.4,17,47.2,25.4  c2.2,1.2,2.4,2.5,1,4.4c-4.3,5,0.2,8.1,5.5,7.3c0.6-2.3-3-3.6-1.1-6.1c2.5-2.5,6.9,0.9,6.4,4c-0.1,3.8,0.5,6.9,4.6,8.7  c4.4,2-2,9.9-4.7,5.8c-4.2-6.2-11.3-7-17.2-10c-10.9-4.4,1.9-9.6-4.7-12.9c-5.1-2.7-10.2-5.4-15.4-8c-9.5-4.8-19.2-9.4-28.2-15.1  c-1.8-1.2-4.1-1.3-6-0.2c-25.9,12.2-50.8,26.2-76.8,37.9c-3.8,0.9-4.3,2.9-0.3,4.3c13.1,8.9,27.2,16,41,23.6  c7,3.8,14.3,7.4,20.9,11.9c5.3,3.7,9.7,1.3,14-0.9c20.7-10.6,42.7-18.1,64.1-26.6c2.5-1.4,10.2,4.3,10.6,7.9  c-0.5,4.8,6.3,11.1,3.1,14.7c-1.7,1.1-3.2,0.2-4.4-1.1c-5.4-4.5-4.5-19.7-14.2-13.8c-12.1,5.9-24.4,11.4-36.6,17.2  c-11.7,3.4-23.8,17.1-36.2,11.1c-15.4-8.5-31.4-15.9-46.3-25.4c-2.3-1.5-4.3-2.2-6.7-0.4c-4.7,3.6-15.7,5-5.4,10  c12.5,7.9,25.5,14.9,38.5,21.7c6.7,3.5,13.7,6.5,19.6,11c5.8,4.3,10.4,2.1,15.4-0.2c19.2-9.8,39.7-16.8,59.8-24.7  c2.7-0.4,5.9-4.5,7.9-1c1.6,2.9-1.7,4.1-4,4.8c-1.7,0.5-1.2,1.7-1.4,2.7c-0.5,3.8,6.3,8.3,1.4,11c-7.3,1.8-4.4-13-13.8-7.1  c-13.2,4.5-53.5,30.7-63.1,24.2c-18.3-10-37.1-19-54.6-30.3c-6.2-4.8-11.7,0.5-17.4,3.3c-5.7,1.3-7.2,3.8-0.8,6.6  c19.2,13,40.8,22.1,60.5,34c4.9,3.9,9.4,1.5,13-0.5c13.9-7.3,28.5-12.7,43-18.6c7.3-3.3,15-5.3,22.1-9c1.1-0.7,2.6-0.3,3.3,0.8  c2.4,5-8.1,6.2-10.9,8.8c-10.2,4.9-20.6,9.2-30.6,14.4c-9.3,4.8-18.9,9-28.4,13.3c-5.8,2.7-10.7,0.1-15.6-2.7  c-24.3-13.2-48.8-26.2-72.2-41.1c-3.9-2.2-4-7.8,1-8.4C1240.8,628,1246.9,625.5,1252.8,621.9L1252.8,621.9z"
   fill="#6C63FE" />

<path
   id="path34"
   d="M1013,618.1c-7.7-5.9-10.1-10.3-7.6-15.6c1.8-3.9,4.5-7.5,9.5-7.5c9.3,1.8,17.8,10,10.1,18.6  c-2.3,3-6.3,1.8-9,4.5c5,3.3,14.1,2.6,13,10.2c-0.6,12.1,0.1,24.2,1.9,36.1c0.2,6.3,5.3,0,7,8.6c0-5.9,6.4-6.6,7.1-11.5  c1.2-8.8-1.8-17.3-2.1-26c0-1.2-0.7-1.5-1.9-1.8c-6.4-1.2-6.3-1.3-6.1-9.5c0.1-4.7,3.9-6.2,6.8-6.1c6.2,0.2,12.4-2.1,18.6-0.1  c7.8-2.4,15.9-5.2,24.3-1.7c19.4,7.5,10.2,29.3,14.8,44.5c1.6,5.5,8.5-2.5,6.5,11.2c-1.1,11.3-20.9,5.9-28.8,6.9  c-4.3-0.2-6.6-8.8-2.8-12.5c10.3-10.1,1.7-17.1,3.5-26.8c2.3-9.9-12.6-10-13.9-1.9c-1.7,7.9-0.8,15.7,0,23.6  c2.2,5.7,9.5,5.9,6.8,14.9c-4.2,6.7-23.8,4.7-31.2,4.6c-2.1-7.2-4-0.4-6,0c-8.1,1.6-16.2,3-24.5,2.3c-7.3,0-4.2-7.1-4.2-11.7  c0-1,0-2.2,1-2.6c10.4-4,3.2-12.6,4.5-18.9c0.3-1.4,1-4.2-0.3-6.4c-1.8-3-1-6.9-5.7-8.8c-3-1.2-2.7-6.7-2.1-9.9  c0.5-2.8,3.8-4.8,7.1-5.6C1010.5,618.8,1011.7,619.4,1013,618.1L1013,618.1z"
   fill="#6C63FE" />

<path
   id="path36"
   d="M305.9,802.1c-3.7-3-7,0.1-11.1,1.1c-8,1.4-16.4,3.3-24.7,4.6c-6,0.2-7.7-10.8-13-0.2  c-5.6,8.3-9.6-7.6-10.7,1c-0.1,1.1-0.8,2.1-1.8,2.1c-4.2-0.3-8,2.2-12.1,2.2c-24.6,0.3-49.2,1.9-73.7,0.9  c-31.8-3.8-86.3-5.6-99.2-40.7c-15.4-50.7,50.8-67.7,87-77.2c6.2-1.1,11-5.5,16.9-7.3c11.6-3.4,24-4.4,36-4.8  c5.2-0.8,5.2,3.8,0.5,4.1c-6.6,0.7-12.7,3.3-18.7,5.7c-19.9,6.8-40.8,9.3-60.4,17c-7.5,2.8-14.3,7.5-21.6,10  c-5.2,1.7-8.7,7.1-14.7,6.6c-6.5,4-11.2,10.8-17,15.8c-1.5,1.5-1.9,2.6-0.9,5.3c1.7,5.1,0.4,12.2,2.4,17.3  c6.3,3.9,6.2,12.6,12.2,16.3c12.2,3.2,23.4,8.8,35,13.5c17.1,2.5,34.4,3.5,51.8,5c18.9,1.3,38.4,1.3,57.2-1.1  c5.4-0.8,10.9,1.8,16.2,0.5c9.3-2.3,19-0.7,28.1-3.6c20.9-0.2,40.7-7.1,61.2-9.2c4-0.9,6.7,2.5,2,4.8c-1.3,1.2-2.5,2.7-4.6,2.7  c-8.4-0.6-2.4,6.2-7.7,6.5C315.7,800.5,311.2,801.6,305.9,802.1L305.9,802.1z M79.6,782.4c-0.5-1.4-2,0.1-0.6,0.6  c0.5,1.3,1.8,1,1.8-0.4C80.4,782.6,80,782.5,79.6,782.4L79.6,782.4z"
   fill="#6C63FE" />

<path
   id="path38"
   d="M1245,314.7c0.6,5.4-2.4,14.3,5.6,14.4c3,0.4,6.9-1.7,8.9,1.4c5.9,10.7-0.4,22.7,0.6,34.1c0,5-1.8,6.3-6.5,5  c-2.6-0.7-4.9-0.9-7.5,0.7c-3.5,2.1-7.7,0.3-11.7,1.2c-5.7,1.4-10.8,4.6-16.8,3.4c-1.4,0.1-2.7-1.2-2.4-2.6c0.8-5.6-3-10.5-2.7-15.7  c0.4-5.3-1-10.9,0.1-16c-6.7-8.4,11.2-11.6,16.3-11.7c4,0.1,6.5-1.3,6.3-6.1c-1.2-5.1,2.3-30.3-2.3-30.1c-2.9-1.2-2-6.5,1.9-5.7  c12.8,0.2,24.9-3.1,37.2-6.2c13-3.6,26.6-3.5,39.9-5.5c2.9-0.4,3.6-2.3,2.9-4.7c-1.8-6.6-0.9-13.2-0.4-19.8c0.3-3.4-2.3-5.7-1.7-8.9  c-0.9-2-5-0.3-7-0.9c-1.6-0.3-4.4,1.6-4.7-1.8c0.2-7.7,17.2-7.2,23.1-8.2c12.7,1.8,3.5-21.7,8.7-31.2c3.2-11-15.1-0.8-15.1-9.5  c0-3.2,1.8-3.2,4.2-3.3c15.9,1.5,23.9-9.3,23.6,14.3c1.1,9.9-7.7,2.4-7.3,9c-0.7,7.4,6.3,24.6-3.2,26.9c-4,1.4-9.5-0.5-12.1,3.1  c-2.3,3.2,0.1,8.2-0.9,12.2c-1.6,6.6,3.1,12.5,1.4,19c-0.4,1.5,1.6,1.8,3,1.7c21.9-0.1,43.7-3.2,65.6-3c5.1-0.2,5.1,7.3-0.2,7  c-13.4,1.1-26.7,3.1-39.8,5.8c-7.7,1.6-15.5,3-23.5,2.2c-3.8-0.4-5.6,1.4-5.3,5.3c0.4,8.8-1.6,17.5-1,26.4c0.2,2.4-0.2,4.3-3.3,4.4  c-3.4,0.1-3.6-1.8-3.7-4.5c-0.4-9-1-18,1.5-26.8c0.6-2.2-0.6-2.8-2.3-2.7c-6.7,0.4-13.4-0.9-20.2,1.4c-5.8,1.9-12.1,0.6-18.2,1.4  c-7.7,0.9-15.1,3.1-22.8,3.6C1243.5,293.4,1244.9,307.5,1245,314.7L1245,314.7z M1222,355.7c0.5,3.7-2.2,14,4.1,10.4  c5.2-5.3,21.3-1.5,23-7.2c1.6-8.4,11.6-32.7-6.7-22c-5.6,3.2-8-3.4-19.1,1.4c-1.5,0.4-1.4,1.9-1.2,2.9  C1223.2,346.1,1221.2,351.2,1222,355.7L1222,355.7z"
   fill="#6C63FE" />

<path
   id="path40"
   d="M959.4,683.5c-15.6-10.6-20.2-24-16.2-41.6c2.6-14,15.1-21.6,28.9-21.4c7.3-1,13.7,2,20.5,2.8  c3.4,0.4,6.2,3.3,5.2,7.2c-2.2,42.3,20.5,86.5-45.2,77.5c-7.2-0.6-5.3-8.9-5.5-13.9C946.2,684.1,950.8,684.7,959.4,683.5z   M963,651.3c-2.9,16.7,15.1,20.9,16.1,8.1c-0.4-4.6,1.3-20.2-1.3-22.6C969.2,633.4,960.8,642.8,963,651.3z M970.3,693  c10.5,1.4,13.9-15.2,8.1-12.6c-7,4.9-14.6-0.1-16.2,2.8C961,687.4,965.9,693,970.3,693L970.3,693z"
   fill="#6C63FE" />

<path
   id="path42"
   d="M485.2,788.7c-0.3-8,2.9-15.7,4.5-23.7c1-5.2,6.3-8,10.1-11.3c10.5-9,22.9-8.6,35.2-5.5  c14.7,4.7,22.6,22.3,22.9,36.7c2,18.2-5.3,41.3-26.2,44c-3.5,0.8-7.3-0.4-10.5,2C495.5,828.2,487.9,813.2,485.2,788.7z M507,789.1  c0,15.4,2.6,19,15.3,21.9c11.1,2.5,16.4-7.2,14.9-17c3.3-8.1,0.3-15.3-3.4-22.3c-4.2-7.7-6.7-8.6-16.7-6.7  C508.6,767.6,506.3,781,507,789.1L507,789.1z"
   fill="#6C63FE" />

<path
   id="path44"
   d="M621,774c0.2,8.6,2.6,17,2.1,25.7c-1,15.9-15.6,28.7-31.3,26.4c-1.4-0.2-3.7-1-3.7,1.8c0,2-0.7,4.3,2.4,5.2  c10.3,1.2,9.3,16.8-1.1,16.8c-7.9-3.1-23.4,5.1-26.9-3.8c-0.7-3.2-2.2-10.4,2.5-11c5.8,0.7,5.6-3.4,4.7-6.7  c-3.3-15.6-1.7-31.5-3.7-47.2c-0.3-2.2-0.1-3.4-3-2.3c-2.4,0.9-3.9-0.4-4.1-3.3c-0.6-8.6,0.5-12.4,11.8-12.4c4.3,0,8.8-1.3,13.2,0.9  c1.8,0.9,4.2-1.9,6.5-2.7c10.5-3.5,21.9-0.8,26.7,8.5c0.8,1.7,1.6,3.7,3.8,4.2L621,774L621,774z M603,796  c-1.1-5.2-0.6-15.9-6.6-20.1c-1.1-1-2.4-1.7-3.3,0c-3.5,4.3-10.9,7.1-7.4,13.8c1.1,2.2,1.3,4.7,0.6,7C580.6,814.4,604.7,813,603,796  z"
   fill="#6C63FE" />

<path
   id="path46"
   d="M953.1,754.8c-2.3,1-5.1,3.1-7.6,1.6c-1.3-0.9,0.1-10.8,1.6-11.4c5.3-2.3,8.9-5.7,10.4-11.6  c1-3.8,8.9-6.3,12.1-4c2.7,1.9,2.7,5.8,3.1,8.4c1.7,8.7,10.3-2.5,13.2,4.9c3.1,6.5-0.6,10.2-5.3,13.1c-2.2,1.9-7-0.6-7.4,4.1  c-1.4,7.8,1.9,15.5,0.9,23.4c-0.1,3.2,1.8,4.5,4.7,4.6c7,0,13,3.4,19.6-2.1c2.1-1.2,0.3-4.2-0.3-6.4c-1.7-6-0.7-12.2-0.9-18.3  c0.7-11.3-5.1-2.8-7.5-8.1c-2.3-4.8,3-13.6,8.3-14.1c4.2-0.4,8.5,0.6,12.8-0.8c3-1,5.8,1.1,5.1,4.2c-0.9,4.1,0.7,7.9,0.3,11.5  c0.1,9.2,1.2,18.2,1.4,27.4c0.5,3.3,1.6,5.4,4.8,7.2c4,2.2,3.1,6.8,2.5,10.4s-4.1,2.2-6.3,2.1c-8.4-1-17.7,3.7-25.4,0  c-1.9-2-3.9-0.2-5.3,0.7c-12.6,7.7-35,1.4-32.6-16.1C955.5,775.3,952.1,765.6,953.1,754.8L953.1,754.8z"
   fill="#6C63FE" />

<path
   id="path48"
   d="M1464,487c-1.8-6.2,0.1-12.8-2.4-18.6c-0.8-1.9-0.8-3.3,1.1-4.1c5-1.8,5.7,5,6.8,8.4c2.3-1,1.3-3,1.5-4.7  c-0.2-4.1,6.4-4.1,6,0.1c0.3,11.4,1.9,22.9,0.9,34.3c-0.2,2.9,0.7,8-5.5,5.9c-1.4-0.5-1.1,1.1-1.6,1.9c-1.8,3.2-4.5,4.2-6.3,0.7  c-4-7.6-12.2-10.2-17.6-16.2c-6.7-5.3-2.3,12.5-4.8,15c-1.6,2.4-1.3,6.7-5.8,6.3c-4.5-0.6-4.6-5.5-5.7-8.7  c-5,2.9-45.7,13.3-47.6,8.4c0.4-8.2,9.2-2.3,4.6-20.4c-0.9-7-3.8-28.9,2.8-32.5c9.3-2.2,18.2-6.4,28.4-4c7.3,1,6,10.3-0.6,10.1  c-4.9,1.5-12.9-2.3-15.9,2.6c-2.3,4.8,1.6,12.4,7.2,9.2c3.2-1.2,17.1-4,17.3,0.6c0.7,5.7-15.9,9.8-20.7,9.8c-4.4,0-3,3.5-3.2,5.9  c-0.3,5.5,8.9,0.1,11.6,0.1c3.7-0.2,7.7-4.2,11.1,1.5c1,1.6,3.2,0.2,3.5-2.6c1.1-8.8,1.2-18.2,4.8-26.4  C1447.1,464.1,1455.7,478.9,1464,487L1464,487z"
   fill="#6C63FE" />

<path
   id="path50"
   d="M445,698.7c0-6.2-1.2-13.7,7.6-11.7c4.6,0.6,9.9,0.2,9.7,7.4c1.1,4.1,8,2.2,11.3,2.4  c3.9-0.5,8.1-11.5,5.8-14.7c-2.6-3.5-3.4,3.9-9.6-0.7c-5.4-3-11.8-2.8-17.3-6.2c-7.5-4.6-11-16.8-9.3-24.8  c4.3-21.1,29.5-22.9,46.4-17.4c7.5,3.7,5,11.5,7.2,17.8c1.9,5.9-12.4,7.6-15.8,7.1c-5.1-2.5,1.8-11.5-7.9-11  c-14.7,2.7-12.2,12.5,0.6,14.8c8.4,1.4,14,7.6,20.9,11.5c16.3,16.7,1.3,40.5-20.8,40.7c-8,0.8-15.8-0.3-23.6-2.1  C443.4,711,445.3,703.8,445,698.7L445,698.7z"
   fill="#6C63FE" />

<path
   id="path52"
   d="M1118,791.4c-1.2,4.9-4.1,5.9-8,5.5c-6.5-0.6-13,1-19.6,0.2c-3-0.4-4.1-0.9-4.7-4.2c-0.8-5-1.5-9.1,4.7-10.9  c1.3-0.6,2-2,1.5-3.4c-2.3-8.9-0.8-18.2-2.8-27.1c-0.5-5.9-7.5,1.1-7.1-6.2c-1.9-21,21.4-7.1,33.1-13.6c8.8-4.4,24.3,2.7,27.5,11.8  c1.8,10.5,2.7,21.7,2.5,32.4c-0.5,2.6,1.7,3.8,3.7,4.6c5.6,2.3,2.8,7.2,3,10.9s-3.4,2-5.4,2.5c-7.2,1.8-14.5,1.2-21.8,1.3  C1122,795,1119.1,795.6,1118,791.4L1118,791.4z M1118.5,787.4c2.2-2.5,0.4-5.8,3.4-6.3c3.8-0.6,4.2-3.9,3.8-5.9  c-2.9-8.6,4.3-24.9-6.8-28.3c-14.5,1.4-7.8,22.2-8,32.1C1111.8,783.8,1118.1,776.6,1118.5,787.4z"
   fill="#6C63FE" />

<path
   id="path54"
   d="M64.5,512.9c-36.5,2.3-45.6-52.9-8.6-62c25.9-4.5,17.4,13.4,31.3-17c4.8-8.1,10.3-15.6,20-18.5  c5.3-1.8,10.2,2.7,6.5,7.7c-6.7,11.9-14.5,23.1-21.2,35c-1.9,3.1-1.7,6.1-0.3,9.4C102.1,488.4,88.1,513.7,64.5,512.9z M86.4,473.2  c-8.1,7.7-5.3,22.4-17,24.7c-12.1,2.5-15.9-10.7-19.8-19.8c-3.1-8.4,9.1-18.5,16.2-10.6c3.9,3.8,3.7,4.1,6.1-1.2  c1.1-2.8,4.1-6.4-0.7-7.3c-9.9-2.8-18-0.2-25,7.3s-8,18.8-2.6,27.5C59.2,517,93.6,502,86.4,473.2z"
   fill="#6C63FE" />

<path
   id="path56"
   d="M1480.5,137.1c-2.3,4.3,0.4,13.5-7.3,11.1c-10.7-2.1-5-11-7.2-16.5c-0.8-2-0.1-4.6-0.2-6.9  c-0.1-1.5,0.7-3.6-2.2-3.5c-5,0.5-1.9,7-2.8,10.3c-2,15.7-32.4,32.3-35.9,8.6c-0.4-7.1-0.1-14.3-0.1-21.5c-0.5-4.6,4.2-2.7,6.7-4.7  c6.9-4.9,7.8,13.4,6.4,17.3c0,3.2,0.1,7.9,4.2,7.6c13.1-2.3-1.4-20.8,6.5-25.5c11.3-6.9,8.9,2.1,14.2-0.3c11.6-8,40.7-3.3,31.1,15.1  c-4.4,4.5,3.5,4.9,7.3,11.9c8.5,7.8,2.1-16.5,3.4-20c-0.2-10.5,0.5-11.7,10.3-14.3c4.7-1.3,15.3-4.1,16.8,2.8c0,2.2-0.8,3.2-3.1,3.7  c-4.3,1.8-13.7-1.5-11.9,5.9c0.2,6.1,9.7-0.6,13.8,0.9c3.5-0.4,4.5,4.3,1.4,5.6c-3.5,3.5-16.5,2.2-14.9,7.7c1.3,3.1,7-0.1,9.5-0.5  c5.4-3.2,15.2,6,7.8,9.3c-12.1,5-24.6,4.6-37.2,6.6C1490.7,148.6,1486.7,139.4,1480.5,137.1L1480.5,137.1z M1479,114.6  c-1.4,7.2,2.2,13.8,6.3,5.1C1485.6,116,1481.6,116.7,1479,114.6z"
   fill="#6C63FE" />

<path
   id="path58"
   d="M934.1,807c-9.4-0.5-2.5-4.9-16.3,0.3c-34.2,8.9-42.4-48.4-15.9-61.3c11.3-4.9,22-5.9,32.9-0.6  c7-2.4,6.6,2.3,6.3,6.6c-0.3,3.1,0.8,5.9,1.2,8.8c1.6,9.2-1.5,20.5,3.3,28.6c7,0.4,4.1,8.8,4.4,13.6c-0.1,1.1-1.1,1.8-2.1,1.7  C942.6,804.3,938,806.4,934.1,807L934.1,807z M924,776.9c-1.3-3.3,0.2-17.4-2.4-18.5c-3-1.6-10.8,0.9-12.6,4c-4.5,7.3-2.2,15-1,22.5  c0.8,5,4.8,7.6,10.2,7C924.2,790.3,923.4,782.6,924,776.9z"
   fill="#6C63FE" />

<path
   id="path60"
   d="M1325,1017.6c2.1-4.3-5.8-20.2,3.4-19.7c6.9-0.1,11.6-0.3,11.3,8.2c-0.8,4.2,1.3,4.9,3.9,1.7  c7.8-3.3,16.8-23.5,25.4-15.4c2.4,2.3,2.7,4.4,0.2,6.7c-2.7,4.1-17.4,11.6-12.7,16.3c4.6,7.6,12.2,12,18.3,18  c3.1,4.4,1.4,11.1-4.9,9.3c-21.6-0.5-25.8-28.3-28.2-13.1c-0.9,4.7,4.6,11.1,1.1,14.6c-1.9,1.3-4.5,0.8-5.9-1  c-3.3-4.1-10.6,4.2-11-5c-0.1-4.7-2.8-3.5-4.6-1.4c-6,7-14.9,7.1-22.7,9.7c-5.2,2.2-8.3-3.8-13.2-4c-12.5-2.4-10.5-26.7-2.7-33.6  c7.5-6.6,17.2-11.4,27.3-12.3c11.1-0.3,4.1,13.4-3.5,13.3c-6.6,0.6-12,5.3-16.8,9.7c-2.3,2.1-0.7,9.3,2.1,12.4  c5.9,5.3,10.9-4.1,17.2-3.5c7-0.9,3.4,5.7,7,3.4c2-2.6,6.5,0.1,8.2-2C1326.4,1026,1324.6,1022.7,1325,1017.6L1325,1017.6z"
   fill="#6C63FE" />

<path
   id="path62"
   d="M848.8,811h-9c-20.5-1.4,10.4-35.2,14-43.3c4.1-3.7-3.2-5.9-4.8-1.8c-1.7,7.3-18.9,9.1-17.5-1.9  c0-6.2-3.3-15.7,6-16.1c8.5-1,17.1-0.5,25.6-1.5c40.9-5.4,4.8,29.3-2.6,44.6c-1.4,1.9,0,3.1,1.7,2.7c2.4-0.7,6.7,0.4,5.7-4.7  c-0.3-1,0.1-2.1,1-2.7c4.8-3.3,9.7-0.9,14.2,0.2c2.4,0.6,3,3.8,3,6.5c0,14.8,0.1,15.9-15.1,15.8C863,808.9,855.3,812.2,848.8,811  L848.8,811z"
   fill="#6C63FE" />

<path
   id="path64"
   d="M1082.3,772.3c-0.5,16.9-19.3,33.8-36.7,26.7c-21.2,0-22.8-29.2-19.7-44.6c5.1-25.4,44-26.1,53.5-3.7  c0.5,1.2,1.7,2,1.5,3.5C1080.3,759.6,1082,764.8,1082.3,772.3L1082.3,772.3z M1061.3,759.9c-0.6-11.4-13.8-12.7-17.3-1.6  c-1.7,5.9-0.3,11.7,0.7,17.5c0.3,1.7-0.4,3.8,1.6,5c3.1,1.8,6.2,4.3,10,3s4.4-5.2,5.7-8.7C1064.1,769.7,1060.9,764.9,1061.3,759.9  L1061.3,759.9z"
   fill="#6C63FE" />

<path
   id="path66"
   d="M1347.2,959c-7.4,0.7-17.3,2.9-23.1-3.1c-7.9-11.1-17.5-21.1-26.8-31.1c-5.5-7.2-4.9-6.9,0.2-14.1  c8.1-11.6,17-22.8,23.4-35.6c3-4.6,19.6-2.2,25-1.8c8.7,1.1-5.8,18.2-9.1,20.5c-4.2,6.3-6.7,13.8-12.4,19.2c-1.9,2.3-1.8,4,0.3,6.5  c8.3,10,16.4,20.2,24.6,30.3c1.9,2.5,6.6,3.5,5.5,7.4C1353.5,960.4,1349.8,958.6,1347.2,959L1347.2,959z"
   fill="#6C63FE" />

<path
   id="path68"
   d="M1399.6,956c-8.2,0.5-14.5,2.2-18.8-6.3c-7.2-9.4-14.9-18.4-23.2-26.9c-2.8-3.2-6.8-8.2-3.6-12.4  c6.5-8.8,13.1-17.5,19-26.7c3.8-6.4,8.9-14.4,17.3-14.7c4.9,1.4,19.8-3.6,17.5,5.1c-0.9,3-1.9,6.4-4.1,8.2  c-6.7,5.8-9.4,14.3-15.6,20.4c-2.4,2.5-3.2,6.7-5.5,9.7c-0.8,1.1-0.4,2.1,0.4,3.1c9.7,11.9,20.3,22.8,27.6,36.3  C1413.6,957.5,1402.8,955.8,1399.6,956L1399.6,956z"
   fill="#6C63FE" />

<path
   id="path70"
   d="M976.4,1094.9c-9.8,12.1-31.7,17.7-42.9,5.4c-1.1-1.2-2.5-2.3-1.4-4.3c1-1.8,2.2-1.4,3.7-0.6s2.1-0.4,2-1.7  c-0.5-6.7,1-13.2,1.1-19.8c0.5-4.7-7.5-2.6-7-8.1c0-3.7,3.4-2,5.1-3.1c11.6-7,31.3-5.4,35.9,9.1c0.7,3.7,4.5,5.7,4.6,10  c0,2.8-1.1,7.3,1.2,8.3c9.6,0.8,8.5-2.4,18.6,3.6c3.8,1.3,6-1.9,3-4.9c-5.6-9.4-22.6-9-22.3-21.5c2.1-9.2,14.5-13.7,23-10.6  c6.4,0.9,7.4,12.8-0.7,10.3c-2.4-0.4-5.5-3.1-7.2-0.2c-2.4,5.5,12.1,13.6,16.5,15.6c18.1,8,3.2,21.7-10,20.4  C990.7,1101.9,980.1,1106.1,976.4,1094.9L976.4,1094.9z M950.3,1070c-0.7,6.7,0.4,12.8-1.2,18.9c-0.4,1.6-0.7,3.9,1.5,4.8  c2,0.8,4-0.2,5.5-1.4C965.9,1085.8,961.6,1072,950.3,1070z"
   fill="#6C63FE" />

<path
   id="path72"
   d="M1218.7,879c3.9,0.6,15.6-2.3,11.8,4.8c-1.9,3.3-3.5,7.1-6.9,9.3c-3.2,2.1-4.4,6.1-5.7,9  c-2.9,6.5-8.3,10.9-11.7,16.9c-8.5,9.5,42,42.9,23.3,46.8c-5.8,0.5-11.5-0.3-17.3,0.9c-3.7,0.7-5.7-3.3-7.5-5.8  c-8.9-12.9-21.7-22.4-29.1-36.4c-2.1-3.1,2-6.6,4.4-8.9c6.1-7.3,10.2-16.2,16.4-23.6C1203,878.8,1203.7,878.5,1218.7,879L1218.7,879  z"
   fill="#6C63FE" />

<path
   id="path74"
   d="M165.3,460.5c-10.3,15.8-46,27-46.2-0.2c-2.5-11.3,4.8-20.6,13.9-25.3c20.6-0.2,20.4,5.1,32,20  c2.3-1.7,2.3-4.1,2.1-6.4c-0.3-3.9,1.6-7.3,2.4-11c0.4-2.1,10.6-1.9,12.8,0.1c4.5,4.1,8.8,8.6,12.8,13.2c0-4.8,0.3-9.5-1.3-13.9  c-2-3.7,2.3-6.6,4.6-3c1.2,1.7,1.8,1.9,2.8-0.1c1.7-2.4,6.5-0.6,5.8,2.4c-2.5,11.2,8.6,35.3-8.6,36.7c-1.4,0.1-2.7-0.6-3.3-1.8  c-3.2-5.8-9.6-8-14-12.5c-5.4-4.2-1.3,11.9-4.6,14.4C168.9,485.1,166.7,466.7,165.3,460.5L165.3,460.5z M134.5,453.1  c0.7,11.4,15,13.4,17.5,2.8C152.2,449.1,135.9,442.5,134.5,453.1z"
   fill="#6C63FE" />

<path
   id="path76"
   d="M1137.3,677c-15.7,0-29-4.6-31.2-20.9c-7.4-23.5,5.2-45.7,31.2-45.1c22.5,4,25.4,28.9,4.5,38.6  c-3.5,1.7-7.2,3.2-11.2,3.4c-1.8,0.1-3.6,0.4-3.4,2.6c2.5,6.5,13.4,4.7,18.3,1.7c2.4-1.5,5.8-2.7,7.7-0.2c2.2,2.8,4.2,6.2,3.8,10.3  C1152.4,673.6,1144.4,678.2,1137.3,677L1137.3,677z M1125.2,634.3c-1.2,9.1,11-0.6,12-4.7c1-2.4-0.8-3.2-2.2-3.4  C1131.1,625.8,1125.6,630.9,1125.2,634.3L1125.2,634.3z"
   fill="#6C63FE" />

<path
   id="path78"
   d="M1157.8,968.9c-9,2.7-12.5-5.5-17.4-11.3c-7.3-8.6-14.8-17.1-22-25.8c-4.5-5.5-3.9-5.3,0.5-10.5  c8.6-11.6,15.7-24,24-35.8c1.8-3.1,5.6-4.6,9-3.4c6.2,3,14.3-2.4,18.3,1c4.3,8.3-8.5,12.3-9.8,20c-1.7,7.3-19.2,18.7-14.3,25.3  c7.7,10.7,16.7,20.1,25.1,30.2c1.3,1.8,4.2,3.4,2.5,5.8C1169.8,970.2,1164.5,968.9,1157.8,968.9L1157.8,968.9z"
   fill="#6C63FE" />

<path
   id="path80"
   d="M1274.1,962.8c-5,1.7-8.6-1.4-10.8-5.3c-4.5-10.7-32.5-29.9-27.2-40.4c3.8-8,9.8-14.3,14.7-21.5  c6.3-7.5,9-19.8,21-19.8c5.6-0.4,21.8-1.7,15.9,8c-7.5,10.9-15,21.8-22.9,32.5c-2,2.7-1.8,4.5,0.2,6.8c4.8,5.5,9.1,11.5,14.5,16.4  c4.7,4.3,7.6,10,12.4,14.2c2.5,2.1-0.2,8.2-3.7,8.2C1283.6,961.8,1279.1,963.7,1274.1,962.8L1274.1,962.8z"
   fill="#6C63FE" />

<path
   id="path82"
   d="M503,681.3c-2.2-23.9,16.5-41.3,39.4-34.4c9,4.3,13.4,15.4,9.8,25.1c-4.1,10.7-14.5,12-23.6,14.8  c-1.2,0.6-3.5-0.7-3.6,1.6c-0.1,2.1,1.8,2.8,3.4,3.7c10.3,6.6,15.6-7,22.1-2.9c10.9,9.9-2.5,21.9-13.2,21.6  C518,710.4,502.7,705.6,503,681.3L503,681.3z M523,668.5c-1.4,8.3,18.2-3.3,10.4-7.2C530.7,659.9,523.2,664.8,523,668.5z"
   fill="#6C63FE" />

<path
   id="path84"
   d="M109.6,1025.4c-6.1,5.8-12.3-5.7-6-9.5c11.9-8.9,28.5-8.6,42.1-4.6c10.6,3.4,16.7,21,6,27.4  c-1.7,1.6-1.9,2.8,0,4.4c3.8,4.1,23.4,17.2,13.7,22c-8.5,4.2-10,3.9-19.7-5c-3.3-2.3-15.3-17-14.6-5.5c0.8,5.7-2.3,21.6-9.8,12.8  c-3.5-4.4-10.1,5-10.3-7.2C110.2,1048.7,113,1036.5,109.6,1025.4L109.6,1025.4z M128.1,1016.3c1.4,4.7,3.2,8.9,3.1,13.7  c0,1.5,0.7,3.9,3,2.6c3-1.8,11.6-8.9,7.9-12.3C137.5,1019,133.6,1015,128.1,1016.3L128.1,1016.3z M119.4,1026.8  c4.7-9.4-3.4-9.1-1.8-4.8C118.7,1023.3,117.4,1025.2,119.4,1026.8z"
   fill="#6C63FE" />

<path
   id="path86"
   d="M182.6,1066.9c-1.9,1.8-3.9,3.4-6,5c-4.4,3.4-9.8-0.3-6.8-5.5c3.2-8.9,9.1-16.2,14.2-23.9  c6.8-9.4,12.8-20.3,20.4-28.6c8-0.5,1.8-7.5,7.4-7.9c2.9-0.1,6.1-0.3,7.7,2.3c6.8,11,13.2,22.3,17.4,34.6  c1.5,6.9,10.7,19.9,5.4,25.9c-2,0.9-2.4-1.1-3.3-2.2c-1.7-1.8-2.4-5.5-5.3-5.5c-2,0.3-1.8,2.1-1.8,3.5c0.4,3.6-4.6,4.5-5.7,1.2  c-1.6-2.7-3.6-5.2-4.8-8c-3.4-8-19.9,5.2-27.7,3.2c-5.5,0.6-3.4,11.3-9,11.7C181.9,1072.4,182.7,1069.3,182.6,1066.9L182.6,1066.9z   M209.1,1044.9c2.5-0.5,7.8,1.5,7.4-2c-1.1-4.1-2.2-8.2-3.5-12.2c-0.5-1.5-1.8-2.5-2.6-0.4c-1,2.8-3.4,4.4-4.8,6.8  C201.4,1042.6,201.2,1046,209.1,1044.9L209.1,1044.9z"
   fill="#6C63FE" />

<path
   id="path88"
   d="M152.4,510.1c1.8-9.7-0.6-15.8,11.4-16.9c7.2-0.9,13.9-3.3,20.8-5.2c3-0.9,7.5-4.1,7.1,3.1  c3,2.5,4.6,6-0.5,6.9c-5.7,1.7-24.5,4.2-23,12.2c1.3,3.7,4.4,0.8,6.4,0.6c5.7,0.1,14.2-7.7,18.1-0.9c4.5,11.1-27.8,8-26.9,16.5  c-0.6,4.2-1,13.2-7.1,12.7c-2.8-0.4-1.7-2.5-1.7-3.9c0.3-4.2-2.4-7.8-2.3-12.1c0.1-2.4-1.9-1.6-3-0.3c-9,10-30.7,18.5-41.2,6.6  c-6-12.2-1.9-29.8,10.6-36c8.1,1.2,19.1,0.5,24.6,9.1C147.6,505.3,148.8,508.4,152.4,510.1L152.4,510.1z M141.1,515  c0.7-6.9-15.9-13.5-17.5-3.2c-0.5,3.4,5.6,10.3,8.8,10.2C137.1,521.9,141,518.8,141.1,515z"
   fill="#6C63FE" />

<path
   id="path90"
   d="M495.7,1016.9c3.8,0.4,8-0.3,12.3-0.9c3-0.4,8,5.2,6.8,7.9c-3.8,9.4,0.8,18.9-6.7,27  c-6.5,7.8-6.7-8.8-15.6-3.6c-6.7,1.9-15.2,7.1-20.8,0.6c-12.5-11.6-24.4-34.2-7.1-47.1c11.6-9,28.2-24.5,42.8-12.8  c4.4,3,2.9,10.2-3.1,7.2C489.3,992.2,467.7,1021.3,495.7,1016.9L495.7,1016.9z M476,1006.8c-11.2,13.1-1,39,15.6,33.6  c1.1-0.2,3-0.4,2.6-2.3c-3-3.7-8.9,3.2-13.2-8.3c-1.7-8.6-10.8-5.7-7.6-12.1C476,1014.5,474.3,1010.8,476,1006.8L476,1006.8z"
   fill="#6C63FE" />

<path
   id="path92"
   d="M331.2,969.1c-1.6-5.7,4.9-14.9-2.3-18.7c-3.8-2.9-22.4-9.5-11.7-14.3c10.1-3,21.8-5.1,21.1-19  c8.7-25.1,7.1,15.8,32.6,8.3c3.1,0.3,9.2-2,10.1,2.2c0.1,1.2,0.5,2.4-1,3.5c-4.5,3.2-5.8,9-9.9,12.8c-4.8,5.6,2.9,15.6,4.6,21.7  c1.9,2.5-2,6-4.1,4.1c-4.6-4.6-11.6-1.8-16.4-5.6c-1-0.7-2.4-0.6-3.3,0.2c-3.4,4.1-9.4,4.9-12.3,9.7c-1.3,2.1-3.4,4.2-6.2,2.9  C329.6,975.5,331.5,971.5,331.2,969.1L331.2,969.1z"
   fill="#6C63FE" />

<path
   id="path94"
   d="M328.4,1037.9c-6.1,5.1-3.7,11.7-2.1,17.6c3.9,7.7-3.5,12.1-8.1,4.6c-1.2-1.7-2.4-5.5-4.7-0.5  c-1.7,3-7.2,1.2-6.5-2.4c-1.8-14.9-0.6-30.2-3.7-44.8c-0.6-1.4-0.5-3.7,1-3.9c8.2-2.6,19.1-2.3,17.8,9.1c-0.1,1.5-0.8,3.7,1,4.5  c9-4.8,16.3-14.9,24.6-21.5c3.5-2.9,6.3-2.6,9.8,1c6.8,4.8-11.6,16.3-15,20.2c-2.4,1.9-2.9,3.4-0.7,6.5c5.4,7.7,12.2,14.2,20.1,19.4  c3.6,2.3,3.2,6.2,4.1,9.5C358.7,1069.6,329.7,1049.4,328.4,1037.9L328.4,1037.9z"
   fill="#6C63FE" />

<path
   id="path96"
   d="M244.4,981.9c-1.1-0.4-3.6-0.4-3.2-2.8c0.5-2.8-0.7-6.3,0.2-7.9c1.8-3.1-0.1-6,1-8.5  c1.9-4.3-0.4-5.9-3.4-7.7c-37.3-19.8,11.6-9.4,10.8-29.6c-0.5-3.3,1.6-11.6,5.3-11.3c2.1,0,1.4,2,2,2.6c3.6,3.4,5.2,8.1,8.9,11.5  c4.8,4.4,10.4,2.9,15.6,2.3c3.4,0,13.9-0.3,9.4,5c-14.2,19.4-13.8,13-5.5,35.7c1.6,3.9-1.3,5.1-3.6,3.6c-3.1-1.9-17.8-6.9-20.3-4.9  c-4.7,3.3-10.6,4.8-13.4,10.5C247.4,981.5,245.9,982.2,244.4,981.9L244.4,981.9z"
   fill="#6C63FE" />

<path
   id="path98"
   d="M153.1,979c3.1-23.9,1.1-14-16.6-27.4c-8.6-8.3,25.8-5,24.5-22.1c0.3-3.5,0.6-10.6,5-10.5  c1.6,0.2,2.8,0.7,2.5,2.8c-0.1,3.3,5,3.1,5.3,6.5c3.7,15.6,36-0.9,28.1,12.3c-4.1,3.4-5,9-9.5,12.4c-7.4,5.9,8.3,22,3.6,26.4  c-1.2,1-3,0.9-4.1-0.3c-4.4-5-11.8-1.7-16.6-5.9c-0.7-0.6-1.9,0-2.7,0.7c-3.7,3.5-8.5,5.3-11.7,9.5c-1.4,1.9-3.1,4.4-6.1,3.2  C151.5,985.2,153.7,981.6,153.1,979L153.1,979z"
   fill="#6C63FE" />

<path
   id="path100"
   d="M420.1,968.9c-0.7-5.1,3.6-20-0.6-22.3c-19.1-10.8-24.5-14,1.1-19.8c2.9-0.3,7.9-8.6,7-11.7  c-1.1-4.1,1.5-7,3.1-10c4.1-5.8,9.4,12.9,14.9,14.1c3.9,4.9,30.2-3,23.1,6.7c-3.6,3.8-5.6,8.7-9.4,12.6c-3.4,3.5-0.6,8.6,0.6,12.5  c0.2,3.8,9,16.2,0,13.7c-4.6-3.8-10.5-3.2-15.6-5.2c-7.6-1.4-14.3,6.3-18.9,11.5C423.5,974.3,419.1,972.8,420.1,968.9L420.1,968.9z"
   fill="#6C63FE" />

<path
   id="path102"
   d="M1179.9,1051.1c-8.9-0.2-8.6-0.2-9-9c0-8.7-3-17.1-3.9-25.6c1.3-7.8-6.8-3.9-6.1-10.1c1.3-3,1.4-7.7,5.4-8.2  c4.3-0.5,7.4-2.4,11-4.5c10.3-5.3,21.9,3.4,31.2,7.7c12.3,7.9-1.3,19.2,6.9,19.8c13.8,2.7-0.6,19.5-7.9,21.9  C1198.2,1045.5,1189.7,1051.2,1179.9,1051.1z M1185.6,1002.9c-13.2-0.9-12.5,9.4-8.7,5.3c4.8-6.6,8.7,2.5,8.9,7.1  c0,4.2,2.5,4,5.3,3.6c3.2-0.5,8.9-7.3,8.8-10.5C1200.3,1004.5,1188.4,1002.7,1185.6,1002.9L1185.6,1002.9z M1202,1032  c-5.2-5.5-16.9-5.4-15.7,3.5c0.2,2.1,2.4,1.7,3.6,1.1C1193.6,1034.5,1198.1,1034.7,1202,1032z"
   fill="#6C63FE" />

<path
   id="path104"
   d="M195.1,506.3c-0.8-11.2,3.5-14,8-15c8.7-1.2,17.3-3.3,25.6-6.5c2.8-0.9,5.6-2.2,5.5,2.7  c0,2.4,3.1,3.3,3.3,5.9c0.1,1,1.3,0.1,1.9-0.3c13-7.4,30.7-7.3,42.5,2c3,3.7,3.4,9.8-1.7,12.7c-6,3.3-12.3,6-18.9,8  c-9,1.3,1.2,15-10,13.1c-2.8-0.8-2.1,4-5,2.4c-7-4.2,5.4-33.9-5.3-32.2c-1,0.2-2.5,0.3-2.8-0.6c-1.5-5.6-5.8-2.9-8.5-2.4  c-5.1,1.2-10.1,2.8-14.9,5c-2.5,1-4.8,3.3-3.4,6.3c3,4.8,14.1-3.8,19.4-2.7c1.8,0.1,4-0.3,4.2,2.3c2,9.1-14.5,9.2-20.4,11.6  c-4.2,1-7,2.1-6.6,7.2c1.3,4.5-6.3,14.9-8.7,7.6C199.2,524.2,194.4,515.6,195.1,506.3L195.1,506.3z M255.3,499  c-0.9,15.6,10.7,10,11.8,1.1C267.3,494,257.1,494.4,255.3,499z"
   fill="#6C63FE" />

<path
   id="path106"
   d="M285.1,1033.3c-1-8.1-0.9-16.2-3.8-23.9c-0.5-1.5-0.1-2.8,1.4-3.2c6.3-2,4.8,3.6,7.8,6.4  c1.7-0.6,1.5-2.2,2-3.4c1.2-4.9,7-4.3,6.7,1c0.6,13.4,2,26.8,1.1,40.2c-2,9.8-6.3,2.3-8.4,7.8c-1.5,2.6-6.4,2.7-7.5,0.1  c-3.5-7.8-11.4-10.8-17.2-15.9c-1.7-1.1-3-4.6-5-3.2s-2.8,5-1.9,7.7c1.8,5.9-0.6,16.5-7.1,18c-13.9-2.8-6.7-40.8-4.2-51  c0.6-1.9,1.4-3.5,3.2-2.8c2.7,1,5.1,0.2,7.6-0.1C269.8,1012,277.9,1026.5,285.1,1033.3z M274.2,1035c-2.1-4.5-4.4-7.4-7.9-9.3  C267.7,1029.3,269.3,1032.9,274.2,1035z"
   fill="#6C63FE" />

<path
   id="path108"
   d="M435.1,1022.9c1.4-6.6-5.2-21.3-0.8-25.8c5.5-0.7,6.7,7.2,6.8,12.1c2.8-2.6,1.8-5,1.9-7  c-0.7-5.6,7-5.4,7-0.1c1,13.3,1.3,26.6,0.9,39.9c-0.1,3.1-0.5,7.4-5.9,6c-2.5-0.7-4.8,8.7-9.7,1.5c-4.8-8.7-14.4-11.7-20.8-18.4  c-6-4-1.3,17.7-5.8,21.4c-1.5,4.5-9,4.8-9.7-0.6c-2.3-8.6-5.2-16.8-2.4-26.3c1.7-5.7,2.6-11.5,2.6-17.5c0-3.2,1.4-6.4,5.9-4.6  c0.8,0.3,1.7,0.7,2.3,0.1c7.7-7.1,21.3,15.3,26.9,19.9C435.1,1025.5,437,1023.8,435.1,1022.9L435.1,1022.9z M424.3,1025.8  c-1.2-3.6-3.8-6.5-7.2-8.2C418.5,1020.9,419.6,1024.3,424.3,1025.8z"
   fill="#6C63FE" />

<path
   id="path110"
   d="M822.5,1093.1c2.2-8.4,4.6-16.6,6.4-24.8c0.9-4,3-4.8,6.4-4.2c5.2,1.7,10,0.3,7.3,7.8  c-2.7,12.6-8.3,24.7-11.6,36.8c-0.9,7.8-14.1,5-17-0.5c-2.3-3.8-5.8-4.9-9.1-6.8c-1.8-1-2.3,0.6-3.2,1.4c-7.1,7-11.3,16.3-22.3,9.7  c-7-5,1.8-31,3.6-38.8c1.1-6.1,8.8-6,10,0c2.6,5.2-0.8,14.9,2,18.2c6.7-3.9,10.8-22.4,19.6-11.8c2.4,2.5,6.2,4.2,4.6,9  C819,1090.2,820.3,1092.2,822.5,1093.1L822.5,1093.1z"
   fill="#6C63FE" />

<path
   id="path112"
   d="M1225.4,1049.2c-3.2,5-13.4,6.1-9.9-2.3c3.5-8.6,9.5-15.7,14.4-23.4c4.9-5.4,10.8-19.5,16.9-21.1  c4-0.3,0-6.6,5-6.4c12.9,1.1,21.1,35.9,26.3,46.7c2.7,5.3-2.6,8.7-5.5,3.1c-1-1.3-2.7-6.2-4.1,0.1c-1,4.3-5.7,1.6-6.7-1.3  c-4.4-7.7-4.4-7.6-13-4.8c-4,1.3-7.8,3.4-12.3,3.2c-1.8-0.1-2.9,1.4-3.5,3C1231.1,1050.9,1229.4,1056.2,1225.4,1049.2L1225.4,1049.2  z M1248.7,1028.9c6.6,0,6.8,0,4.9-5.1c-0.8-2.2-0.3-6.4-2.4-6.3c-2.5,0.1-4.1,3.6-5.6,6.1  C1242.7,1028.9,1242.7,1028.9,1248.7,1028.9z"
   fill="#6C63FE" />

<path
   id="path114"
   d="M1169.5,158.4c1.8-8-0.9-14.6,4.6-19.8c3.8-3.6,22.5-14.3,24.9-6c1.5,7.8-13.4,7.6-18.3,14.3  c-3.3,2.8-1.5,5.5,0.1,8.3c1.9,3.2,4.1,1.8,6.4,0.9c3.5-1.5,6.8-5.8,10.7-0.2c1.4,0.6,6.4-2.6,7.7,0.4c0.9,1.6-0.5,2.3-1.4,3.3  c-7.3,7.4-19.4,10.4-29.7,4.4c-1.9-1.1-2.6-2-4.6,0.4c-7.3,7-15.2-5.3-21.5-9.6c-1.4,4.5,0,9.2-3.1,12.2c-3.2,1.6-10.3-2.7-10.4-6.3  c-1.1-4.1,1.2-20.8-3.7-20.6c-3.8-0.5-4.6-3.8-2-6.8c6.9-6.7,18-5.9,26.6-3.9c7.2,1.8,10.5,11.1,6.1,17.1  C1158.9,151.2,1166.5,153.9,1169.5,158.4L1169.5,158.4z M1147,137.4c0.9,1-0.1,4.4,2.3,4.6s4.2-2.5,4.2-4.8c0.1-2.5-2.9-2.2-4.6-2.9  C1147.1,133.6,1146.9,135.2,1147,137.4L1147,137.4z"
   fill="#6C63FE" />

<path
   id="path116"
   d="M1406.9,291.4c1.3,25.1-10.2,29,9.5,27.7c17,0.2,7.2,21.9,14.2,31.7c1.7,10.8-34.8,12.1-42.4,15.9  c-11.5,3.3-8.3-16.5-7.8-23.3c2.2-8-6.2-19.6,6.7-20.4c2.7-0.4,5.2-2,8.1-2.1c1.3-0.1,1.9-1.2,1.8-2.6c-1.1-10.8,2.7-21.3,1.9-32.1  c-0.3-3.3,0.5-6.6-0.9-9.9c-0.8-1.4-0.2-3.2,1.2-3.9C1409.1,271.1,1406.7,284.5,1406.9,291.4L1406.9,291.4z M1420.9,346.1  c0.5-4.8-1.5-8.9-1.9-13.4c-0.2-2.6-2.1-2.7-4-2.4c-5.1,1.4-25.6,0.2-26.8,5c2.6,5.6-4.9,18.9,5,18.7  C1398.9,351.9,1424.2,356.1,1420.9,346.1L1420.9,346.1z"
   fill="#6C63FE" />

<path
   id="path118"
   d="M1243.1,523.9c-18,0.4-18.3-12.5-20.1-25.5c-1.3-8.3,4.8-12.6,9.7-17.4c2.8-1.5,4.5-5.4,7.6-5.9  c10.9,1.1,24.3,2.1,28.7,13.9C1291.6,509.5,1259.1,521.4,1243.1,523.9L1243.1,523.9z M1261.3,507.8c-2-4.3,3.7-7.8,0.2-11.4  c-4.6-5.9-17.2-10.7-20.4-1.1c-0.8,5.1,2.8,8.5,6.2,11.8C1253.6,513.4,1255.3,502.5,1261.3,507.8L1261.3,507.8z"
   fill="#6C63FE" />

<path
   id="path120"
   d="M1318.3,478.1c12.2-21.2,7.9,27.5,8.6,32.9c0,3.4-0.5,6-4.7,6c-0.5,0-1.2-0.1-1.4,0.2c-5,6.8-6.8,1.1-10-2.1  c-4.6-4.5-10.1-8.2-15.3-12.2c-2.7-3-4,4.5-3.4,6.1c2,4.5-0.3,7.9-2,11.6c-1.8,4.9-8.4,4.3-9-0.9c-4.6-11.9-0.8-24.2,0-36.2  c0.7-3.4,1.4-5.4,6.5-6.3c13.3-1.3,16.6,11.4,26.1,17.5c-0.6-5.1-1.1-10.2-1.9-15.2c-0.4-2.4-2.3-5.1,1.1-6.4  C1316.6,471.7,1316.6,475.7,1318.3,478.1L1318.3,478.1z"
   fill="#6C63FE" />

<path
   id="path122"
   d="M1513.2,1000.3c9.7-3.5,20-26.1,29.5-16.9c2.8,3,0.3,5.1-1.8,7c-2.9,4.4-16.4,10.4-11.4,15.8  c4.6,5.7,9.1,11.4,15.7,14.9c3.9,2.1,3.7,6,4.6,9.4c0.4,1.8-1.3,2.2-3,2.5c-10.1,1.4-23.6-6.4-27.6-15.7c-0.4-1-0.2-2.7-1.8-2.3  c-5.2,3.8-1.1,11.4-0.4,16.6c1.4,3.9-3.8,6.1-6.1,2.8c-1.9-2.1-3.3-4.4-7-1.7c-2.1,1.5-4.9-0.8-4.8-3.8c1.9-7.7-7.8-40.4,2.2-40.3  C1511.9,986.4,1512.9,991.1,1513.2,1000.3L1513.2,1000.3z"
   fill="#6C63FE" />

<path
   id="path124"
   d="M1335.6,115.1c9.5-2,11.5,8.4,2.6,8c-3.7,0.4-10.8-1.3-10.1,4.4c1.6,9.4,14.1-3.2,17.8,3.3  c0.9,2.5-0.9,3.7-2.8,4.7c-3.4,1.6-6.8,3.3-10.7,3.6c-2.2,0.1-3.7,0.9-3.3,3.2s2.4,1.8,3.9,1.6c4.4-0.8,8.7-3.8,13,0.2  c2,1.2,1.9-2.2,2-3.4c1.9-12.2,10.2-19.8,22.8-20.6c2.4-0.2,5.8-1.3,6.1,2.9c0.3,3.4-1.7,5.6-5,6.3c-6.2,2-19.2,7.6-13.6,15.5  c2,3.2,4.4,2.5,7.3,1c3.2-1.7,6.5-5.5,10.2-0.2c23.3-3.9-10.1,21.8-25.6,6.2c-1.2-1.1-1.9-1.6-3.7-0.6c-8.8,4.9-18.9,4.9-28.5,6.7  c-1.8,0.8-3.9,0-4.7-1.8c-1.9-3.8,4.4-3,3.7-6.4c0.7-10-2.1-19.8,0.2-29.6C1317.1,117.1,1332.6,114.9,1335.6,115.1L1335.6,115.1z"
   fill="#6C63FE" />

<path
   id="path126"
   d="M1479.7,1008.9c3.2-5.3-2.5-10.6-0.7-19.9c0.3-5.1,6.6-0.2,6.3,2.8c1.4,0,1.4-0.8,1.6-1.4c2-6.2,6.9-3,7,2.2  c-0.1,9.5,0.4,18.9,0.9,28.3c0.2,3.6-1.2,6.1-5.3,8.9c-6.8,4.6-7.8,1.9-11.7-2.8c-3.6-4.3-9.3-7.1-13.7-11.2  c-5.6-3.1-2,9.8-3.3,12.4c-1.1,9.8-11,11.4-11.7,0.6c-2.7-10.4-0.5-20.6,1.5-30.8c0.4-2.1-0.9-6.1,2.8-6c4.2,0.2,8.8-3.3,12.9,1.6  S1476,1002.4,1479.7,1008.9L1479.7,1008.9z"
   fill="#6C63FE" />

<path
   id="path128"
   d="M745.3,1045.4c-1.8-4.9,5.8-24-0.9-24.6c-2.2-0.5-4.1-1.9-4.3-4.2c-0.3-3,2.5-2.3,4.2-3  c13.2-7.4,32.9-6.5,37.8,10.5c7.2,11,4.3,26.3-9.1,30.6c-9.8,3.6-23.9,6.1-31-3.6c-1.1-1.5-2.5-3.4-1.3-5.4  S743.6,1046.9,745.3,1045.4z M770,1032.2c-0.6-4.2-3.3-7.8-7.6-10.4c-6.7-4-3.2,16.2-5,19.7C759,1050.8,770.9,1038.3,770,1032.2  L770,1032.2z"
   fill="#6C63FE" />

<path
   id="path130"
   d="M1550.9,1021c-0.6-4.3,1.6-4.3,5.9-5.2c9.3-3.3,15.6,9.4,22.5,3.7c1.7-2.1-0.5-3.6-1.4-5.2  c-6.1-12.8-29.5-11.1-27-27.9c2.9-11.1,18.4-15,28.5-10.7c6.2,1.9,8.4,13.8-0.5,12.1c-3.5-0.5-8.2-4-11.2-0.7  c-1.9,6.3,10,13.4,14.7,16.5c6.5,3.5,20.1,8.4,15.6,18.2c-2.9,6.3-14.1,9.5-20.6,8.7C1568.2,1029.1,1550.7,1036,1550.9,1021  L1550.9,1021z"
   fill="#6C63FE" />

<path
   id="path132"
   d="M1520.1,473c-8.1-0.1-10.9-1.1-9.1,8.1c1.2,9,1.2,18.2,0,27.2c-0.3,4.5-6,6.2-6.2,1.2  c-0.7-2.3-2.5-3.5-3.9-5.1c-9.8-6.4-0.3-33.7-8.6-30.2c-4.2,0.9-9.8,3.4-12.7-1.2c-1.5-1.9-0.7-3.3,1.3-4.8s-1-1.3-1.4-2.1  c-3.1-3.6-1.1-9.3,4-8c15.2,0.6,30-4.9,44.9-7c2.5-0.4,6.5-1.6,6.4,3.5c-0.1,4-3.6,5.3-6.2,6.1c-8.4,2.6,0.9,6-0.5,10.1  C1526.6,474,1523,472.8,1520.1,473L1520.1,473z"
   fill="#6C63FE" />

<path
   id="path134"
   d="M156.4,725c7.1,1.2,15,0.3,19.4,8.2c2.3,4.1,1.7,11.5-1.8,14.8c-2.3,2.2-0.4,3.2,0.9,4.3  c3.4,3.6,13.8,10.1,10.3,15.6c-6.2,8.2-14-1.9-19.7-6c-2.5-2.4-8.4-8.3-7.5-0.7c-0.5,3.5-0.9,12.7-6.1,10.5c-1.8-4-9,1.3-9-5.8  c0.1-8-0.6-16-1-23.9c-0.1-1.6,0.6-3.8-2.6-3.2c-1.7,0.3-4.4,0.9-4.8-1.2C133.4,726.9,148.6,725.3,156.4,725L156.4,725z M157.7,731  c-0.8,0.2-2.1,0.4-1.3,1.7c0.9,1.6,0,3.5,1,4.7c1.2,1.7-0.5,5.2,2.5,5.2c2.4,0,4-2.6,5.2-4.8C168.8,733.4,160.6,732.7,157.7,731  L157.7,731z"
   fill="#6C63FE" />

<path
   id="path136"
   d="M1361.9,500c-1.3,6.4,3.5,18.1-4.2,20.8c-2.9,0.7-2.6-2.2-3-4c-9.7-7.5-8.8-17.2-8.7-28.2  c1.9-15.9-16.5,5.7-14.7-11.9c0-1-1.5-2-2.2-3.2c-2-3.3-0.5-6.4,3.4-6.4c13.9-0.2,27.1-4.4,40.7-6.6c10.9-2.2,19.5,2.7,5.3,9  c-8,3.6,2.7,5.4,0.2,10.1c-0.9,1.6-2.7,2.5-4.6,2.1C1357.2,477.7,1363.1,488.3,1361.9,500L1361.9,500z"
   fill="#6C63FE" />

<path
   id="path138"
   d="M243.3,766.2c0.8,3.4-3,5.2-4.8,2.6c-1.4-2.3-2.5-5.3-4.3-0.1c-0.7,1.9-2.9,1.9-4.6,0.3  c-5.3-8-6-9.7-15.5-5.5c-5.6,3-10.1-0.9-12.7,7.5c-0.5,1.5-2.2,3.3-4.2,1c-1.4-1.7-2.2-0.1-3.2,0.5c-5.4,5.6-9.3,0.1-6.3-5.7  c3.7-7.3,20.7-36.1,27.3-37.9c1.3-0.1,1.9-1.2,2-2.5c0.1-1.5-0.5-3.5,2.3-3.4C228.4,720.2,241.6,758.7,243.3,766.2L243.3,766.2z   M218.5,752.6c1.8,0.4,3.6,0,3.1-1.5c-0.8-2.8-0.1-6.4-3.2-8.2c-0.9-0.5-6,6-5.6,7.5C213.6,754.1,217.2,750.9,218.5,752.6z"
   fill="#6C63FE" />

<path
   id="path140"
   d="M345.5,441c11.6,0,11.5,0,11.6,11.9c0,4.4-0.1,8.6-2.8,12.3c-5.2,7.8-7.1-2.9-12.7-0.7  c-4.5,0.9-11.4,4.6-15.2,1.1c-21.6-20.5-15.6-35.1,9.4-47.5c6.4-3,18.8-1.8,18.1,6.2c-0.7,1.9-2.3,1.6-4.1,1.4  C337.5,424.8,323.9,444.4,345.5,441L345.5,441z M326.2,445.8c0,7.4,6.7,17.1,14.2,11.8C331.8,458.2,333.5,447.8,326.2,445.8z"
   fill="#6C63FE" />

<path
   id="path142"
   d="M385,505.8c-0.6,5.1-0.6,24.9-9.5,18.1c-3.3-3.7-6.5-2.7-10.7-1.5c-5,1.4-10.3,2.2-14.6-3.2  c-8.7-9.3-14.8-25.7-1.8-34.1c27.3-26.5,40.9,0.2,27.9-2.6c-4.9-0.9-13.5,5.4-15,10.3c-1.4,4.3,1.9,4.8,4.5,5.2  C374.3,498.7,386.7,491.9,385,505.8L385,505.8z M368.2,513.4c-8.4,1.9-7.5-6.5-12.4-10.1C348,498.9,359.6,523.6,368.2,513.4z"
   fill="#6C63FE" />

<path
   id="path144"
   d="M307.4,466.1c-3.1,6.2-4.3,6.3-7.6,1.2c-4.5-6.9-4.6-7-12.7-3.8c-5.2,2.6-12.4,1.1-14.1,8.4  c-3.1,6.8-3.5-5.1-8.1,1.7c-21.3,9,14.7-35.8,17-40.4c1.4-3.8,6.1-2.5,6.7-6.9c0.1-2.8,4.7-3.2,7.3-0.9c4,2.5,24.1,43.9,17.8,45.1  C310.1,472.5,309.8,467.5,307.4,466.1L307.4,466.1z M290.1,442.9c-3.9,4.6-10.5,11.8,0.5,10.1C295.7,453.6,291.9,445.2,290.1,442.9z  "
   fill="#6C63FE" />

<path
   id="path146"
   d="M334.2,523.1c-1.6,0.7-1,1.9-1.5,2.7c-1.4,2.7-2.7,3.3-4.3,0.2c-5-6.9-4.9-10-13.6-5.8  c-4.6,2.8-12.4,1.5-13.9,7.6c-2.6,6.1-2.8-2.4-10.2,3.1c-11.8,1.8,1-16,3.7-19.9c4.3-4.6,14.4-24.5,19.4-24.2  c3.5-0.7,0.5-6.2,5.3-5.9c10.7,0.5,18.4,32.2,22.9,41.1c1.1,2.5,0.9,4.2-1.3,5.5C337.2,529.6,337.1,524.1,334.2,523.1L334.2,523.1z   M316.4,510c1.6-0.4,4.8,0.9,4.1-2.3c-0.9-11-5.5-7.7-8.5,0.4C312.4,511,314.9,509.3,316.4,510z"
   fill="#6C63FE" />

<path
   id="path148"
   d="M1335.1,323.1c11.1,0.4,9.7-1.8,9.9,9.8c0.1,4.9-0.7,9.9,1.7,14.7c0.7,1.3,0.8,3.8-0.1,4.8  c-7.5,6.8-1.6,11-5.1,12.3c-12.5,0.5-24.8,4.8-37.4,6.4c-4,0.5-6.1-0.8-5.2-5.1c0.5-2.7-1.3-4.7-2.1-7c-1.9-5.5,0.2-10.8,0.3-16.1  c0.7-7.3-6.4-3.5-6.3-8.5c1.3-7.3,12.7-7.4,18.4-8.1C1318.2,326.6,1326.2,322.2,1335.1,323.1L1335.1,323.1z M1338.9,357.1  c-0.6-5.9-2.3-11.6-4.8-17c-1.1-2.3,0.6-6.5-0.8-8.1c-1.6-1.8-5,0.8-7.7,1.3c-5.5,2-18.4-2.2-19.2,5.7c-0.4,6.7,0.1,13.6-1.2,20.2  c-0.4,2.2,0.1,3.5,2.4,2.8c5.7-1.8,11.7-0.7,17.6-2.4C1329.6,358.2,1334.2,356.1,1338.9,357.1z"
   fill="#6C63FE" />

<path
   id="path150"
   d="M367.9,464.1c-1.5-0.4-3,0.6-4.6,0.9c-3.2,1.3-6.1-3.1-3.2-5.4c4.5-3.2,3.5-7.8,2.5-11.8  c-2.2-8.9-1.9-17.7-0.6-26.6c-0.8-4.7,23.4-8.5,27.2-6.3c2.7,0.8,3.9,2.1,3.9,4.9c0,3.2-2.1,3.1-4.4,3.2c-4.1,0.3-7.9,2-12.1,2.3  c-3.1,0.2-1.2,3.8-1.4,5.9c-0.4,7.1,19.4-4.8,20.7,2.3c1.4,5.5-13,8.9-17.2,9.5c-2.1,0.2-3.6,0.6-3.6,3.1c0,2.9,2,3.2,4.1,2.9  c6.1-1.4,12.3-3.9,17.7,0.7c3.2,2.1,2.8,5.7-0.7,7.8c-6,3.7-13.1,3.8-19.7,5.4C373.9,463.5,371.1,465.4,367.9,464.1L367.9,464.1z"
   fill="#6C63FE" />

<path
   id="path152"
   d="M395.1,521.1c-3.7-0.6-6.4,1.6-8.7-1.1c-1.4-2.4,0.9-3.5,2.2-4.9c2.8-3.4,1.4-7.3,1.2-11  c-0.1-9-4.8-22.8,2.7-29.6c8-0.7,23.4-9,28.1,0.8c1.6,6.1-10.4,6-14,5.8c-4.9-1.1-5.7,4.5-4.1,7.9c1.1,1.9,3.2,1.4,5,0.8  c3.8-1.4,7.9-0.1,11.6-1.6c1.5-0.7,3.2,0.1,3.7,1.7c1.5,6.3-11,8.9-15.7,9.2c-4.8-1.2-6,7.8-1.4,7c7.2-1.5,13.2-5.6,18.9,1.2  c6.5,9.1-11.8,10.1-17.2,11.6C403.1,520,398.8,522.3,395.1,521.1L395.1,521.1z"
   fill="#6C63FE" />

<path
   id="path154"
   d="M830.9,1016c5.2-0.3,11.6,6.6,16.3,2.4c6.2-5.7,12.5-11.2,18.7-16.9c1-1.1,2.5-1.7,4-1.6  c2.5-0.2,4.5,3.2,2,4.6c-6.1,5.3-2.5,14.2-10.1,20c-4.4,4.4,9.1,9.1,11.3,11.9c1.4,1.1,1.6,3.1,0.6,4.5c-2.3,3-6.4,0-8.9-1.1  c-1.7-1.2-3.9-1.1-5.6,0.1c-8.2,3-7.7-8.3-18.3,8.5c-3,7.5-20.4,4.6-14.7-2.9c3.5-3,4.5-7.5,7.5-10.8c2.2-2.4-0.1-5.4-4.3-5.7  c-3.1-0.2-5.7-0.5-5.4-4.6C824.2,1018.7,826.4,1015.9,830.9,1016z"
   fill="#6C63FE" />

<path
   id="path156"
   d="M903.6,1062.9c12.1-2,27.3,9.2,17.3,21.1c-1.9,2.3-0.1,3.4,1.3,4.4c3.5,3.2,12.2,8.8,8.1,14  c-2.5,2.7-5.5,3.9-8.8,1.4c-3.8-2.9-7.4-6-11.1-9c-7-8-1.7,15.3-10.1,10.7c-2.2-2.7-8.7,1.6-8.3-5.4c-0.5-5.6,3.2-24.8-5.2-24.4  C878.3,1068.3,897.2,1061.5,903.6,1062.9L903.6,1062.9z M913.1,1072.6c-1.2-2.4-9.8-5.8-8-0.8c1.5,2.2-0.6,6.7,3.2,6.7  C910.2,1078.5,912.7,1075.8,913.1,1072.6L913.1,1072.6z"
   fill="#6C63FE" />

<path
   id="path158"
   d="M1063,408.2c-9.2,1.3,23.2-45.4,25.5-49.5c10.8-17.6,26.1-31.6,38.2-48.4c14.1-16.8,30.9-31.3,46.9-46  c2.2-0.3,4.5-3.3,6.2-1.3c1.3,1.5-1.8,3-2.8,4.5c-17,17-36.8,32.5-49.7,53.3c-1.5,3.3-5.9,4.1-7.4,8.3c-1,2.8-3.8,4.9-4.6,8.4  c-4.1,7-11.9,7.1-15.1,17.9c-2.1,5-4.7,9.3-8.9,12.7c-1.1,0.9-2.8,1.8-2.4,3.5c1,4.6-2.6,6.8-5.4,7.7c-2.8,0.7-4.7,3.3-4.4,6.2  C1079.9,391.2,1068.5,408.7,1063,408.2L1063,408.2z"
   fill="#6C63FE" />

<path
   id="path160"
   d="M1419.8,1029.4c3.3,5.5,2.1,7.9-3.8,7.4c-10-2.2-30.8,9.3-35.2-3.7c-2.1-8.9-8.3-41.1-0.2-46.2  c3.4-0.6,4.1,2.5,5.2,5.6c2.7-6.7,9.3-3.2,8.2,2.7c-0.1,8.1,0.8,16.1,1.9,24.1c-0.9,6.7,20.4,2.5,25.6,3.6c2.3,0,5.5-0.8,5.4,3.1  C1426.6,1030.7,1422.5,1028.1,1419.8,1029.4z"
   fill="#6C63FE" />

<path
   id="path162"
   d="M971.7,1018.9c11.3,0.2,10.5-2,10.4,10.8c0,4.1,0.2,8.2-2.6,11.8c-2.1,2.7-4,3.7-6.4,1  c-5.5-5.3-13.4,4.2-19.2-0.5c-11.5-8.3-19-26.5-3.9-35.7c6.5-5.2,12.9-10.4,22.1-9.4c3.2,0.2,8.2,2.6,6.9,6.5  c-3.6,3.8-11.8,0.1-16.7,8.6C957.3,1020.3,966.3,1019,971.7,1018.9L971.7,1018.9z M954.5,1023.2c-1.4,3.5,0.8,9,4.8,11.3  c1.4,0.8,3.6,2.6,4.8,0.6c1-1.7-1.7-1.8-2.7-2.6C958.6,1029.8,958.2,1025.3,954.5,1023.2L954.5,1023.2z"
   fill="#6C63FE" />

<path
   id="path164"
   d="M1193.7,531c-4.6,0.6-7.2-4.8-11.9-4.1c-10.4-2.5-8.7-20.7-6.6-29.1c3.5-10.3,27.2-21,37.5-17.7  c4.4,1.5-2.7,12.9-5.2,12.4c-7.6-0.5-13.6,4.7-19.1,8.8c-4.5,3.9-3.4,13.6,1.9,16.3c5.5,3,16.3-10.6,20.6-4c0.8,4.4,2.7,2.6,4.9,1.6  c3.6-2.2,10.1-1,6.2,4C1216.4,525.1,1202.3,531.1,1193.7,531L1193.7,531z"
   fill="#6C63FE" />

<path
   id="path166"
   d="M660.5,1106.2c-4,3.8-1.4,7.3-0.9,10.6c2,4.6-2.2,8.7-5.8,4.3c-4.3-4.2-8.7,5.7-8.8-6.1c1-8.3-8-30.6,4-32.1  c4.5-0.7,6.9,2,7.6,5.4c1.1,5.2,2.6,3.7,5.2,1.3c4.9-3.4,12.4-17,18.8-10.9c4.8,4.6-4.7,10.8-7.8,13.5c-4.7,2.4-3.4,4.9-1.1,7.5  c3,3.4,5.6,7.1,9.9,9.4C700.6,1125.9,667.4,1124.8,660.5,1106.2L660.5,1106.2z"
   fill="#6C63FE" />

<path
   id="path168"
   d="M398.1,701.8c-0.1,2,0.1,3.9-2.2,4.1c-1.8,0.1-4.1,2.5-5.4-0.1c-2.1-4.2-6.4-4-9.6-4.7  c-38.9-7.9-79.8-7-118.5-5.5c-1.2-0.8-3.5-0.1-3.4-2.8c0.7-7.3,13.2-9,18.9-8.7c23.9,2.6,47.9,1,71.7,5.2  c10.5,2.4,21.8,2.5,32.1,4.4C385.8,700.4,397.5,692.6,398.1,701.8L398.1,701.8z"
   fill="#6C63FE" />

<path
   id="path170"
   d="M709.5,1039.9c-0.4,32.1-17,16.1-11.6-5.1c2.5-4-1.2-11.5,3.5-13.6c11.2-4.9,15.1,6,22.8,12.6  c0.1-3.8-5.1-22.2,3.5-15.7c1.3,4.7,6.4-6.7,8.2,3.2c0.2,9,0.3,17.8,0.3,26.9c-0.6,5-4.8,5-7.7,6.5c-2.4,1.3-3.9-0.8-5.4-2.9  C719.8,1047,713.7,1045.4,709.5,1039.9z"
   fill="#6C63FE" />

<path
   id="path172"
   d="M710.7,1071c9.4-2,12.9,6.6,5.5,8.1c-9.3,3.8-13.8-1.3-13.2,6.4c1,8,10-0.1,14.8,1.4c1.9,0.2,4.4-0.8,5,1.9  c1.6,3.8-12.3,9.2-15.4,8.2c-3.7-0.7-3.2,2.3-3,4.4c0.6,4.2,7-0.5,9.3-0.2c2.5,0,5.2-2.3,7.7,1.2c6.4,4.9,5.2,8.9-2.5,10.4  c-7.9,1.3-15.4,5-23.7,4.2c-0.9-0.1-1.8,0.7-2.8,0.8c-1.1,0.1-2.1,2.2-3.4,0.3c-1.1-1.6-2.1-3.6-0.5-4.9c3-2.5,2.6-5.6,2.4-8.7  c1.1-9.8-4.3-19.4,0.7-29c0.9-2.1,4.4-1.9,6.7-2.3C702.7,1072.3,706.8,1070,710.7,1071L710.7,1071z"
   fill="#6C63FE" />

<path
   id="path174"
   d="M114.1,758.3c-1.1,5.3,2.8,14.7-3,17.6c-2.1,0.6-2.8-1.6-4.1-2.9c-7.1-7.2-7.4-16-7-25.2  c1.2-11.7-13.6,4.6-12.8-9.2c-1.2-4.3-5-9.3,2.6-9.4c9.4,2.4,41.6-11.6,44.3-3.3c2.3,6.4-13.7,5.3-6.3,11.5c5.1,5.7-6.5,5.3-9.5,4.5  C111,738.5,115.2,754.4,114.1,758.3L114.1,758.3z"
   fill="#6C63FE" />

<path
   id="path176"
   d="M810.5,1004.6c3.4,0.5,9,1.4,8.4,5.8c-0.4,2.6-2.3,3.5-4.7,3.5c-2.8,0-5.4,1.4-8.3,1  c-2.7-0.4-3.9,0.9-3.9,3.7c0.5,10.6,15.3-1.8,19.1,3.8c1.6,5.6-7.9,7.6-12,8.5c-2.8,0.2-7,1.1-6,4.8c1.7,5.7,13.1-6.2,19.8,2.6  c6.4,10.4-15.5,10.7-21.6,12.5c-3.4,0.5-7,0-10.2,1.6c-1.4,0.7-2.7,0.7-3.5-0.6c-3.6-6.9,7.5-3.9,2.5-16.9c-1.9-7.9-1.6-16.2,1-23.9  C794.3,1005.6,804.8,1006.6,810.5,1004.6L810.5,1004.6z"
   fill="#6C63FE" />

<path
   id="path178"
   d="M858.1,1107c-7.6,1.3-12.1-4.9-14.3-12.5c-3.5-12,3.5-18.5,11.1-24.5c4.1-3.2,10-1.2,14.9,0.2  c8.7,2.5,12.3,10.5,16,17.6C890.7,1100.1,867.6,1107.1,858.1,1107L858.1,1107z M864,1081c-8.9-0.2-4.3,13.4,2,14  C878.2,1094.6,875.4,1080.7,864,1081z"
   fill="#6C63FE" />

<path
   id="path180"
   d="M278.3,717.8c4.2,1.5,2.9,6.2,4.6,9.1c1.2,2.1-1.5,3-3.7,3.2c-5.3,1.4-25,4.6-21.8,12.4  c3.1,4.2,14.2-3.8,19.6-2.7c2,0,4.3-0.3,5,2.2c0.9,9.2-16.9,9.6-23.3,12c-2.3,0.5-3.3,1.1-3.7,3.6c-1.2,4.2-0.5,13.1-6.4,13.5  c-4.6,0.1-6.6-28.3-7.4-33.2c-0.4-7.3,3.2-11.4,10.9-12.6C261.2,723.9,269.8,721.3,278.3,717.8L278.3,717.8z"
   fill="#6C63FE" />

<path
   id="path182"
   d="M927.5,1021.5c-1.4-3.1,0.2-7.5-1.5-11.6c-1.6-3.1,3.5-5.7,4.8-2.3c2.8,4.2,0.4-3,5.5-1.6  c5.1,0.8,1.5,25.3,2.6,30.7c0.4,6.1-4,2.6-6.6,6.3c-1.7,1.4-3.7,1.6-4.8-0.2c-2.9-4.9-7.9-7.3-11.9-10.9c-0.9-0.8-2-2.6-3.2-1.6  c-1.4,1-1.9,2.9-1.2,4.4c1.8,3.9-1,12.4-5.7,12.2c-7.6-2.6-4.8-24.8-3.3-31.2c1.3-1.8-1-5.3,2.4-5.7c4-0.6,8-2.8,11.8,1.7  C919.7,1015.6,924.1,1018.5,927.5,1021.5L927.5,1021.5z"
   fill="#6C63FE" />

<path
   id="path184"
   d="M284.3,735.3c-0.1-7.8,3.6-11.3,11.5-12.4c7.2-0.9,14.2-2.8,20.8-5.7c2.1-1,4.9-2.5,6.4-0.5  c9.7,16.6-6.7,8-21.5,18.4c-3.1,2.5-1.4,8.4,2.8,5.9c6.2-0.5,16.1-8.1,20.5-1.5c0.7,1.8,0,3.8-1.6,4.8c-5.9,6.6-27.5,3.7-26.2,13.3  c1.4,3.7-4.6,16.4-7.8,9.3C287.4,756.5,284.3,746.2,284.3,735.3L284.3,735.3z"
   fill="#6C63FE" />

<path
   id="path186"
   d="M731.4,1119.9c-21.7-0.1,18.5-19.8,5.5-26.5c-4.9-3.2-5.4-9.5-9.6-13.4c-2.2-2,0-5.4,3.1-5  c2.7,0.3,5,0.7,7.8-0.8c11.3-3,4.1,22.5,17.7,8.4c4.4-3.4,13.2-18.4,19.2-12.1c5.3,5.4-13.1,17.1-16.3,22.1c-4.9,3.7,5,3.5-0.2,8.2  C751.2,1105.8,740.1,1122.3,731.4,1119.9L731.4,1119.9z"
   fill="#6C63FE" />

<path
   id="path188"
   d="M1082.9,169.9c3.3-10.8,12.8-20.6,19-30.2c2-2.8,5.6-3.9,6.9-8c0.6-1.8,5.3-0.9,7.2,2.3  c3,5.1,18.1,32.6,13.9,36.4c-4.5,3.3-4.8-4.4-7.1-1.1c-5.8,6.6-4.9-10.6-14.9-4.5c-2.4,1.2-5.2,2.9-8.4,2.5  c-4.4,0.2-2.8,10.4-8.9,5.2c-1.2-1-1.8,1-2.9,1.3C1084.3,176.2,1082.6,174.4,1082.9,169.9L1082.9,169.9z M1108.9,155.1  c1.1-0.1,3.3,0.6,2.5-1.5c-0.6-1.7,0.6-4.9-2-4.8c-2.1,0-3.5,2.7-3.8,4.7S1107.6,154.9,1108.9,155.1z"
   fill="#6C63FE" />

<path
   id="path190"
   d="M217.1,462.5c0.4-4.4-0.2-8.8,1.1-13.2c1.1-3.5,0.1-6.7-4.8-6.3c-1.4,0.1-2.8-0.2-3.2-1.8  c-0.3-10.8,26.6-11.6,33.9-8.2c4.6,1.8,10,2.1,12.1,8.1c4.8,11.1-15.4,16-23.2,17.8c-4.2,0.6-4.1,3.7-3.8,6.8  c0.6,6.3,0.7,6.3-5.5,6.4c-2,0-3.5,3.5-5.7,1C215.9,470.2,217.6,466.1,217.1,462.5L217.1,462.5z M239.2,443.9  c1.1-6.5-11.1-5.8-10.6-1c0.9,2.9-2.3,8.2,3.4,9C235.7,452.4,239.1,448.3,239.2,443.9L239.2,443.9z"
   fill="#6C63FE" />

<path
   id="path192"
   d="M677.1,293.1c5.4-13.2,16.4-25.1,24.8-36.5c0.7-2.4,5.7-1.1,7.8,2c2.5,2.6,23.2,43.3,9.8,34.8  c-0.9-1.3-1.3-2-2.4-0.2c-1.9,3.1-4.6,2.1-5.3-0.2c-2.2-7-6.8-6-11.5-3.7c-3.9,1.9-8.8,1.4-11.6,6.4c-1.1,2-6.4,2-9.8,2.3  C677.1,298.2,677,296,677.1,293.1L677.1,293.1z M702.8,280.1c3.4,1.1,2.7-6.7,0.2-6.6c-2.3,0.1-3.3,2.6-3.8,4.6  C698.7,280.4,700.8,279.9,702.8,280.1z"
   fill="#6C63FE" />

<path
   id="path194"
   d="M809.9,286.5c0.9,3.6-2.3,6.3-4.6,3.4c-0.5-0.9-1-2.4-2.2-1.3c-8,6.5-5.4-9.8-14-5.2  c-3.2,1.2-6.4,2.7-9.9,2.9c-1.6,0.1-2,1.5-2.8,2.6c-1.4,1.8-2.4,4.8-5.7,2.5c-2.6-0.3-4.6,4.1-7,1.1c-4.1-8.6,10.8-19.8,13.9-27.8  c2.7-4.8,7.4-7.8,9.6-12.9C798,245.4,806.8,279.4,809.9,286.5L809.9,286.5z M787.4,275c2.5,0.2,3.9-0.2,3.6-2.6  c-0.2-1.6-0.6-4.1-2.2-3.9C785.9,268.5,783,276,787.4,275L787.4,275z"
   fill="#6C63FE" />

<path
   id="path196"
   d="M1238.6,148.5c-6.5,5.8-21.8-1.7-19.4,11c0.8,2.8,1.4,4.8-2.4,5.4c-14.4,2.4-6.6-22.8-7.7-31  c0.1-5.4,4.8-4.6,8.6-4.8s4.8,2.1,5.3,5.1c-1.3,13.1,3.8,6,12.1,6.9c6.1,0.7-3.1-21.6,6.4-16c15.1,7.4,3.5,8.9,9.3,27.2  c1.4,5-2.1,8.8-7.4,8.9C1238.1,159.9,1239.4,153.4,1238.6,148.5L1238.6,148.5z"
   fill="#6C63FE" />

<path
   id="path198"
   d="M354,745.6c2.2-5.2-1.3-13,5.7-17.8c4.4-3.8,26.6-15.8,29.3-7.2c0.5,2.7-3.2,8.3-5.7,8.4  c-6.8,0.1-11.4,4.8-16.6,8.1c-3,1.8-2.4,7.1-0.2,11.3c3.9,6.7,9.1-1.2,14-2c7.5-3.1,4.5,5.5,11.9,1.5c4.3-2.3,6.2,2.6,2.7,5.3  c-6,6.7-14.5,7.2-22.2,9.7C364.5,764.5,354,755,354,745.6L354,745.6z"
   fill="#6C63FE" />

<path
   id="path200"
   d="M1357.1,57.1c2.7,0.4,7.6-1.4,7.6,3.9c-0.2,6.7-7.9,3.2-12,4.2c-5.6-0.2-4.5,8.9,0.8,7.8  c2.6-0.4,5.1-1.4,7.7-1.7c5.6-2.1,8.4,4.6,2.4,6.5c-3.3,1.4-6.6,3-10.3,3.3c-2.2,0.1-3.6,0.8-3.3,3.2c0.4,2.6,2.4,1.8,3.9,1.5  c12.6-5.5,20.8,4.9,11.8,8.5c-7.6,2.1-15.2,4.7-23.1,4.8c-2.3-0.4-4.9,2.4-6.8-0.6s1.8-3.7,2.6-5.6  C1340.4,73.9,1326.9,56.8,1357.1,57.1L1357.1,57.1z"
   fill="#6C63FE" />

<path
   id="path202"
   d="M747.8,270.5c-0.3-3.8-3.8-17.5,3.5-13.8c2.2,0.2,4.6-2,6.5,0.1c3.3,6.5-0.4,15.1,1.4,22.1  c1,5.8-2.2,8.3-6.2,10.6c-1.8,1.1-3.8,0.8-4.8-1c-0.8-1.9-11.2-10.9-12.7-10.3c-3.3,2.1,1.9,13.5-6.5,14.7  c-8.8-3.2-3.6-24.1-2.6-31.4c0.5-2.8,8.7-4,11.1-1.7C740.8,263.4,744.6,266.6,747.8,270.5L747.8,270.5z"
   fill="#6C63FE" />

<path
   id="path204"
   d="M853,288.7c-0.5-0.2-3.1,1.8-3.9-1.1c-2.7-7.8,16.6-14.4,10.5-21.4c-4.1-3.8-5.5-9.4-9.2-13.4  c-0.9-1.1-0.9-2.6-0.1-3.7c2.1-3.1,4.9,0.6,7.7-0.4c13.1-5.7,6.2,18.8,17.8,6.3c3.9-3.3,6.6-7.6,11-10.4c5.4-4.8,10.5,2.5,5.4,6.8  c-4.2,4-8.3,8.2-12.3,12.4c-5.5,3.5,4.8,4.7-2.7,9.5C868.8,278.2,864.4,290.5,853,288.7L853,288.7z"
   fill="#6C63FE" />

<path
   id="path206"
   d="M1257,96.3c-3.2-7.1-10-9.1-15.6-12.4c-16.3-8.3,3.3-25.3,14.8-19.7c3.9,1,6.3,4.8,4.5,8.4  c-2.3,4.8-8.4-2.4-11.1,1.7c-2.9,3.7,11,12.1,14.2,13.2c11.8,3.3,10.1,16.5-1.8,18.1c-8-0.3-28.9,5.7-26.9-7.9  c0.3-1.3,0.8-2.5,2-2.5C1251,91.7,1248.9,101.1,1257,96.3L1257,96.3z"
   fill="#6C63FE" />

<path
   id="path208"
   d="M960,269c5.4-1.8,9.5,5.6,13.4,2.6c4.1-11-35.7-14.2-14.6-30.6c5.4-6.1,21.6-4.1,20,5.1  c-1.1,3.3-3.7,3.4-6.9,2.2c-1.5-0.6-3.8-2.7-5.3-0.1c-1.5,5.7,10.9,12,15.4,13.9c16,7.1,2.1,20.6-10.7,18.5  c-6.6-0.1-21.2,1.8-18.3-9.4C953.7,269.2,953.8,269.2,960,269L960,269z"
   fill="#6C63FE" />

<path
   id="path210"
   d="M901.6,272.1c2.8-0.7,5.8,0.1,8,2.1c2,1.5,9,2.2,5.9-2.3c-3.4-5.7-9.3-7.8-14.5-10.7  c-8.5-4.1-7.8-13.2,0.2-17.2c5.1-4.8,15.3-4,19.1,1c2.4,3.2-0.5,8.2-4.6,6.8c-2.3-0.5-5.5-3.2-7-0.3c-1.6,5.2,11.1,11.8,15.4,13.6  c11.6,3.9,7.4,17.5-3.3,17.8c-8.2-0.2-29.1,5.1-25.6-9.5C895.5,272.3,895.5,272.3,901.6,272.1L901.6,272.1z"
   fill="#6C63FE" />

<path
   id="path212"
   d="M392,821c8.5,2.9,13.9-6.6,22.1-5.5c2.5,1,3.8-1.4,5.6-2c9.1,2.8,17.1-5.2,26.2-2.5c5.4,0.4,7.7,6.1,0.9,6.2  c-26,5-52.2,9.5-76.5,20.5c-12.7,6.6-25.9,12.2-37.8,20.3c-1.3,0.9-2.4,1.3-3.6,0.2c-2.5-4.6,12-10.6,14.9-13.1  c12.6-8,25.7-16,40-20.2C387.1,824.5,387.9,819.4,392,821L392,821z"
   fill="#6C63FE" />

<path
   id="path214"
   d="M1057,273.1c0,9-3.8,29.9-13.8,31.8c-2.1-1.7,0.6-3.7,1.5-4.7c10.5-14.1,7.8-33.2,0.1-47.1  c-2-7.5-9.6-10.7-12.1-17.9c-1.5-4.2-8-5.6-10.9-9.3c-3.4-4.4-10.3-3.8-12.1-9.7c-0.4-1.2-2-1.2-3.1-0.9c-4.1,2.2-20.3-2.7-19.6-7.3  c5.2-5.8,25.7,2.3,31.6,6.3c8.8,6.9,18.9,12.2,23.8,22.1C1049.5,246.8,1057.2,260.6,1057,273.1z"
   fill="#6C63FE" />

<path
   id="path216"
   d="M452,298.1c17.1,0.3,28.9,2.8,44,11.9c9.5,2.3,54.7,30.1,48.4,40c-1.5,1-2.2-0.4-2.7-1.2  c-7.1-10.6-18.5-17.4-29.2-23.7c-4.9-2.5-10.2-4.8-14.8-7.4c-6.2-3.6-14.3-2.4-19.5-8.4c-3.3-3.3-9.9-0.4-14.1-2.2  c-4.5-2-10,1.4-13.9-3c-1.1-1.2-1.9,0.7-2.9,1c-5.5,1.6-10.9,4-16.5,0.6c-4.6-1.3-2.7-6.7,1.6-6.3C438.5,299.7,444.5,298,452,298.1  L452,298.1z"
   fill="#6C63FE" />

<path
   id="path218"
   d="M1283.2,142.7c-0.3-4.4,1.8-11.8-5.5-8.6c-5.5,2.1-5.7-2.9-5.4-7c-2.2-5.5-1.9-6.1,4.2-5.9  c10.4-0.2,20.2-4,30.6-5.1c4.8-1.6,6.9,4.9,2.3,6.6c-3.1,1.3-4.2,2.5-2.6,6.2c1.3,2.9-2.2,4.9-7,4.1c-5.3-0.9-5.3-0.9-4.4,4.7  c0.7,3.7,2.4,27.3-4.8,22.5C1286.3,156.5,1283,148.3,1283.2,142.7L1283.2,142.7z"
   fill="#6C63FE" />

<path
   id="path220"
   d="M1316.9,87.8c3,29.1-14.9,7.6-12-7.3c2.2-11.8-13.2,2.8-10.6-9.4c-1.2-7-3.1-8.1,5.5-8  c9.6-0.7,18.9-4,28.5-4.9c4.9-1.5,6.8,4.7,2.2,6.7c-2.4,1.3-5.1,1.9-2,5.5c1.7,2-0.1,3.6-2.6,3.8C1312.9,71.8,1317.9,79,1316.9,87.8  z"
   fill="#6C63FE" />

<path
   id="path222"
   d="M1406.9,140c2.8,29.3-14.7,6-12.1-8.2c2-10.3-12.5,2.7-10.4-9c-0.7-3-4-7.5,1.9-7.7c7.8,1.6,35-9.7,37.4-2.8  c1.8,5.5-8.9,3.6-5.7,9.3c3.3,5.4-4.2,4.9-7.5,4.1C1404.1,123.5,1407.9,136.4,1406.9,140L1406.9,140z"
   fill="#6C63FE" />

<path
   id="path224"
   d="M664.3,854.1c4.5-1.1,6.2,2.5,3.4,5c-8.7,7.6-15.4,16.7-21,26.7c-12.8,21.9-17.2,46.7-20.6,71.5  c-0.3,2.3,1.2,4.8,1,7.3c0,2.8-2.7,3.2-3.4,0.5c-1-14.3-1.6-29.6,3.5-43.5c-2-7.2,4.2-13.2,2.8-20.3c-0.4-2.2,1.4-3.3,2.8-4.4  c6.7-5.1,3.6-15,10.5-19.9c1.8-0.9,1.2-4.1,2.3-5.1C655.1,868.6,650.3,856.7,664.3,854.1z"
   fill="#6C63FE" />

<path
   id="path226"
   d="M824.9,287.1c-11,0-13.8-2.8-13.8-13.5c0.8-5.2-4.6-28.3,5.7-23.7c3.8-0.3,7.1-1.8,7.1,3.5  c-0.3,5.5,1.2,10.8,1.1,16.3c-1.5,10.4,20.9,0.9,22.9,7.7C845.6,287.9,830.6,285.5,824.9,287.1L824.9,287.1z"
   fill="#6C63FE" />

<path
   id="path228"
   d="M342.4,624.8c-3.2-0.3-9.5,1.1-15.8-0.4c-1.7-0.4-2.8,1-4,1.7c-1.7,1.4-6.1,1.3-5.8-1.6  c0.5-2.1,2.8-2.1,4-2.2c11.2-1,22.2-3.3,33.5-3.6c5.5-0.1,11.2,0.2,16.6-1.5c3.9-1.2,7.1,1.9,11.1,1.5c5.6-0.2,11.8,0.5,17.4,0.4  c4.4,5,10.3,0.6,15.3,2.1c2.3,2,7.7,1.4,7,5.7c-0.7,4.1-5,1.8-7.7,2C389,627.1,368.9,623.7,342.4,624.8L342.4,624.8z"
   fill="#6C63FE" />

<path
   id="path230"
   d="M1195.1,759.1c-7.5,2.2-21.6-11-8.7-10c27.8,7.7,54.6,24.2,68.5,50.4c1.4,3.3,2,7,4.5,9.9  c1,1.2,1.2,3-0.7,3.7c-1.5,0.5-3.2-0.3-3.6-1.9c-6-13.6-17.5-30.2-31.9-35.2c-4.4-0.5-3.3-7.4-7.8-7.1c-5.5-0.3-9.1-5.4-14.5-6  c-0.7-0.1-1.2-0.6-1.4-1.2C1198.9,758.2,1197,758.1,1195.1,759.1L1195.1,759.1z"
   fill="#6C63FE" />

<path
   id="path232"
   d="M1514,928.2c-2,19.8-26,18.4-29-0.2C1485.9,910.4,1514.3,909,1514,928.2z"
   fill="#6C63FE" />

<path
   id="path234"
   d="M91.1,79.2c-0.5-17.8,28.7-17.1,27.9,0.6C119.3,99.2,88.9,97.7,91.1,79.2z"
   fill="#6C63FE" />

<path
   id="path236"
   d="M1307.7,189.1c2.6,0.5,8.1-1.5,8.3,2.7c0,2.8-1.6,4-4.4,4.4c-8.7,1.2-8.8,1.2-8.7,9.6  c0.1,7.8-1.9,15.4-0.2,23.3c0.7,3.2-2.1,6.1-4.6,8.3c-1.6,1.4-2.3,0-3.1-1.1c-3.5-4.5-2.9-9.6-1.8-14.5c2.4-6.5-2.3-14.8,1.5-19.7  c1-1,0-2.9-0.8-4.1c-2.4-3.6,0.4-5.9,2.8-6.5C1300.6,190.6,1304.2,187.5,1307.7,189.1L1307.7,189.1z"
   fill="#6C63FE" />

<path
   id="path238"
   d="M375,1045c0.6-9.4-2.7-20.4,2.5-28.8c1.8-2.6,5.9-1.7,6.8,1.7c4.1,11.2,2.6,23.1,0.8,34.6  c-1,3.2-2.3,5.5-5.9,5.4C372.6,1057.4,375.8,1049.4,375,1045L375,1045z"
   fill="#6C63FE" />

<path
   id="path240"
   d="M679.2,733c13.9-1.3,15.5,20.4,3,22C663.4,756.2,661.8,735,679.2,733z"
   fill="#6C63FE" />

<path
   id="path242"
   d="M1002.8,715c18.7,0.4,13.8,23.2-1.7,22.1C988.9,735.5,986.7,715.3,1002.8,715z"
   fill="#6C63FE" />

<path
   id="path244"
   d="M810.7,747c-10.8,2.7-15.1-11.8-8.3-18.8c2.9-3.6,8.3-4.2,11.9-1.2c2.8,2.5,7.4,3.7,7.8,8.3  C822.7,742.7,820.9,748.1,810.7,747z"
   fill="#6C63FE" />

<path
   id="path246"
   d="M384.2,986.8c8.9-1.1,13.1,12.7,4.5,16.4c-5,2.1-9.7,6.5-15.3,1.9c-3.5-2.9-4.4-7.6-6.2-11.6  c-0.7-1.8,0.6-3.9,2.6-4.1C374.8,989.4,379.4,987.6,384.2,986.8L384.2,986.8z"
   fill="#6C63FE" />

<path
   id="path248"
   d="M472.2,441.1c13.2-0.2,25.8,0.6,34.6,10.6c1.1,1.3,1.8,2.3,3.5,2.9c3,1.1,4.4,6.3,2.4,8.9  c-4.9,7.6-13.3-16.4-33.8-16.2c-4.5-0.4-8.5-2.3-13-2.4c-1,0-1.8-0.7-1.8-1.7C464.4,439.6,470.6,441.5,472.2,441.1L472.2,441.1z"
   fill="#6C63FE" />

<path
   id="path250"
   d="M424.6,734c-0.3,9-19.9,23.8-9.6,4.4c11.5-19.1-11.9-21.4-14.3-35.6c2.9-3.4,21.1,13.9,22.3,17.9  C425.4,725,422.8,729.8,424.6,734L424.6,734z"
   fill="#6C63FE" />

<path
   id="path252"
   d="M1429.1,1018.8c-1.4-5,1.1-9.6,1.9-14.4c0.3-3.9,6.1-4.6,6.9-0.6c3.7,9.2,1.4,18.9,1,28.4  c0.2,2.8-1.7,5.3-4.5,5.7c-3.8,0.8-4-2.8-4.2-4.8C1429.7,1028.4,1428.1,1023.7,1429.1,1018.8L1429.1,1018.8z"
   fill="#6C63FE" />

<path
   id="path254"
   d="M169.1,95.1c13.6,0.7,12.1,18.3-0.3,19.9C156.9,114.3,155.4,94.6,169.1,95.1z"
   fill="#6C63FE" />

<path
   id="path256"
   d="M1434.8,994.9c-6.2,0.1-12.7-7.7-11.8-12.4c2-6,9.4-2.3,13.9-5c2.9-1.2,5.9,1.2,7.5,3.6  C1449.8,987.6,1440.2,994.5,1434.8,994.9L1434.8,994.9z"
   fill="#6C63FE" />

<path
   id="path258"
   d="M1434.4,897c12.9-1.2,12.1,19.6,0.1,19C1422.2,916.6,1421.6,896.3,1434.4,897z"
   fill="#6C63FE" />

<path
   id="path260"
   d="M136.6,62.1c13.3-1.5,11.9,19.6,0.1,19C124.5,81.9,123.6,61.5,136.6,62.1z"
   fill="#6C63FE" />

<path
   id="path262"
   d="M1458.9,938.4c-1.6-12.6,20.7-12.9,19,0.2C1478.6,950.5,1458.5,951.1,1458.9,938.4z"
   fill="#6C63FE" />

<path
   id="path264"
   d="M1100,517.1c5.4,0.1,20.9-1.3,23,3.8c-3.9,3.8-16.7-0.4-22.9,4c-2.3,1.2-5.2-0.8-8.1,0s-6.5,0.3-9.8,1  c-2.8,0.7-5.5-0.5-5.7-3.8C1076.1,515,1095,517.6,1100,517.1z"
   fill="#6C63FE" />

<path
   id="path266"
   d="M343,747.3c-0.4,4.9,1.5,11-2.4,14.8c-2.7,2.5-4.9,2-5.5-1.7c-1.5-9.1-2.6-18.2,0-27.3  c0.6-3.4,4.8-4.2,6.2-0.7C343.9,737.1,342.8,742.3,343,747.3L343,747.3z"
   fill="#6C63FE" />

<path
   id="path268"
   d="M889.3,1031.7c-2.5,5.5,1.6,15.4-5.8,17.2c-2.5,0.2-2.5-2.2-3-3.9C874.6,1031.8,884.4,999.3,889.3,1031.7  L889.3,1031.7z"
   fill="#6C63FE" />

<path
   id="path270"
   d="M1446.9,681.9c-0.6-12.4,16.7-10.8,17.1-0.1C1464.7,693.5,1445.9,694.4,1446.9,681.9z"
   fill="#6C63FE" />

<path
   id="path272"
   d="M341.1,709c12.1,0.6,6.7,15.9-3.8,16c-3.5,0.2-9.7-6.5-9.7-10.5C327.6,711.5,333.5,709.1,341.1,709z"
   fill="#6C63FE" />

<path
   id="path274"
   d="M676.3,1042.7c1.1-5-1.3-11.9,4.3-13.7c2.7-0.3,3.2,1.6,3.7,3.6c2.1,8,0.9,16,0.3,23.9c0,2.1-2,3.8-4.1,3.4  C673.7,1058.1,678.8,1047.3,676.3,1042.7L676.3,1042.7z"
   fill="#6C63FE" />

<path
   id="path276"
   d="M690.1,1016.6c0.7,5-3.9,5.6-7.1,7.3c-5.4,3.7-9.5-2.6-11.6-7c-2.7-7.4,7.3-5.7,11.6-6.8  C687.2,1009.3,690,1012.1,690.1,1016.6z"
   fill="#6C63FE" />

<path
   id="path278"
   d="M886,55.9c0.9,10.3-16.1,10.9-16,0.6C869.1,45.8,886.2,45.4,886,55.9z"
   fill="#6C63FE" />

<path
   id="path280"
   d="M886,998.9c11.5-0.2,7.7,15.1-3,14C873.9,1011.9,868.7,997.4,886,998.9z"
   fill="#6C63FE" />

<path
   id="path282"
   d="M1262.9,146.6c0.8,4.1-1.3,8.1-1,12.2c0.4,4.6-8.1,4.3-6.9-0.4c0.3-6.4-1.2-12.7-0.1-19.1  c0.4-2.2,0.9-4.1,3-4.6C1263,134.4,1263.1,143.1,1262.9,146.6L1262.9,146.6z"
   fill="#6C63FE" />

<path
   id="path284"
   d="M1283.9,89.2c0.7,4.2-1.1,8-1,12c0.2,1.4-0.8,2.8-2.2,3c-7.4,2-5.6-21.1-3.7-25.4c0.5-1.4,1.4-2.3,3-2  C1284.7,77.9,1283.8,85.4,1283.9,89.2L1283.9,89.2z"
   fill="#6C63FE" />

<path
   id="path286"
   d="M943,266.8c-0.7,6,2.6,13.6-4.2,15c-5,1.2-3.7-21-2.8-24.4c-0.1-3.8,4.9-4.6,6.2-1  C943.9,260.2,942.5,264.2,943,266.8z"
   fill="#6C63FE" />

<path
   id="path288"
   d="M122.8,106.1c10.7-0.7,8.8,15.6-0.6,15C113.4,121.5,111.8,104.7,122.8,106.1z"
   fill="#6C63FE" />

<path
   id="path290"
   d="M387,773c5,0.5,8.5-3.9,6.5-8.3c-0.7-1.2-0.3-2.7,0.8-3.5c2.6-2.1,5.9-2.8,8.7-4.6c1.6-1,3.3,2.1,4.6,3.6  c1.2,1.3,0,2.7-1.4,3.7c-8.6,5.4-15.7,13.9-25.8,16.5C381.5,775.9,389.7,778.5,387,773L387,773z"
   fill="#6C63FE" />

<path
   id="path292"
   d="M1480.5,888c10-1.1,9.5,15.1,0.2,15C1470.4,903.6,1470.8,887.6,1480.5,888z"
   fill="#6C63FE" />

<path
   id="path294"
   d="M861.1,37.1c11.2,0.3,9.1,15.1-0.5,15.7C852.4,52.3,851.5,37,861.1,37.1z"
   fill="#6C63FE" />

<path
   id="path296"
   d="M937.8,249.8c-3.4-0.1-6.7-4.4-6.9-8.6c-0.2-3.9,2.6-4,5.3-4c2.3,0,4.5-1.9,6.8-0.9  C952.7,241.4,946.4,249.3,937.8,249.8L937.8,249.8z"
   fill="#6C63FE" />

<path
   id="path298"
   d="M1267,122.9c0.5,6.8-13.2,10.7-15.1,3.7c-1.1-2.3-3.2-4.7-1.5-7.3C1253.4,115.8,1267.8,116.3,1267,122.9z"
   fill="#6C63FE" />

<path
   id="path300"
   d="M1281.3,59.1c11.4-0.8,7.1,14-2.5,13c-3.7-0.1-8.4-4.6-7.6-8.7C1272.3,57,1278.8,61.3,1281.3,59.1z"
   fill="#6C63FE" />

<path
   id="path302"
   d="M1435.9,712c9.2-1,9.3,12.4,0.4,12C1428,724.6,1428.1,711.7,1435.9,712z"
   fill="#6C63FE" />

<path
   id="path304"
   d="M1457.7,707c-4.2,0.9-5.7-2.4-6.6-5.4c-0.8-2.6,3.6-6.5,6.6-6.5C1465.6,694.2,1466.6,708.9,1457.7,707z"
   fill="#6C63FE" />

<path
   id="path306"
   d="M144.3,109.2c-7.3,1.3-7.2-12.5,0.1-12C152.6,96.8,153.6,110.1,144.3,109.2z"
   fill="#6C63FE" />

<path
   id="path308"
   d="M1459.2,901c4-0.5,5.8,1.5,5.7,5.1c0.6,7.6-12.9,8.1-12,0.1C1452.8,901.6,1455.5,900.6,1459.2,901  L1459.2,901z"
   fill="#6C63FE" />

<path
   id="path310"
   d="M1434.8,695c-7.7,1.5-7.4-10-0.6-9.9C1440.2,683.8,1441.1,696.6,1434.8,695z"
   fill="#6C63FE" />

<path
   id="path312"
   d="M357.9,783.6c-0.6,4.2-10.1-0.5-5.5,5.5c1.1,1,0.8,2.8-0.5,3.4c-5.4,2.5-1.5-4.7-7.8-3.6  c-2.6,0-2.7-3.1-0.4-3.9c3.8-2.8,8.7-0.5,12.6-2.9C356.8,781.8,357.7,782.7,357.9,783.6L357.9,783.6z"
   fill="#6C63FE" />

<path
   id="path314"
   d="M1443,704c-0.1,5.2-8.3,5.4-8.1,0C1434.4,698.6,1442.9,699,1443,704z"
   fill="#6C63FE" />

<path
   id="path316"
   d="M387.1,772.9c-2.5,0.8-4.4,4.5-7.2,2.7C376.1,773.2,388.6,763.8,387.1,772.9z"
   fill="#6C63FE" />

<path
   id="path318"
   d="M82.7,737.2c-0.8,1.8-2.5,3-4.5,3.2C73,739.9,82.5,731.6,82.7,737.2z"
   fill="#6C63FE" />

<path
   id="path320"
   d="M339.5,790.9c1.7,0,3.6,0.1,3.4,2c-0.3,2.8-3.4,2-5.2,2.9c-0.9,0.5-1.9,0.1-2.4-0.7  C334.4,792.7,337.2,790.5,339.5,790.9z"
   fill="#6C63FE" />

<path
   id="path322"
   d="M1198.8,251.5c-0.8,2-3.2,1.6-4.8,2.4c-3.7,0.6-0.3-5.4,2.3-4.6C1197.8,249.4,1198.7,249.8,1198.8,251.5  L1198.8,251.5z"
   fill="#6C63FE" />

<path
   id="path324"
   d="M375.1,777.7c-1,1.3-1.4,3.4-3.8,3.1c-1-0.1-2.1-0.8-1.8-1.9C369.6,776.6,375.1,774.7,375.1,777.7  L375.1,777.7z"
   fill="#6C63FE" />

<path
   id="path326"
   d="M1037.7,308.6c-1.7,2.1-2.1,4.5-4.8,3.6C1029.1,310.6,1035.1,308.5,1037.7,308.6z"
   fill="#6C63FE" />

<path
   id="path328"
   d="M320,864.7c-1.5,1.9-2.4,3.7-4.6,2.6C313.3,864.5,317.6,863.4,320,864.7z"
   fill="#6C63FE" />

<path
   id="path330"
   d="M1187,259.7c-0.1,2.8-5.1,3.5-5,0.3C1181.7,257.1,1186.8,257.1,1187,259.7z"
   fill="#6C63FE" />

<path
   id="path332"
   d="M1259.3,814.8c1,1,2.2,2.2,0.7,3C1258,818.1,1257.8,816.1,1259.3,814.8z"
   fill="#6C63FE" />

<path
   id="path334"
   d="M1040.5,306.6l-0.7,0.4c-0.3-0.4,0-0.7,0.3-1.1L1040.5,306.6L1040.5,306.6z"
   fill="#6C63FE" />

<path
   id="path336"
   d="M196.9,264.8c-28.5,2.3-61.2,4.9-90.9,5.3c-2.7,0.1-3.8-1-3.9-3.8c-1.3-26.1-2.8-52.3-4.2-78.4  c1-18.7-7.9-24.5,9.2-24.7c47.5-1.7,95-4.4,142.5-7.2c59.1-1,36-19.2,44.6,59.8c1.1,13.4,0.3,26.8,2.6,40.1c0.4,2.6-1.4,3.9-3.9,4.2  C260,260.5,230.3,265.1,196.9,264.8L196.9,264.8z M129.1,222.2c-0.5-8.6,1.1-15.6-0.8-23.2c-1.8-8-9-7.3-11.4-0.1  c-3.2,10.9-5.8,21.9-6.7,33.2c-0.4,5.2-2,11,7,12c11.6,3.4,16.2-10.3,23.9-14.7c1.8,4.4,7.7,2.9,9.6,6.9c2.9,4,6.6,9.8,12.3,7.9  c5.8-0.9,9.3-2.7,8.8-9.1c6.8-12,10-25.6,13.4-38.8c0.9-3.8,3.3-9.3-4.9-6.4c-0.2,0.1-0.6-0.2-0.9-0.3c-6.4-2.2-8.6-0.9-10.2,5.8  c-1.9,8-4.1,15.9-6,23.8c-1.2,4.8-6.4-0.9-4.8-3.6c0.9-2.5-0.1-4.2-1.9-5.7s-3.7-2.5-4.8-4.2C144.3,195.9,135.2,217.4,129.1,222.2  L129.1,222.2z M252.6,182.9c-6.5-1.2-8,4-13.1,4.9c-5-1.2-15.2,9.1-7.8,11.7c1.1,0.6,3.2,0.1,3.4,2.3c1,10,3.9,19.8,3.8,29.9  c-1.3,16.1,42.1-0.8,45.1-9.7c8-12.4-8.4-8.8-4.9-16.4C284.7,191.9,262.7,184.8,252.6,182.9L252.6,182.9z M215.5,187.2  c-7.5-0.6-13.8,2.4-20.4,3.5c-6.9,2.5-3.5,23-3.3,29.4c3.9,16-5.6,12.2-4,18.5c5.9,4.6,25.5-3,33.4-3.6c9.8-0.9,12.7-8.1,3.3-13.1  c-4.7-4.2-15.9,6.5-18.3-0.2c-0.4-2-1.1-4.1,2-4.6c5.5-1.8,19.3-2.1,18.9-9.9c-0.9-3.2-3.8-2.2-5.9-1.9c-5.1,0.5-17.3,5.7-16-3.5  c-0.9-8.3,11.4-2.9,16.3-5.6c3.7-0.6,4.9-5,1.9-7.4C220.9,185.9,217.7,187.6,215.5,187.2L215.5,187.2z"
   fill="#FEFEFE" />

<path
   id="path338"
   d="M198.1,286c3.7,0.1,17.3-4.4,16.3,4c-1.3,5.6,4.8,17.5-4.3,18c-4.8-1.5-20.7,4.6-20-2.5  C191.8,297.1,182.9,284.5,198.1,286z"
   fill="#FEFEFE" />

<path
   id="path340"
   d="M921,928.3c0.2,20.4-32.3,18.7-31-1c0.1-8.1,10.2-14.9,22.6-15.1C917.1,912.1,921,919.7,921,928.3z"
   fill="#FEFEFE" />

<path
   id="path342"
   d="M881.2,186.1c-10.4,1.6-21,2.3-31.5,1.9c-6.1,0.7,3.2-15,3.2-18.6c-0.2-4.8,5.5-0.1,2.9,1.7  c-3.5,2.7-1.6,7.4-4.5,10.4c-1.4,1.4,0,3.6,2.5,3.6c7.2,0.1,14.4,1.6,21.5-0.7C877.7,183.6,879.3,185,881.2,186.1L881.2,186.1z"
   fill="#FEFEFE" />

<path
   id="path344"
   d="M883.1,166.8c-1,7.7-11.1,7.8-12,0.1C871.4,159.4,883.4,158.1,883.1,166.8z"
   fill="#FEFEFE" />

<path
   id="path346"
   d="M909.4,179.2c4,6.8,3.6,7.6-3.4,7.7c-3.4-0.5-19.2,1.6-19.7-0.8C890.9,179.9,908.6,189.8,909.4,179.2  L909.4,179.2z"
   fill="#FEFEFE" />

<path
   id="path348"
   d="M858,155.8c1.2,3.7-0.4,6.1-2.4,9.4C854.4,161.2,856.7,159,858,155.8z"
   fill="#FEFEFE" />

<path
   id="path350"
   d="M899.9,154.6c0.8,2.7,5.2,8,2.1,9.3c-0.9,0.1-1.7-0.5-1.9-1.5C900.7,159.9,898.3,157.8,899.9,154.6  L899.9,154.6z"
   fill="#FEFEFE" />

<path
   id="path352"
   d="M79.6,782.4l1.2,0.2c-0.1,1.4-1.3,1.7-1.8,0.4C79.3,782.9,79.4,782.7,79.6,782.4L79.6,782.4z"
   fill="#FEFEFE" />

<path
   id="path354"
   d="M79,783c-1.5-0.5,0.1-1.9,0.6-0.6L79,783z"
   fill="#FEFEFE" />

<path
   id="path356"
   d="M970.3,693c-4.2,0-9-5.4-8.2-9.4c0.6-3.6,9.6,1.7,16.3-3.2C984.2,677.9,980.6,694.4,970.3,693L970.3,693z"
   fill="#FEFEFE" />

<path
   id="path358"
   d="M1118.5,787.4c-0.5-10.9-6.7-3.5-7.5-8.4c0.1-9.9-6.5-30.7,8-32.1c11,3.4,3.9,19.7,6.8,28.3  c0.4,2-0.1,5.3-3.8,5.9C1118.9,781.6,1120.7,784.9,1118.5,787.4z"
   fill="#FEFEFE" />

<path
   id="path360"
   d="M1479,114.6c2.6,2.1,6.6,1.4,6.4,5.1c-0.1,1.7-3,4.7-4.3,4C1477.8,122,1479.1,118.4,1479,114.6z"
   fill="#FEFEFE" />

<path
   id="path362"
   d="M435.1,1022.9c1.9,0.9,0.2,2.7-0.7,0.6C434.6,1023.3,434.9,1023.1,435.1,1022.9z"
   fill="#FEFEFE" />

<path
   id="path364"
   d="M1147,137.4c-0.1-2.2,0.1-3.9,2-3.1c1.7,0.7,4.7,0.4,4.6,2.9c-0.1,2.3-1.9,4.9-4.2,4.8  S1147.9,138.4,1147,137.4L1147,137.4z"
   fill="#FEFEFE" />

<path
   id="path366"
   d="M1414.8,330.3c1.9-0.2,3.8-0.2,4,2.4c0.5,4.4,2.6,8.6,2,13.4v0c3.3,10-22,5.8-27.7,7.9"
   fill="#FEFEFE" />

<path
   id="path368"
   d="M1261.3,507.8c-6.1-5.3-7.8,5.7-14-0.8c-3.4-3.3-6.9-6.6-6.2-11.7c3.1-9.6,15.8-4.8,20.4,1.1  C1265,499.9,1259.3,503.4,1261.3,507.8L1261.3,507.8z"
   fill="#FEFEFE" />

<path
   id="path370"
   d="M368.2,513.4c-8.5,10.2-20.2-14.5-12.4-10.1C360.7,506.8,359.8,515.3,368.2,513.4z"
   fill="#FEFEFE" />

<path
   id="path372"
   d="M1325.5,333.3c2.6-0.5,6-3,7.7-1.3c1.5,1.6-0.3,5.8,0.8,8.1c2.7,5.3,4.3,11.1,4.9,17h0  c-4.8-0.9-9.4,1.2-13.8,2.5c-5.8,1.7-11.9,0.6-17.6,2.4c-2.2,0.7-2.8-0.6-2.4-2.8"
   fill="#FEFEFE" />

<path
   id="path374"
   d="M1109,155.1c-1.3-0.2-3.6,0.4-3.3-1.7s1.7-4.7,3.8-4.7c2.6,0,1.4,3.2,2,4.8  C1112.2,155.7,1110.1,155.1,1109,155.1L1109,155.1z"
   fill="#FEFEFE" />

<path
   id="path376"
   d="M702.8,280.1c-9.2,1.2,1.9-13.2,2.3-2.7C705.2,279.5,704.3,280.4,702.8,280.1z"
   fill="#FEFEFE" />

<path
   id="path378"
   d="M787.4,275c-4.4,1-1.5-6.5,1.3-6.5c1.7-0.2,2,2.3,2.2,3.9C791.3,274.8,789.8,275.2,787.4,275z"
   fill="#FEFEFE" />

<path
   id="path380"
   d="M129.1,222.2c5.9-4.8,15.6-26.5,22.5-16.5c1.1,1.7,3.2,2.8,4.8,4.2s2.8,3.2,1.9,5.7  c-1.6,2.7,3.7,8.4,4.8,3.6c1.9-8,4.1-15.9,6-23.8c1.6-6.6,3.8-8,10.2-5.8c0.3,0.1,0.7,0.4,0.9,0.3c8.2-3,5.9,2.6,4.9,6.4  c-3.4,13.2-6.5,26.8-13.4,38.8c0.5,6.4-2.9,8.2-8.8,9.1c-5.7,1.9-9.3-3.8-12.3-7.9c-1.9-4-7.8-2.5-9.6-6.9  c-7.8,4.4-12.3,18.1-24,14.7c-9-1-7.4-6.8-7-12c0.9-11.3,3.5-22.3,6.8-33.2c2.4-7.2,9.6-7.9,11.4,0.1  C130.2,206.7,128.6,213.6,129.1,222.2L129.1,222.2z"
   fill="#6C63FE" />

<path
   id="path382"
   d="M252.6,182.9c10.1,1.9,32.1,9.1,26.5,22.7c-3.5,7.5,12.9,4,4.9,16.4c-3,8.9-46.1,25.8-45.1,9.7  c0.2-10.1-2.7-19.9-3.7-29.9c-0.2-2.2-2.2-1.7-3.4-2.3c-7.3-2.7,2.7-12.9,7.8-11.7C244.6,187,246.1,181.6,252.6,182.9z M266,198.7  c0.7-5.1-12.5-5.4-16.3-5.7c-2.1,0.5-7.7,2-6.3,4.6c2.7,1.4,4.1-6.3,8.3,1.7c2.5,2.7-0.7,8.5,3.5,9.5  C259.5,209.2,266,202.9,266,198.7z M267.7,219.6c-4.5-2.5-13.5-4.7-14.6,2.5c-0.3,1.6,0.3,3.4,2.2,2.9  C259.5,223.4,264.9,223.5,267.7,219.6z"
   fill="#6C63FE" />

<path
   id="path384"
   d="M215.5,187.2c2.2,0.5,5.4-1.2,7.8,1.6c1.2,1.3,2.2,2.6,1.6,4.4c-3,8.3-20.8-1.3-19.9,8.6  c-1.3,9.2,10.9,4.1,16,3.5c2.1-0.4,5-1.4,5.9,1.9c0.4,7.8-13.4,8.1-18.9,9.9c-3.1,0.5-2.4,2.7-2,4.6c2.5,6.7,13.7-4,18.3,0.2  c9.4,5,6.5,12.2-3.3,13.1c-8,0.6-27.5,8.2-33.4,3.6c-1.6-6.3,8-2.6,4-18.5c-0.2-6.5-3.5-26.8,3.3-29.4  C201.7,189.6,208,186.5,215.5,187.2L215.5,187.2z"
   fill="#6C63FE" />

<path
   id="path386"
   d="M266,198.7c0,4.3-6.6,10.5-10.8,10.1c-4.2-1-0.9-6.8-3.5-9.5c-4.2-8.1-5.7-0.2-8.3-1.7  c-1.5-2.6,4.2-4.1,6.3-4.6C253.5,193.2,266.8,193.5,266,198.7z"
   fill="#FEFEFE" />

<path
   id="path388"
   d="M267.7,219.6c-2.9,3.9-8.2,3.8-12.4,5.4c-2,0.4-2.6-1.3-2.2-2.9C254.3,214.9,263.2,217.1,267.7,219.6z"
   fill="#FEFEFE" />

</svg>
