<svg xmlns="http://www.w3.org/2000/svg" viewBox="0 0 122.81 61.21"><defs><style>.cls-1{fill:#4a2d8a;}.cls-2{fill:#9e93c7;}</style></defs><title>Asset 1</title><g id="Layer_2" data-name="Layer 2"><g id="Layer_1-2" data-name="Layer 1"><path class="cls-1" d="M16.72,26.72a4.36,4.36,0,0,1-3.17-1,4.24,4.24,0,0,1-1-3.1V11.9h-2.4V8.52h1.26a1.49,1.49,0,0,0,1.23-.42A2.15,2.15,0,0,0,13,6.77V3.56h3.8v5h3.28V11.9H16.79V23.34h3v3.38Z"/><path class="cls-1" d="M23.33.91h4.22V11.55H28Q29.13,8.1,32.39,8.1a4.55,4.55,0,0,1,3.77,1.65,7.44,7.44,0,0,1,1.33,4.73V26.72H33.27V15.21c0-2.37-.89-3.56-2.65-3.56a3.24,3.24,0,0,0-2.18.75,2.6,2.6,0,0,0-.89,2.11V26.72H23.33Z"/><path class="cls-1" d="M49.64,26.72V8.52h4.22v3h.49Q55.43,8.1,58.71,8.1a4.55,4.55,0,0,1,3.76,1.65,7.38,7.38,0,0,1,1.33,4.73V26.72H59.58V15.21c0-2.37-.89-3.56-2.65-3.56a3.26,3.26,0,0,0-2.18.75,2.63,2.63,0,0,0-.89,2.11V26.72Z"/><path class="cls-1" d="M67.84.91h4.22v12l-.28,3.77h.49l2.13-3.35L78,8.52H82.8l-5.68,7.14,6,11.06H78.37l-4.18-8.34L72.06,21v5.69H67.84Z"/><path class="cls-1" d="M41.32,50.81h-.49a4.43,4.43,0,0,1-1.55,2.48,4.21,4.21,0,0,1-2.73.94,5.24,5.24,0,0,1-4.75-2.42c-1-1.62-1.53-4-1.53-7.1s.51-5.48,1.53-7.09a5.23,5.23,0,0,1,4.75-2.43,4.27,4.27,0,0,1,2.73.94,4.47,4.47,0,0,1,1.55,2.48h.49V8.42h4.22V53.81H41.32Zm-3.17-.07a3.49,3.49,0,0,0,2.3-.71,2.45,2.45,0,0,0,.87-2V41.4a2.47,2.47,0,0,0-.87-2,3.55,3.55,0,0,0-2.3-.71,3.28,3.28,0,0,0-2.55,1,4.17,4.17,0,0,0-.9,2.86v4.32a4.14,4.14,0,0,0,.9,2.86A3.24,3.24,0,0,0,38.15,50.74Z"/><path class="cls-1" d="M56.84,54.23a9,9,0,0,1-3.26-.57,6.59,6.59,0,0,1-2.53-1.75,7.94,7.94,0,0,1-1.62-3,14.08,14.08,0,0,1-.57-4.24c0-3.28.65-5.68,2-7.22a7,7,0,0,1,5.64-2.3,7,7,0,0,1,5.63,2.3c1.31,1.54,2,3.94,2,7.22v1H53.28v1.19a4,4,0,0,0,1,2.86,3.7,3.7,0,0,0,2.79,1,4.66,4.66,0,0,0,2.53-.64,5.3,5.3,0,0,0,1.76-1.87l2.3,2.41A7.44,7.44,0,0,1,61,53.27,8.25,8.25,0,0,1,56.84,54.23Zm-.38-15.79q-3.18,0-3.18,3.76v.91h6.35V42.2Q59.63,38.43,56.46,38.44Z"/><path class="cls-1" d="M73.26,54.23a9,9,0,0,1-4-.82,8.33,8.33,0,0,1-3-2.46l2.58-2.51a6.29,6.29,0,0,0,1.95,1.85,4.9,4.9,0,0,0,2.51.63c1.77,0,2.65-.75,2.65-2.23a2.05,2.05,0,0,0-.43-1.38,2.45,2.45,0,0,0-1.49-.68l-1.7-.31a8,8,0,0,1-4.15-1.78,4.89,4.89,0,0,1-1.29-3.66,5.28,5.28,0,0,1,1.67-4.27,7.12,7.12,0,0,1,4.74-1.42,9,9,0,0,1,3.68.7A7.5,7.5,0,0,1,79.71,38l-2.47,2.47A5.41,5.41,0,0,0,75.55,39a4.69,4.69,0,0,0-2.22-.52c-1.62,0-2.44.73-2.44,2.19a1.8,1.8,0,0,0,.49,1.38,2.86,2.86,0,0,0,1.54.64l1.74.32a7.64,7.64,0,0,1,4.09,1.76A4.66,4.66,0,0,1,80,48.27a5.6,5.6,0,0,1-1.74,4.39A7.18,7.18,0,0,1,73.26,54.23Z"/><path class="cls-1" d="M83.41,35.61h4.22v18.2H83.41Z"/><path class="cls-1" d="M106.74,55.42a6.7,6.7,0,0,1-.44,2.51,4.08,4.08,0,0,1-1.45,1.81,7.22,7.22,0,0,1-2.68,1.1,19.94,19.94,0,0,1-4.12.37,18.35,18.35,0,0,1-3.62-.3,7.09,7.09,0,0,1-2.37-.86,3.16,3.16,0,0,1-1.29-1.36,4,4,0,0,1-.39-1.81,3.07,3.07,0,0,1,.77-2.2,3.68,3.68,0,0,1,2.2-1V53a2.71,2.71,0,0,1-1.66-1,3.22,3.22,0,0,1-.54-1.89,2.47,2.47,0,0,1,.77-1.86,4.18,4.18,0,0,1,2.23-1v-.46q-3-1.45-3-5.37a6,6,0,0,1,1.68-4.56c1.11-1.07,2.85-1.61,5.19-1.61a8.13,8.13,0,0,1,2.86.49V35c0-1.65.79-2.48,2.37-2.48h2.55v3.28h-3.52v.7a4.29,4.29,0,0,1,2,1.86,6.27,6.27,0,0,1,.66,3,6,6,0,0,1-1.65,4.56q-1.67,1.57-5.22,1.58a11.71,11.71,0,0,1-2.65-.28,1.47,1.47,0,0,0-.73.66,2.16,2.16,0,0,0-.24,1,1.23,1.23,0,0,0,.45,1,2.51,2.51,0,0,0,1.5.35H101c2.07,0,3.54.44,4.41,1.33A5.19,5.19,0,0,1,106.74,55.42Zm-3.94.49a1.69,1.69,0,0,0-.63-1.43,3.44,3.44,0,0,0-2.09-.49H94.46a2.43,2.43,0,0,0-.76,1.95,2.06,2.06,0,0,0,.74,1.71,4.43,4.43,0,0,0,2.64.59h2a5.24,5.24,0,0,0,2.83-.57A2,2,0,0,0,102.8,55.91Zm-4.75-11.3c1.93,0,2.9-1,2.9-2.86V41c0-1.91-1-2.86-2.9-2.86S95.16,39,95.16,41v.8C95.16,43.65,96.12,44.61,98.05,44.61Z"/><path class="cls-1" d="M108.66,53.81V35.61h4.21v3h.49c.72-2.3,2.18-3.45,4.36-3.45a4.57,4.57,0,0,1,3.77,1.66,7.41,7.41,0,0,1,1.32,4.72V53.81h-4.22V42.31q0-3.56-2.65-3.56a3.28,3.28,0,0,0-2.18.75,2.61,2.61,0,0,0-.89,2.11v12.2Z"/><rect class="cls-2" x="83.41" y="26.76" width="4.21" height="4.53"/><rect class="cls-2" x="41.27" width="4.21" height="4.53"/><polygon class="cls-2" points="0 38.81 0 41.29 16.73 41.29 16.73 53.51 25.49 53.51 25.49 38.81 0 38.81"/><polygon class="cls-2" points="25.49 35.87 25.49 33.39 8.76 33.39 8.76 21.16 0 21.16 0 35.87 25.49 35.87"/></g></g></svg>