<svg xmlns="http://www.w3.org/2000/svg" viewBox="0 0 199.27 27.35"><defs><style>.cls-1{fill:#565656;}.cls-2{fill:#333;}.cls-3{fill:none;}</style></defs><title>Asset 2</title><g id="Layer_2" data-name="Layer 2"><g id="Layer_1-2" data-name="Layer 1"><path class="cls-1" d="M11.24,24.86a5.29,5.29,0,0,1-2.66,1.2c-.79,0-1-.62-1-2.79V14.66h4.2V11H7.58V5.21H2.87V11L0,11.49v3.17H2.87v12c0,.23,0,.45,0,.66h9.44Z"/><path class="cls-1" d="M27.39,10.62c-2.46,0-4.37,1-6.7,3.58V0h-5V27.35h5V18.69l.66-.7C23.52,15.66,25,14.62,26,14.62s1.62.87,1.62,3.28v9.45h5V16.11C32.63,12.45,30.89,10.62,27.39,10.62Z"/><path class="cls-1" d="M38.08,11V27.35h5V11ZM40.58.67A3.15,3.15,0,0,0,37.75,4a3.14,3.14,0,0,0,2.83,3.37A3.11,3.11,0,0,0,43.37,4,3.12,3.12,0,0,0,40.58.67Z"/><path class="cls-1" d="M60.35,10.62c-2.46,0-4.37,1-6.7,3.58V11h-5V27.35h5V18.69l.66-.7c2.17-2.33,3.63-3.37,4.67-3.37,1.2,0,1.62.87,1.62,3.28v9.45h5V16.11Q65.6,10.62,60.35,10.62Z"/><path class="cls-1" d="M87.57,11H82l-6,8.37V0H71V27.35h5v-7l4.21,7h5.46l-5-7.45Z"/><path class="cls-2" d="M102.34,0V11.78a5.77,5.77,0,0,0-2.58-1.16,6,6,0,0,0-1.7-.21c-5.12,0-9.25,4.83-9.25,10.82a11,11,0,0,0,1.69,6.12h16.8V0Zm0,23.9c-1.2,1.87-2.74,2.91-4.28,2.91-2.38,0-4-2.45-4-5.95,0-3.66,2-6.37,4.79-6.37,1.54,0,2.91.75,3.24,1.79a10.43,10.43,0,0,1,.25,2.5Z"/><path class="cls-2" d="M128.69,19.32c0-5.25-3.33-8.87-8.12-8.87-5.54,0-9.7,4.62-9.7,10.74a10.37,10.37,0,0,0,1.78,6.16h15.49l-1.28-2.66a12.87,12.87,0,0,1-3.71,1.83,7.42,7.42,0,0,1-2.29.33,5,5,0,0,1-4.33-2.33,6.06,6.06,0,0,1-.66-3.08h12.82Zm-12.57-1c.41-2.62,1.91-4.12,4.12-4.12s3.33,1.16,3.45,4.12Z"/><path class="cls-2" d="M144.21,20.73a29.38,29.38,0,0,0-5.83-2.66c-1.75-.62-2.41-1.17-2.41-2,0-1.08,1.25-1.83,3.16-1.83a9.09,9.09,0,0,1,4.46,1.33c.37.21.83.5,1.33.83l1.58-4a11.41,11.41,0,0,0-4.25-1.63,16,16,0,0,0-3.2-.37c-4.71,0-7.87,2.45-7.87,6.08,0,2.58,1.58,4.41,5,5.7l3.33,1.29c1.33.5,2,1.16,2,2,0,1-1.12,1.66-3,1.66a6.77,6.77,0,0,1-2.16-.37,16.07,16.07,0,0,1-4.16-2l-1,2.66h14.63a5.25,5.25,0,0,0,.52-2.33A5.37,5.37,0,0,0,144.21,20.73Z"/><path class="cls-2" d="M150.66,11V27.35h5V11ZM153.16.67A3.15,3.15,0,0,0,150.33,4a3.14,3.14,0,0,0,2.83,3.37c1.54,0,2.78-1.49,2.78-3.37A3.11,3.11,0,0,0,153.16.67Z"/><path class="cls-2" d="M179.09,11l-3.92.25H172.3a10.67,10.67,0,0,0-4-.79c-5.12,0-8.28,2.83-8.28,7.45a7.1,7.1,0,0,0,1.71,4.75,9.73,9.73,0,0,0,1.7,1.5c-.54.41-.95.66-1.2.87a5.79,5.79,0,0,0-2.36,2.33H165a.4.4,0,0,1-.26-.41c0-.5.62-1.13,1.91-2.08a6.22,6.22,0,0,0,1.42.12c5.07,0,8.49-3,8.49-7.37a4.27,4.27,0,0,0-.88-2.87h3.42ZM168.26,21.23a3.36,3.36,0,0,1-3.2-3.53,3.23,3.23,0,1,1,6.41-.05A3.38,3.38,0,0,1,168.26,21.23Z"/><path class="cls-2" d="M194,10.62c-2.46,0-4.37,1-6.71,3.58V11h-5V27.35h5V18.69L188,18c2.17-2.33,3.62-3.37,4.66-3.37,1.21,0,1.63.87,1.63,3.28v9.45h5V16.11Q199.27,10.62,194,10.62Z"/><line class="cls-3" x1="75.96" y1="27.35" x2="71" y2="27.35"/><line class="cls-3" x1="107.3" y1="27.35" x2="90.5" y2="27.35"/><line class="cls-3" x1="187.32" y1="27.35" x2="182.33" y2="27.35"/></g></g></svg>