<?xml version="1.0" encoding="utf-8"?>
<!-- Generator: Adobe Illustrator 25.1.0, SVG Export Plug-In . SVG Version: 6.00 Build 0)  -->
<svg version="1.1" id="b0613604-cb64-4fd5-a4c3-be829c572cfc"
	 xmlns="http://www.w3.org/2000/svg" xmlns:xlink="http://www.w3.org/1999/xlink" x="0px" y="0px" viewBox="0 0 888 741"
	 style="enable-background:new 0 0 888 741;" xml:space="preserve">
<style type="text/css">
	.st0{fill:#FFFFFF;stroke:#AEA2CA;stroke-width:3.9412;stroke-linejoin:round;stroke-miterlimit:10.0002;}
	.st1{fill:none;stroke:#E2DBF3;stroke-width:0.6773;stroke-linejoin:round;stroke-miterlimit:10;}
	.st2{clip-path:url(#SVGID_2_);}
	.st3{fill:#9488C2;}
	.st4{fill:#8162CA;}
	.st5{font-family:'ArialMT';}
	.st6{font-size:8.0794px;}
	.st7{font-size:12.6117px;}
	.st8{fill:#FFFFFF;}
	.st9{fill:#E6E6E6;}
	.st10{fill:#6C63FF;}
	.st11{opacity:0.2;enable-background:new    ;}
	.st12{fill:#FFB8B8;}
	.st13{fill:#575A89;}
	.st14{fill:#2F2E41;}
	.st15{fill:#B3B3B3;}
</style>
<g>
	
		<rect x="556.8" y="416.5" transform="matrix(0.7986 -0.6019 0.6019 0.7986 -164.4666 537.0999)" class="st0" width="327" height="195.6"/>
	<g>
		<g>
			<g>
				<g>
					<path class="st1" d="M637.5,619.5l225.6-170 M625.6,603.7l225.6-170 M613.9,588.1l225.6-170 M602,572.3l225.6-170 M590.2,556.7
						l225.6-170 M578.5,541l225.6-170"/>
				</g>
			</g>
			<g>
				<g>
					<defs>
						
							<rect id="SVGID_1_" x="585.5" y="444" transform="matrix(0.7986 -0.6019 0.6019 0.7986 -156.4432 538.9171)" width="283" height="118.5"/>
					</defs>
					<clipPath id="SVGID_2_">
						<use xlink:href="#SVGID_1_"  style="overflow:visible;"/>
					</clipPath>
					<g class="st2">
						<path class="st3" d="M649,619.1l10.1-7.6l7.8,10.4l-10.1,7.6L649,619.1z M664.9,588.1l10.1-7.6l16.9,22.5l-10.1,7.6
							L664.9,588.1z M682.9,559.7l9.9-7.5l24,31.9l-9.9,7.5L682.9,559.7z M687,512.9l10.1-7.6l45.1,59.8l-10.1,7.6L687,512.9z
							 M698.5,476.3l10.1-7.6l58.5,77.5l-10.1,7.6L698.5,476.3z M733,469.8l10.1-7.6l49.1,65.2l-10.1,7.6L733,469.8z M759.1,452.4
							l10.1-7.6l48.1,63.7l-10.1,7.6L759.1,452.4z M809.2,466.6l9.9-7.5l23.1,30.6l-9.9,7.5L809.2,466.6z M828.2,439.8l10.1-7.6
							l29,38.5l-10.1,7.6L828.2,439.8z"/>
					</g>
				</g>
			</g>
			<g>
				<g>
					<path class="st1" d="M649.3,635l225.6-170"/>
				</g>
			</g>
			<g>
				<g>
					<text transform="matrix(0.7986 -0.6019 0.6019 0.7986 641.421 643.9534)" class="st4 st5 st6">0</text>
				</g>
			</g>
			<g>
				<g>
					<text transform="matrix(0.7986 -0.6019 0.6019 0.7986 619.6931 635.6544)" class="st4 st5 st6">5000</text>
				</g>
			</g>
			<g>
				<g>
					<text transform="matrix(0.7986 -0.6019 0.6019 0.7986 604.5443 622.397)" class="st4 st5 st6">10000</text>
				</g>
			</g>
			<g>
				<g>
					<text transform="matrix(0.7986 -0.6019 0.6019 0.7986 592.8027 606.8184)" class="st4 st5 st6">15000</text>
				</g>
			</g>
			<g>
				<g>
					<text transform="matrix(0.7986 -0.6019 0.6019 0.7986 580.942 591.0815)" class="st4 st5 st6">20000</text>
				</g>
			</g>
			<g>
				<g>
					<text transform="matrix(0.7986 -0.6019 0.6019 0.7986 569.2003 575.5043)" class="st4 st5 st6">25000</text>
				</g>
			</g>
			<g>
				<g>
					<text transform="matrix(0.7986 -0.6019 0.6019 0.7986 557.34 559.7681)" class="st4 st5 st6">30000</text>
				</g>
			</g>
			<g>
				<g>
					<text transform="matrix(0.1391 -0.9903 0.9903 0.1391 667.6446 648.3738)" class="st4 st5 st6">April</text>
				</g>
			</g>
			<g>
				<g>
					<text transform="matrix(0.1391 -0.9903 0.9903 0.1391 692.7987 628.4249)" class="st4 st5 st6">May</text>
				</g>
			</g>
			<g>
				<g>
					<text transform="matrix(0.1391 -0.9903 0.9903 0.1391 717.7178 610.1351)" class="st4 st5 st6">June</text>
				</g>
			</g>
			<g>
				<g>
					<text transform="matrix(0.1391 -0.9903 0.9903 0.1391 743.1522 588.4998)" class="st4 st5 st6">July</text>
				</g>
			</g>
			<g>
				<g>
					<text transform="matrix(0.1391 -0.9903 0.9903 0.1391 766.746 580.0944)" class="st4 st5 st6">August</text>
				</g>
			</g>
			<g>
				<g>
					<text transform="matrix(0.1391 -0.9903 0.9903 0.1391 789.9952 574.6622)" class="st4 st5 st6">September</text>
				</g>
			</g>
			<g>
				<g>
					<text transform="matrix(0.1391 -0.9903 0.9903 0.1391 816.3705 546.392)" class="st4 st5 st6">October</text>
				</g>
			</g>
			<g>
				<g>
					<text transform="matrix(0.1391 -0.9903 0.9903 0.1391 840.277 535.2832)" class="st4 st5 st6">November</text>
				</g>
			</g>
			<g>
				<g>
					<text transform="matrix(0.1391 -0.9903 0.9903 0.1391 865.3842 515.6195)" class="st4 st5 st6">December</text>
				</g>
			</g>
			<g>
				<g>
					<text transform="matrix(0.7986 -0.6019 0.6019 0.7986 625.373 487.2679)" class="st4 st5 st7">Views On Google Maps</text>
				</g>
			</g>
		</g>
	</g>
</g>
<polygon class="st8" points="572.3,672.5 654.6,721.6 696.9,672.5 "/>
<path class="st9" d="M365.9,174.4h-4V63.9C361.9,28.6,333.3,0,298,0l0,0H64C28.6,0,0,28.6,0,63.9l0,0v606
	c0,35.3,28.6,63.9,63.9,63.9l0,0h234c35.3,0,63.9-28.6,63.9-63.9l0,0V253h4v-78.6H365.9z"/>
<path class="st8" d="M300.5,16.6H270c4.7,11.6-0.8,24.8-12.4,29.6c-2.7,1.1-5.6,1.7-8.6,1.7H114.9c-12.5,0-22.7-10.2-22.7-22.7
	c0-2.9,0.6-5.8,1.7-8.6H65.4C39,16.6,17.6,38,17.6,64.4l0,0v605.1c0,26.4,21.4,47.7,47.7,47.7l0,0h235.1c26.4,0,47.7-21.4,47.7-47.7
	l0,0V64.4C348.3,38,326.9,16.6,300.5,16.6L300.5,16.6z"/>
<path class="st9" d="M113.7,139.6h-14c-1,0-1.9,0.8-1.9,1.9v6.2c0,1,0.8,1.9,1.9,1.9h2.3v9.2h9.4v-9.2h2.3c1,0,1.9-0.8,1.9-1.9v-6.2
	C115.5,140.5,114.7,139.6,113.7,139.6z"/>
<path class="st9" d="M127.7,196c-8.6-12.6-13-27.6-12.6-42.8c0-0.7-0.5-1.4-1.2-1.5V149H99.2v2.6H99c-0.8,0-1.5,0.7-1.5,1.5v0.1
	c1.2,16.3-2.8,30.9-11.8,43.8c-0.5,0.7-0.8,1.6-0.8,2.5l1.6,50.2c0.1,2.3,2,4.2,4.3,4.2h33.5c2.4,0,4.3-1.9,4.3-4.3l0.6-48.7
	C129.3,199.3,128.7,197.5,127.7,196z"/>
<path class="st8" d="M122.4,212.7H93.2c-1.7,0-3,1.3-3,3c0,0.2,0,0.3,0,0.5l4.4,28.7H120l5.4-28.6c0.3-1.6-0.8-3.2-2.4-3.5
	C122.8,212.7,122.6,212.7,122.4,212.7L122.4,212.7z"/>
<path class="st9" d="M270,289.9h-14c-1,0-1.9,0.8-1.9,1.9v6.2c0,1,0.8,1.9,1.9,1.9h2.3v9.2h9.4v-9.2h2.3c1,0,1.9-0.8,1.9-1.9v-6.2
	C271.8,290.7,271,289.9,270,289.9z"/>
<path class="st9" d="M284,346.3c-8.6-12.6-13-27.6-12.6-42.8c0-0.7-0.5-1.4-1.2-1.5v-2.7h-14.8v2.6h-0.2c-0.8,0-1.5,0.7-1.5,1.5v0.1
	c1.2,16.3-2.8,30.9-11.8,43.8c-0.5,0.7-0.8,1.6-0.8,2.5l1.6,50.2c0.1,2.3,2,4.2,4.3,4.2h33.5c2.4,0,4.3-1.9,4.3-4.3l0.6-48.7
	C285.5,349.5,285,347.7,284,346.3z"/>
<path class="st8" d="M278.7,362.9h-29.2c-1.7,0-3,1.3-3,3c0,0.2,0,0.3,0,0.5l4.4,28.7h25.3l5.4-28.6c0.3-1.6-0.8-3.2-2.4-3.5
	C279.1,362.9,278.9,362.9,278.7,362.9L278.7,362.9z"/>
<path class="st9" d="M93.9,502.3h-6.7c-0.5,0-0.9,0.4-0.9,0.9l0,0v2.9c0,0.5,0.4,0.9,0.9,0.9l0,0h1.1v4.4h4.5V507h1.1
	c0.5,0,0.9-0.4,0.9-0.9l0,0v-2.9C94.8,502.7,94.4,502.3,93.9,502.3L93.9,502.3z"/>
<path class="st9" d="M100.6,529c-4.1-6-6.2-13.1-6-20.3c0-0.3-0.2-0.6-0.6-0.7v-1.3h-7v1.2l0,0c-0.4,0-0.7,0.3-0.7,0.7
	c0,0,0,0,0,0.1c0.6,7.4-1.3,14.7-5.6,20.8c-0.2,0.4-0.4,0.8-0.4,1.2l0.8,23.8c0,1.1,0.9,2,2,2H99c1.1,0,2-0.9,2-2l0.3-23.1
	C101.3,530.5,101.1,529.7,100.6,529z"/>
<rect x="83.1" y="537.8" class="st8" width="15.2" height="7.6"/>
<path class="st9" d="M124.9,502.3h-6.7c-0.5,0-0.9,0.4-0.9,0.9l0,0v2.9c0,0.5,0.4,0.9,0.9,0.9l0,0h1.1v4.4h4.5V507h1.1
	c0.5,0,0.9-0.4,0.9-0.9l0,0v-2.9C125.8,502.7,125.4,502.3,124.9,502.3L124.9,502.3z"/>
<path class="st9" d="M131.6,529c-4.1-6-6.2-13.1-6-20.3c0-0.3-0.2-0.6-0.6-0.7v-1.3h-7v1.2l0,0c-0.4,0-0.7,0.3-0.7,0.7
	c0,0,0,0,0,0.1c0.6,7.4-1.3,14.7-5.6,20.8c-0.2,0.4-0.4,0.8-0.4,1.2l0.8,23.8c0,1.1,0.9,2,2,2H130c1.1,0,2-0.9,2-2l0.3-23.1
	C132.3,530.5,132.1,529.7,131.6,529z"/>
<rect x="114.1" y="537.8" class="st8" width="15.2" height="7.6"/>
<path class="st9" d="M155.9,502.3h-6.7c-0.5,0-0.9,0.4-0.9,0.9l0,0v2.9c0,0.5,0.4,0.9,0.9,0.9l0,0h1.1v4.4h4.5V507h1.1
	c0.5,0,0.9-0.4,0.9-0.9l0,0v-2.9C156.8,502.7,156.4,502.3,155.9,502.3L155.9,502.3z"/>
<path class="st9" d="M162.6,529c-4.1-6-6.2-13.1-6-20.3c0-0.3-0.2-0.6-0.6-0.7v-1.3h-7v1.2l0,0c-0.4,0-0.7,0.3-0.7,0.7
	c0,0,0,0,0,0.1c0.6,7.4-1.3,14.7-5.6,20.8c-0.2,0.4-0.4,0.8-0.4,1.2l0.8,23.8c0,1.1,0.9,2,2,2H161c1.1,0,2-0.9,2-2l0.3-23.1
	C163.3,530.5,163.1,529.7,162.6,529z"/>
<rect x="145.1" y="537.8" class="st8" width="15.2" height="7.6"/>
<path class="st9" d="M245.6,444.1h-14c-1,0-1.9,0.8-1.9,1.9l0,0v6.2c0,1,0.8,1.9,1.9,1.9h2.3v9.2h9.4V454h2.3c1,0,1.9-0.8,1.9-1.9
	V446C247.4,445,246.6,444.1,245.6,444.1L245.6,444.1z"/>
<path class="st9" d="M259.6,500.5c-8.6-12.6-13-27.6-12.6-42.8c0-0.7-0.5-1.4-1.2-1.5v-2.7H231v2.6h-0.2c-0.8,0-1.5,0.7-1.5,1.5v0.1
	c1.2,16.3-2.8,30.9-11.8,43.8c-0.5,0.7-0.8,1.6-0.8,2.5l1.6,50.2c0.1,2.3,2,4.2,4.3,4.2h33.5c2.4,0,4.3-1.9,4.3-4.3l0.6-48.7
	C261.2,503.8,260.6,502,259.6,500.5z"/>
<path class="st8" d="M254.3,517.2h-29.2c-1.7,0-3,1.3-3,3c0,0.2,0,0.3,0,0.5l4.4,28.7h25.3l5.4-28.6c0.3-1.6-0.8-3.2-2.4-3.5
	C254.7,517.2,254.5,517.2,254.3,517.2L254.3,517.2z"/>
<path class="st9" d="M253.2,260.5h-83.7c5.9-31.6,4.5-69.8,0-110.9h83.7C248.8,190.6,247.5,228.8,253.2,260.5z"/>
<circle class="st8" cx="211.9" cy="202" r="20.2"/>
<path class="st9" d="M176.6,407.7H92.9c5.9-31.6,4.5-69.8,0-110.9h83.7C172.2,337.8,170.9,376,176.6,407.7z"/>
<circle class="st8" cx="135.3" cy="349.2" r="20.2"/>
<path class="st9" d="M300.6,267.5h-83.7c5.9-31.6,4.5-69.8,0-110.9h83.7C296.2,197.7,294.9,235.9,300.6,267.5z"/>
<ellipse transform="matrix(0.4641 -0.8858 0.8858 0.4641 -46.1611 341.6883)" class="st8" cx="259.3" cy="209" rx="20.2" ry="20.2"/>
<path class="st9" d="M300.6,262.5h-83.7c5.9-31.6,4.5-69.8,0-110.9h83.7C296.2,192.6,294.9,230.8,300.6,262.5z"/>
<ellipse transform="matrix(0.4641 -0.8858 0.8858 0.4641 -41.7323 339.0087)" class="st8" cx="259.3" cy="204" rx="20.2" ry="20.2"/>
<path class="st9" d="M300.6,267.5h-83.7c5.9-31.6,4.5-69.8,0-110.9h83.7C296.2,197.7,294.9,235.9,300.6,267.5z"/>
<ellipse transform="matrix(0.4641 -0.8858 0.8858 0.4641 -46.1611 341.6883)" class="st8" cx="259.3" cy="209" rx="20.2" ry="20.2"/>
<rect x="45.5" y="254.4" class="st9" width="274.3" height="30.2"/>
<rect x="45.5" y="404.6" class="st9" width="274.3" height="30.2"/>
<rect x="45.5" y="554.9" class="st9" width="274.3" height="30.2"/>
<path class="st9" d="M467.3,457.1h-7.5c-0.5,0-1,0.4-1,1v3.3c0,0.5,0.4,1,1,1h1.2v4.9h5v-4.9h1.2c0.5,0,1-0.4,1-1v-3.3
	C468.3,457.5,467.8,457.1,467.3,457.1z"/>
<path class="st10" d="M474.8,487.2c-4.6-6.7-6.9-14.7-6.7-22.9c0-0.4-0.3-0.7-0.6-0.8v-1.4h-7.9v1.4h-0.1c-0.4,0-0.8,0.4-0.8,0.8
	c0,0,0,0,0,0.1c0.7,8.3-1.5,16.6-6.3,23.4c-0.3,0.4-0.4,0.9-0.4,1.4l0.9,26.8c0,1.2,1.1,2.2,2.3,2.2h17.9c1.3,0,2.3-1,2.3-2.3
	l0.3-26C475.6,488.9,475.3,488,474.8,487.2z"/>
<path class="st11" d="M465.7,458.2c0,1.2-1,2.1-2.1,2.1s-2.1-1-2.1-2.1"/>
<rect x="456.2" y="492.4" class="st8" width="15.1" height="10.1"/>
<polygon class="st12" points="322.2,328.5 341,326.8 353,297.7 331.6,285.8 "/>
<path class="st12" d="M494.7,408.2L494.7,408.2c2.2-5.4-0.5-11.6-5.9-13.8c-1.1-0.4-2.2-0.7-3.3-0.7l-29.2-1.7l-4.3,14.3l30,8.2
	C487.2,415.9,492.7,413.2,494.7,408.2z"/>
<path class="st13" d="M463.3,414.7l-0.3-26.8l-64.8-10.3l-49.9-57.2c-5.4-6.2-14.5-7.4-21.3-2.9l0,0c-7.5,5-9.6,15.1-4.7,22.6
	c0.5,0.8,1.1,1.6,1.8,2.3l41.2,50.7L463.3,414.7z"/>
<path class="st14" d="M307.7,716.2h17.1l42.4-191.5l43.9,59.2L436.7,712h16.2l-3.4-137.5l-57.2-146.9h-56.4
	c-15.4,27.9-27.5,56.6-13.7,86.3L307.7,716.2z"/>
<path class="st14" d="M426.2,727.8c-0.7,2.3,0.6,4.8,2.9,5.6c0.2,0.1,0.4,0.1,0.6,0.1l41.8,7.4c3.4,0.6,6.8-1.4,7.8-4.7l0,0
	c1-3.2-0.4-6.6-3.3-8.1c-9.2-4.7-17.1-11.6-23-20c-4.6,4.3-9.7,3.9-15.2,0.7l-5.8,0.7L426.2,727.8z"/>
<path class="st14" d="M299.8,727.8c-0.7,2.3,0.6,4.8,2.9,5.6c0.2,0.1,0.4,0.1,0.6,0.1l41.8,7.4c3.4,0.6,6.8-1.4,7.8-4.7l0,0
	c1-3.2-0.4-6.6-3.3-8.1c-9.2-4.7-17.1-11.6-23-20c-4.6,4.3-9.7,3.9-15.2,0.7l-5.8,0.7L299.8,727.8z"/>
<circle class="st12" cx="353.4" cy="284.5" r="23.9"/>
<path class="st13" d="M332.1,433.9l62.3-1.7l-18.3-57.6c11.4-18.2-0.1-36.5-16.3-54.7l-12.8-8.5l-20.5-1.7l0,0
	c-8.9,9.5-13.7,22.1-13.5,35.1C313.4,372.6,318.3,402.8,332.1,433.9z"/>
<path class="st12" d="M475.3,472.7L475.3,472.7c4.1-4.1,4.1-10.8,0-15c-0.8-0.8-1.7-1.5-2.8-2l-26.1-13.1l-9.6,11.4l24.4,19.4
	C465.4,476.9,471.5,476.5,475.3,472.7z"/>
<path class="st13" d="M443.9,466.4l10.2-24.8l-55.5-35l-23.4-72.3c-2.5-7.8-10.4-12.5-18.4-11.1l0,0c-8.9,1.6-14.8,10.1-13.2,19
	c0.2,1,0.4,1.9,0.8,2.8l17.9,62.8L443.9,466.4z"/>
<path class="st14" d="M314.1,275.1c0,9.3,6,23.7,13.7,29.9c5.1,4.2,11.9,4,14.5-1.7c2.7-5.8,11.9-19.6,28.2-28.2
	c21.7-11.5-7.7-31.2-28.2-28.2C326.9,249.2,314.1,259.5,314.1,275.1z"/>
<circle class="st14" cx="328.6" cy="245.2" r="17.1"/>
<path class="st14" d="M348.3,239.2c0-8.9-6.9-16.3-15.8-17c0.4,0,0.8-0.1,1.3-0.1c9.4,0,17.1,7.6,17.1,17.1s-7.6,17.1-17.1,17.1
	c-0.4,0-0.9,0-1.3-0.1C341.4,255.6,348.3,248.2,348.3,239.2z"/>
<ellipse class="st12" cx="353.8" cy="287.9" rx="3.8" ry="5.1"/>
<ellipse class="st15" cx="472.6" cy="411" rx="18.8" ry="10.2"/>
<polygon class="st15" points="835.9,686.6 570,686.6 513.7,420.4 465.7,420.4 465.7,408.5 523.4,408.5 579.7,674.6 835.9,674.6 "/>
<circle class="st15" cx="609" cy="709.6" r="25.6"/>
<circle class="st15" cx="800.1" cy="709.6" r="25.6"/>
<polygon class="st8" points="531.6,505.7 510.1,559.2 553.8,610.7 "/>
<path class="st15" d="M832.8,676H574.1l-45.6-225.6h347.2c6.8,0,12.3,5.5,12.3,12.3c0,0.6,0,1.3-0.1,1.9l-42.8,201
	C844,671.6,838.8,676,832.8,676z M578,664.5h247.7c4.3,0,7.8-2.9,8.4-6.9l41.4-184.9c0.8-4.4-2.4-8.6-7.2-9.3
	c-0.5-0.1-0.9-0.1-1.4-0.1H535L578,664.5z"/>
<polygon class="st8" points="868.8,556.9 933.2,485.9 893.5,434.7 "/>
<g>
	<polygon class="st15" points="618.7,675.6 588.8,452.8 592.1,452.2 622,675.1 	"/>
	<polygon class="st15" points="784.9,673.9 781.5,673.4 810.5,452.2 813.9,452.8 	"/>
	<rect x="702.3" y="452.5" class="st15" width="3.4" height="222.8"/>
	
		<rect x="703.6" y="349.2" transform="matrix(2.421344e-03 -1 1 2.421344e-03 189.2977 1218.3792)" class="st15" width="3.4" height="330.3"/>
	
		<rect x="557" y="618.6" transform="matrix(1 -6.835703e-03 6.835703e-03 1 -4.2238 4.8137)" class="st15" width="290.2" height="3.4"/>
</g>
</svg>
