<svg id="b0613604-cb64-4fd5-a4c3-be829c572cfc" xmlns="http://www.w3.org/2000/svg" xmlns:xlink="http://www.w3.org/1999/xlink" viewBox="0 0 970.38 759.62"><defs><style>.cls-1{fill:none;}.cls-2{clip-path:url(#clip-path);}.cls-3,.cls-7{isolation:isolate;}.cls-4{fill:#e6e6e6;}.cls-5{fill:#fff;}.cls-6{fill:#6c63ff;}.cls-7{opacity:0.2;}.cls-8{fill:#ffb8b8;}.cls-9{fill:#575a89;}.cls-10{fill:#2f2e41;}.cls-11{fill:#b3b3b3;}</style><clipPath id="clip-path"><path class="cls-1" d="M826.3,680.6H567.6L522,455H869.2a12.29,12.29,0,0,1,12.3,12.3,12.1,12.1,0,0,1-.1,1.9l-42.8,201A12.62,12.62,0,0,1,826.3,680.6Z"/></clipPath></defs><g class="cls-2"><g id="dT1FtI.tif"><image id="Layer_0" data-name="Layer 0" class="cls-3" width="1653" height="1272" transform="translate(545.82 500.39) rotate(-18.69) scale(0.22)" xlink:href="9FC8485B7358B6BC.png"/></g></g><path class="cls-4" d="M365.9,174.4h-4V63.9A63.89,63.89,0,0,0,298,0H64A63.91,63.91,0,0,0,0,63.9H0v606a63.89,63.89,0,0,0,63.9,63.9h234a63.89,63.89,0,0,0,63.9-63.9h0V253h4V174.4Z"/><path class="cls-5" d="M300.5,16.6H270a22.71,22.71,0,0,1-21,31.3H114.9A22.75,22.75,0,0,1,92.2,25.2a23.52,23.52,0,0,1,1.7-8.6H65.4A47.8,47.8,0,0,0,17.6,64.4h0V669.5a47.69,47.69,0,0,0,47.7,47.7H300.4a47.69,47.69,0,0,0,47.7-47.7h0V64.4a47.5,47.5,0,0,0-47.6-47.8Z"/><path class="cls-4" d="M113.7,139.6h-14a1.9,1.9,0,0,0-1.9,1.9v6.2a1.9,1.9,0,0,0,1.9,1.9H102v9.2h9.4v-9.2h2.3a1.9,1.9,0,0,0,1.9-1.9v-6.2A2,2,0,0,0,113.7,139.6Z"/><path class="cls-4" d="M127.7,196a72.59,72.59,0,0,1-12.6-42.8,1.51,1.51,0,0,0-1.2-1.5V149H99.2v2.6H99a1.54,1.54,0,0,0-1.5,1.5v.1c1.2,16.3-2.8,30.9-11.8,43.8a4.38,4.38,0,0,0-.8,2.5l1.6,50.2a4.38,4.38,0,0,0,4.3,4.2h33.5a4.27,4.27,0,0,0,4.3-4.3l.6-48.7A8.29,8.29,0,0,0,127.7,196Z"/><path class="cls-5" d="M122.4,212.7H93.2a3,3,0,0,0-3,3v.5l4.4,28.7H120l5.4-28.6a3,3,0,0,0-2.4-3.5,1.27,1.27,0,0,0-.6-.1Z"/><path class="cls-4" d="M270,289.9H256a1.9,1.9,0,0,0-1.9,1.9V298a1.9,1.9,0,0,0,1.9,1.9h2.3v9.2h9.4v-9.2H270a1.9,1.9,0,0,0,1.9-1.9v-6.2A2,2,0,0,0,270,289.9Z"/><path class="cls-4" d="M284,346.3a72.59,72.59,0,0,1-12.6-42.8,1.51,1.51,0,0,0-1.2-1.5v-2.7H255.4v2.6h-.2a1.54,1.54,0,0,0-1.5,1.5v.1c1.2,16.3-2.8,30.9-11.8,43.8a4.38,4.38,0,0,0-.8,2.5l1.6,50.2a4.38,4.38,0,0,0,4.3,4.2h33.5a4.27,4.27,0,0,0,4.3-4.3l.6-48.7A7.81,7.81,0,0,0,284,346.3Z"/><path class="cls-5" d="M278.7,362.9H249.5a3,3,0,0,0-3,3v.5l4.4,28.7h25.3l5.4-28.6a3,3,0,0,0-2.4-3.5.75.75,0,0,0-.5-.1Z"/><path class="cls-4" d="M93.9,502.3H87.2a.9.9,0,0,0-.9.9h0v2.9a.9.9,0,0,0,.9.9h1.1v4.4h4.5V507h1.1a.9.9,0,0,0,.9-.9h0v-2.9a.9.9,0,0,0-.9-.9Z"/><path class="cls-4" d="M100.6,529a34.3,34.3,0,0,1-6-20.3.73.73,0,0,0-.6-.7v-1.3H87v1.2h0a.68.68,0,0,0-.7.7v.1a31.46,31.46,0,0,1-5.6,20.8,2.84,2.84,0,0,0-.4,1.2l.8,23.8a2,2,0,0,0,2,2H99a2,2,0,0,0,2-2l.3-23.1A4,4,0,0,0,100.6,529Z"/><rect class="cls-5" x="83.1" y="537.8" width="15.2" height="7.6"/><path class="cls-4" d="M124.9,502.3h-6.7a.9.9,0,0,0-.9.9h0v2.9a.9.9,0,0,0,.9.9h1.1v4.4h4.5V507h1.1a.9.9,0,0,0,.9-.9h0v-2.9a.9.9,0,0,0-.9-.9Z"/><path class="cls-4" d="M131.6,529a34.3,34.3,0,0,1-6-20.3.73.73,0,0,0-.6-.7v-1.3h-7v1.2h0a.68.68,0,0,0-.7.7v.1a31.46,31.46,0,0,1-5.6,20.8,2.84,2.84,0,0,0-.4,1.2l.8,23.8a2,2,0,0,0,2,2H130a2,2,0,0,0,2-2l.3-23.1A4,4,0,0,0,131.6,529Z"/><rect class="cls-5" x="114.1" y="537.8" width="15.2" height="7.6"/><path class="cls-4" d="M155.9,502.3h-6.7a.9.9,0,0,0-.9.9h0v2.9a.9.9,0,0,0,.9.9h1.1v4.4h4.5V507h1.1a.9.9,0,0,0,.9-.9h0v-2.9a.9.9,0,0,0-.9-.9Z"/><path class="cls-4" d="M162.6,529a34.3,34.3,0,0,1-6-20.3.73.73,0,0,0-.6-.7v-1.3h-7v1.2h0a.68.68,0,0,0-.7.7v.1a31.46,31.46,0,0,1-5.6,20.8,2.84,2.84,0,0,0-.4,1.2l.8,23.8a2,2,0,0,0,2,2H161a2,2,0,0,0,2-2l.3-23.1A4,4,0,0,0,162.6,529Z"/><rect class="cls-5" x="145.1" y="537.8" width="15.2" height="7.6"/><path class="cls-4" d="M245.6,444.1h-14a1.9,1.9,0,0,0-1.9,1.9h0v6.2a1.9,1.9,0,0,0,1.9,1.9h2.3v9.2h9.4V454h2.3a1.9,1.9,0,0,0,1.9-1.9V446a2,2,0,0,0-1.9-1.9Z"/><path class="cls-4" d="M259.6,500.5A72.59,72.59,0,0,1,247,457.7a1.51,1.51,0,0,0-1.2-1.5v-2.7H231v2.6h-.2a1.54,1.54,0,0,0-1.5,1.5v.1c1.2,16.3-2.8,30.9-11.8,43.8a4.38,4.38,0,0,0-.8,2.5l1.6,50.2a4.38,4.38,0,0,0,4.3,4.2h33.5a4.27,4.27,0,0,0,4.3-4.3l.6-48.7A7.54,7.54,0,0,0,259.6,500.5Z"/><path class="cls-5" d="M254.3,517.2H225.1a3,3,0,0,0-3,3v.5l4.4,28.7h25.3l5.4-28.6a3,3,0,0,0-2.4-3.5.75.75,0,0,0-.5-.1Z"/><path class="cls-4" d="M253.2,260.5H169.5c5.9-31.6,4.5-69.8,0-110.9h83.7C248.8,190.6,247.5,228.8,253.2,260.5Z"/><circle class="cls-5" cx="211.9" cy="202" r="20.2"/><path class="cls-4" d="M176.6,407.7H92.9c5.9-31.6,4.5-69.8,0-110.9h83.7C172.2,337.8,170.9,376,176.6,407.7Z"/><circle class="cls-5" cx="135.3" cy="349.2" r="20.2"/><path class="cls-4" d="M300.6,267.5H216.9c5.9-31.6,4.5-69.8,0-110.9h83.7C296.2,197.7,294.9,235.9,300.6,267.5Z"/><circle class="cls-5" cx="259.31" cy="209" r="20.2" transform="translate(-20.97 388.9) rotate(-71.56)"/><path class="cls-4" d="M300.6,262.5H216.9c5.9-31.6,4.5-69.8,0-110.9h83.7C296.2,192.6,294.9,230.8,300.6,262.5Z"/><circle class="cls-5" cx="259.31" cy="204" r="20.2" transform="translate(-16.23 385.49) rotate(-71.56)"/><path class="cls-4" d="M300.6,267.5H216.9c5.9-31.6,4.5-69.8,0-110.9h83.7C296.2,197.7,294.9,235.9,300.6,267.5Z"/><circle class="cls-5" cx="259.31" cy="209" r="20.2" transform="translate(-20.97 388.9) rotate(-71.56)"/><rect class="cls-4" x="45.5" y="254.4" width="274.3" height="30.2"/><rect class="cls-4" x="45.5" y="404.6" width="274.3" height="30.2"/><rect class="cls-4" x="45.5" y="554.9" width="274.3" height="30.2"/><path class="cls-4" d="M467.3,457.1h-7.5a1,1,0,0,0-1,1v3.3a1,1,0,0,0,1,1H461v4.9h5v-4.9h1.2a1,1,0,0,0,1-1v-3.3A.87.87,0,0,0,467.3,457.1Z"/><path class="cls-6" d="M474.8,487.2a38.68,38.68,0,0,1-6.7-22.9.87.87,0,0,0-.6-.8v-1.4h-7.9v1.4h-.1a.86.86,0,0,0-.8.8v.1a35.41,35.41,0,0,1-6.3,23.4,2.3,2.3,0,0,0-.4,1.4l.9,26.8a2.31,2.31,0,0,0,2.3,2.2h17.9a2.26,2.26,0,0,0,2.3-2.3l.3-26A6.18,6.18,0,0,0,474.8,487.2Z"/><path class="cls-7" d="M465.7,458.2a2.11,2.11,0,0,1-2.1,2.1,2.18,2.18,0,0,1-2.1-2.1"/><rect class="cls-5" x="456.2" y="492.4" width="15.1" height="10.1"/><polygon class="cls-8" points="322.2 328.5 341 326.8 353 297.7 331.6 285.8 322.2 328.5"/><path class="cls-8" d="M494.7,408.2h0a10.65,10.65,0,0,0-5.9-13.8,9.76,9.76,0,0,0-3.3-.7L456.3,392,452,406.3l30,8.2A10.7,10.7,0,0,0,494.7,408.2Z"/><path class="cls-9" d="M463.3,414.7l-.3-26.8-64.8-10.3-49.9-57.2a16.3,16.3,0,0,0-21.3-2.9h0a16.41,16.41,0,0,0-4.7,22.6,13,13,0,0,0,1.8,2.3l41.2,50.7Z"/><path class="cls-10" d="M307.7,716.2h17.1l42.4-191.5,43.9,59.2L436.7,712h16.2l-3.4-137.5L392.3,427.6H335.9c-15.4,27.9-27.5,56.6-13.7,86.3Z"/><path class="cls-10" d="M426.2,727.8a4.58,4.58,0,0,0,2.9,5.6,1.27,1.27,0,0,0,.6.1l41.8,7.4a6.9,6.9,0,0,0,7.8-4.7h0a6.79,6.79,0,0,0-3.3-8.1,63.39,63.39,0,0,1-23-20c-4.6,4.3-9.7,3.9-15.2.7l-5.8.7Z"/><path class="cls-10" d="M299.8,727.8a4.58,4.58,0,0,0,2.9,5.6,1.27,1.27,0,0,0,.6.1l41.8,7.4a6.9,6.9,0,0,0,7.8-4.7h0a6.79,6.79,0,0,0-3.3-8.1,63.39,63.39,0,0,1-23-20c-4.6,4.3-9.7,3.9-15.2.7l-5.8.7Z"/><circle class="cls-8" cx="353.4" cy="284.5" r="23.9"/><path class="cls-9" d="M332.1,433.9l62.3-1.7-18.3-57.6c11.4-18.2-.1-36.5-16.3-54.7L347,311.4l-20.5-1.7h0A50.18,50.18,0,0,0,313,344.8C313.4,372.6,318.3,402.8,332.1,433.9Z"/><path class="cls-8" d="M475.3,472.7h0a10.68,10.68,0,0,0,0-15,9.51,9.51,0,0,0-2.8-2l-26.1-13.1L436.8,454l24.4,19.4A10.46,10.46,0,0,0,475.3,472.7Z"/><path class="cls-9" d="M443.9,466.4l10.2-24.8-55.5-35-23.4-72.3a16.37,16.37,0,0,0-18.4-11.1h0a16.35,16.35,0,0,0-13.2,19,12.9,12.9,0,0,0,.8,2.8l17.9,62.8Z"/><path class="cls-10" d="M314.1,275.1c0,9.3,6,23.7,13.7,29.9,5.1,4.2,11.9,4,14.5-1.7s11.9-19.6,28.2-28.2c21.7-11.5-7.7-31.2-28.2-28.2C326.9,249.2,314.1,259.5,314.1,275.1Z"/><circle class="cls-10" cx="328.6" cy="245.2" r="17.1"/><path class="cls-10" d="M348.3,239.2a17.11,17.11,0,0,0-15.8-17c.4,0,.8-.1,1.3-.1a17.1,17.1,0,0,1,0,34.2,5.7,5.7,0,0,1-1.3-.1A17,17,0,0,0,348.3,239.2Z"/><ellipse class="cls-8" cx="353.8" cy="287.9" rx="3.8" ry="5.1"/><ellipse class="cls-11" cx="472.6" cy="411" rx="18.8" ry="10.2"/><polygon class="cls-11" points="835.9 686.6 570 686.6 513.7 420.4 465.7 420.4 465.7 408.5 523.4 408.5 579.7 674.6 835.9 674.6 835.9 686.6"/><circle class="cls-11" cx="609" cy="709.6" r="25.6"/><circle class="cls-11" cx="800.1" cy="709.6" r="25.6"/><path class="cls-11" d="M831.1,681H572.4L526.8,455.4H874a12.29,12.29,0,0,1,12.3,12.3,12.1,12.1,0,0,1-.1,1.9l-42.8,201A12.62,12.62,0,0,1,831.1,681Zm-255.9-3.5H831.1a8.74,8.74,0,0,0,8.7-7.5l42.8-201a8.76,8.76,0,0,0-7.4-10.1,6.6,6.6,0,0,0-1.4-.1h-343Z"/></svg>