<svg id="Khushi_Minerals_Logo" data-name="Khushi Minerals Logo" xmlns="http://www.w3.org/2000/svg" viewBox="0 0 133 50"><defs><style>.cls-1{fill:#81b441;}.cls-2{fill:#60893c;}.cls-3{fill:#fff;}</style></defs><g id="Khushi_Minerals_Logo_Main_Group" data-name="Khushi Minerals Logo Main Group"><g id="Khushi_Minerals_Logo_Icon" data-name="Khushi Minerals Logo Icon"><polygon class="cls-1" points="10.27 49.2 29.23 49.2 21.94 41.8 10.27 41.8 10.27 49.2"/><polygon class="cls-1" points="10.27 0.8 29.23 0.8 21.94 8.2 10.27 8.2 10.27 0.8"/><polygon class="cls-2" points="19.73 8.2 28.72 0.8 21.7 8.2 19.73 8.2"/><polygon class="cls-2" points="19.73 41.8 28.38 49.2 21.7 41.8 19.73 41.8"/><path class="cls-1" d="M38.75,49.2,27.81,24.31,38.75.8,20.32,24.31Z"/><path class="cls-1" d="M1,39.93V10.07h7.4V21.13L28.72.8h10L15.17,24.31c1.84,1.93,3.77,4,5.77,6.08s4,4.27,6,6.44S31,41.12,33,43.22l5.71,6H28.38l-20-21.3v12Z"/><rect class="cls-1" x="0.99" y="0.8" width="7.4" height="7.4"/><rect class="cls-1" x="0.99" y="41.8" width="7.4" height="7.4"/></g><g id="Khushi"><path class="cls-3" d="M52.05,22.11l-3.88-5.56-1,1.24v4.32H43.37V7.34h3.81v6.07l4.54-6.07h4.69l-5.73,6.91,6,7.86Z"/><path class="cls-3" d="M69,22.11V16.18H62.9v5.93H59.1V7.34h3.8v5.52H69V7.34h3.81V22.11Z"/><path class="cls-3" d="M76.75,16.13V7.34h3.88V16a3.11,3.11,0,0,0,6.22,0V7.34H90.7v8.77c0,3.68-2.23,6.27-7,6.27S76.75,19.77,76.75,16.13Z"/><path class="cls-3" d="M93.54,20l2-2.86a6.68,6.68,0,0,0,4.72,1.95c1.31,0,2.11-.51,2.11-1.21,0-2-8.38-.4-8.38-6.1,0-2.48,2.11-4.69,5.9-4.69a9,9,0,0,1,6,2.06l-2.08,2.72a7,7,0,0,0-4.32-1.53c-1.11,0-1.6.45-1.6,1.07,0,1.88,8.35.51,8.35,6,0,3-2.19,4.94-6.15,4.94A9,9,0,0,1,93.54,20Z"/><path class="cls-3" d="M119.21,22.11V16.18h-6.13v5.93h-3.81V7.34h3.81v5.52h6.13V7.34H123V22.11Z"/><path class="cls-3" d="M126.92,22.11V7.34h3.81V22.11Z"/></g><g id="Minerals"><path class="cls-3" d="M54.5,42.65V31l-4.78,11.7h-.43L44.49,31v11.7H43.37V29.54H45l4.46,10.9L54,29.54h1.69V42.65Z"/><path class="cls-3" d="M58.9,42.65V29.54H60V42.65Z"/><path class="cls-3" d="M72.65,42.65,64.4,31.38V42.65H63.28V29.54h1.14l8.21,11.1V29.54h1.12V42.65Z"/><path class="cls-3" d="M77,42.65V29.54h8.31v1H78.14v4.85h7v1h-7v5.19h7.19v1Z"/><path class="cls-3" d="M95.78,42.65l-3.67-5.43H89.22v5.43H88.1V29.54H93a3.71,3.71,0,0,1,4,3.83,3.6,3.6,0,0,1-3.63,3.77l3.79,5.51Zm0-9.28a2.72,2.72,0,0,0-2.9-2.81H89.22V36.2H92.9A2.73,2.73,0,0,0,95.8,33.37Z"/><path class="cls-3" d="M109.27,42.65,108,39.42H101l-1.3,3.23H98.44l5.36-13.11h1.4l5.36,13.11Zm-4.76-11.91L101.4,38.4h6.2Z"/><path class="cls-3" d="M112.21,42.65V29.54h1.14V41.62h6.35v1Z"/><path class="cls-3" d="M121.27,40.8,122,40a5.39,5.39,0,0,0,4.11,1.91c2.67,0,3.44-1.49,3.44-2.61,0-3.86-7.86-1.85-7.86-6.43,0-2.14,1.92-3.5,4.3-3.5a5.62,5.62,0,0,1,4.44,1.85l-.75.82a4.69,4.69,0,0,0-3.75-1.65c-1.75,0-3.07,1-3.07,2.42,0,3.36,7.87,1.51,7.87,6.41,0,1.69-1.12,3.71-4.66,3.71A6.09,6.09,0,0,1,121.27,40.8Z"/></g><g id="Separator_Line" data-name="Separator Line"><polygon class="cls-3" points="42.09 25.89 53.33 25.78 64.57 25.72 87.05 25.67 109.53 25.72 120.77 25.78 132.01 25.89 120.77 26.01 109.53 26.07 87.05 26.12 64.57 26.07 53.33 26 42.09 25.89"/></g></g></svg>