<svg id="Layer_1" data-name="Layer 1" xmlns="http://www.w3.org/2000/svg" xmlns:xlink="http://www.w3.org/1999/xlink" viewBox="0 0 400 100"><defs><style>.cls-1{fill:url(#linear-gradient);}.cls-2{fill:#fff;}.cls-3{fill:url(#linear-gradient-2);}.cls-4{fill:url(#linear-gradient-3);}.cls-5{fill:url(#linear-gradient-4);}.cls-6{fill:url(#linear-gradient-5);}.cls-7{fill:url(#linear-gradient-6);}.cls-8{fill:url(#linear-gradient-7);}.cls-9{fill:url(#linear-gradient-8);}</style><linearGradient id="linear-gradient" x1="6.31" y1="50" x2="132.07" y2="50" gradientUnits="userSpaceOnUse"><stop offset="0" stop-color="#26a9e0"/><stop offset="1" stop-color="#90278e"/></linearGradient><linearGradient id="linear-gradient-2" x1="137.62" y1="48.89" x2="393.79" y2="55.16" gradientUnits="userSpaceOnUse"><stop offset="0" stop-color="#26a7df"/><stop offset="1" stop-color="#8f288c"/></linearGradient><linearGradient id="linear-gradient-3" x1="137.64" y1="47.86" x2="393.82" y2="54.13" xlink:href="#linear-gradient-2"/><linearGradient id="linear-gradient-4" x1="137.66" y1="47.2" x2="393.84" y2="53.47" xlink:href="#linear-gradient-2"/><linearGradient id="linear-gradient-5" x1="137.68" y1="46.32" x2="393.86" y2="52.59" xlink:href="#linear-gradient-2"/><linearGradient id="linear-gradient-6" x1="137.56" y1="51.28" x2="393.74" y2="57.55" xlink:href="#linear-gradient-2"/><linearGradient id="linear-gradient-7" x1="137.57" y1="50.67" x2="393.75" y2="56.93" xlink:href="#linear-gradient-2"/><linearGradient id="linear-gradient-8" x1="137.69" y1="45.86" x2="393.87" y2="52.13" xlink:href="#linear-gradient-2"/></defs><path id="Rectangle" class="cls-1" d="M131.7,59.07q-1-3.63-2.12-7.28l-1.26-4.32L117.17,9.11a8.84,8.84,0,0,0-11.34-6.2L94.12,6.32,77.81,11.07Q61.51,15.83,45.2,20.58l-20,5.78-12,3.47h0a9.47,9.47,0,0,0-5.9,4.46,9.6,9.6,0,0,0-.57,7.39l3,10.36q1.89,6.59,3.81,13.18c2.54,8.73,5,17.26,7.54,25.71a9.52,9.52,0,0,0,1.78,3.32c2.52,3,5.91,3.93,10.09,2.72h0c11.31-3.32,22.83-6.67,34-9.9l11.84-3.44,7.47-2.17,19.9-5.79,5.15-1.5c4.78-1.38,9.72-2.81,14.56-4.28A8.66,8.66,0,0,0,131.7,59.07Z"/><g id="Design_Line" data-name="Design Line"><path class="cls-2" d="M97.8,39.65c-3.75,1.13-7.5,2.27-11.26,3.39A1.81,1.81,0,0,1,84,41.77c-.19-1,.35-1.76,1.53-2.13,2.62-.81,5.24-1.58,7.85-2.37q7.18-2.18,14.36-4.33a4.62,4.62,0,0,1,1.26-.25,1.58,1.58,0,0,1,1.68,1.24,1.62,1.62,0,0,1-.75,2,3.88,3.88,0,0,1-1,.4Z"/><path class="cls-2" d="M105.47,50.42c-2.79.84-5.57,1.69-8.35,2.51a1.61,1.61,0,0,1-2-1.42,1.51,1.51,0,0,1,1-2c1.94-.61,3.88-1.18,5.82-1.77,3.55-1.07,7.1-2.15,10.65-3.21a2.82,2.82,0,0,1,1-.15c.65,0,1.13.51,1.36,1.33a1.6,1.6,0,0,1-.43,1.86,2.29,2.29,0,0,1-.73.32Z"/><path class="cls-2" d="M105,40.25l4.74-1.43a1.69,1.69,0,0,1,2.28,1,1.73,1.73,0,0,1-1.2,2.29q-4.94,1.55-9.89,3a1.75,1.75,0,0,1-2.23-1.17A1.7,1.7,0,0,1,100,41.78C101.64,41.25,103.33,40.76,105,40.25Z"/></g><g id="Cn_Logo" data-name="Cn Logo"><polygon class="cls-2" points="73.37 30.1 68.27 31.59 75.06 54.19 53.36 44.62 58.73 63.08 53 64.74 54.89 71.26 63.6 68.73 63.6 68.73 65.72 68.11 61.63 54.03 83.29 63.47 73.37 30.1"/><path class="cls-2" d="M43.69,67.48a10.27,10.27,0,0,1-11.18-7.59c-1.65-5.65,1.27-11.41,6.61-13l.15,0v0l12.22-3.55L49.65,37,36.49,40.83v0a17.17,17.17,0,0,0,9.07,33l0,.08,6.91-2-1.9-6.52-6.91,2Z"/></g><path class="cls-3" d="M202.79,52.26A20.13,20.13,0,0,1,182.87,70a20,20,0,1,1,17-30.61l-6.28,4.46c-2.8-4.15-6.74-6.17-10.74-6.17-6.48,0-11.62,5.5-11.62,12.35s5.14,12.24,11.62,12.24a12,12,0,0,0,11.78-10Z"/><path class="cls-4" d="M230.45,64.14H211.72l-2.49,5.19h-8.3L221.32,30l20.44,39.33H233ZM215.2,56.87h11.72l-5.91-12Z"/><path class="cls-5" d="M253.18,62.63v6.7h-8.05V30.67h13.44c9.08,0,16,6.8,16,15.2,0,7-3.32,12-8.71,14.53l8.35,8.93H263.55l-6.33-6.7Zm3.32-7.26c6.38,0,9.85-3.11,9.85-8.87,0-4.72-2.8-8.56-8.3-8.56h-4.87V55.37Z"/><path class="cls-6" d="M295.82,30.67C307,30.67,316.06,39,316.06,50S307,69.33,295.88,69.33H280.16V30.67Zm.06,31.39A11.77,11.77,0,0,0,307.81,50a11.71,11.71,0,0,0-12-12H288.2V62.06Z"/><path class="cls-7" d="M347.14,69.33h-7.32V56.25c0-4.2-2.44-6.33-5.44-6.33a6,6,0,0,0-6.28,6.33V69.33h-7.37V43.13h7.37v1.81c1.45-1.66,4.51-2.39,6.9-2.39,7.16,0,12.14,6.13,12.14,13.7Z"/><path class="cls-8" d="M376.61,64.45c-2.23,3.32-6.85,5.45-11.52,5.45-7.88,0-14.22-6.18-14.22-13.65a13.64,13.64,0,0,1,13.6-13.7,13.81,13.81,0,0,1,13.07,9.24L362.91,62.27a6,6,0,0,0,2.18.31,6.48,6.48,0,0,0,5.65-2.65ZM358.55,58l9.55-6.79a5.91,5.91,0,0,0-3.63-1.25,6.45,6.45,0,0,0-5.92,8Z"/><path class="cls-9" d="M390.77,49.92v8.35c0,3,2.7,4.31,6.07,4.31V69.9c-7.83,0-13.43-4.62-13.43-11.42V49.92h-4V43.13h4V39.7l7.36-5.34v8.77H397v6.79Z"/></svg>